<?xml version="1.0" encoding="UTF-8" standalone="no"?>
<svg
   xmlns:dc="http://purl.org/dc/elements/1.1/"
   xmlns:cc="http://creativecommons.org/ns#"
   xmlns:rdf="http://www.w3.org/1999/02/22-rdf-syntax-ns#"
   xmlns:svg="http://www.w3.org/2000/svg"
   xmlns="http://www.w3.org/2000/svg"
   viewBox="0 0 377.95334 377.95334"
   height="377.95334"
   width="377.95334"
   xml:space="preserve"
   id="svg2"
   version="1.1"><metadata
     id="metadata8"><rdf:RDF><cc:Work
         rdf:about=""><dc:format>image/svg+xml</dc:format><dc:type
           rdf:resource="http://purl.org/dc/dcmitype/StillImage" /></cc:Work></rdf:RDF></metadata><defs
     id="defs6"><clipPath
       id="clipPath38"
       clipPathUnits="userSpaceOnUse"><path
         id="path36"
         d="M 0,283.465 H 283.465 V 0 H 0 Z" /></clipPath></defs><g
     transform="matrix(1.3333333,0,0,-1.3333333,0,377.95333)"
     id="g10"><g
       transform="translate(53.436,183.9318)"
       id="g12"><path
         id="path14"
         style="fill:#385934;fill-opacity:1;fill-rule:evenodd;stroke:none"
         d="m 0,0 -38.835,-53.22 v -8.73 L 0,-22.941 Z" /></g><g
       transform="translate(53.436,160.9908)"
       id="g16"><path
         id="path18"
         style="fill:#528444;fill-opacity:1;fill-rule:evenodd;stroke:none"
         d="M 0,0 31.203,-30.512 V -45.885 L 0,-30.587 Z" /></g><g
       transform="translate(53.436,130.4031)"
       id="g20"><path
         id="path22"
         style="fill:#7fb757;fill-opacity:1;fill-rule:evenodd;stroke:none"
         d="m 0,0 -38.835,-19.537 v -4.501 L 0,-12.145 Z" /></g><g
       transform="translate(53.436,118.2366)"
       id="g24"><path
         id="path26"
         style="fill:#385934;fill-opacity:1;fill-rule:evenodd;stroke:none"
         d="m 0,0 31.203,-9.246 v -9.401 L 0,-18.704 Z" /></g><g
       transform="translate(110.8959,117.3811)"
       id="g28"><path
         id="path30"
         style="fill:#7fb757;fill-opacity:1;fill-rule:evenodd;stroke:none"
         d="M 0,0 H -8.411 L 7.713,24.641 39.3,0 H 30.843 L 7.783,16.92 Z" /></g><g
       id="g32"><g
         clip-path="url(#clipPath38)"
         id="g34"><g
           transform="translate(240.3233,117.3811)"
           id="g40"><path
             id="path42"
             style="fill:#303e97;fill-opacity:1;fill-rule:nonzero;stroke:none"
             d="M 0,0 V 49.297 H 28.258 V 42.472 H 7.998 V 30.199 h 20.26 V 23.166 H 7.998 L 7.998,0 Z m -36.686,0 v 49.297 h 7.997 V 7.17 h 18.518 V 0 Z m -10.292,37.301 c -2.264,1.93 -4.665,3.378 -7.182,4.343 -2.528,0.965 -5.181,1.448 -7.963,1.448 -5.378,0 -9.756,-1.724 -13.134,-5.183 -3.38,-3.459 -5.068,-7.929 -5.068,-13.432 0,-5.31 1.644,-9.699 4.93,-13.159 3.286,-3.458 7.434,-5.182 12.433,-5.182 2.918,0 5.688,0.517 8.331,1.551 2.632,1.034 5.159,2.586 7.585,4.678 V 3.309 c -2.149,-1.551 -4.494,-2.712 -7.034,-3.471 -2.539,-0.769 -5.286,-1.148 -8.239,-1.148 -3.769,0 -7.251,0.62 -10.446,1.85 -3.205,1.241 -6.009,3.056 -8.434,5.458 -2.401,2.356 -4.241,5.138 -5.538,8.332 -1.288,3.195 -1.93,6.607 -1.93,10.214 0,3.62 0.642,7.01 1.93,10.182 1.297,3.183 3.159,5.964 5.607,8.366 2.449,2.424 5.252,4.262 8.412,5.504 3.16,1.252 6.584,1.872 10.262,1.872 2.895,0 5.654,-0.424 8.274,-1.263 2.631,-0.85 5.17,-2.126 7.642,-3.838 z M -129.427,0 h -8.411 L -113.972,51.228 -90.127,0 h -8.458 l -15.317,33.773 z m -3.096,-17.243 0.002,1.299 -3.606,0.006 0.002,1.396 3.13,-0.005 0.003,1.299 -3.131,0.005 0.003,1.347 3.558,-0.005 0.002,1.298 -5.011,0.008 -0.01,-6.64 z m 12.685,-0.02 0.01,6.641 -1.575,0.002 -1.749,-2.805 -1.742,2.81 -1.575,0.003 -0.011,-6.64 1.433,-0.002 0.007,4.308 1.846,-2.813 h 0.037 l 1.874,2.834 -0.007,-4.336 z m 11.601,4.309 v 0.019 c 0,0.342 -0.058,0.652 -0.174,0.934 -0.118,0.282 -0.284,0.525 -0.501,0.727 -0.218,0.202 -0.484,0.361 -0.796,0.472 -0.315,0.11 -0.669,0.165 -1.071,0.166 l -2.713,0.003 -0.01,-6.639 1.462,-0.003 0.004,1.993 1.108,-0.002 c 0.374,-10e-4 0.726,0.049 1.052,0.146 0.326,0.096 0.608,0.245 0.853,0.44 0.246,0.196 0.436,0.438 0.577,0.729 0.137,0.289 0.208,0.629 0.209,1.015 m -1.482,-0.026 c -0.001,-0.286 -0.101,-0.525 -0.303,-0.715 -0.202,-0.193 -0.486,-0.29 -0.854,-0.289 l -1.158,10e-4 0.004,2.03 1.126,-0.001 c 0.369,-10e-4 0.656,-0.087 0.868,-0.258 0.213,-0.169 0.317,-0.418 0.317,-0.75 z m 13.041,-4.319 -1.62,2.375 c 0.425,0.158 0.769,0.405 1.033,0.744 0.262,0.338 0.395,0.776 0.396,1.311 v 0.022 c 0,0.688 -0.22,1.227 -0.657,1.612 -0.44,0.385 -1.057,0.58 -1.847,0.58 l -3.036,0.005 -0.011,-6.64 1.463,-0.002 0.003,2.125 1.146,-0.002 1.422,-2.127 z m -1.674,4.357 c 0,-0.282 -0.097,-0.511 -0.288,-0.68 -0.194,-0.172 -0.472,-0.257 -0.831,-0.257 l -1.481,0.002 0.004,1.907 1.45,-10e-4 c 0.36,-10e-4 0.641,-0.08 0.843,-0.239 0.202,-0.159 0.303,-0.396 0.303,-0.714 z m 12.595,-4.374 0.002,1.299 -3.606,0.006 0.002,1.397 3.13,-0.006 0.003,1.298 -3.131,0.007 0.003,1.346 3.557,-0.005 0.002,1.299 -5.01,0.007 -0.011,-6.64 z m 11.101,-0.016 0.002,1.298 -3.606,0.006 0.002,1.396 3.13,-0.004 0.002,1.299 -3.13,0.003 0.003,1.348 3.557,-0.005 0.002,1.299 -5.01,0.008 -0.01,-6.64 z m 11.946,-0.02 0.01,6.641 -1.443,0.002 -0.007,-4.087 -3.105,4.092 -1.347,0.002 -0.011,-6.64 1.445,-0.002 0.006,4.222 3.207,-4.227 z m 12.461,3.302 0.001,0.019 c 0,0.468 -0.085,0.905 -0.254,1.305 -0.171,0.401 -0.412,0.751 -0.725,1.05 -0.313,0.297 -0.684,0.529 -1.116,0.7 -0.434,0.165 -0.913,0.25 -1.432,0.25 l -2.589,0.005 -0.01,-6.64 2.589,-0.005 c 0.519,0 0.998,0.085 1.431,0.257 0.434,0.169 0.805,0.402 1.12,0.699 0.312,0.297 0.555,0.646 0.727,1.052 0.171,0.406 0.258,0.84 0.258,1.308 m -1.528,-0.017 c 0,-0.298 -0.048,-0.565 -0.149,-0.805 -0.1,-0.239 -0.234,-0.449 -0.409,-0.626 -0.176,-0.177 -0.385,-0.314 -0.63,-0.408 -0.248,-0.094 -0.519,-0.142 -0.818,-0.142 l -1.126,0.002 0.005,4.005 1.127,-0.002 c 0.299,0 0.57,-0.05 0.817,-0.147 0.246,-0.099 0.455,-0.237 0.629,-0.414 0.175,-0.179 0.309,-0.391 0.408,-0.636 0.1,-0.247 0.147,-0.517 0.146,-0.808 z m 9.093,-3.315 0.01,6.64 -1.46,0.002 -0.01,-6.641 z m 13.046,-0.02 0.01,6.639 -1.576,0.003 -1.75,-2.805 -1.74,2.81 -1.577,0.003 -0.01,-6.641 1.434,-0.002 0.006,4.309 1.846,-2.814 h 0.038 l 1.873,2.835 -0.007,-4.335 z m 11.394,-0.018 0.001,1.298 -3.606,0.006 0.003,1.397 3.13,-0.006 0.002,1.299 -3.13,0.005 0.001,1.347 3.559,-0.006 0.002,1.299 -5.011,0.008 -0.01,-6.64 z m 11.946,-0.018 0.01,6.639 -1.444,0.003 -0.007,-4.088 -3.105,4.092 -1.347,0.002 -0.01,-6.64 1.444,-0.001 0.006,4.222 3.207,-4.228 z m 11.372,5.277 0.002,1.344 -5.502,0.009 -0.002,-1.345 2.019,-0.003 -0.008,-5.296 1.463,-10e-4 0.009,5.295 z m 12.625,-1.994 v 0.019 c 10e-4,0.473 -0.084,0.918 -0.258,1.335 -0.174,0.414 -0.416,0.774 -0.73,1.082 -0.314,0.306 -0.685,0.552 -1.112,0.733 -0.43,0.181 -0.901,0.27 -1.415,0.271 -0.513,10e-4 -0.984,-0.088 -1.417,-0.266 -0.434,-0.18 -0.808,-0.427 -1.121,-0.742 -0.313,-0.314 -0.559,-0.676 -0.737,-1.09 -0.179,-0.413 -0.268,-0.858 -0.269,-1.331 v -0.019 c -0.001,-0.476 0.086,-0.919 0.259,-1.334 0.174,-0.414 0.415,-0.776 0.73,-1.082 0.311,-0.307 0.682,-0.55 1.112,-0.732 0.43,-0.179 0.9,-0.271 1.415,-0.272 0.513,0 0.987,0.09 1.42,0.269 0.433,0.179 0.805,0.424 1.119,0.738 0.312,0.311 0.558,0.674 0.736,1.088 0.179,0.414 0.267,0.858 0.268,1.333 m -1.527,-0.016 c 0,-0.285 -0.05,-0.551 -0.149,-0.801 -0.1,-0.25 -0.235,-0.471 -0.411,-0.659 -0.174,-0.19 -0.384,-0.338 -0.629,-0.445 -0.248,-0.107 -0.517,-0.161 -0.808,-0.16 -0.298,0 -0.566,0.058 -0.811,0.167 -0.245,0.112 -0.454,0.26 -0.635,0.45 -0.179,0.193 -0.318,0.413 -0.414,0.666 -0.1,0.253 -0.148,0.521 -0.148,0.806 v 0.019 c 10e-4,0.285 0.051,0.552 0.15,0.802 0.097,0.25 0.232,0.468 0.407,0.658 0.176,0.191 0.383,0.339 0.627,0.445 0.245,0.108 0.515,0.161 0.813,0.161 0.29,-0.001 0.559,-0.059 0.806,-0.168 0.245,-0.111 0.46,-0.262 0.64,-0.45 0.18,-0.192 0.317,-0.412 0.415,-0.664 0.099,-0.257 0.148,-0.525 0.147,-0.808 z m 12.368,-1.358 v 0.019 c 0,0.293 -0.045,0.543 -0.136,0.749 -0.091,0.208 -0.225,0.391 -0.405,0.547 -0.179,0.154 -0.403,0.289 -0.664,0.4 -0.263,0.11 -0.562,0.21 -0.897,0.299 -0.285,0.076 -0.522,0.144 -0.708,0.201 -0.185,0.055 -0.332,0.118 -0.441,0.183 -0.106,0.062 -0.178,0.135 -0.219,0.213 -0.041,0.078 -0.062,0.172 -0.062,0.279 v 0.02 c 0.001,0.163 0.071,0.301 0.214,0.41 0.141,0.11 0.355,0.166 0.64,0.166 0.286,0 0.569,-0.06 0.854,-0.175 0.283,-0.12 0.573,-0.279 0.872,-0.481 l 0.759,1.099 c -0.34,0.272 -0.715,0.48 -1.119,0.628 -0.41,0.146 -0.859,0.219 -1.345,0.22 -0.343,0.001 -0.654,-0.047 -0.94,-0.141 -0.284,-0.093 -0.53,-0.231 -0.734,-0.407 -0.208,-0.177 -0.366,-0.388 -0.48,-0.629 -0.116,-0.245 -0.172,-0.519 -0.173,-0.823 v -0.019 c -0.001,-0.328 0.05,-0.602 0.154,-0.823 0.105,-0.223 0.25,-0.409 0.441,-0.557 0.19,-0.148 0.422,-0.275 0.694,-0.375 0.27,-0.103 0.571,-0.195 0.908,-0.278 0.277,-0.068 0.502,-0.136 0.678,-0.198 0.174,-0.065 0.308,-0.129 0.407,-0.191 0.1,-0.065 0.166,-0.133 0.202,-0.205 0.035,-0.072 0.052,-0.159 0.051,-0.253 v -0.019 c 0,-0.196 -0.084,-0.347 -0.251,-0.457 -0.17,-0.11 -0.407,-0.166 -0.71,-0.165 -0.38,0 -0.727,0.074 -1.046,0.219 -0.32,0.146 -0.632,0.343 -0.935,0.588 l -0.865,-1.031 c 0.397,-0.361 0.842,-0.628 1.327,-0.803 0.487,-0.176 0.984,-0.264 1.49,-0.264 0.36,-0.001 0.689,0.045 0.987,0.136 0.296,0.09 0.551,0.222 0.767,0.397 0.215,0.174 0.382,0.389 0.504,0.645 0.121,0.254 0.18,0.547 0.181,0.876" /></g></g></g></g></svg>