<?xml version="1.0" encoding="UTF-8" standalone="no"?>
<!-- Created with Inkscape (http://www.inkscape.org/) -->

<svg
   version="1.1"
   id="svg1"
   width="1122.52"
   height="676.69598"
   viewBox="0 0 1122.52 676.69598"
   sodipodi:docname="d3dff577-60f4-431d-a3a9-0e195466f519.pdf"
   xmlns:inkscape="http://www.inkscape.org/namespaces/inkscape"
   xmlns:sodipodi="http://sodipodi.sourceforge.net/DTD/sodipodi-0.dtd"
   xmlns="http://www.w3.org/2000/svg"
   xmlns:svg="http://www.w3.org/2000/svg">
  <defs
     id="defs1">
    <clipPath
       clipPathUnits="userSpaceOnUse"
       id="clipPath3">
      <path
         d="M 0,507.522 H 841.89 V 0 H 0 Z"
         transform="translate(-103.8888,-356.92101)"
         id="path3" />
    </clipPath>
    <clipPath
       clipPathUnits="userSpaceOnUse"
       id="clipPath5">
      <path
         d="M 0,507.522 H 841.89 V 0 H 0 Z"
         transform="translate(-147.765,-353.49671)"
         id="path5" />
    </clipPath>
    <clipPath
       clipPathUnits="userSpaceOnUse"
       id="clipPath7">
      <path
         d="M 0,507.522 H 841.89 V 0 H 0 Z"
         transform="translate(-174.06051,-362.99881)"
         id="path7" />
    </clipPath>
    <clipPath
       clipPathUnits="userSpaceOnUse"
       id="clipPath9">
      <path
         d="M 0,507.522 H 841.89 V 0 H 0 Z"
         transform="translate(-221.9845,-359.79091)"
         id="path9" />
    </clipPath>
    <clipPath
       clipPathUnits="userSpaceOnUse"
       id="clipPath11">
      <path
         d="M 0,507.522 H 841.89 V 0 H 0 Z"
         transform="translate(-249.3424,-362.99881)"
         id="path11" />
    </clipPath>
    <clipPath
       clipPathUnits="userSpaceOnUse"
       id="clipPath13">
      <path
         d="M 0,507.522 H 841.89 V 0 H 0 Z"
         transform="translate(-280.46671,-353.49671)"
         id="path13" />
    </clipPath>
    <clipPath
       clipPathUnits="userSpaceOnUse"
       id="clipPath15">
      <path
         d="M 0,507.522 H 841.89 V 0 H 0 Z"
         transform="translate(-308.18561,-376.04571)"
         id="path15" />
    </clipPath>
    <clipPath
       clipPathUnits="userSpaceOnUse"
       id="clipPath17">
      <path
         d="M 0,507.522 H 841.89 V 0 H 0 Z"
         transform="translate(-332.87301,-362.99881)"
         id="path17" />
    </clipPath>
    <clipPath
       clipPathUnits="userSpaceOnUse"
       id="clipPath19">
      <path
         d="M 0,507.522 H 841.89 V 0 H 0 Z"
         transform="translate(-348.48661,-372.25731)"
         id="path19" />
    </clipPath>
    <clipPath
       clipPathUnits="userSpaceOnUse"
       id="clipPath21">
      <path
         d="M 0,507.522 H 841.89 V 0 H 0 Z"
         transform="translate(-322.29591,-310.66601)"
         id="path21" />
    </clipPath>
    <clipPath
       clipPathUnits="userSpaceOnUse"
       id="clipPath23">
      <path
         d="M 0,507.522 H 841.89 V 0 H 0 Z"
         transform="translate(-471.90871,-304.17551)"
         id="path23" />
    </clipPath>
    <clipPath
       clipPathUnits="userSpaceOnUse"
       id="clipPath25">
      <path
         d="M 0,507.522 H 841.89 V 0 H 0 Z"
         transform="translate(-272.53701,-288.82021)"
         id="path25" />
    </clipPath>
    <clipPath
       clipPathUnits="userSpaceOnUse"
       id="clipPath27">
      <path
         d="M 0,507.522 H 841.89 V 0 H 0 Z"
         transform="translate(-526.01441,-260.4304)"
         id="path27" />
    </clipPath>
    <clipPath
       clipPathUnits="userSpaceOnUse"
       id="clipPath29">
      <path
         d="M 0,507.522 H 841.89 V 0 H 0 Z"
         transform="translate(-185.7061,-268.1176)"
         id="path29" />
    </clipPath>
    <clipPath
       clipPathUnits="userSpaceOnUse"
       id="clipPath31">
      <path
         d="M 0,507.522 H 841.89 V 0 H 0 Z"
         transform="translate(-333.98361,-288.82021)"
         id="path31" />
    </clipPath>
    <clipPath
       clipPathUnits="userSpaceOnUse"
       id="clipPath33">
      <path
         d="M 0,507.522 H 841.89 V 0 H 0 Z"
         transform="translate(-474.58651,-297.5056)"
         id="path33" />
    </clipPath>
    <clipPath
       clipPathUnits="userSpaceOnUse"
       id="clipPath35">
      <path
         d="M 0,507.522 H 841.89 V 0 H 0 Z"
         transform="translate(-76.501502,-306.51541)"
         id="path35" />
    </clipPath>
    <clipPath
       clipPathUnits="userSpaceOnUse"
       id="clipPath37">
      <path
         d="M 0,507.522 H 841.89 V 0 H 0 Z"
         transform="translate(-584.12392,-232.71681)"
         id="path37" />
    </clipPath>
    <clipPath
       clipPathUnits="userSpaceOnUse"
       id="clipPath39">
      <path
         d="M 0,507.522 H 841.89 V 0 H 0 Z"
         transform="translate(-408.79401,-280.79931)"
         id="path39" />
    </clipPath>
    <clipPath
       clipPathUnits="userSpaceOnUse"
       id="clipPath41">
      <path
         d="M 0,507.522 H 841.89 V 0 H 0 Z"
         transform="translate(-395.76181,-142.0681)"
         id="path41" />
    </clipPath>
    <clipPath
       clipPathUnits="userSpaceOnUse"
       id="clipPath43">
      <path
         d="M 0,507.522 H 841.89 V 0 H 0 Z"
         transform="translate(-665.61071,-205.01881)"
         id="path43" />
    </clipPath>
    <clipPath
       clipPathUnits="userSpaceOnUse"
       id="clipPath45">
      <path
         d="M 0,507.522 H 841.89 V 0 H 0 Z"
         transform="translate(-724.38672,-118.5207)"
         id="path45" />
    </clipPath>
    <clipPath
       clipPathUnits="userSpaceOnUse"
       id="clipPath47">
      <path
         d="M 0,507.522 H 841.89 V 0 H 0 Z"
         transform="translate(-516.99521,-120.19491)"
         id="path47" />
    </clipPath>
    <clipPath
       clipPathUnits="userSpaceOnUse"
       id="clipPath49">
      <path
         d="M 0,507.522 H 841.89 V 0 H 0 Z"
         transform="translate(-568.09471,-159.2677)"
         id="path49" />
    </clipPath>
  </defs>
  <sodipodi:namedview
     id="namedview1"
     pagecolor="#ffffff"
     bordercolor="#000000"
     borderopacity="0.25"
     inkscape:showpageshadow="2"
     inkscape:pageopacity="0.0"
     inkscape:pagecheckerboard="0"
     inkscape:deskcolor="#d1d1d1">
    <inkscape:page
       x="0"
       y="0"
       inkscape:label="1"
       id="page1"
       width="1122.52"
       height="676.69598"
       margin="96.232536 75.074669 174.804 84.522003"
       bleed="0" />
  </sodipodi:namedview>
  <g
     id="layer-MC0"
     inkscape:groupmode="layer"
     inkscape:label="Layer 1">
    <path
       id="path1"
       d="m 0,0 v 22.549 h -4.116 v -9.286 h -10.449 v 9.286 h -4.138 V 0 h 4.138 V 9.417 H -4.116 V 0 Z"
       style="fill:#ee1f3f;fill-opacity:1;fill-rule:nonzero;stroke:none"
       transform="matrix(1.3333333,0,0,-1.3333333,109.4592,205.36707)" />
    <path
       id="path2"
       d="m 0,0 c -4.27,0 -7.486,3.408 -7.486,7.895 0,4.44 3.177,7.793 7.415,7.793 4.291,0 7.495,-3.403 7.495,-7.917 C 7.424,3.343 4.248,0 0,0 m 0,19.499 c -6.616,0 -11.811,-5.146 -11.811,-11.728 0,-6.594 5.051,-11.575 11.74,-11.575 6.623,0 11.811,5.153 11.811,11.699 0,6.636 -5.037,11.604 -11.74,11.604"
       style="fill:#ee1f3f;fill-opacity:1;fill-rule:nonzero;stroke:none"
       transform="matrix(1.3333333,0,0,-1.3333333,138.5184,200.80133)"
       clip-path="url(#clipPath3)" />
    <path
       id="path4"
       d="m 0,0 v 22.549 h -4.33 l -6.747,-10.477 -6.742,10.477 h -4.334 V 0 h 4.068 v 15.709 l 6.83,-10.212 h 0.23 l 6.878,10.277 V 0 Z"
       style="fill:#ee1f3f;fill-opacity:1;fill-rule:nonzero;stroke:none"
       transform="matrix(1.3333333,0,0,-1.3333333,197.02,205.36707)"
       clip-path="url(#clipPath5)" />
    <path
       id="path6"
       d="m 0,0 v 3.725 h -11.203 v 5.59 H 1.432 v 3.732 H -15.332 V -9.502 H 1.593 v 3.725 H -11.203 V 0 Z"
       style="fill:#ee1f3f;fill-opacity:1;fill-rule:nonzero;stroke:none"
       transform="matrix(1.3333333,0,0,-1.3333333,232.08067,192.6976)"
       clip-path="url(#clipPath7)" />
    <path
       id="path8"
       d="m 0,0 c -1.904,-1.757 -3.634,-2.87 -6.347,-2.87 -4.138,0 -7.276,3.409 -7.276,7.895 0,4.44 3.138,7.793 7.276,7.793 2.228,0 4.137,-0.833 6.197,-2.756 L -0.092,9.99 2.57,13.04 2.512,13.112 c -1.837,1.745 -4.284,3.517 -8.827,3.517 -6.612,0 -11.633,-5.024 -11.633,-11.728 0,-6.487 5.06,-11.575 11.475,-11.575 3.726,0 6.448,1.198 9.129,3.983 l 0.065,0.078 -2.662,2.677 z"
       style="fill:#ee1f3f;fill-opacity:1;fill-rule:nonzero;stroke:none"
       transform="matrix(1.3333333,0,0,-1.3333333,295.97933,196.9748)"
       clip-path="url(#clipPath9)" />
    <path
       id="path10"
       d="m 0,0 v 3.725 h -11.203 v 5.59 H 1.431 v 3.732 h -16.75 V -9.502 H 1.593 v 3.725 H -11.203 V 0 Z"
       style="fill:#ee1f3f;fill-opacity:1;fill-rule:nonzero;stroke:none"
       transform="matrix(1.3333333,0,0,-1.3333333,332.45653,192.6976)"
       clip-path="url(#clipPath11)" />
    <path
       id="path12"
       d="M 0,0 V 22.549 H -4.049 V 7.313 l -11.814,15.236 h -3.786 V 0 h 4.064 V 15.688 L -3.418,0 Z"
       style="fill:#ee1f3f;fill-opacity:1;fill-rule:nonzero;stroke:none"
       transform="matrix(1.3333333,0,0,-1.3333333,373.9556,205.36707)"
       clip-path="url(#clipPath13)" />
    <path
       id="path14"
       d="m 0,0 h -18.324 v -3.861 h 7.071 v -18.688 h 4.16 V -3.861 H 0 Z"
       style="fill:#ee1f3f;fill-opacity:1;fill-rule:nonzero;stroke:none"
       transform="matrix(1.3333333,0,0,-1.3333333,410.91413,175.30173)"
       clip-path="url(#clipPath15)" />
    <path
       id="path16"
       d="m 0,0 v 3.725 h -11.192 v 5.59 H 1.432 v 3.732 H -15.324 V -9.502 H 1.579 v 3.725 H -11.192 V 0 Z"
       style="fill:#ee1f3f;fill-opacity:1;fill-rule:nonzero;stroke:none"
       transform="matrix(1.3333333,0,0,-1.3333333,443.83067,192.6976)"
       clip-path="url(#clipPath17)" />
    <path
       id="path18"
       d="m 0,0 h 5.597 c 1.677,0 4.524,-0.467 4.524,-3.668 0,-2.218 -1.703,-3.602 -4.497,-3.602 H 0 Z m 10.226,-18.761 h 4.875 l -6.031,8.498 0.317,0.122 c 3.231,1.098 4.929,3.43 4.929,6.767 0,1.939 -0.647,3.616 -1.881,4.888 C 10.922,3.005 8.658,3.788 5.914,3.788 H -4.134 V -18.761 H 0 v 7.782 h 4.75 z"
       style="fill:#ee1f3f;fill-opacity:1;fill-rule:nonzero;stroke:none"
       transform="matrix(1.3333333,0,0,-1.3333333,464.6488,180.35293)"
       clip-path="url(#clipPath19)" />
    <path
       id="path20"
       d="m 0,0 c 5.184,0 9.981,-1.441 13.97,-3.997 6.061,2.836 13.217,4.033 21.097,4.033 h 19.128 v -8.479 c 8.793,6.641 19.943,10.395 32.638,10.395 16.166,0 29.388,-6.388 37.983,-17.341 v 9.332 c -2.143,3.846 -3.336,8.341 -3.336,13.265 0,15.339 11.833,26.472 28.133,26.472 16.303,0 28.132,-11.133 28.132,-26.472 0,-2.543 -0.322,-4.97 -0.925,-7.254 h 11.193 c 5.184,0 9.985,-2.077 13.973,-4.623 C 208.048,-1.835 215.202,0 223.087,0 l 40.073,-0.006 c 32.792,0 50.858,-17.113 50.858,-48.183 V -63.17 h 9.342 v -29.362 h 33.058 v -21.044 h 8.185 15.868 22.618 c 32.789,0 50.849,-17.226 50.849,-48.504 v -15.611 h 9.35 v -44.59 h -32.474 c -5.029,0 -9.609,1.315 -13.483,3.745 -5.411,-3.151 -12.117,-3.915 -20.583,-3.915 -1.498,0 -2.964,0.058 -4.397,0.17 h -41.697 c -16.035,0 -28.619,5.369 -36.516,14.903 -4.231,-6.393 -11.335,-11.001 -20.142,-13.796 -0.079,-0.026 -0.158,-0.053 -0.237,-0.079 -0.502,-0.156 -1.016,-0.301 -1.529,-0.445 -0.846,-0.241 -1.706,-0.46 -2.581,-0.659 -0.242,-0.056 -0.481,-0.117 -0.726,-0.169 -0.36,-0.077 -0.726,-0.146 -1.091,-0.217 -9.698,-1.91 -20.873,-1.64 -32.276,1.279 -3.038,0.778 -5.965,1.72 -8.779,2.792 -0.311,0.117 -0.614,0.238 -0.919,0.357 -0.386,0.152 -0.771,0.305 -1.151,0.461 -0.25,0.104 -0.493,0.21 -0.738,0.316 -4.619,1.968 -8.881,4.106 -12.694,6.735 -9.765,-8.233 -22.479,-13.16 -36.576,-13.16 -15.584,0 -29.301,5.562 -39.324,14.853 v -11.577 l -5.834,-3.898 c -14.213,-9.487 -28.514,-13.907 -45.003,-13.907 -41.941,0 -71.23,28.74 -71.23,69.894 0,26.04 11.3,47.125 29.845,59.173 h -181.282 v 0.005 c -28.771,0.102 -50.51,18.345 -55.056,44.738 h -22.087 v -44.645 h -52.282 v 92.071 h -11.35 v 47.597 h 109.037 V -6.52 c 8.346,5.413 18.438,8.472 29.64,8.472 15.2,0 27.779,-5.725 36.321,-15.626 v 13.628 h 22.461 c 5.179,0 9.977,-1.44 13.964,-3.996 6.059,2.835 13.214,4.02 21.098,4.02 z"
       style="fill:#ee1f3f;fill-opacity:1;fill-rule:nonzero;stroke:none"
       transform="matrix(1.3333333,0,0,-1.3333333,429.72787,262.47467)"
       clip-path="url(#clipPath21)" />
    <path
       id="path22"
       d="M 0,0 C 9.019,0 15.024,5.346 15.024,13.699 15.024,21.71 9.019,27.056 0,27.056 -9.018,27.056 -15.023,21.71 -15.023,13.699 -15.023,5.346 -9.018,0 0,0"
       style="fill:#ffffff;fill-opacity:1;fill-rule:nonzero;stroke:none"
       transform="matrix(1.3333333,0,0,-1.3333333,629.2116,271.12867)"
       clip-path="url(#clipPath23)" />
    <path
       id="path24"
       d="M 0,0 C -1.332,5.337 -6.012,8.685 -11.687,8.685 H -21.04 V -72.81 H 4.008 v 44.42 c 0,12.691 8.684,18.371 19.702,18.371 h 5.684 V 9.018 H 23.376 C 12.692,9.018 4.673,5.679 0,0"
       style="fill:#ffffff;fill-opacity:1;fill-rule:nonzero;stroke:none"
       transform="matrix(1.3333333,0,0,-1.3333333,363.38267,291.6024)"
       clip-path="url(#clipPath25)" />
    <path
       id="path26"
       d="m 0,0 c 0,12.691 8.685,18.371 19.698,18.371 h 5.68 v 19.037 h -6.01 c -10.683,0 -18.707,-3.339 -23.374,-9.018 -1.337,5.337 -6.017,8.685 -11.7,8.685 h -9.342 V -44.42 H 0 Z"
       style="fill:#ffffff;fill-opacity:1;fill-rule:nonzero;stroke:none"
       transform="matrix(1.3333333,0,0,-1.3333333,701.35253,329.45547)"
       clip-path="url(#clipPath27)" />
    <path
       id="path28"
       d="M 0,0 C 2.34,8.02 7.678,12.682 16.029,12.682 23.384,12.682 28.389,8.02 29.054,0 Z m 16.363,31.395 c -24.374,0 -40.748,-17.705 -40.748,-43.078 0,-24.06 16.706,-42.089 43.085,-42.089 12.357,0 22.381,2.35 29.73,7.679 v 19.035 c -8.687,-4.67 -17.035,-6.345 -27.391,-6.345 -11.354,0 -19.366,6.014 -21.704,16.041 h 51.763 c 0.333,2.663 0.671,6.669 0.671,10.016 0,23.044 -13.362,38.741 -35.406,38.741"
       style="fill:#ffffff;fill-opacity:1;fill-rule:nonzero;stroke:none"
       transform="matrix(1.3333333,0,0,-1.3333333,247.60813,319.20587)"
       clip-path="url(#clipPath29)" />
    <path
       id="path30"
       d="m 0,0 c -1.337,5.337 -6.008,8.685 -11.688,8.685 h -9.353 V -72.81 H 4.014 v 44.42 c 0,12.691 8.677,18.371 19.708,18.371 h 5.671 V 9.018 H 23.379 C 12.691,9.018 4.684,5.679 0,0"
       style="fill:#ffffff;fill-opacity:1;fill-rule:nonzero;stroke:none"
       transform="matrix(1.3333333,0,0,-1.3333333,445.31147,291.6024)"
       clip-path="url(#clipPath31)" />
    <path
       id="path32"
       d="M 0,0 H -14.364 V -81.495 H 10.679 V -11.36 C 10.679,-4.348 6.675,0 0,0"
       style="fill:#ffffff;fill-opacity:1;fill-rule:nonzero;stroke:none"
       transform="matrix(1.3333333,0,0,-1.3333333,632.782,280.02187)"
       clip-path="url(#clipPath33)" />
    <path
       id="path34"
       d="m 0,0 h 6.683 c 3.336,0 4.672,-1.332 4.672,-4.671 v -87.4 h 26.057 v 44.646 h 37.725 v 21.386 H 37.412 V 0 h 45.41 V 21.378 L 0,21.378 Z"
       style="fill:#ffffff;fill-opacity:1;fill-rule:nonzero;stroke:none"
       transform="matrix(1.3333333,0,0,-1.3333333,102.002,268.0088)"
       clip-path="url(#clipPath35)" />
    <path
       id="path36"
       d="m 0,0 c -5.009,0 -8.676,3.337 -8.676,7.678 0,7.012 4.663,9.684 16.358,9.684 h 7.342 C 14.698,7.344 8.686,0 0,0 m 39.079,6.344 v 24.043 c 0,23.042 -11.698,35.067 -37.747,35.067 H -23.047 V 46.085 h 21.374 c 11.014,0 16.371,-3.34 16.697,-13.025 H 7.682 c -24.72,0 -39.068,-7.012 -39.068,-26.381 0,-15.363 10.011,-25.05 26.377,-25.05 10.356,0 16.364,4.347 22.034,10.349 2.347,-5.678 6.35,-8.684 12.03,-8.684 h 19.367 v 18.38 h -4.673 c -3.009,0 -4.67,1.663 -4.67,4.67"
       style="fill:#ffffff;fill-opacity:1;fill-rule:nonzero;stroke:none"
       transform="matrix(1.3333333,0,0,-1.3333333,778.83187,366.40693)"
       clip-path="url(#clipPath37)" />
    <path
       id="path38"
       d="M 0,0 C 7.354,0 12.688,-4.662 13.026,-12.682 H -15.701 C -13.357,-4.662 -8.353,0 0,0 m 2.671,-66.454 c 12.351,0 22.368,2.351 30.06,7.679 v 19.036 c -8.685,-4.671 -17.375,-6.346 -27.726,-6.346 -11.355,0 -19.361,6.014 -21.376,16.041 h 51.44 c 0.666,2.663 0.999,6.669 0.999,10.016 0,23.044 -13.358,38.741 -35.733,38.741 -24.375,0 -40.415,-17.704 -40.415,-43.078 0,-24.06 16.706,-42.089 42.751,-42.089"
       style="fill:#ffffff;fill-opacity:1;fill-rule:nonzero;stroke:none"
       transform="matrix(1.3333333,0,0,-1.3333333,545.05867,302.29693)"
       clip-path="url(#clipPath39)" />
    <path
       id="path40"
       d="m 0,0 c 0,22.043 14.364,34.059 33.063,34.059 12.701,0 22.72,-3.672 33.733,-11.008 V 46.086 C 56.439,52.762 43.755,57.102 29.064,57.102 -4.671,57.102 -27.048,33.393 -27.048,0 c 0,-34.068 23.374,-56.778 58.12,-56.778 15.013,0 26.712,4.346 37.726,11.7 v 23.369 C 56.786,-29.722 45.424,-33.403 33.063,-33.403 14.033,-33.403 0,-21.377 0,0"
       style="fill:#ffffff;fill-opacity:1;fill-rule:nonzero;stroke:none"
       transform="matrix(1.3333333,0,0,-1.3333333,527.6824,487.27187)"
       clip-path="url(#clipPath41)" />
    <path
       id="path42"
       d="m 0,0 h -25.391 v -73.131 c 0,-21.711 14.033,-30.397 32.731,-30.397 h 12.353 v 20.035 H 10.685 C 4.34,-83.493 0,-80.142 0,-71.134 v 30.73 h 24.042 v 19.37 l -24.042,0 z"
       style="fill:#ffffff;fill-opacity:1;fill-rule:nonzero;stroke:none"
       transform="matrix(1.3333333,0,0,-1.3333333,887.48093,403.3376)"
       clip-path="url(#clipPath43)" />
    <path
       id="path44"
       d="m 0,0 c -5.343,0 -9.023,3.005 -9.023,7.346 0,7.353 5.017,10.026 16.692,10.026 h 7.363 C 14.691,7.011 8.673,0 0,0 m 43.749,1.341 c -3.339,0 -5.017,1.664 -5.017,5.015 v 23.709 c 0,23.374 -11.685,35.399 -37.734,35.399 h -25.382 v -19.37 h 22.708 c 10.695,0 16.032,-3.681 16.708,-13.033 H 7.337 c -24.709,0 -38.733,-7.344 -38.733,-26.705 0,-15.375 9.685,-25.059 26.053,-25.059 10.347,0 16.695,4.679 22.373,10.359 2.008,-5.68 6.014,-8.686 11.694,-8.686 h 19.36 V 1.341 Z"
       style="fill:#ffffff;fill-opacity:1;fill-rule:nonzero;stroke:none"
       transform="matrix(1.3333333,0,0,-1.3333333,965.84893,518.6684)"
       clip-path="url(#clipPath45)" />
    <path
       id="path46"
       d="m 0,0 c -11.021,0 -18.037,8.344 -18.037,22.035 0,14.04 7.016,22.043 18.037,22.043 10.683,0 17.705,-8.003 17.705,-22.043 C 17.705,8.344 10.683,0 0,0 m 0,64.447 c -24.718,0 -43.412,-18.361 -43.412,-42.744 0,-24.034 18.694,-42.08 43.412,-42.08 24.713,0 43.083,18.703 43.083,42.754 0,24.364 -18.37,42.07 -43.083,42.07"
       style="fill:#ffffff;fill-opacity:1;fill-rule:nonzero;stroke:none"
       transform="matrix(1.3333333,0,0,-1.3333333,689.32693,516.43613)"
       clip-path="url(#clipPath47)" />
    <path
       id="path48"
       d="m 0,0 c 0,-11.358 6.007,-17.705 20.71,-23.717 11.351,-4.671 15.688,-7.345 15.688,-11.016 0,-4.006 -2.678,-5.015 -8.009,-5.015 -10.027,0 -19.713,2.006 -28.732,6.689 v -19.372 c 6.684,-4.005 19.046,-7.019 31.396,-7.019 18.371,0 31.063,10.026 31.063,25.392 0,15.354 -11.694,20.368 -22.712,25.373 -10.013,4.671 -14.364,5.687 -14.364,9.354 0,3.671 2.674,4.678 9.019,4.678 h 28.057 v 19.37 H 32.061 C 13.014,24.717 0,16.032 0,0"
       style="fill:#ffffff;fill-opacity:1;fill-rule:nonzero;stroke:none"
       transform="matrix(1.3333333,0,0,-1.3333333,757.4596,464.33907)"
       clip-path="url(#clipPath49)" />
  </g>
</svg>
