<?xml version="1.0" encoding="UTF-8"?>
<svg xmlns="http://www.w3.org/2000/svg" xmlns:xlink="http://www.w3.org/1999/xlink" width="178.9615pt" height="74.036pt" viewBox="0 0 178.9615 74.036" version="1.1">
<defs>
<clipPath id="clip1">
  <path d="M 22 17 L 61 17 L 61 56 L 22 56 Z M 22 17 "/>
</clipPath>
<clipPath id="clip2">
  <path d="M 41.289062 17.253906 C 51.78125 17.253906 60.285156 25.757812 60.285156 36.25 C 60.285156 46.738281 51.78125 55.246094 41.289062 55.246094 C 30.800781 55.246094 22.292969 46.738281 22.292969 36.25 C 22.292969 25.757812 30.800781 17.253906 41.289062 17.253906 "/>
</clipPath>
<radialGradient id="radial0" gradientUnits="userSpaceOnUse" cx="0" cy="0" fx="0" fy="0" r="35.731505" gradientTransform="matrix(1,0,0,-1,47.749,30.1704)">
<stop offset="0" style="stop-color:rgb(100%,100%,100%);stop-opacity:1;"/>
<stop offset="0.00390625" style="stop-color:rgb(98.431396%,98.431396%,98.823547%);stop-opacity:1;"/>
<stop offset="0.0078125" style="stop-color:rgb(97.254944%,97.254944%,98.039246%);stop-opacity:1;"/>
<stop offset="0.0117188" style="stop-color:rgb(96.078491%,96.078491%,97.254944%);stop-opacity:1;"/>
<stop offset="0.015625" style="stop-color:rgb(95.68634%,95.294189%,96.862793%);stop-opacity:1;"/>
<stop offset="0.0195312" style="stop-color:rgb(94.902039%,94.509888%,96.470642%);stop-opacity:1;"/>
<stop offset="0.0234375" style="stop-color:rgb(94.117737%,93.725586%,95.68634%);stop-opacity:1;"/>
<stop offset="0.0273438" style="stop-color:rgb(93.333435%,92.941284%,95.294189%);stop-opacity:1;"/>
<stop offset="0.03125" style="stop-color:rgb(92.941284%,92.549133%,94.902039%);stop-opacity:1;"/>
<stop offset="0.0351562" style="stop-color:rgb(92.156982%,91.764832%,94.509888%);stop-opacity:1;"/>
<stop offset="0.0390625" style="stop-color:rgb(91.372681%,91.372681%,94.117737%);stop-opacity:1;"/>
<stop offset="0.0429688" style="stop-color:rgb(90.98053%,90.588379%,93.725586%);stop-opacity:1;"/>
<stop offset="0.046875" style="stop-color:rgb(90.588379%,90.196228%,93.333435%);stop-opacity:1;"/>
<stop offset="0.0507812" style="stop-color:rgb(89.804077%,89.411926%,92.941284%);stop-opacity:1;"/>
<stop offset="0.0546875" style="stop-color:rgb(89.019775%,88.627625%,92.549133%);stop-opacity:1;"/>
<stop offset="0.0585938" style="stop-color:rgb(88.627625%,88.235474%,91.764832%);stop-opacity:1;"/>
<stop offset="0.0625" style="stop-color:rgb(88.235474%,87.843323%,91.764832%);stop-opacity:1;"/>
<stop offset="0.0664062" style="stop-color:rgb(87.843323%,87.059021%,91.372681%);stop-opacity:1;"/>
<stop offset="0.0703125" style="stop-color:rgb(87.059021%,86.274719%,90.588379%);stop-opacity:1;"/>
<stop offset="0.0742188" style="stop-color:rgb(86.274719%,85.882568%,90.588379%);stop-opacity:1;"/>
<stop offset="0.078125" style="stop-color:rgb(85.882568%,85.490417%,90.196228%);stop-opacity:1;"/>
<stop offset="0.0820312" style="stop-color:rgb(85.490417%,85.098267%,89.804077%);stop-opacity:1;"/>
<stop offset="0.0859375" style="stop-color:rgb(85.098267%,84.313965%,89.411926%);stop-opacity:1;"/>
<stop offset="0.0898438" style="stop-color:rgb(84.313965%,83.529663%,89.019775%);stop-opacity:1;"/>
<stop offset="0.09375" style="stop-color:rgb(83.921814%,83.137512%,88.627625%);stop-opacity:1;"/>
<stop offset="0.0976562" style="stop-color:rgb(83.529663%,82.745361%,88.235474%);stop-opacity:1;"/>
<stop offset="0.101562" style="stop-color:rgb(82.745361%,81.96106%,87.843323%);stop-opacity:1;"/>
<stop offset="0.105469" style="stop-color:rgb(82.35321%,81.176758%,87.059021%);stop-opacity:1;"/>
<stop offset="0.109375" style="stop-color:rgb(81.96106%,80.784607%,87.059021%);stop-opacity:1;"/>
<stop offset="0.113281" style="stop-color:rgb(81.568909%,80.392456%,86.66687%);stop-opacity:1;"/>
<stop offset="0.117188" style="stop-color:rgb(80.784607%,80.000305%,86.274719%);stop-opacity:1;"/>
<stop offset="0.121094" style="stop-color:rgb(80.000305%,79.216003%,85.882568%);stop-opacity:1;"/>
<stop offset="0.125" style="stop-color:rgb(80.000305%,78.823853%,85.490417%);stop-opacity:1;"/>
<stop offset="0.128906" style="stop-color:rgb(79.216003%,78.039551%,85.098267%);stop-opacity:1;"/>
<stop offset="0.132812" style="stop-color:rgb(78.823853%,77.6474%,84.706116%);stop-opacity:1;"/>
<stop offset="0.136719" style="stop-color:rgb(78.039551%,76.863098%,84.313965%);stop-opacity:1;"/>
<stop offset="0.140625" style="stop-color:rgb(77.6474%,76.470947%,83.921814%);stop-opacity:1;"/>
<stop offset="0.144531" style="stop-color:rgb(77.255249%,76.078796%,83.529663%);stop-opacity:1;"/>
<stop offset="0.148438" style="stop-color:rgb(76.863098%,75.294495%,83.137512%);stop-opacity:1;"/>
<stop offset="0.152344" style="stop-color:rgb(76.470947%,75.294495%,82.745361%);stop-opacity:1;"/>
<stop offset="0.15625" style="stop-color:rgb(76.078796%,74.902344%,82.745361%);stop-opacity:1;"/>
<stop offset="0.160156" style="stop-color:rgb(75.294495%,74.118042%,81.96106%);stop-opacity:1;"/>
<stop offset="0.164062" style="stop-color:rgb(74.902344%,73.725891%,81.568909%);stop-opacity:1;"/>
<stop offset="0.167969" style="stop-color:rgb(74.902344%,73.33374%,81.568909%);stop-opacity:1;"/>
<stop offset="0.171875" style="stop-color:rgb(74.118042%,72.549438%,81.176758%);stop-opacity:1;"/>
<stop offset="0.175781" style="stop-color:rgb(73.725891%,72.157288%,80.784607%);stop-opacity:1;"/>
<stop offset="0.179688" style="stop-color:rgb(72.941589%,71.372986%,80.392456%);stop-opacity:1;"/>
<stop offset="0.183594" style="stop-color:rgb(72.549438%,71.372986%,80.000305%);stop-opacity:1;"/>
<stop offset="0.1875" style="stop-color:rgb(72.549438%,70.980835%,79.608154%);stop-opacity:1;"/>
<stop offset="0.191406" style="stop-color:rgb(71.765137%,70.588684%,79.216003%);stop-opacity:1;"/>
<stop offset="0.195312" style="stop-color:rgb(71.372986%,69.804382%,78.823853%);stop-opacity:1;"/>
<stop offset="0.199219" style="stop-color:rgb(70.980835%,69.412231%,78.823853%);stop-opacity:1;"/>
<stop offset="0.203125" style="stop-color:rgb(70.588684%,69.020081%,78.431702%);stop-opacity:1;"/>
<stop offset="0.207031" style="stop-color:rgb(69.804382%,68.235779%,78.039551%);stop-opacity:1;"/>
<stop offset="0.210938" style="stop-color:rgb(69.804382%,67.843628%,77.6474%);stop-opacity:1;"/>
<stop offset="0.214844" style="stop-color:rgb(69.412231%,67.451477%,77.255249%);stop-opacity:1;"/>
<stop offset="0.21875" style="stop-color:rgb(68.62793%,67.059326%,76.863098%);stop-opacity:1;"/>
<stop offset="0.222656" style="stop-color:rgb(68.235779%,66.275024%,76.470947%);stop-opacity:1;"/>
<stop offset="0.226562" style="stop-color:rgb(67.451477%,66.275024%,76.078796%);stop-opacity:1;"/>
<stop offset="0.230469" style="stop-color:rgb(67.451477%,65.882874%,76.078796%);stop-opacity:1;"/>
<stop offset="0.234375" style="stop-color:rgb(67.059326%,65.098572%,75.686646%);stop-opacity:1;"/>
<stop offset="0.238281" style="stop-color:rgb(66.667175%,64.706421%,75.294495%);stop-opacity:1;"/>
<stop offset="0.242188" style="stop-color:rgb(66.275024%,64.31427%,74.902344%);stop-opacity:1;"/>
<stop offset="0.246094" style="stop-color:rgb(65.882874%,63.922119%,74.902344%);stop-opacity:1;"/>
<stop offset="0.25" style="stop-color:rgb(65.490723%,63.529968%,74.510193%);stop-opacity:1;"/>
<stop offset="0.253906" style="stop-color:rgb(65.098572%,63.137817%,73.725891%);stop-opacity:1;"/>
<stop offset="0.257812" style="stop-color:rgb(64.706421%,62.745667%,73.725891%);stop-opacity:1;"/>
<stop offset="0.261719" style="stop-color:rgb(64.706421%,62.353516%,73.33374%);stop-opacity:1;"/>
<stop offset="0.265625" style="stop-color:rgb(64.31427%,62.353516%,73.33374%);stop-opacity:1;"/>
<stop offset="0.269531" style="stop-color:rgb(63.922119%,61.961365%,73.33374%);stop-opacity:1;"/>
<stop offset="0.273438" style="stop-color:rgb(63.529968%,61.569214%,72.941589%);stop-opacity:1;"/>
<stop offset="0.277344" style="stop-color:rgb(62.745667%,61.177063%,72.549438%);stop-opacity:1;"/>
<stop offset="0.28125" style="stop-color:rgb(62.745667%,60.784912%,72.549438%);stop-opacity:1;"/>
<stop offset="0.285156" style="stop-color:rgb(62.353516%,60.392761%,72.157288%);stop-opacity:1;"/>
<stop offset="0.289062" style="stop-color:rgb(61.961365%,60.392761%,71.765137%);stop-opacity:1;"/>
<stop offset="0.292969" style="stop-color:rgb(61.569214%,60.00061%,71.765137%);stop-opacity:1;"/>
<stop offset="0.296875" style="stop-color:rgb(61.569214%,59.608459%,71.372986%);stop-opacity:1;"/>
<stop offset="0.300781" style="stop-color:rgb(61.177063%,59.216309%,71.372986%);stop-opacity:1;"/>
<stop offset="0.304688" style="stop-color:rgb(60.784912%,59.216309%,70.980835%);stop-opacity:1;"/>
<stop offset="0.308594" style="stop-color:rgb(60.392761%,58.824158%,70.980835%);stop-opacity:1;"/>
<stop offset="0.3125" style="stop-color:rgb(60.00061%,58.432007%,70.588684%);stop-opacity:1;"/>
<stop offset="0.316406" style="stop-color:rgb(60.00061%,58.039856%,70.196533%);stop-opacity:1;"/>
<stop offset="0.320312" style="stop-color:rgb(59.608459%,58.039856%,70.196533%);stop-opacity:1;"/>
<stop offset="0.324219" style="stop-color:rgb(59.216309%,57.647705%,70.196533%);stop-opacity:1;"/>
<stop offset="0.328125" style="stop-color:rgb(58.824158%,57.255554%,69.804382%);stop-opacity:1;"/>
<stop offset="0.332031" style="stop-color:rgb(58.432007%,56.863403%,69.412231%);stop-opacity:1;"/>
<stop offset="0.335938" style="stop-color:rgb(58.432007%,56.471252%,69.412231%);stop-opacity:1;"/>
<stop offset="0.339844" style="stop-color:rgb(58.039856%,56.079102%,69.020081%);stop-opacity:1;"/>
<stop offset="0.34375" style="stop-color:rgb(57.647705%,56.079102%,69.020081%);stop-opacity:1;"/>
<stop offset="0.347656" style="stop-color:rgb(57.255554%,55.686951%,68.62793%);stop-opacity:1;"/>
<stop offset="0.351562" style="stop-color:rgb(56.471252%,55.2948%,68.235779%);stop-opacity:1;"/>
<stop offset="0.355469" style="stop-color:rgb(56.471252%,54.902649%,68.235779%);stop-opacity:1;"/>
<stop offset="0.359375" style="stop-color:rgb(56.079102%,54.510498%,67.843628%);stop-opacity:1;"/>
<stop offset="0.363281" style="stop-color:rgb(55.686951%,54.510498%,67.843628%);stop-opacity:1;"/>
<stop offset="0.367188" style="stop-color:rgb(55.686951%,54.118347%,67.843628%);stop-opacity:1;"/>
<stop offset="0.371094" style="stop-color:rgb(55.2948%,53.726196%,67.451477%);stop-opacity:1;"/>
<stop offset="0.375" style="stop-color:rgb(54.902649%,53.334045%,67.059326%);stop-opacity:1;"/>
<stop offset="0.378906" style="stop-color:rgb(54.510498%,53.334045%,67.059326%);stop-opacity:1;"/>
<stop offset="0.382812" style="stop-color:rgb(54.118347%,52.941895%,66.667175%);stop-opacity:1;"/>
<stop offset="0.386719" style="stop-color:rgb(54.118347%,52.549744%,66.667175%);stop-opacity:1;"/>
<stop offset="0.390625" style="stop-color:rgb(53.726196%,52.157593%,66.275024%);stop-opacity:1;"/>
<stop offset="0.394531" style="stop-color:rgb(53.334045%,51.765442%,66.275024%);stop-opacity:1;"/>
<stop offset="0.398438" style="stop-color:rgb(53.334045%,51.765442%,65.882874%);stop-opacity:1;"/>
<stop offset="0.402344" style="stop-color:rgb(52.549744%,50.98114%,65.490723%);stop-opacity:1;"/>
<stop offset="0.40625" style="stop-color:rgb(52.549744%,50.98114%,65.098572%);stop-opacity:1;"/>
<stop offset="0.410156" style="stop-color:rgb(52.157593%,50.588989%,65.098572%);stop-opacity:1;"/>
<stop offset="0.414062" style="stop-color:rgb(52.157593%,50.196838%,65.098572%);stop-opacity:1;"/>
<stop offset="0.417969" style="stop-color:rgb(51.373291%,50.196838%,65.098572%);stop-opacity:1;"/>
<stop offset="0.421875" style="stop-color:rgb(50.98114%,49.803162%,64.706421%);stop-opacity:1;"/>
<stop offset="0.425781" style="stop-color:rgb(50.588989%,49.411011%,64.31427%);stop-opacity:1;"/>
<stop offset="0.429688" style="stop-color:rgb(50.588989%,49.411011%,64.31427%);stop-opacity:1;"/>
<stop offset="0.433594" style="stop-color:rgb(50.196838%,49.01886%,63.922119%);stop-opacity:1;"/>
<stop offset="0.4375" style="stop-color:rgb(49.803162%,48.626709%,63.922119%);stop-opacity:1;"/>
<stop offset="0.441406" style="stop-color:rgb(49.803162%,48.626709%,63.922119%);stop-opacity:1;"/>
<stop offset="0.445312" style="stop-color:rgb(49.411011%,48.234558%,63.529968%);stop-opacity:1;"/>
<stop offset="0.449219" style="stop-color:rgb(49.01886%,47.842407%,63.137817%);stop-opacity:1;"/>
<stop offset="0.453125" style="stop-color:rgb(48.626709%,47.450256%,63.137817%);stop-opacity:1;"/>
<stop offset="0.457031" style="stop-color:rgb(48.626709%,47.450256%,63.137817%);stop-opacity:1;"/>
<stop offset="0.460938" style="stop-color:rgb(48.234558%,47.058105%,62.745667%);stop-opacity:1;"/>
<stop offset="0.464844" style="stop-color:rgb(48.234558%,47.058105%,62.745667%);stop-opacity:1;"/>
<stop offset="0.46875" style="stop-color:rgb(47.842407%,46.665955%,62.353516%);stop-opacity:1;"/>
<stop offset="0.472656" style="stop-color:rgb(47.450256%,46.273804%,61.961365%);stop-opacity:1;"/>
<stop offset="0.476562" style="stop-color:rgb(47.058105%,45.881653%,61.961365%);stop-opacity:1;"/>
<stop offset="0.480469" style="stop-color:rgb(47.058105%,45.881653%,61.961365%);stop-opacity:1;"/>
<stop offset="0.484375" style="stop-color:rgb(46.665955%,45.489502%,61.569214%);stop-opacity:1;"/>
<stop offset="0.488281" style="stop-color:rgb(46.273804%,45.097351%,61.569214%);stop-opacity:1;"/>
<stop offset="0.492188" style="stop-color:rgb(45.881653%,44.7052%,61.177063%);stop-opacity:1;"/>
<stop offset="0.496094" style="stop-color:rgb(45.489502%,44.7052%,61.177063%);stop-opacity:1;"/>
<stop offset="0.5" style="stop-color:rgb(45.097351%,44.313049%,60.784912%);stop-opacity:1;"/>
<stop offset="0.503906" style="stop-color:rgb(45.097351%,44.313049%,60.784912%);stop-opacity:1;"/>
<stop offset="0.507812" style="stop-color:rgb(44.7052%,43.920898%,60.784912%);stop-opacity:1;"/>
<stop offset="0.511719" style="stop-color:rgb(44.313049%,43.528748%,60.392761%);stop-opacity:1;"/>
<stop offset="0.515625" style="stop-color:rgb(44.313049%,43.528748%,60.392761%);stop-opacity:1;"/>
<stop offset="0.519531" style="stop-color:rgb(43.920898%,43.136597%,60.00061%);stop-opacity:1;"/>
<stop offset="0.523438" style="stop-color:rgb(43.528748%,42.744446%,59.608459%);stop-opacity:1;"/>
<stop offset="0.527344" style="stop-color:rgb(43.528748%,42.352295%,59.608459%);stop-opacity:1;"/>
<stop offset="0.53125" style="stop-color:rgb(43.136597%,42.352295%,59.216309%);stop-opacity:1;"/>
<stop offset="0.535156" style="stop-color:rgb(42.744446%,41.960144%,59.216309%);stop-opacity:1;"/>
<stop offset="0.539062" style="stop-color:rgb(42.744446%,41.960144%,59.216309%);stop-opacity:1;"/>
<stop offset="0.542969" style="stop-color:rgb(42.352295%,41.567993%,59.216309%);stop-opacity:1;"/>
<stop offset="0.546875" style="stop-color:rgb(41.960144%,41.175842%,58.432007%);stop-opacity:1;"/>
<stop offset="0.550781" style="stop-color:rgb(41.960144%,41.175842%,58.432007%);stop-opacity:1;"/>
<stop offset="0.554688" style="stop-color:rgb(41.567993%,40.783691%,58.432007%);stop-opacity:1;"/>
<stop offset="0.558594" style="stop-color:rgb(41.175842%,40.391541%,58.039856%);stop-opacity:1;"/>
<stop offset="0.5625" style="stop-color:rgb(40.783691%,40.391541%,58.039856%);stop-opacity:1;"/>
<stop offset="0.566406" style="stop-color:rgb(40.783691%,39.99939%,58.039856%);stop-opacity:1;"/>
<stop offset="0.570312" style="stop-color:rgb(40.391541%,39.607239%,57.647705%);stop-opacity:1;"/>
<stop offset="0.574219" style="stop-color:rgb(39.99939%,39.607239%,57.255554%);stop-opacity:1;"/>
<stop offset="0.578125" style="stop-color:rgb(39.607239%,39.215088%,57.255554%);stop-opacity:1;"/>
<stop offset="0.582031" style="stop-color:rgb(39.607239%,39.215088%,57.255554%);stop-opacity:1;"/>
<stop offset="0.585938" style="stop-color:rgb(39.215088%,38.822937%,57.255554%);stop-opacity:1;"/>
<stop offset="0.589844" style="stop-color:rgb(39.215088%,38.822937%,56.863403%);stop-opacity:1;"/>
<stop offset="0.59375" style="stop-color:rgb(38.822937%,38.430786%,56.863403%);stop-opacity:1;"/>
<stop offset="0.597656" style="stop-color:rgb(38.430786%,38.038635%,56.471252%);stop-opacity:1;"/>
<stop offset="0.601562" style="stop-color:rgb(38.430786%,38.038635%,56.471252%);stop-opacity:1;"/>
<stop offset="0.605469" style="stop-color:rgb(38.038635%,37.646484%,56.079102%);stop-opacity:1;"/>
<stop offset="0.609375" style="stop-color:rgb(37.646484%,37.254333%,56.079102%);stop-opacity:1;"/>
<stop offset="0.613281" style="stop-color:rgb(37.646484%,37.254333%,56.079102%);stop-opacity:1;"/>
<stop offset="0.617188" style="stop-color:rgb(37.254333%,37.254333%,56.079102%);stop-opacity:1;"/>
<stop offset="0.621094" style="stop-color:rgb(36.862183%,36.862183%,55.686951%);stop-opacity:1;"/>
<stop offset="0.625" style="stop-color:rgb(36.862183%,36.470032%,55.2948%);stop-opacity:1;"/>
<stop offset="0.628906" style="stop-color:rgb(36.470032%,36.470032%,55.2948%);stop-opacity:1;"/>
<stop offset="0.632812" style="stop-color:rgb(36.470032%,36.077881%,54.902649%);stop-opacity:1;"/>
<stop offset="0.636719" style="stop-color:rgb(35.68573%,35.68573%,54.902649%);stop-opacity:1;"/>
<stop offset="0.640625" style="stop-color:rgb(35.68573%,35.68573%,54.902649%);stop-opacity:1;"/>
<stop offset="0.644531" style="stop-color:rgb(35.293579%,35.293579%,54.510498%);stop-opacity:1;"/>
<stop offset="0.648438" style="stop-color:rgb(34.901428%,34.901428%,54.510498%);stop-opacity:1;"/>
<stop offset="0.652344" style="stop-color:rgb(34.509277%,34.901428%,54.510498%);stop-opacity:1;"/>
<stop offset="0.65625" style="stop-color:rgb(34.509277%,34.901428%,54.118347%);stop-opacity:1;"/>
<stop offset="0.660156" style="stop-color:rgb(34.117126%,34.509277%,54.118347%);stop-opacity:1;"/>
<stop offset="0.664062" style="stop-color:rgb(34.117126%,34.509277%,53.726196%);stop-opacity:1;"/>
<stop offset="0.667969" style="stop-color:rgb(33.724976%,34.117126%,53.726196%);stop-opacity:1;"/>
<stop offset="0.671875" style="stop-color:rgb(33.332825%,33.724976%,53.334045%);stop-opacity:1;"/>
<stop offset="0.675781" style="stop-color:rgb(33.332825%,33.724976%,53.334045%);stop-opacity:1;"/>
<stop offset="0.679688" style="stop-color:rgb(32.940674%,33.332825%,53.334045%);stop-opacity:1;"/>
<stop offset="0.683594" style="stop-color:rgb(32.548523%,33.332825%,52.941895%);stop-opacity:1;"/>
<stop offset="0.6875" style="stop-color:rgb(32.548523%,32.940674%,52.941895%);stop-opacity:1;"/>
<stop offset="0.691406" style="stop-color:rgb(32.156372%,32.940674%,52.941895%);stop-opacity:1;"/>
<stop offset="0.695312" style="stop-color:rgb(31.764221%,32.548523%,52.549744%);stop-opacity:1;"/>
<stop offset="0.699219" style="stop-color:rgb(31.764221%,32.156372%,52.157593%);stop-opacity:1;"/>
<stop offset="0.703125" style="stop-color:rgb(31.37207%,32.156372%,52.157593%);stop-opacity:1;"/>
<stop offset="0.707031" style="stop-color:rgb(31.37207%,31.764221%,52.157593%);stop-opacity:1;"/>
<stop offset="0.710938" style="stop-color:rgb(30.587769%,31.764221%,52.157593%);stop-opacity:1;"/>
<stop offset="0.714844" style="stop-color:rgb(30.587769%,31.37207%,51.765442%);stop-opacity:1;"/>
<stop offset="0.71875" style="stop-color:rgb(30.195618%,30.979919%,51.765442%);stop-opacity:1;"/>
<stop offset="0.722656" style="stop-color:rgb(29.803467%,30.979919%,51.373291%);stop-opacity:1;"/>
<stop offset="0.726562" style="stop-color:rgb(29.803467%,30.587769%,51.373291%);stop-opacity:1;"/>
<stop offset="0.730469" style="stop-color:rgb(29.411316%,30.587769%,51.373291%);stop-opacity:1;"/>
<stop offset="0.734375" style="stop-color:rgb(29.019165%,30.587769%,51.373291%);stop-opacity:1;"/>
<stop offset="0.738281" style="stop-color:rgb(29.019165%,30.195618%,50.98114%);stop-opacity:1;"/>
<stop offset="0.742188" style="stop-color:rgb(28.627014%,29.803467%,50.98114%);stop-opacity:1;"/>
<stop offset="0.746094" style="stop-color:rgb(28.234863%,29.803467%,50.588989%);stop-opacity:1;"/>
<stop offset="0.75" style="stop-color:rgb(28.234863%,29.411316%,50.588989%);stop-opacity:1;"/>
<stop offset="0.753906" style="stop-color:rgb(27.842712%,29.411316%,50.196838%);stop-opacity:1;"/>
<stop offset="0.757812" style="stop-color:rgb(27.842712%,29.019165%,50.196838%);stop-opacity:1;"/>
<stop offset="0.761719" style="stop-color:rgb(27.450562%,29.019165%,50.196838%);stop-opacity:1;"/>
<stop offset="0.765625" style="stop-color:rgb(27.058411%,28.627014%,50.196838%);stop-opacity:1;"/>
<stop offset="0.769531" style="stop-color:rgb(26.66626%,28.627014%,49.803162%);stop-opacity:1;"/>
<stop offset="0.773438" style="stop-color:rgb(26.66626%,28.234863%,49.803162%);stop-opacity:1;"/>
<stop offset="0.777344" style="stop-color:rgb(26.274109%,28.234863%,49.803162%);stop-opacity:1;"/>
<stop offset="0.78125" style="stop-color:rgb(25.881958%,27.842712%,49.411011%);stop-opacity:1;"/>
<stop offset="0.785156" style="stop-color:rgb(25.489807%,27.842712%,49.411011%);stop-opacity:1;"/>
<stop offset="0.789062" style="stop-color:rgb(25.489807%,27.450562%,49.411011%);stop-opacity:1;"/>
<stop offset="0.792969" style="stop-color:rgb(25.097656%,27.058411%,49.01886%);stop-opacity:1;"/>
<stop offset="0.796875" style="stop-color:rgb(24.705505%,27.058411%,49.01886%);stop-opacity:1;"/>
<stop offset="0.800781" style="stop-color:rgb(24.313354%,26.66626%,48.626709%);stop-opacity:1;"/>
<stop offset="0.804688" style="stop-color:rgb(24.313354%,26.66626%,48.626709%);stop-opacity:1;"/>
<stop offset="0.808594" style="stop-color:rgb(23.921204%,26.66626%,48.626709%);stop-opacity:1;"/>
<stop offset="0.8125" style="stop-color:rgb(23.921204%,26.274109%,48.234558%);stop-opacity:1;"/>
<stop offset="0.816406" style="stop-color:rgb(23.529053%,25.881958%,48.234558%);stop-opacity:1;"/>
<stop offset="0.820312" style="stop-color:rgb(23.136902%,25.881958%,47.842407%);stop-opacity:1;"/>
<stop offset="0.824219" style="stop-color:rgb(22.744751%,25.489807%,47.842407%);stop-opacity:1;"/>
<stop offset="0.828125" style="stop-color:rgb(22.744751%,25.489807%,47.842407%);stop-opacity:1;"/>
<stop offset="0.832031" style="stop-color:rgb(22.3526%,25.097656%,47.842407%);stop-opacity:1;"/>
<stop offset="0.835938" style="stop-color:rgb(22.3526%,25.097656%,47.450256%);stop-opacity:1;"/>
<stop offset="0.839844" style="stop-color:rgb(21.960449%,24.705505%,47.058105%);stop-opacity:1;"/>
<stop offset="0.84375" style="stop-color:rgb(21.568298%,24.705505%,47.058105%);stop-opacity:1;"/>
<stop offset="0.847656" style="stop-color:rgb(21.176147%,24.313354%,47.058105%);stop-opacity:1;"/>
<stop offset="0.851562" style="stop-color:rgb(21.176147%,24.313354%,47.058105%);stop-opacity:1;"/>
<stop offset="0.855469" style="stop-color:rgb(20.391846%,23.921204%,47.058105%);stop-opacity:1;"/>
<stop offset="0.859375" style="stop-color:rgb(20.391846%,23.921204%,46.665955%);stop-opacity:1;"/>
<stop offset="0.863281" style="stop-color:rgb(19.999695%,23.529053%,46.665955%);stop-opacity:1;"/>
<stop offset="0.867188" style="stop-color:rgb(19.607544%,23.529053%,46.273804%);stop-opacity:1;"/>
<stop offset="0.871094" style="stop-color:rgb(19.215393%,23.136902%,46.273804%);stop-opacity:1;"/>
<stop offset="0.875" style="stop-color:rgb(19.215393%,23.136902%,46.273804%);stop-opacity:1;"/>
<stop offset="0.878906" style="stop-color:rgb(18.823242%,22.744751%,45.881653%);stop-opacity:1;"/>
<stop offset="0.882812" style="stop-color:rgb(18.431091%,22.744751%,45.881653%);stop-opacity:1;"/>
<stop offset="0.886719" style="stop-color:rgb(18.431091%,22.3526%,45.881653%);stop-opacity:1;"/>
<stop offset="0.890625" style="stop-color:rgb(18.03894%,22.3526%,45.881653%);stop-opacity:1;"/>
<stop offset="0.894531" style="stop-color:rgb(17.64679%,21.960449%,45.489502%);stop-opacity:1;"/>
<stop offset="0.898438" style="stop-color:rgb(17.64679%,21.960449%,45.489502%);stop-opacity:1;"/>
<stop offset="0.902344" style="stop-color:rgb(17.254639%,21.568298%,45.097351%);stop-opacity:1;"/>
<stop offset="0.90625" style="stop-color:rgb(17.254639%,21.568298%,45.097351%);stop-opacity:1;"/>
<stop offset="0.910156" style="stop-color:rgb(16.862488%,21.176147%,45.097351%);stop-opacity:1;"/>
<stop offset="0.914062" style="stop-color:rgb(16.470337%,20.783997%,44.7052%);stop-opacity:1;"/>
<stop offset="0.917969" style="stop-color:rgb(16.078186%,20.783997%,44.7052%);stop-opacity:1;"/>
<stop offset="0.921875" style="stop-color:rgb(15.686035%,20.783997%,44.7052%);stop-opacity:1;"/>
<stop offset="0.925781" style="stop-color:rgb(15.293884%,20.391846%,44.7052%);stop-opacity:1;"/>
<stop offset="0.929688" style="stop-color:rgb(14.901733%,20.391846%,44.313049%);stop-opacity:1;"/>
<stop offset="0.933594" style="stop-color:rgb(14.509583%,19.999695%,44.313049%);stop-opacity:1;"/>
<stop offset="0.9375" style="stop-color:rgb(14.117432%,19.607544%,43.920898%);stop-opacity:1;"/>
<stop offset="0.941406" style="stop-color:rgb(14.117432%,19.607544%,43.920898%);stop-opacity:1;"/>
<stop offset="0.945312" style="stop-color:rgb(13.725281%,19.215393%,43.920898%);stop-opacity:1;"/>
<stop offset="0.949219" style="stop-color:rgb(13.33313%,19.215393%,43.920898%);stop-opacity:1;"/>
<stop offset="0.953125" style="stop-color:rgb(13.33313%,18.823242%,43.528748%);stop-opacity:1;"/>
<stop offset="0.957031" style="stop-color:rgb(12.940979%,18.823242%,43.528748%);stop-opacity:1;"/>
<stop offset="0.960938" style="stop-color:rgb(12.548828%,18.823242%,43.528748%);stop-opacity:1;"/>
<stop offset="0.964844" style="stop-color:rgb(12.156677%,18.431091%,43.136597%);stop-opacity:1;"/>
<stop offset="0.96875" style="stop-color:rgb(11.764526%,18.03894%,43.136597%);stop-opacity:1;"/>
<stop offset="0.972656" style="stop-color:rgb(11.764526%,18.03894%,43.136597%);stop-opacity:1;"/>
<stop offset="0.976562" style="stop-color:rgb(11.372375%,18.03894%,43.136597%);stop-opacity:1;"/>
<stop offset="0.980469" style="stop-color:rgb(10.980225%,17.64679%,42.744446%);stop-opacity:1;"/>
<stop offset="0.984375" style="stop-color:rgb(10.980225%,17.64679%,42.744446%);stop-opacity:1;"/>
<stop offset="0.988281" style="stop-color:rgb(10.588074%,17.254639%,42.352295%);stop-opacity:1;"/>
<stop offset="0.992188" style="stop-color:rgb(10.195923%,16.862488%,42.352295%);stop-opacity:1;"/>
<stop offset="0.996094" style="stop-color:rgb(10.195923%,16.862488%,42.352295%);stop-opacity:1;"/>
<stop offset="1" style="stop-color:rgb(9.411621%,16.862488%,42.352295%);stop-opacity:1;"/>
</radialGradient>
</defs>
<g id="surface1">
<path style=" stroke:none;fill-rule:nonzero;fill:rgb(29.411316%,25.097656%,42.352295%);fill-opacity:1;" d="M 98.976562 58.78125 L 99.921875 58.898438 C 99.773438 59.46875 99.496094 59.910156 99.09375 60.226562 C 98.691406 60.539062 98.175781 60.695312 97.550781 60.695312 C 96.761719 60.695312 96.132812 60.445312 95.671875 59.945312 C 95.210938 59.445312 94.980469 58.742188 94.980469 57.835938 C 94.980469 56.902344 95.214844 56.175781 95.679688 55.65625 C 96.148438 55.140625 96.753906 54.882812 97.5 54.882812 C 98.21875 54.882812 98.808594 55.136719 99.265625 55.640625 C 99.722656 56.148438 99.953125 56.859375 99.953125 57.777344 C 99.953125 57.835938 99.949219 57.917969 99.945312 58.03125 L 95.925781 58.03125 C 95.957031 58.640625 96.125 59.109375 96.429688 59.433594 C 96.730469 59.757812 97.105469 59.921875 97.554688 59.921875 C 97.890625 59.921875 98.175781 59.832031 98.414062 59.648438 C 98.648438 59.46875 98.835938 59.179688 98.976562 58.78125 Z M 95.976562 57.253906 L 98.988281 57.253906 C 98.945312 56.789062 98.832031 56.4375 98.640625 56.203125 C 98.351562 55.839844 97.972656 55.65625 97.507812 55.65625 C 97.089844 55.65625 96.734375 55.800781 96.449219 56.09375 C 96.164062 56.382812 96.007812 56.769531 95.976562 57.253906 Z M 103.648438 60.570312 L 103.648438 55.007812 L 104.46875 55.007812 L 104.46875 55.800781 C 104.867188 55.1875 105.4375 54.882812 106.183594 54.882812 C 106.511719 54.882812 106.808594 54.941406 107.082031 55.0625 C 107.355469 55.183594 107.558594 55.339844 107.695312 55.539062 C 107.832031 55.734375 107.925781 55.964844 107.980469 56.234375 C 108.011719 56.410156 108.03125 56.714844 108.03125 57.152344 L 108.03125 60.570312 L 107.113281 60.570312 L 107.113281 57.1875 C 107.113281 56.804688 107.082031 56.515625 107.007812 56.324219 C 106.9375 56.136719 106.8125 55.984375 106.632812 55.871094 C 106.449219 55.757812 106.238281 55.699219 105.992188 55.699219 C 105.601562 55.699219 105.269531 55.828125 104.984375 56.082031 C 104.703125 56.335938 104.5625 56.820312 104.5625 57.535156 L 104.5625 60.570312 Z M 111.839844 61.03125 L 112.730469 61.167969 C 112.765625 61.449219 112.871094 61.65625 113.039062 61.789062 C 113.265625 61.960938 113.578125 62.046875 113.96875 62.046875 C 114.394531 62.046875 114.71875 61.960938 114.949219 61.789062 C 115.179688 61.613281 115.335938 61.367188 115.417969 61.054688 C 115.464844 60.859375 115.484375 60.457031 115.480469 59.84375 C 115.082031 60.328125 114.585938 60.570312 113.988281 60.570312 C 113.246094 60.570312 112.671875 60.296875 112.269531 59.742188 C 111.863281 59.191406 111.65625 58.53125 111.65625 57.757812 C 111.65625 57.226562 111.75 56.738281 111.9375 56.289062 C 112.125 55.839844 112.394531 55.492188 112.75 55.25 C 113.101562 55.003906 113.519531 54.882812 113.996094 54.882812 C 114.632812 54.882812 115.15625 55.148438 115.570312 55.679688 L 115.570312 55.007812 L 116.414062 55.007812 L 116.414062 59.816406 C 116.414062 60.683594 116.328125 61.296875 116.15625 61.660156 C 115.984375 62.019531 115.714844 62.304688 115.34375 62.515625 C 114.972656 62.722656 114.515625 62.828125 113.972656 62.828125 C 113.332031 62.828125 112.8125 62.679688 112.414062 62.382812 C 112.019531 62.082031 111.828125 61.632812 111.839844 61.03125 Z M 112.597656 57.691406 C 112.597656 58.421875 112.738281 58.953125 113.019531 59.289062 C 113.300781 59.625 113.652344 59.789062 114.078125 59.789062 C 114.496094 59.789062 114.847656 59.625 115.132812 59.292969 C 115.417969 58.957031 115.558594 58.433594 115.558594 57.722656 C 115.558594 57.039062 115.414062 56.527344 115.121094 56.179688 C 114.828125 55.835938 114.472656 55.664062 114.058594 55.664062 C 113.65625 55.664062 113.308594 55.832031 113.023438 56.175781 C 112.738281 56.515625 112.597656 57.019531 112.597656 57.691406 Z M 124.0625 58.78125 L 125.007812 58.898438 C 124.859375 59.46875 124.582031 59.910156 124.179688 60.226562 C 123.777344 60.539062 123.261719 60.695312 122.636719 60.695312 C 121.847656 60.695312 121.222656 60.445312 120.761719 59.945312 C 120.296875 59.445312 120.066406 58.742188 120.066406 57.835938 C 120.066406 56.902344 120.300781 56.175781 120.765625 55.65625 C 121.234375 55.140625 121.839844 54.882812 122.585938 54.882812 C 123.308594 54.882812 123.894531 55.136719 124.351562 55.640625 C 124.808594 56.148438 125.039062 56.859375 125.039062 57.777344 C 125.039062 57.835938 125.035156 57.917969 125.035156 58.03125 L 121.011719 58.03125 C 121.042969 58.640625 121.214844 59.109375 121.515625 59.433594 C 121.816406 59.757812 122.191406 59.921875 122.640625 59.921875 C 122.976562 59.921875 123.261719 59.832031 123.5 59.648438 C 123.738281 59.46875 123.925781 59.179688 124.0625 58.78125 Z M 121.0625 57.253906 L 124.074219 57.253906 C 124.035156 56.789062 123.917969 56.4375 123.726562 56.203125 C 123.4375 55.839844 123.058594 55.65625 122.597656 55.65625 C 122.175781 55.65625 121.824219 55.800781 121.535156 56.09375 C 121.25 56.382812 121.09375 56.769531 121.0625 57.253906 Z M 128.734375 60.570312 L 128.734375 55.007812 L 129.554688 55.007812 L 129.554688 55.800781 C 129.953125 55.1875 130.523438 54.882812 131.273438 54.882812 C 131.597656 54.882812 131.894531 54.941406 132.167969 55.0625 C 132.441406 55.183594 132.644531 55.339844 132.78125 55.539062 C 132.917969 55.734375 133.011719 55.964844 133.066406 56.234375 C 133.097656 56.410156 133.117188 56.714844 133.117188 57.152344 L 133.117188 60.570312 L 132.203125 60.570312 L 132.203125 57.1875 C 132.203125 56.804688 132.167969 56.515625 132.097656 56.324219 C 132.023438 56.136719 131.898438 55.984375 131.71875 55.871094 C 131.535156 55.757812 131.324219 55.699219 131.078125 55.699219 C 130.691406 55.699219 130.355469 55.828125 130.070312 56.082031 C 129.789062 56.335938 129.648438 56.820312 129.648438 57.535156 L 129.648438 60.570312 Z M 137.097656 60.570312 L 137.097656 52.890625 L 138.011719 52.890625 L 138.011719 55.648438 C 138.4375 55.136719 138.976562 54.882812 139.625 54.882812 C 140.023438 54.882812 140.371094 54.964844 140.667969 55.125 C 140.960938 55.289062 141.171875 55.511719 141.296875 55.800781 C 141.425781 56.085938 141.488281 56.5 141.488281 57.046875 L 141.488281 60.570312 L 140.574219 60.570312 L 140.574219 57.046875 C 140.574219 56.574219 140.476562 56.230469 140.277344 56.015625 C 140.082031 55.800781 139.800781 55.695312 139.4375 55.695312 C 139.167969 55.695312 138.910156 55.765625 138.671875 55.910156 C 138.433594 56.058594 138.261719 56.253906 138.164062 56.5 C 138.0625 56.75 138.011719 57.089844 138.011719 57.527344 L 138.011719 60.570312 Z M 148.976562 59.882812 C 148.636719 60.183594 148.3125 60.390625 148 60.515625 C 147.6875 60.636719 147.351562 60.695312 146.992188 60.695312 C 146.398438 60.695312 145.945312 60.546875 145.625 60.25 C 145.308594 59.949219 145.148438 59.566406 145.148438 59.105469 C 145.148438 58.832031 145.207031 58.582031 145.328125 58.359375 C 145.449219 58.132812 145.605469 57.953125 145.800781 57.816406 C 145.996094 57.679688 146.214844 57.578125 146.460938 57.507812 C 146.636719 57.457031 146.910156 57.410156 147.269531 57.367188 C 148.007812 57.273438 148.554688 57.167969 148.902344 57.039062 C 148.90625 56.910156 148.90625 56.828125 148.90625 56.792969 C 148.90625 56.410156 148.820312 56.140625 148.648438 55.984375 C 148.414062 55.769531 148.066406 55.664062 147.605469 55.664062 C 147.175781 55.664062 146.859375 55.738281 146.652344 55.894531 C 146.449219 56.050781 146.296875 56.328125 146.199219 56.722656 L 145.308594 56.59375 C 145.386719 56.203125 145.523438 55.882812 145.707031 55.640625 C 145.890625 55.398438 146.164062 55.207031 146.515625 55.078125 C 146.867188 54.949219 147.273438 54.882812 147.738281 54.882812 C 148.199219 54.882812 148.574219 54.9375 148.859375 55.050781 C 149.148438 55.164062 149.359375 55.300781 149.496094 55.472656 C 149.632812 55.640625 149.726562 55.855469 149.78125 56.113281 C 149.808594 56.273438 149.824219 56.5625 149.824219 56.984375 L 149.824219 58.238281 C 149.824219 59.117188 149.84375 59.671875 149.886719 59.902344 C 149.921875 60.136719 150 60.359375 150.117188 60.570312 L 149.160156 60.570312 C 149.066406 60.375 149.003906 60.148438 148.976562 59.882812 Z M 148.902344 57.777344 C 148.570312 57.917969 148.070312 58.039062 147.410156 58.136719 C 147.03125 58.191406 146.765625 58.253906 146.613281 58.324219 C 146.457031 58.394531 146.335938 58.496094 146.25 58.632812 C 146.167969 58.765625 146.125 58.914062 146.125 59.078125 C 146.125 59.332031 146.214844 59.539062 146.398438 59.707031 C 146.585938 59.875 146.855469 59.957031 147.210938 59.957031 C 147.5625 59.957031 147.875 59.878906 148.148438 59.71875 C 148.421875 59.5625 148.625 59.34375 148.753906 59.066406 C 148.851562 58.855469 148.902344 58.539062 148.902344 58.125 Z M 153.8125 60.570312 L 153.8125 55.007812 L 154.632812 55.007812 L 154.632812 55.851562 C 154.84375 55.457031 155.035156 55.195312 155.214844 55.070312 C 155.390625 54.945312 155.585938 54.882812 155.800781 54.882812 C 156.109375 54.882812 156.421875 54.984375 156.742188 55.1875 L 156.425781 56.0625 C 156.203125 55.925781 155.980469 55.855469 155.753906 55.855469 C 155.554688 55.855469 155.375 55.917969 155.21875 56.042969 C 155.058594 56.167969 154.945312 56.339844 154.878906 56.558594 C 154.773438 56.894531 154.722656 57.261719 154.722656 57.660156 L 154.722656 60.570312 Z M 159.867188 53.976562 L 159.867188 52.890625 L 160.78125 52.890625 L 160.78125 53.976562 Z M 159.867188 60.570312 L 159.867188 55.007812 L 160.78125 55.007812 L 160.78125 60.570312 Z M 168.269531 59.882812 C 167.929688 60.183594 167.605469 60.390625 167.292969 60.515625 C 166.976562 60.636719 166.640625 60.695312 166.285156 60.695312 C 165.691406 60.695312 165.234375 60.546875 164.917969 60.25 C 164.601562 59.949219 164.441406 59.566406 164.441406 59.105469 C 164.441406 58.832031 164.5 58.582031 164.621094 58.359375 C 164.738281 58.132812 164.898438 57.953125 165.09375 57.816406 C 165.289062 57.679688 165.507812 57.578125 165.75 57.507812 C 165.929688 57.457031 166.199219 57.410156 166.5625 57.367188 C 167.300781 57.273438 167.84375 57.167969 168.195312 57.039062 C 168.195312 56.910156 168.199219 56.828125 168.199219 56.792969 C 168.199219 56.410156 168.113281 56.140625 167.9375 55.984375 C 167.707031 55.769531 167.359375 55.664062 166.898438 55.664062 C 166.46875 55.664062 166.152344 55.738281 165.945312 55.894531 C 165.742188 56.050781 165.589844 56.328125 165.492188 56.722656 L 164.597656 56.59375 C 164.679688 56.203125 164.8125 55.882812 165 55.640625 C 165.183594 55.398438 165.453125 55.207031 165.804688 55.078125 C 166.160156 54.949219 166.566406 54.882812 167.03125 54.882812 C 167.492188 54.882812 167.863281 54.9375 168.152344 55.050781 C 168.441406 55.164062 168.652344 55.300781 168.789062 55.472656 C 168.921875 55.640625 169.015625 55.855469 169.074219 56.113281 C 169.101562 56.273438 169.117188 56.5625 169.117188 56.984375 L 169.117188 58.238281 C 169.117188 59.117188 169.136719 59.671875 169.175781 59.902344 C 169.214844 60.136719 169.292969 60.359375 169.40625 60.570312 L 168.453125 60.570312 C 168.359375 60.375 168.296875 60.148438 168.269531 59.882812 Z M 168.195312 57.777344 C 167.859375 57.917969 167.363281 58.039062 166.699219 58.136719 C 166.324219 58.191406 166.058594 58.253906 165.902344 58.324219 C 165.746094 58.394531 165.625 58.496094 165.542969 58.632812 C 165.457031 58.765625 165.414062 58.914062 165.414062 59.078125 C 165.414062 59.332031 165.507812 59.539062 165.691406 59.707031 C 165.875 59.875 166.148438 59.957031 166.5 59.957031 C 166.851562 59.957031 167.167969 59.878906 167.441406 59.71875 C 167.714844 59.5625 167.917969 59.34375 168.046875 59.066406 C 168.144531 58.855469 168.195312 58.539062 168.195312 58.125 Z M 168.195312 57.777344 "/>
<path style=" stroke:none;fill-rule:nonzero;fill:rgb(29.411316%,25.097656%,42.352295%);fill-opacity:1;" d="M 102.421875 13.800781 L 109.980469 13.800781 L 109.859375 32.882812 C 109.832031 37.710938 108.828125 41.304688 106.84375 43.671875 C 104.855469 46.039062 101.839844 47.21875 97.789062 47.21875 C 97.320312 47.21875 96.828125 47.195312 96.300781 47.148438 C 95.777344 47.097656 95.230469 47.027344 94.65625 46.941406 L 95.089844 39.679688 C 95.253906 39.695312 95.421875 39.710938 95.589844 39.71875 C 95.765625 39.726562 96.019531 39.726562 96.339844 39.726562 C 98.5 39.726562 100.019531 39.066406 100.890625 37.75 C 101.761719 36.4375 102.21875 34.070312 102.261719 30.640625 Z M 122.941406 32.242188 L 122.816406 41.144531 L 125.964844 41.144531 C 127.589844 41.144531 128.8125 40.777344 129.648438 40.046875 C 130.484375 39.3125 130.90625 38.238281 130.90625 36.800781 C 130.90625 35.273438 130.519531 34.132812 129.746094 33.375 C 128.964844 32.617188 127.8125 32.242188 126.273438 32.242188 Z M 123.144531 19.007812 L 123.019531 27.175781 L 126.359375 27.175781 C 127.644531 27.175781 128.683594 26.800781 129.480469 26.050781 C 130.265625 25.308594 130.660156 24.332031 130.660156 23.109375 C 130.660156 21.75 130.296875 20.71875 129.570312 20.035156 C 128.839844 19.347656 127.757812 19.007812 126.316406 19.007812 Z M 115.6875 13.800781 L 129.09375 13.800781 C 132.1875 13.800781 134.464844 14.464844 135.925781 15.792969 C 137.386719 17.125 138.117188 19.191406 138.117188 21.972656 C 138.117188 24.125 137.628906 25.828125 136.636719 27.101562 C 135.644531 28.386719 134.15625 29.222656 132.164062 29.628906 C 134.183594 29.910156 135.722656 30.753906 136.777344 32.171875 C 137.839844 33.589844 138.363281 35.496094 138.363281 37.894531 C 138.363281 40.84375 137.542969 43.058594 135.890625 44.558594 C 134.246094 46.046875 131.804688 46.796875 128.578125 46.796875 L 115.175781 46.796875 Z M 150.644531 19.78125 L 150.519531 28.722656 L 153.589844 28.722656 C 155.144531 28.722656 156.320312 28.339844 157.128906 27.574219 C 157.929688 26.816406 158.328125 25.691406 158.328125 24.21875 C 158.328125 22.769531 157.957031 21.667969 157.21875 20.910156 C 156.472656 20.15625 155.398438 19.78125 153.984375 19.78125 Z M 143.207031 13.800781 L 154.273438 13.800781 C 158.046875 13.800781 160.875 14.558594 162.757812 16.082031 C 164.636719 17.597656 165.578125 19.882812 165.578125 22.925781 C 165.578125 25.421875 165.027344 27.40625 163.9375 28.890625 C 162.847656 30.363281 161.210938 31.328125 159.03125 31.78125 C 159.945312 32.140625 160.753906 32.699219 161.4375 33.464844 C 162.125 34.21875 162.800781 35.304688 163.453125 36.707031 L 168.191406 46.796875 L 159.917969 46.796875 L 155.757812 37.480469 C 155.285156 36.453125 154.785156 35.726562 154.257812 35.320312 C 153.730469 34.90625 152.972656 34.699219 151.980469 34.699219 L 150.519531 34.699219 L 150.351562 46.796875 L 142.792969 46.796875 Z M 143.207031 13.800781 "/>
<path style=" stroke:none;fill-rule:evenodd;fill:rgb(29.411316%,25.097656%,42.352295%);fill-opacity:1;" d="M 61.664062 71.390625 C 54.152344 67.292969 32.417969 57.058594 19.800781 45.5 C 8.339844 35.910156 5.265625 16.246094 30.105469 15.019531 C 36.238281 15.007812 47.515625 16.65625 52.148438 20.339844 C 37.519531 7.367188 3.113281 4.613281 1.019531 25.59375 C -0.183594 50.363281 53.609375 70.128906 61.664062 71.390625 "/>
<g clip-path="url(#clip1)" clip-rule="nonzero">
<g clip-path="url(#clip2)" clip-rule="evenodd">
<path style=" stroke:none;fill-rule:nonzero;fill:url(#radial0);" d="M 22.292969 55.246094 L 22.292969 17.253906 L 60.285156 17.253906 L 60.285156 55.246094 Z M 22.292969 55.246094 "/>
</g>
</g>
<path style=" stroke:none;fill-rule:evenodd;fill:rgb(75.686646%,70.588684%,0%);fill-opacity:1;" d="M 20.734375 1 C 28.242188 5.097656 49.976562 15.328125 62.597656 26.886719 C 74.054688 36.476562 77.128906 56.140625 52.292969 57.367188 C 46.160156 57.382812 34.878906 55.730469 30.246094 52.050781 C 44.878906 65.023438 79.285156 67.773438 81.375 46.792969 C 82.578125 22.027344 28.785156 2.257812 20.734375 1 "/>
<path style=" stroke:none;fill-rule:evenodd;fill:rgb(29.411316%,25.097656%,42.352295%);fill-opacity:1;" d="M 172.875 13.625 C 171.5 13.625 170.265625 14.132812 169.332031 15.082031 C 168.339844 16.074219 167.800781 17.363281 167.800781 18.710938 C 167.800781 20.058594 168.324219 21.320312 169.289062 22.28125 C 170.265625 23.257812 171.527344 23.800781 172.875 23.800781 C 174.207031 23.800781 175.480469 23.257812 176.488281 22.28125 C 177.453125 21.347656 177.960938 20.101562 177.960938 18.710938 C 177.960938 17.351562 177.453125 16.074219 176.503906 15.125 C 175.523438 14.148438 174.261719 13.625 172.875 13.625 Z M 177.367188 18.738281 C 177.367188 19.945312 176.898438 21.035156 176.0625 21.855469 C 175.183594 22.722656 174.066406 23.175781 172.859375 23.175781 C 171.699219 23.175781 170.578125 22.722656 169.730469 21.855469 C 168.878906 20.992188 168.410156 19.886719 168.410156 18.710938 C 168.410156 17.519531 168.878906 16.386719 169.757812 15.507812 C 170.578125 14.671875 171.671875 14.234375 172.875 14.234375 C 174.105469 14.234375 175.210938 14.6875 176.078125 15.550781 C 176.914062 16.386719 177.367188 17.519531 177.367188 18.738281 Z M 173.015625 15.722656 L 170.863281 15.722656 L 170.863281 21.53125 L 171.839844 21.53125 L 171.839844 19.007812 L 173.074219 19.007812 L 174.292969 21.53125 L 175.382812 21.53125 L 174.078125 18.867188 C 174.929688 18.726562 175.4375 18.128906 175.4375 17.324219 C 175.4375 16.230469 174.632812 15.722656 173.015625 15.722656 Z M 172.832031 16.359375 C 173.921875 16.359375 174.433594 16.640625 174.433594 17.394531 C 174.433594 18.128906 173.9375 18.371094 172.859375 18.371094 L 171.839844 18.371094 L 171.839844 16.359375 Z M 172.832031 16.359375 "/>
<path style=" stroke:none;fill-rule:nonzero;fill:rgb(29.411316%,25.097656%,42.352295%);fill-opacity:1;" d="M 97.109375 70.542969 L 97.621094 70.671875 C 97.515625 71.089844 97.320312 71.414062 97.042969 71.632812 C 96.765625 71.855469 96.421875 71.964844 96.019531 71.964844 C 95.601562 71.964844 95.265625 71.878906 95.003906 71.710938 C 94.742188 71.539062 94.542969 71.292969 94.40625 70.972656 C 94.273438 70.652344 94.203125 70.304688 94.203125 69.933594 C 94.203125 69.53125 94.28125 69.183594 94.433594 68.882812 C 94.589844 68.582031 94.804688 68.355469 95.089844 68.199219 C 95.375 68.042969 95.6875 67.964844 96.027344 67.964844 C 96.414062 67.964844 96.742188 68.0625 97.003906 68.261719 C 97.269531 68.457031 97.453125 68.734375 97.554688 69.09375 L 97.050781 69.210938 C 96.960938 68.929688 96.832031 68.722656 96.660156 68.597656 C 96.492188 68.46875 96.277344 68.402344 96.019531 68.402344 C 95.71875 68.402344 95.472656 68.472656 95.273438 68.617188 C 95.074219 68.757812 94.933594 68.949219 94.851562 69.191406 C 94.773438 69.429688 94.730469 69.679688 94.730469 69.933594 C 94.730469 70.261719 94.777344 70.550781 94.875 70.792969 C 94.972656 71.039062 95.121094 71.222656 95.320312 71.34375 C 95.523438 71.464844 95.742188 71.527344 95.980469 71.527344 C 96.265625 71.527344 96.507812 71.445312 96.707031 71.277344 C 96.90625 71.113281 97.039062 70.867188 97.109375 70.542969 Z M 98.1875 71.898438 L 98.1875 69.097656 L 98.613281 69.097656 L 98.613281 69.519531 C 98.722656 69.324219 98.824219 69.191406 98.917969 69.128906 C 99.007812 69.066406 99.109375 69.035156 99.21875 69.035156 C 99.382812 69.035156 99.542969 69.085938 99.707031 69.1875 L 99.542969 69.628906 C 99.429688 69.558594 99.3125 69.523438 99.195312 69.523438 C 99.09375 69.523438 99 69.554688 98.917969 69.617188 C 98.835938 69.679688 98.777344 69.765625 98.742188 69.878906 C 98.6875 70.046875 98.660156 70.230469 98.660156 70.433594 L 98.660156 71.898438 Z M 99.992188 68.578125 L 99.992188 68.03125 L 100.46875 68.03125 L 100.46875 68.578125 Z M 99.992188 71.898438 L 99.992188 69.097656 L 100.46875 69.097656 L 100.46875 71.898438 Z M 103.019531 71.554688 C 102.84375 71.703125 102.675781 71.808594 102.511719 71.871094 C 102.347656 71.929688 102.175781 71.960938 101.988281 71.960938 C 101.679688 71.960938 101.445312 71.886719 101.277344 71.734375 C 101.113281 71.585938 101.03125 71.394531 101.03125 71.160156 C 101.03125 71.023438 101.0625 70.898438 101.125 70.785156 C 101.1875 70.671875 101.269531 70.578125 101.371094 70.511719 C 101.472656 70.441406 101.585938 70.390625 101.710938 70.355469 C 101.804688 70.332031 101.945312 70.304688 102.132812 70.285156 C 102.515625 70.238281 102.800781 70.183594 102.980469 70.121094 C 102.980469 70.054688 102.984375 70.015625 102.984375 69.996094 C 102.984375 69.804688 102.9375 69.667969 102.847656 69.589844 C 102.726562 69.480469 102.546875 69.425781 102.308594 69.425781 C 102.085938 69.425781 101.917969 69.464844 101.8125 69.542969 C 101.707031 69.621094 101.628906 69.761719 101.574219 69.960938 L 101.113281 69.894531 C 101.15625 69.699219 101.222656 69.535156 101.320312 69.414062 C 101.417969 69.292969 101.558594 69.199219 101.738281 69.132812 C 101.921875 69.066406 102.132812 69.035156 102.375 69.035156 C 102.617188 69.035156 102.808594 69.0625 102.957031 69.117188 C 103.109375 69.175781 103.21875 69.246094 103.289062 69.332031 C 103.359375 69.414062 103.40625 69.523438 103.4375 69.652344 C 103.453125 69.734375 103.460938 69.878906 103.460938 70.089844 L 103.460938 70.722656 C 103.460938 71.167969 103.46875 71.445312 103.492188 71.5625 C 103.511719 71.679688 103.550781 71.792969 103.609375 71.898438 L 103.113281 71.898438 C 103.066406 71.800781 103.035156 71.683594 103.019531 71.554688 Z M 102.980469 70.492188 C 102.808594 70.5625 102.546875 70.621094 102.203125 70.671875 C 102.007812 70.699219 101.871094 70.730469 101.789062 70.765625 C 101.710938 70.800781 101.644531 70.851562 101.601562 70.921875 C 101.558594 70.988281 101.535156 71.0625 101.535156 71.144531 C 101.535156 71.273438 101.585938 71.378906 101.679688 71.464844 C 101.777344 71.546875 101.917969 71.589844 102.101562 71.589844 C 102.285156 71.589844 102.445312 71.550781 102.589844 71.46875 C 102.730469 71.390625 102.835938 71.28125 102.902344 71.140625 C 102.953125 71.035156 102.980469 70.875 102.980469 70.667969 Z M 104.195312 71.898438 L 104.195312 69.097656 L 104.625 69.097656 L 104.625 69.496094 C 104.828125 69.1875 105.125 69.035156 105.515625 69.035156 C 105.683594 69.035156 105.839844 69.0625 105.980469 69.125 C 106.121094 69.183594 106.226562 69.265625 106.296875 69.363281 C 106.371094 69.460938 106.417969 69.578125 106.445312 69.714844 C 106.464844 69.800781 106.472656 69.957031 106.472656 70.175781 L 106.472656 71.898438 L 105.996094 71.898438 L 105.996094 70.195312 C 105.996094 70 105.980469 69.855469 105.941406 69.757812 C 105.90625 69.664062 105.839844 69.589844 105.746094 69.53125 C 105.652344 69.472656 105.542969 69.445312 105.414062 69.445312 C 105.210938 69.445312 105.039062 69.507812 104.890625 69.636719 C 104.742188 69.765625 104.671875 70.007812 104.671875 70.367188 L 104.671875 71.898438 Z M 109.019531 71.898438 L 109.019531 71.542969 C 108.839844 71.824219 108.578125 71.960938 108.234375 71.960938 C 108.011719 71.960938 107.804688 71.902344 107.617188 71.777344 C 107.429688 71.65625 107.285156 71.480469 107.183594 71.261719 C 107.082031 71.039062 107.027344 70.789062 107.027344 70.5 C 107.027344 70.222656 107.074219 69.96875 107.167969 69.738281 C 107.261719 69.511719 107.402344 69.335938 107.589844 69.214844 C 107.773438 69.09375 107.984375 69.035156 108.214844 69.035156 C 108.382812 69.035156 108.53125 69.070312 108.664062 69.140625 C 108.796875 69.210938 108.902344 69.304688 108.988281 69.417969 L 108.988281 68.03125 L 109.457031 68.03125 L 109.457031 71.898438 Z M 107.515625 70.5 C 107.515625 70.859375 107.59375 71.128906 107.746094 71.304688 C 107.894531 71.480469 108.074219 71.570312 108.28125 71.570312 C 108.488281 71.570312 108.664062 71.484375 108.808594 71.316406 C 108.953125 71.148438 109.027344 70.886719 109.027344 70.539062 C 109.027344 70.15625 108.953125 69.875 108.804688 69.695312 C 108.65625 69.515625 108.476562 69.425781 108.257812 69.425781 C 108.046875 69.425781 107.871094 69.511719 107.730469 69.683594 C 107.589844 69.855469 107.515625 70.128906 107.515625 70.5 Z M 110.027344 70.496094 C 110.027344 69.980469 110.171875 69.59375 110.460938 69.34375 C 110.703125 69.136719 110.996094 69.035156 111.34375 69.035156 C 111.726562 69.035156 112.042969 69.160156 112.285156 69.414062 C 112.53125 69.664062 112.652344 70.011719 112.652344 70.457031 C 112.652344 70.820312 112.597656 71.101562 112.492188 71.308594 C 112.382812 71.515625 112.226562 71.675781 112.019531 71.789062 C 111.8125 71.90625 111.585938 71.960938 111.34375 71.960938 C 110.949219 71.960938 110.632812 71.835938 110.390625 71.585938 C 110.148438 71.332031 110.027344 70.972656 110.027344 70.496094 Z M 110.515625 70.496094 C 110.515625 70.855469 110.59375 71.125 110.753906 71.304688 C 110.910156 71.480469 111.105469 71.570312 111.34375 71.570312 C 111.578125 71.570312 111.773438 71.480469 111.929688 71.300781 C 112.085938 71.125 112.164062 70.847656 112.164062 70.480469 C 112.164062 70.136719 112.085938 69.871094 111.929688 69.695312 C 111.773438 69.515625 111.578125 69.425781 111.34375 69.425781 C 111.105469 69.425781 110.910156 69.515625 110.753906 69.695312 C 110.59375 69.871094 110.515625 70.140625 110.515625 70.496094 Z M 114.597656 70.65625 L 115.082031 70.613281 C 115.105469 70.808594 115.15625 70.964844 115.242188 71.089844 C 115.324219 71.214844 115.453125 71.3125 115.628906 71.390625 C 115.804688 71.46875 116.003906 71.503906 116.222656 71.503906 C 116.417969 71.503906 116.589844 71.476562 116.738281 71.417969 C 116.890625 71.359375 117 71.28125 117.074219 71.179688 C 117.148438 71.078125 117.183594 70.96875 117.183594 70.847656 C 117.183594 70.726562 117.148438 70.621094 117.078125 70.53125 C 117.007812 70.441406 116.890625 70.363281 116.730469 70.304688 C 116.625 70.261719 116.398438 70.199219 116.039062 70.113281 C 115.6875 70.027344 115.4375 69.949219 115.292969 69.871094 C 115.109375 69.777344 114.972656 69.65625 114.882812 69.511719 C 114.792969 69.367188 114.746094 69.207031 114.746094 69.03125 C 114.746094 68.835938 114.800781 68.652344 114.910156 68.484375 C 115.023438 68.3125 115.183594 68.183594 115.398438 68.097656 C 115.609375 68.007812 115.847656 67.964844 116.105469 67.964844 C 116.394531 67.964844 116.644531 68.011719 116.867188 68.105469 C 117.085938 68.195312 117.253906 68.332031 117.371094 68.511719 C 117.488281 68.691406 117.550781 68.894531 117.5625 69.121094 L 117.070312 69.15625 C 117.042969 68.914062 116.953125 68.726562 116.800781 68.605469 C 116.648438 68.480469 116.425781 68.417969 116.128906 68.417969 C 115.820312 68.417969 115.59375 68.472656 115.453125 68.585938 C 115.308594 68.699219 115.238281 68.835938 115.238281 68.996094 C 115.238281 69.136719 115.289062 69.25 115.390625 69.339844 C 115.488281 69.429688 115.746094 69.519531 116.160156 69.613281 C 116.578125 69.710938 116.863281 69.792969 117.015625 69.863281 C 117.242188 69.964844 117.410156 70.097656 117.515625 70.257812 C 117.621094 70.414062 117.675781 70.597656 117.675781 70.804688 C 117.675781 71.011719 117.617188 71.207031 117.5 71.386719 C 117.382812 71.570312 117.210938 71.710938 116.992188 71.8125 C 116.773438 71.914062 116.523438 71.964844 116.246094 71.964844 C 115.898438 71.964844 115.605469 71.914062 115.367188 71.8125 C 115.128906 71.710938 114.945312 71.554688 114.808594 71.351562 C 114.675781 71.144531 114.605469 70.914062 114.597656 70.65625 Z M 118.136719 70.496094 C 118.136719 69.980469 118.28125 69.59375 118.570312 69.34375 C 118.8125 69.136719 119.105469 69.035156 119.453125 69.035156 C 119.835938 69.035156 120.152344 69.160156 120.394531 69.414062 C 120.640625 69.664062 120.761719 70.011719 120.761719 70.457031 C 120.761719 70.820312 120.710938 71.101562 120.601562 71.308594 C 120.492188 71.515625 120.335938 71.675781 120.128906 71.789062 C 119.921875 71.90625 119.695312 71.960938 119.453125 71.960938 C 119.058594 71.960938 118.742188 71.835938 118.5 71.585938 C 118.257812 71.332031 118.136719 70.972656 118.136719 70.496094 Z M 118.625 70.496094 C 118.625 70.855469 118.703125 71.125 118.859375 71.304688 C 119.019531 71.480469 119.214844 71.570312 119.453125 71.570312 C 119.6875 71.570312 119.882812 71.480469 120.039062 71.300781 C 120.195312 71.125 120.273438 70.847656 120.273438 70.480469 C 120.273438 70.136719 120.195312 69.871094 120.039062 69.695312 C 119.882812 69.515625 119.6875 69.425781 119.453125 69.425781 C 119.214844 69.425781 119.019531 69.515625 118.859375 69.695312 C 118.703125 69.871094 118.625 70.140625 118.625 70.496094 Z M 121.308594 71.898438 L 121.308594 68.03125 L 121.785156 68.03125 L 121.785156 71.898438 Z M 124.355469 71.898438 L 124.355469 71.488281 C 124.136719 71.804688 123.839844 71.960938 123.46875 71.960938 C 123.300781 71.960938 123.148438 71.929688 123.003906 71.867188 C 122.859375 71.804688 122.753906 71.722656 122.683594 71.628906 C 122.613281 71.53125 122.566406 71.414062 122.539062 71.277344 C 122.519531 71.183594 122.511719 71.035156 122.511719 70.832031 L 122.511719 69.097656 L 122.984375 69.097656 L 122.984375 70.652344 C 122.984375 70.898438 122.996094 71.066406 123.011719 71.152344 C 123.042969 71.277344 123.105469 71.375 123.203125 71.445312 C 123.300781 71.519531 123.421875 71.554688 123.5625 71.554688 C 123.703125 71.554688 123.839844 71.515625 123.964844 71.445312 C 124.089844 71.371094 124.175781 71.269531 124.226562 71.144531 C 124.28125 71.019531 124.304688 70.835938 124.304688 70.597656 L 124.304688 69.097656 L 124.78125 69.097656 L 124.78125 71.898438 Z M 127.351562 70.871094 L 127.820312 70.933594 C 127.769531 71.253906 127.640625 71.507812 127.429688 71.6875 C 127.21875 71.871094 126.960938 71.960938 126.652344 71.960938 C 126.269531 71.960938 125.960938 71.835938 125.730469 71.585938 C 125.496094 71.335938 125.378906 70.976562 125.378906 70.507812 C 125.378906 70.207031 125.429688 69.941406 125.53125 69.714844 C 125.632812 69.488281 125.78125 69.316406 125.988281 69.203125 C 126.191406 69.089844 126.417969 69.035156 126.65625 69.035156 C 126.960938 69.035156 127.210938 69.109375 127.402344 69.265625 C 127.597656 69.417969 127.722656 69.636719 127.777344 69.921875 L 127.3125 69.992188 C 127.269531 69.804688 127.191406 69.660156 127.082031 69.566406 C 126.96875 69.472656 126.832031 69.425781 126.675781 69.425781 C 126.4375 69.425781 126.242188 69.507812 126.09375 69.683594 C 125.941406 69.851562 125.867188 70.125 125.867188 70.496094 C 125.867188 70.871094 125.941406 71.144531 126.085938 71.316406 C 126.230469 71.484375 126.417969 71.570312 126.648438 71.570312 C 126.835938 71.570312 126.992188 71.515625 127.117188 71.398438 C 127.242188 71.285156 127.320312 71.109375 127.351562 70.871094 Z M 126.253906 72.25 L 126.390625 71.785156 L 126.742188 71.785156 L 126.65625 72.066406 C 126.804688 72.085938 126.917969 72.132812 126.992188 72.207031 C 127.070312 72.28125 127.105469 72.363281 127.105469 72.453125 C 127.105469 72.585938 127.042969 72.703125 126.917969 72.804688 C 126.789062 72.90625 126.601562 72.957031 126.34375 72.957031 C 126.199219 72.957031 126.074219 72.945312 125.964844 72.925781 L 125.996094 72.617188 C 126.105469 72.621094 126.191406 72.625 126.242188 72.625 C 126.40625 72.625 126.523438 72.601562 126.589844 72.558594 C 126.640625 72.523438 126.667969 72.480469 126.667969 72.429688 C 126.667969 72.394531 126.65625 72.367188 126.636719 72.34375 C 126.617188 72.320312 126.578125 72.296875 126.523438 72.28125 C 126.46875 72.261719 126.378906 72.253906 126.253906 72.25 Z M 128.050781 70.496094 C 128.050781 69.980469 128.195312 69.59375 128.480469 69.34375 C 128.722656 69.136719 129.015625 69.035156 129.363281 69.035156 C 129.75 69.035156 130.0625 69.160156 130.308594 69.414062 C 130.550781 69.664062 130.675781 70.011719 130.675781 70.457031 C 130.675781 70.820312 130.621094 71.101562 130.511719 71.308594 C 130.402344 71.515625 130.246094 71.675781 130.039062 71.789062 C 129.832031 71.90625 129.609375 71.960938 129.363281 71.960938 C 128.972656 71.960938 128.65625 71.835938 128.414062 71.585938 C 128.167969 71.332031 128.050781 70.972656 128.050781 70.496094 Z M 128.539062 70.496094 C 128.539062 70.855469 128.617188 71.125 128.773438 71.304688 C 128.929688 71.480469 129.125 71.570312 129.363281 71.570312 C 129.597656 71.570312 129.796875 71.480469 129.953125 71.300781 C 130.109375 71.125 130.1875 70.847656 130.1875 70.480469 C 130.1875 70.136719 130.109375 69.871094 129.949219 69.695312 C 129.792969 69.515625 129.597656 69.425781 129.363281 69.425781 C 129.125 69.425781 128.929688 69.515625 128.773438 69.695312 C 128.617188 69.871094 128.539062 70.140625 128.539062 70.496094 Z M 128.480469 68.683594 C 128.476562 68.5 128.527344 68.355469 128.628906 68.246094 C 128.730469 68.136719 128.859375 68.082031 129.015625 68.082031 C 129.125 68.082031 129.273438 68.128906 129.460938 68.222656 C 129.566406 68.277344 129.648438 68.304688 129.707031 68.304688 C 129.765625 68.304688 129.808594 68.289062 129.835938 68.257812 C 129.867188 68.226562 129.890625 68.164062 129.902344 68.074219 L 130.242188 68.074219 C 130.238281 68.273438 130.1875 68.425781 130.09375 68.523438 C 129.996094 68.625 129.875 68.675781 129.726562 68.675781 C 129.617188 68.675781 129.46875 68.625 129.289062 68.527344 C 129.171875 68.464844 129.085938 68.433594 129.03125 68.433594 C 128.96875 68.433594 128.921875 68.453125 128.886719 68.496094 C 128.847656 68.539062 128.828125 68.601562 128.828125 68.683594 Z M 133.148438 70.996094 L 133.640625 71.054688 C 133.5625 71.34375 133.417969 71.566406 133.210938 71.726562 C 133 71.882812 132.734375 71.960938 132.40625 71.960938 C 131.996094 71.960938 131.671875 71.835938 131.433594 71.582031 C 131.191406 71.332031 131.074219 70.976562 131.074219 70.523438 C 131.074219 70.050781 131.195312 69.683594 131.4375 69.425781 C 131.679688 69.164062 131.992188 69.035156 132.382812 69.035156 C 132.753906 69.035156 133.0625 69.160156 133.300781 69.414062 C 133.535156 69.671875 133.65625 70.03125 133.65625 70.492188 C 133.65625 70.519531 133.65625 70.5625 133.652344 70.617188 L 131.5625 70.617188 C 131.582031 70.925781 131.667969 71.164062 131.824219 71.324219 C 131.980469 71.488281 132.175781 71.570312 132.410156 71.570312 C 132.585938 71.570312 132.734375 71.527344 132.855469 71.433594 C 132.980469 71.34375 133.078125 71.195312 133.148438 70.996094 Z M 131.589844 70.226562 L 133.152344 70.226562 C 133.132812 69.992188 133.074219 69.816406 132.976562 69.699219 C 132.824219 69.515625 132.628906 69.425781 132.386719 69.425781 C 132.167969 69.425781 131.984375 69.496094 131.835938 69.644531 C 131.6875 69.789062 131.605469 69.984375 131.589844 70.226562 Z M 134.046875 71.0625 L 134.515625 70.988281 C 134.542969 71.175781 134.617188 71.320312 134.734375 71.421875 C 134.855469 71.519531 135.023438 71.570312 135.242188 71.570312 C 135.460938 71.570312 135.621094 71.527344 135.726562 71.4375 C 135.832031 71.347656 135.886719 71.246094 135.886719 71.125 C 135.886719 71.019531 135.839844 70.933594 135.746094 70.871094 C 135.679688 70.828125 135.519531 70.777344 135.257812 70.710938 C 134.910156 70.625 134.667969 70.546875 134.535156 70.484375 C 134.402344 70.417969 134.296875 70.328125 134.230469 70.214844 C 134.160156 70.101562 134.125 69.976562 134.125 69.839844 C 134.125 69.714844 134.152344 69.601562 134.210938 69.496094 C 134.269531 69.386719 134.347656 69.300781 134.445312 69.226562 C 134.519531 69.175781 134.617188 69.128906 134.746094 69.089844 C 134.875 69.050781 135.011719 69.035156 135.15625 69.035156 C 135.375 69.035156 135.570312 69.066406 135.734375 69.128906 C 135.902344 69.191406 136.023438 69.277344 136.105469 69.386719 C 136.183594 69.496094 136.238281 69.636719 136.265625 69.820312 L 135.804688 69.882812 C 135.78125 69.738281 135.71875 69.625 135.621094 69.546875 C 135.519531 69.464844 135.375 69.425781 135.191406 69.425781 C 134.972656 69.425781 134.816406 69.460938 134.722656 69.53125 C 134.628906 69.605469 134.582031 69.6875 134.582031 69.785156 C 134.582031 69.847656 134.605469 69.902344 134.640625 69.953125 C 134.679688 70.003906 134.742188 70.042969 134.824219 70.078125 C 134.871094 70.097656 135.011719 70.136719 135.242188 70.199219 C 135.578125 70.289062 135.8125 70.363281 135.945312 70.421875 C 136.078125 70.476562 136.183594 70.558594 136.257812 70.667969 C 136.335938 70.777344 136.371094 70.914062 136.371094 71.074219 C 136.371094 71.234375 136.328125 71.382812 136.234375 71.523438 C 136.140625 71.664062 136.007812 71.769531 135.835938 71.847656 C 135.660156 71.921875 135.464844 71.960938 135.242188 71.960938 C 134.878906 71.960938 134.601562 71.886719 134.410156 71.734375 C 134.21875 71.582031 134.097656 71.359375 134.046875 71.0625 Z M 138.585938 71.898438 L 138.585938 68.03125 L 139.097656 68.03125 L 139.097656 71.898438 Z M 139.941406 71.898438 L 139.941406 69.097656 L 140.367188 69.097656 L 140.367188 69.496094 C 140.574219 69.1875 140.871094 69.035156 141.257812 69.035156 C 141.425781 69.035156 141.582031 69.0625 141.722656 69.125 C 141.867188 69.183594 141.972656 69.265625 142.042969 69.363281 C 142.113281 69.460938 142.160156 69.578125 142.191406 69.714844 C 142.207031 69.800781 142.214844 69.957031 142.214844 70.175781 L 142.214844 71.898438 L 141.742188 71.898438 L 141.742188 70.195312 C 141.742188 70 141.722656 69.855469 141.6875 69.757812 C 141.648438 69.664062 141.582031 69.589844 141.488281 69.53125 C 141.394531 69.472656 141.285156 69.445312 141.15625 69.445312 C 140.957031 69.445312 140.78125 69.507812 140.632812 69.636719 C 140.488281 69.765625 140.414062 70.007812 140.414062 70.367188 L 140.414062 71.898438 Z M 143.980469 71.472656 L 144.050781 71.894531 C 143.914062 71.921875 143.796875 71.9375 143.691406 71.9375 C 143.519531 71.9375 143.386719 71.910156 143.289062 71.851562 C 143.195312 71.800781 143.128906 71.726562 143.089844 71.636719 C 143.050781 71.550781 143.03125 71.363281 143.03125 71.078125 L 143.03125 69.464844 L 142.683594 69.464844 L 142.683594 69.097656 L 143.03125 69.097656 L 143.03125 68.402344 L 143.503906 68.117188 L 143.503906 69.097656 L 143.980469 69.097656 L 143.980469 69.464844 L 143.503906 69.464844 L 143.503906 71.105469 C 143.503906 71.242188 143.511719 71.328125 143.527344 71.367188 C 143.546875 71.40625 143.570312 71.433594 143.609375 71.457031 C 143.648438 71.480469 143.703125 71.492188 143.773438 71.492188 C 143.824219 71.492188 143.894531 71.484375 143.980469 71.472656 Z M 146.363281 70.996094 L 146.851562 71.054688 C 146.777344 71.34375 146.632812 71.566406 146.425781 71.726562 C 146.214844 71.882812 145.945312 71.960938 145.621094 71.960938 C 145.210938 71.960938 144.886719 71.835938 144.648438 71.582031 C 144.40625 71.332031 144.285156 70.976562 144.285156 70.523438 C 144.285156 70.050781 144.410156 69.683594 144.652344 69.425781 C 144.894531 69.164062 145.207031 69.035156 145.59375 69.035156 C 145.96875 69.035156 146.277344 69.160156 146.511719 69.414062 C 146.75 69.671875 146.871094 70.03125 146.871094 70.492188 C 146.871094 70.519531 146.867188 70.5625 146.867188 70.617188 L 144.777344 70.617188 C 144.792969 70.925781 144.882812 71.164062 145.039062 71.324219 C 145.195312 71.488281 145.390625 71.570312 145.625 71.570312 C 145.796875 71.570312 145.945312 71.527344 146.070312 71.433594 C 146.195312 71.34375 146.289062 71.195312 146.363281 70.996094 Z M 144.804688 70.226562 L 146.367188 70.226562 C 146.347656 69.992188 146.285156 69.816406 146.1875 69.699219 C 146.039062 69.515625 145.839844 69.425781 145.601562 69.425781 C 145.382812 69.425781 145.199219 69.496094 145.050781 69.644531 C 144.902344 69.789062 144.820312 69.984375 144.804688 70.226562 Z M 147.441406 71.898438 L 147.441406 68.03125 L 147.914062 68.03125 L 147.914062 71.898438 Z M 148.652344 68.578125 L 148.652344 68.03125 L 149.128906 68.03125 L 149.128906 68.578125 Z M 148.652344 71.898438 L 148.652344 69.097656 L 149.128906 69.097656 L 149.128906 71.898438 Z M 149.765625 72.132812 L 150.226562 72.199219 C 150.246094 72.339844 150.296875 72.445312 150.386719 72.511719 C 150.503906 72.597656 150.664062 72.640625 150.867188 72.640625 C 151.089844 72.640625 151.257812 72.597656 151.378906 72.511719 C 151.5 72.421875 151.578125 72.300781 151.621094 72.140625 C 151.644531 72.042969 151.65625 71.839844 151.65625 71.53125 C 151.449219 71.777344 151.1875 71.898438 150.878906 71.898438 C 150.492188 71.898438 150.195312 71.761719 149.984375 71.480469 C 149.773438 71.203125 149.667969 70.871094 149.667969 70.480469 C 149.667969 70.214844 149.71875 69.96875 149.8125 69.742188 C 149.910156 69.515625 150.050781 69.339844 150.234375 69.21875 C 150.417969 69.09375 150.632812 69.035156 150.882812 69.035156 C 151.210938 69.035156 151.484375 69.167969 151.699219 69.433594 L 151.699219 69.097656 L 152.136719 69.097656 L 152.136719 71.519531 C 152.136719 71.953125 152.09375 72.265625 152.003906 72.445312 C 151.914062 72.628906 151.777344 72.773438 151.582031 72.878906 C 151.390625 72.980469 151.152344 73.035156 150.871094 73.035156 C 150.539062 73.035156 150.265625 72.960938 150.0625 72.808594 C 149.855469 72.660156 149.757812 72.433594 149.765625 72.132812 Z M 150.15625 70.449219 C 150.15625 70.816406 150.230469 71.082031 150.375 71.25 C 150.523438 71.421875 150.703125 71.503906 150.925781 71.503906 C 151.140625 71.503906 151.324219 71.421875 151.472656 71.253906 C 151.621094 71.085938 151.695312 70.824219 151.695312 70.464844 C 151.695312 70.121094 151.617188 69.863281 151.464844 69.6875 C 151.316406 69.515625 151.128906 69.425781 150.917969 69.425781 C 150.707031 69.425781 150.527344 69.511719 150.378906 69.683594 C 150.230469 69.855469 150.15625 70.109375 150.15625 70.449219 Z M 154.773438 70.996094 L 155.265625 71.054688 C 155.1875 71.34375 155.042969 71.566406 154.835938 71.726562 C 154.625 71.882812 154.355469 71.960938 154.03125 71.960938 C 153.621094 71.960938 153.296875 71.835938 153.058594 71.582031 C 152.816406 71.332031 152.699219 70.976562 152.699219 70.523438 C 152.699219 70.050781 152.820312 69.683594 153.0625 69.425781 C 153.304688 69.164062 153.617188 69.035156 154.003906 69.035156 C 154.378906 69.035156 154.6875 69.160156 154.921875 69.414062 C 155.160156 69.671875 155.28125 70.03125 155.28125 70.492188 C 155.28125 70.519531 155.277344 70.5625 155.277344 70.617188 L 153.1875 70.617188 C 153.207031 70.925781 153.292969 71.164062 153.449219 71.324219 C 153.605469 71.488281 153.800781 71.570312 154.035156 71.570312 C 154.207031 71.570312 154.355469 71.527344 154.480469 71.433594 C 154.601562 71.34375 154.699219 71.195312 154.773438 70.996094 Z M 153.214844 70.226562 L 154.777344 70.226562 C 154.757812 69.992188 154.699219 69.816406 154.597656 69.699219 C 154.449219 69.515625 154.25 69.425781 154.011719 69.425781 C 153.792969 69.425781 153.609375 69.496094 153.460938 69.644531 C 153.3125 69.789062 153.230469 69.984375 153.214844 70.226562 Z M 155.859375 71.898438 L 155.859375 69.097656 L 156.289062 69.097656 L 156.289062 69.496094 C 156.492188 69.1875 156.789062 69.035156 157.179688 69.035156 C 157.347656 69.035156 157.503906 69.0625 157.644531 69.125 C 157.785156 69.183594 157.890625 69.265625 157.960938 69.363281 C 158.035156 69.460938 158.082031 69.578125 158.109375 69.714844 C 158.128906 69.800781 158.136719 69.957031 158.136719 70.175781 L 158.136719 71.898438 L 157.660156 71.898438 L 157.660156 70.195312 C 157.660156 70 157.644531 69.855469 157.605469 69.757812 C 157.570312 69.664062 157.503906 69.589844 157.410156 69.53125 C 157.316406 69.472656 157.207031 69.445312 157.078125 69.445312 C 156.875 69.445312 156.703125 69.507812 156.554688 69.636719 C 156.410156 69.765625 156.335938 70.007812 156.335938 70.367188 L 156.335938 71.898438 Z M 159.902344 71.472656 L 159.96875 71.894531 C 159.835938 71.921875 159.71875 71.9375 159.613281 71.9375 C 159.4375 71.9375 159.304688 71.910156 159.210938 71.851562 C 159.117188 71.800781 159.050781 71.726562 159.011719 71.636719 C 158.972656 71.550781 158.953125 71.363281 158.953125 71.078125 L 158.953125 69.464844 L 158.601562 69.464844 L 158.601562 69.097656 L 158.953125 69.097656 L 158.953125 68.402344 L 159.425781 68.117188 L 159.425781 69.097656 L 159.902344 69.097656 L 159.902344 69.464844 L 159.425781 69.464844 L 159.425781 71.105469 C 159.425781 71.242188 159.433594 71.328125 159.449219 71.367188 C 159.464844 71.40625 159.492188 71.433594 159.53125 71.457031 C 159.570312 71.480469 159.621094 71.492188 159.691406 71.492188 C 159.746094 71.492188 159.816406 71.484375 159.902344 71.472656 Z M 162.285156 70.996094 L 162.773438 71.054688 C 162.695312 71.34375 162.554688 71.566406 162.34375 71.726562 C 162.136719 71.882812 161.867188 71.960938 161.542969 71.960938 C 161.132812 71.960938 160.808594 71.835938 160.566406 71.582031 C 160.328125 71.332031 160.207031 70.976562 160.207031 70.523438 C 160.207031 70.050781 160.328125 69.683594 160.570312 69.425781 C 160.816406 69.164062 161.128906 69.035156 161.515625 69.035156 C 161.890625 69.035156 162.195312 69.160156 162.433594 69.414062 C 162.671875 69.671875 162.789062 70.03125 162.789062 70.492188 C 162.789062 70.519531 162.789062 70.5625 162.789062 70.617188 L 160.699219 70.617188 C 160.714844 70.925781 160.804688 71.164062 160.960938 71.324219 C 161.117188 71.488281 161.3125 71.570312 161.546875 71.570312 C 161.71875 71.570312 161.867188 71.527344 161.992188 71.433594 C 162.113281 71.34375 162.210938 71.195312 162.285156 70.996094 Z M 160.726562 70.226562 L 162.289062 70.226562 C 162.269531 69.992188 162.207031 69.816406 162.109375 69.699219 C 161.957031 69.515625 161.761719 69.425781 161.523438 69.425781 C 161.304688 69.425781 161.121094 69.496094 160.972656 69.644531 C 160.824219 69.789062 160.742188 69.984375 160.726562 70.226562 Z M 163.179688 71.0625 L 163.652344 70.988281 C 163.675781 71.175781 163.75 71.320312 163.871094 71.421875 C 163.992188 71.519531 164.160156 71.570312 164.375 71.570312 C 164.59375 71.570312 164.757812 71.527344 164.863281 71.4375 C 164.96875 71.347656 165.019531 71.246094 165.019531 71.125 C 165.019531 71.019531 164.972656 70.933594 164.878906 70.871094 C 164.816406 70.828125 164.652344 70.777344 164.394531 70.710938 C 164.046875 70.625 163.804688 70.546875 163.671875 70.484375 C 163.535156 70.417969 163.433594 70.328125 163.363281 70.214844 C 163.296875 70.101562 163.261719 69.976562 163.261719 69.839844 C 163.261719 69.714844 163.289062 69.601562 163.347656 69.496094 C 163.402344 69.386719 163.480469 69.300781 163.578125 69.226562 C 163.652344 69.175781 163.753906 69.128906 163.882812 69.089844 C 164.007812 69.050781 164.144531 69.035156 164.292969 69.035156 C 164.511719 69.035156 164.703125 69.066406 164.871094 69.128906 C 165.039062 69.191406 165.160156 69.277344 165.238281 69.386719 C 165.316406 69.496094 165.371094 69.636719 165.402344 69.820312 L 164.9375 69.882812 C 164.917969 69.738281 164.855469 69.625 164.753906 69.546875 C 164.652344 69.464844 164.511719 69.425781 164.324219 69.425781 C 164.109375 69.425781 163.953125 69.460938 163.859375 69.53125 C 163.765625 69.605469 163.71875 69.6875 163.71875 69.785156 C 163.71875 69.847656 163.738281 69.902344 163.777344 69.953125 C 163.816406 70.003906 163.875 70.042969 163.960938 70.078125 C 164.007812 70.097656 164.148438 70.136719 164.378906 70.199219 C 164.714844 70.289062 164.949219 70.363281 165.082031 70.421875 C 165.214844 70.476562 165.320312 70.558594 165.394531 70.667969 C 165.46875 70.777344 165.507812 70.914062 165.507812 71.074219 C 165.507812 71.234375 165.460938 71.382812 165.371094 71.523438 C 165.277344 71.664062 165.144531 71.769531 164.96875 71.847656 C 164.796875 71.921875 164.597656 71.960938 164.378906 71.960938 C 164.015625 71.960938 163.738281 71.886719 163.546875 71.734375 C 163.355469 71.582031 163.234375 71.359375 163.179688 71.0625 "/>
</g>
</svg>
