<?xml version="1.0" encoding="UTF-8" standalone="no"?>
<!-- Created with Inkscape (http://www.inkscape.org/) -->

<svg
   version="1.1"
   id="svg1"
   width="793.70135"
   height="515.15466"
   viewBox="0 0 793.70135 515.15466"
   sodipodi:docname="ef2aa261-b623-4ddf-a47a-1831940c4e33.pdf"
   xmlns:inkscape="http://www.inkscape.org/namespaces/inkscape"
   xmlns:sodipodi="http://sodipodi.sourceforge.net/DTD/sodipodi-0.dtd"
   xmlns="http://www.w3.org/2000/svg"
   xmlns:svg="http://www.w3.org/2000/svg">
  <defs
     id="defs1">
    <clipPath
       clipPathUnits="userSpaceOnUse"
       id="clipPath2">
      <path
         d="M 0,386.366 H 595.276 V 0 H 0 Z"
         transform="translate(-369.05961,-325.27291)"
         id="path2" />
    </clipPath>
    <clipPath
       clipPathUnits="userSpaceOnUse"
       id="clipPath4">
      <path
         d="M 0,386.366 H 595.276 V 0 H 0 Z"
         transform="translate(-303.46291,-325.27291)"
         id="path4" />
    </clipPath>
    <clipPath
       clipPathUnits="userSpaceOnUse"
       id="clipPath6">
      <path
         d="M 0,386.366 H 595.276 V 0 H 0 Z"
         transform="translate(-372.88571,-226.83341)"
         id="path6" />
    </clipPath>
    <clipPath
       clipPathUnits="userSpaceOnUse"
       id="clipPath8">
      <path
         d="M 0,386.366 H 595.276 V 0 H 0 Z"
         transform="translate(-237.45411,-325.27291)"
         id="path8" />
    </clipPath>
    <clipPath
       clipPathUnits="userSpaceOnUse"
       id="clipPath10">
      <path
         d="M 0,386.366 H 595.276 V 0 H 0 Z"
         transform="translate(-89.327102,-106.7919)"
         id="path10" />
    </clipPath>
    <clipPath
       clipPathUnits="userSpaceOnUse"
       id="clipPath12">
      <path
         d="M 0,386.366 H 595.276 V 0 H 0 Z"
         transform="translate(-423.77641,-136.3329)"
         id="path12" />
    </clipPath>
    <clipPath
       clipPathUnits="userSpaceOnUse"
       id="clipPath14">
      <path
         d="M 0,386.366 H 595.276 V 0 H 0 Z"
         transform="translate(-287.71531,-136.8876)"
         id="path14" />
    </clipPath>
    <clipPath
       clipPathUnits="userSpaceOnUse"
       id="clipPath16">
      <path
         d="M 0,386.366 H 595.276 V 0 H 0 Z"
         transform="translate(-518.06932,-141.3134)"
         id="path16" />
    </clipPath>
    <clipPath
       clipPathUnits="userSpaceOnUse"
       id="clipPath18">
      <path
         d="M 0,386.366 H 595.276 V 0 H 0 Z"
         transform="translate(-243.17721,-130.6982)"
         id="path18" />
    </clipPath>
    <clipPath
       clipPathUnits="userSpaceOnUse"
       id="clipPath20">
      <path
         d="M 0,386.366 H 595.276 V 0 H 0 Z"
         transform="translate(-453.59371,-136.84661)"
         id="path20" />
    </clipPath>
    <clipPath
       clipPathUnits="userSpaceOnUse"
       id="clipPath22">
      <path
         d="M 0,386.366 H 595.276 V 0 H 0 Z"
         transform="translate(-130.4946,-129.30461)"
         id="path22" />
    </clipPath>
    <clipPath
       clipPathUnits="userSpaceOnUse"
       id="clipPath24">
      <path
         d="M 0,386.366 H 595.276 V 0 H 0 Z"
         transform="translate(-530.05271,-123.82121)"
         id="path24" />
    </clipPath>
    <clipPath
       clipPathUnits="userSpaceOnUse"
       id="clipPath26">
      <path
         d="M 0,386.366 H 595.276 V 0 H 0 Z"
         transform="translate(-155.46831,-161.96771)"
         id="path26" />
    </clipPath>
    <clipPath
       clipPathUnits="userSpaceOnUse"
       id="clipPath28">
      <path
         d="M 0,386.366 H 595.276 V 0 H 0 Z"
         transform="translate(-378.60251,-120.6005)"
         id="path28" />
    </clipPath>
    <clipPath
       clipPathUnits="userSpaceOnUse"
       id="clipPath30">
      <path
         d="M 0,386.366 H 595.276 V 0 H 0 Z"
         transform="translate(-224.93161,-161.95991)"
         id="path30" />
    </clipPath>
    <clipPath
       clipPathUnits="userSpaceOnUse"
       id="clipPath32">
      <path
         d="M 0,386.366 H 595.276 V 0 H 0 Z"
         transform="translate(-279.71971,-61.218704)"
         id="path32" />
    </clipPath>
    <clipPath
       clipPathUnits="userSpaceOnUse"
       id="clipPath34">
      <path
         d="M 0,386.366 H 595.276 V 0 H 0 Z"
         transform="translate(-451.31541,-61.217699)"
         id="path34" />
    </clipPath>
    <clipPath
       clipPathUnits="userSpaceOnUse"
       id="clipPath36">
      <path
         d="M 0,386.366 H 595.276 V 0 H 0 Z"
         transform="translate(-83.002405,-60.908099)"
         id="path36" />
    </clipPath>
    <clipPath
       clipPathUnits="userSpaceOnUse"
       id="clipPath38">
      <path
         d="M 0,386.366 H 595.276 V 0 H 0 Z"
         transform="translate(-413.02341,-61.193302)"
         id="path38" />
    </clipPath>
    <clipPath
       clipPathUnits="userSpaceOnUse"
       id="clipPath40">
      <path
         d="M 0,386.366 H 595.276 V 0 H 0 Z"
         transform="translate(-249.05661,-61.090702)"
         id="path40" />
    </clipPath>
    <clipPath
       clipPathUnits="userSpaceOnUse"
       id="clipPath42">
      <path
         d="M 0,386.366 H 595.276 V 0 H 0 Z"
         transform="translate(-208.0024,-58.512599)"
         id="path42" />
    </clipPath>
    <clipPath
       clipPathUnits="userSpaceOnUse"
       id="clipPath44">
      <path
         d="M 0,386.366 H 595.276 V 0 H 0 Z"
         transform="translate(-480.71871,-60.963802)"
         id="path44" />
    </clipPath>
    <clipPath
       clipPathUnits="userSpaceOnUse"
       id="clipPath46">
      <path
         d="M 0,386.366 H 595.276 V 0 H 0 Z"
         transform="translate(-149.1597,-61.938404)"
         id="path46" />
    </clipPath>
    <clipPath
       clipPathUnits="userSpaceOnUse"
       id="clipPath48">
      <path
         d="M 0,386.366 H 595.276 V 0 H 0 Z"
         transform="translate(-519.05572,-70.277302)"
         id="path48" />
    </clipPath>
    <clipPath
       clipPathUnits="userSpaceOnUse"
       id="clipPath50">
      <path
         d="M 0,386.366 H 595.276 V 0 H 0 Z"
         transform="translate(-375.20801,-70.015499)"
         id="path50" />
    </clipPath>
    <clipPath
       clipPathUnits="userSpaceOnUse"
       id="clipPath52">
      <path
         d="M 0,386.366 H 595.276 V 0 H 0 Z"
         transform="translate(-121.2144,-65.856404)"
         id="path52" />
    </clipPath>
    <clipPath
       clipPathUnits="userSpaceOnUse"
       id="clipPath54">
      <path
         d="M 0,386.366 H 595.276 V 0 H 0 Z"
         transform="translate(-317.89551,-65.915002)"
         id="path54" />
    </clipPath>
    <clipPath
       clipPathUnits="userSpaceOnUse"
       id="clipPath56">
      <path
         d="M 0,386.366 H 595.276 V 0 H 0 Z"
         transform="translate(-348.01661,-60.891502)"
         id="path56" />
    </clipPath>
    <clipPath
       clipPathUnits="userSpaceOnUse"
       id="clipPath58">
      <path
         d="M 0,386.366 H 595.276 V 0 H 0 Z"
         transform="translate(-183.5859,-63.765502)"
         id="path58" />
    </clipPath>
    <clipPath
       clipPathUnits="userSpaceOnUse"
       id="clipPath60">
      <path
         d="M 0,386.366 H 595.276 V 0 H 0 Z"
         transform="translate(-345.32031,-78.291899)"
         id="path60" />
    </clipPath>
    <clipPath
       clipPathUnits="userSpaceOnUse"
       id="clipPath62">
      <path
         d="M 0,386.366 H 595.276 V 0 H 0 Z"
         transform="translate(-156.1885,-77.646404)"
         id="path62" />
    </clipPath>
  </defs>
  <sodipodi:namedview
     id="namedview1"
     pagecolor="#ffffff"
     bordercolor="#000000"
     borderopacity="0.25"
     inkscape:showpageshadow="2"
     inkscape:pageopacity="0.0"
     inkscape:pagecheckerboard="0"
     inkscape:deskcolor="#d1d1d1">
    <inkscape:page
       x="0"
       y="0"
       inkscape:label="1"
       id="page1"
       width="793.70135"
       height="515.15466"
       margin="58.900269 44.677334 81.435997 55.571865"
       bleed="0" />
  </sodipodi:namedview>
  <g
     id="layer-MC0"
     inkscape:groupmode="layer"
     inkscape:label="Camada 1">
    <path
       id="path1"
       d="m 0,0 c 6.024,0 12.05,0 18.075,0 0.821,0 0.826,-0.012 0.47,-0.736 -2.566,-5.217 -5.131,-10.434 -7.698,-15.651 -2.604,-5.293 -5.208,-10.584 -7.812,-15.876 -2.53,-5.141 -5.059,-10.283 -7.589,-15.425 -2.586,-5.255 -5.171,-10.509 -7.756,-15.764 -2.51,-5.104 -5.021,-10.209 -7.532,-15.313 -2.594,-5.274 -5.189,-10.547 -7.783,-15.819 -2.558,-5.199 -5.115,-10.397 -7.672,-15.595 -2.585,-5.255 -5.171,-10.508 -7.755,-15.764 -0.664,-1.351 -1.316,-2.708 -1.988,-4.056 -0.094,-0.189 -0.11,-0.519 -0.393,-0.498 -0.214,0.015 -0.258,0.304 -0.348,0.485 -2.813,5.702 -5.618,11.408 -8.433,17.109 -2.462,4.989 -4.934,9.972 -7.399,14.96 -0.787,1.593 -1.555,3.197 -2.353,4.785 -0.207,0.412 -0.207,0.755 0.003,1.176 1.986,3.987 3.955,7.984 5.923,11.981 2.43,4.934 4.853,9.872 7.279,14.808 2.353,4.787 4.703,9.573 7.055,14.36 2.417,4.917 4.834,9.835 7.25,14.753 l 7.084,14.415 c 2.406,4.899 4.814,9.798 7.221,14.698 1.014,2.065 2.044,4.122 3.025,6.202 0.269,0.571 0.593,0.784 1.238,0.781 C -11.926,-0.011 -5.963,0 0,0"
       style="fill:#58585a;fill-opacity:1;fill-rule:nonzero;stroke:none"
       transform="matrix(1.3333333,0,0,-1.3333333,492.07947,81.457467)"
       clip-path="url(#clipPath2)" />
    <path
       id="path3"
       d="m 0,0 c 5.984,0 11.969,0 17.952,0 0.924,0 0.932,-0.017 0.523,-0.845 -2.235,-4.519 -4.471,-9.037 -6.7,-13.559 -2.598,-5.271 -5.191,-10.547 -7.786,-15.82 -2.548,-5.18 -5.096,-10.36 -7.644,-15.541 -2.605,-5.292 -5.21,-10.584 -7.814,-15.877 -2.539,-5.161 -5.078,-10.322 -7.617,-15.483 -2.604,-5.293 -5.208,-10.586 -7.812,-15.878 -2.539,-5.162 -5.079,-10.323 -7.618,-15.484 -2.613,-5.311 -5.228,-10.622 -7.84,-15.934 -0.923,-1.877 -1.835,-3.759 -2.761,-5.635 -0.086,-0.174 -0.114,-0.462 -0.372,-0.444 -0.203,0.013 -0.233,0.271 -0.313,0.433 -2.729,5.534 -5.457,11.069 -8.18,16.607 -2.178,4.429 -4.349,8.862 -6.523,13.294 -1.161,2.366 -2.318,4.733 -3.49,7.094 -0.171,0.346 -0.208,0.646 -0.028,1.005 0.682,1.366 1.334,2.747 2.007,4.117 2.873,5.836 5.753,11.67 8.625,17.506 2.365,4.804 4.724,9.611 7.085,14.417 2.37,4.825 4.74,9.65 7.111,14.474 2.398,4.881 4.798,9.761 7.196,14.642 2.371,4.825 4.743,9.649 7.11,14.475 1.907,3.887 3.818,7.772 5.699,11.672 0.273,0.567 0.593,0.783 1.238,0.78 C -11.968,-0.011 -5.984,0 0,0"
       style="fill:#58585a;fill-opacity:1;fill-rule:nonzero;stroke:none"
       transform="matrix(1.3333333,0,0,-1.3333333,404.6172,81.457467)"
       clip-path="url(#clipPath4)" />
    <path
       id="path5"
       d="M 0,0 C 5.586,0 11.172,0 16.757,0 17.57,0 17.572,-0.01 17.214,-0.744 14.504,-6.286 11.795,-11.829 9.087,-17.372 7.408,-20.811 5.729,-24.25 4.054,-27.69 3.44,-28.95 2.822,-30.208 2.231,-31.478 2.036,-31.897 1.764,-32.05 1.306,-32.049 c -11.171,0.009 -22.343,0.006 -33.514,0.008 -0.734,0 -0.777,0.076 -0.449,0.753 1.475,3.05 2.955,6.097 4.433,9.145 2.739,5.644 5.479,11.288 8.213,16.934 0.739,1.524 1.471,3.051 2.177,4.59 0.214,0.466 0.503,0.631 1.015,0.629 C -11.213,-0.006 -5.606,0 0,0"
       style="fill:#6aa75c;fill-opacity:1;fill-rule:nonzero;stroke:none"
       transform="matrix(1.3333333,0,0,-1.3333333,497.18093,212.71013)"
       clip-path="url(#clipPath6)" />
    <path
       id="path7"
       d="m 0,0 h 18.205 c 0.188,0 0.377,-0.01 0.565,0 0.476,0.025 0.533,-0.167 0.335,-0.563 -0.531,-1.067 -1.035,-2.148 -1.564,-3.216 -3.083,-6.223 -6.176,-12.442 -9.253,-18.668 -2.614,-5.288 -5.211,-10.585 -7.815,-15.878 -0.056,-0.113 -0.103,-0.23 -0.17,-0.336 -0.108,-0.169 -0.127,-0.457 -0.368,-0.463 -0.247,-0.006 -0.288,0.272 -0.375,0.45 -0.905,1.839 -1.797,3.685 -2.706,5.522 -2.299,4.651 -4.609,9.296 -6.908,13.947 -3.029,6.132 -6.052,12.268 -9.078,18.403 -0.366,0.743 -0.333,0.801 0.488,0.801 C -12.429,0 -6.214,0 0,0"
       style="fill:#58585a;fill-opacity:1;fill-rule:nonzero;stroke:none"
       transform="matrix(1.3333333,0,0,-1.3333333,316.60547,81.457467)"
       clip-path="url(#clipPath8)" />
    <path
       id="path9"
       d="m 0,0 c -4.086,10.18 -8.115,20.218 -12.222,30.45 -4.756,-10.208 -9.437,-20.255 -14.202,-30.483 -7.111,18.378 -14.154,36.58 -21.224,54.851 0.265,0.017 0.464,0.04 0.663,0.04 3.85,0.002 7.701,-0.011 11.55,0.017 0.532,0.005 0.694,-0.199 0.847,-0.65 2.868,-8.473 5.751,-16.941 8.634,-25.409 0.287,-0.842 0.591,-1.68 0.939,-2.666 0.814,2.046 1.567,3.941 2.323,5.833 1.555,3.894 3.105,7.789 4.676,11.675 0.186,0.463 0.167,0.855 -0.018,1.308 -1.241,3.049 -2.461,6.107 -3.684,9.163 -0.084,0.21 -0.149,0.428 -0.242,0.701 0.251,0.012 0.451,0.028 0.65,0.028 3.223,0.002 6.445,-0.007 9.667,0.012 0.485,0.003 0.734,-0.124 0.926,-0.601 2.941,-7.337 5.905,-14.665 8.863,-21.996 0.546,-1.352 1.089,-2.707 1.636,-4.058 0.085,-0.209 0.185,-0.412 0.355,-0.788 0.385,1.238 0.725,2.316 1.054,3.396 2.398,7.855 4.793,15.71 7.191,23.564 0.078,0.259 0.153,0.482 0.53,0.48 3.724,-0.015 7.448,-0.011 11.173,-0.013 0.079,0 0.157,-0.031 0.309,-0.062 C 13.608,36.561 6.833,18.359 0,0"
       style="fill:#58585a;fill-opacity:1;fill-rule:nonzero;stroke:none"
       transform="matrix(1.3333333,0,0,-1.3333333,119.1028,372.76547)"
       clip-path="url(#clipPath10)" />
    <path
       id="path11"
       d="m 0,0 c -0.056,0.525 -0.113,1.568 -0.285,2.593 -1.311,7.802 -8.352,13.895 -16.77,12.849 -4.469,-0.555 -7.966,-2.726 -10.538,-6.38 -2.214,-3.148 -3.118,-6.672 -2.891,-10.518 0.233,-3.935 1.67,-7.352 4.398,-10.167 3.411,-3.522 7.6,-5.077 12.512,-4.649 3.406,0.295 6.315,1.682 8.74,4.04 C -1.546,-9.038 -0.063,-5.065 0,0 m -15.324,26.198 c 14.211,0.256 27.237,-12.424 26.682,-27.706 -0.491,-13.509 -12.072,-25.495 -26.683,-25.535 -14.771,-0.04 -27.022,12.398 -26.576,27.38 0.41,13.763 12.159,26.043 26.577,25.861"
       style="fill:#58585a;fill-opacity:1;fill-rule:nonzero;stroke:none"
       transform="matrix(1.3333333,0,0,-1.3333333,565.0352,333.37747)"
       clip-path="url(#clipPath12)" />
    <path
       id="path13"
       d="m 0,0 c 0.143,-0.04 0.221,-0.083 0.299,-0.082 2.65,0.033 5.305,-0.013 7.95,0.139 1.645,0.093 3.092,0.828 4.126,2.195 1.985,2.624 2.194,5.447 0.932,8.434 -0.633,1.498 -1.534,2.776 -3.166,3.24 C 9.091,14.224 7.982,14.41 6.892,14.453 4.826,14.534 2.754,14.458 0.686,14.488 0.129,14.497 -0.015,14.329 -0.012,13.78 0.01,9.392 0,5.002 0,0.612 Z m 29.697,-27.051 h -0.67 c -3.892,0 -7.784,0.009 -11.676,-0.011 -0.439,-0.002 -0.662,0.163 -0.889,0.505 -3.343,5.079 -6.706,10.145 -10.044,15.228 -0.299,0.456 -0.61,0.629 -1.155,0.614 -1.506,-0.041 -3.013,-0.014 -4.519,-0.014 h -0.73 v -16.279 h -10.982 v 52.119 h 0.673 c 5.483,0 10.966,0.081 16.446,-0.025 4.503,-0.088 8.827,-1.002 12.598,-3.686 3.527,-2.51 5.621,-5.934 6.368,-10.181 0.8,-4.55 0.238,-8.936 -1.777,-13.1 -1.141,-2.358 -2.833,-4.272 -4.998,-5.76 -0.237,-0.164 -0.47,-0.333 -0.739,-0.522 4.023,-6.283 8.02,-12.524 12.094,-18.888"
       style="fill:#58585a;fill-opacity:1;fill-rule:nonzero;stroke:none"
       transform="matrix(1.3333333,0,0,-1.3333333,383.6204,332.63787)"
       clip-path="url(#clipPath14)" />
    <path
       id="path15"
       d="m 0,0 v -10.635 h -0.749 c -6.843,0 -13.685,-0.008 -20.527,0.013 -0.592,10e-4 -0.784,-0.143 -0.777,-0.759 0.032,-2.846 0.014,-5.691 0.015,-8.537 0,-0.826 0.001,-0.827 0.806,-0.827 8.035,-10e-4 16.07,-10e-4 24.104,-10e-4 H 3.74 v -10.69 H -33 V 20.647 H 2.758 V 10.089 C 2.481,10.076 2.198,10.053 1.914,10.053 -5.765,10.05 -13.444,10.051 -21.123,10.051 c -0.915,0 -0.915,-10e-4 -0.915,-0.929 -0.001,-2.763 -0.001,-5.524 0,-8.286 0,-0.834 0.002,-0.836 0.819,-0.836 6.78,-0.001 13.559,0 20.338,0 z"
       style="fill:#58585a;fill-opacity:1;fill-rule:nonzero;stroke:none"
       transform="matrix(1.3333333,0,0,-1.3333333,690.75907,326.7368)"
       clip-path="url(#clipPath16)" />
    <path
       id="path17"
       d="M 0,0 V -10.104 H 25.674 V -20.818 H -10.994 V 31.268 H 24.669 V 20.704 C 24.396,20.692 24.113,20.668 23.83,20.668 16.173,20.665 8.516,20.666 0.859,20.666 c -0.89,0 -0.89,-0.001 -0.89,-0.869 -0.001,-2.804 -0.001,-5.607 -0.001,-8.41 V 10.636 H 21.893 V 0 Z"
       style="fill:#58585a;fill-opacity:1;fill-rule:nonzero;stroke:none"
       transform="matrix(1.3333333,0,0,-1.3333333,324.23627,340.8904)"
       clip-path="url(#clipPath18)" />
    <path
       id="path19"
       d="m 0,0 c 0.174,-0.023 0.275,-0.048 0.377,-0.048 2.238,-0.003 4.481,-0.09 6.713,0.033 1.094,0.061 2.258,0.331 3.229,0.824 2.824,1.433 4.311,4.914 3.57,8.045 -0.404,1.705 -0.988,3.343 -2.464,4.446 -1.354,1.011 -2.976,1.16 -4.585,1.204 -2.049,0.056 -4.1,0.015 -6.151,0.012 -0.221,0 -0.444,-0.026 -0.689,-0.04 z m -0.028,-26.977 h -10.954 v 52.129 h 0.675 c 5.481,0 10.963,0.075 16.443,-0.025 3.979,-0.071 7.836,-0.838 11.296,-2.969 4.228,-2.603 6.639,-6.425 7.392,-11.296 0.608,-3.932 0.254,-7.79 -1.258,-11.487 -2.197,-5.372 -6.254,-8.538 -11.891,-9.668 -1.482,-0.296 -3.021,-0.36 -4.536,-0.408 -2.112,-0.067 -4.226,-0.016 -6.339,-0.017 -0.827,-10e-4 -0.828,-0.002 -0.828,-0.805 v -14.686 z"
       style="fill:#58585a;fill-opacity:1;fill-rule:nonzero;stroke:none"
       transform="matrix(1.3333333,0,0,-1.3333333,604.7916,332.69253)"
       clip-path="url(#clipPath20)" />
    <path
       id="path21"
       d="M 0,0 C -1.415,3.569 -2.8,7.062 -4.251,10.724 -5.766,7.055 -7.208,3.563 -8.68,0 Z m 20.389,-19.437 c -0.243,-0.012 -0.423,-0.029 -0.603,-0.029 -3.829,-0.002 -7.659,0.007 -11.488,-0.013 -0.477,-0.001 -0.685,0.16 -0.855,0.597 -1.177,3.031 -2.379,6.054 -3.596,9.069 -0.07,0.172 -0.344,0.373 -0.523,0.373 -5.189,0.02 -10.378,0.02 -15.567,0 -0.18,-0.001 -0.451,-0.206 -0.525,-0.381 -1.286,-3.033 -2.548,-6.076 -3.813,-9.118 -0.121,-0.291 -0.199,-0.542 -0.633,-0.54 -3.431,0.022 -6.863,0.013 -10.294,0.015 -0.058,0 -0.117,0.021 -0.254,0.047 0.496,1.147 0.981,2.271 1.468,3.395 2.984,6.889 5.965,13.78 8.954,20.668 3.221,7.421 6.452,14.84 9.676,22.261 1.047,2.41 2.089,4.822 3.121,7.239 0.162,0.378 0.34,0.594 0.815,0.577 0.45,-0.017 0.695,-0.114 0.889,-0.562 4.092,-9.478 8.202,-18.949 12.312,-28.42 3.553,-8.188 7.11,-16.375 10.664,-24.562 0.081,-0.186 0.154,-0.375 0.252,-0.616"
       style="fill:#58585a;fill-opacity:1;fill-rule:nonzero;stroke:none"
       transform="matrix(1.3333333,0,0,-1.3333333,173.9928,342.74853)"
       clip-path="url(#clipPath22)" />
    <path
       id="path23"
       d="m 0,0 c 2.132,-1.607 4.388,-2.766 6.807,-3.611 2.848,-0.997 5.752,-1.483 8.711,-0.614 0.98,0.288 1.966,0.755 2.781,1.367 1.772,1.328 2.298,4.685 -0.302,6.905 -1.712,1.462 -3.724,2.357 -5.778,3.197 -2.839,1.16 -5.728,2.254 -8.255,4.027 -3.92,2.748 -6.088,6.476 -6.101,11.368 -0.008,3.004 0.506,5.855 2.113,8.436 2.06,3.311 5.078,5.35 8.758,6.478 3.248,0.996 6.553,1.006 9.909,0.684 4.539,-0.433 8.585,-2.134 12.409,-4.495 0.783,-0.482 0.805,-0.491 0.416,-1.287 -1.232,-2.513 -2.482,-5.017 -3.725,-7.524 -0.036,-0.072 -0.086,-0.136 -0.118,-0.187 -1.448,0.692 -2.853,1.421 -4.305,2.039 -2.609,1.112 -5.309,1.921 -8.185,1.741 -1.046,-0.065 -2.108,-0.29 -3.105,-0.616 -3.133,-1.024 -3.761,-5.148 -1.421,-7.117 1.325,-1.114 2.86,-2.039 4.421,-2.799 2.471,-1.202 5.071,-2.135 7.566,-3.291 3.375,-1.564 5.95,-3.985 7.435,-7.456 0.739,-1.724 1.001,-3.545 1.13,-5.412 0.169,-2.443 -0.186,-4.776 -1.153,-7.013 -1.73,-3.998 -4.824,-6.538 -8.822,-8.029 -3.342,-1.247 -6.819,-1.466 -10.355,-1.195 -4.193,0.321 -8.178,1.363 -11.902,3.317 -1.199,0.629 -2.321,1.403 -3.478,2.113 -0.256,0.158 -0.394,0.318 -0.202,0.654 1.533,2.681 3.05,5.373 4.572,8.06 0.04,0.072 0.093,0.136 0.179,0.26"
       style="fill:#58585a;fill-opacity:1;fill-rule:nonzero;stroke:none"
       transform="matrix(1.3333333,0,0,-1.3333333,706.73693,350.05973)"
       clip-path="url(#clipPath24)" />
    <path
       id="path25"
       d="m 0,0 h 10.952 v -41.374 h 24.07 V -52.091 H 0 Z"
       style="fill:#58585a;fill-opacity:1;fill-rule:nonzero;stroke:none"
       transform="matrix(1.3333333,0,0,-1.3333333,207.29107,299.19773)"
       clip-path="url(#clipPath26)" />
    <path
       id="path27"
       d="m 0,0 v -10.729 h -35.025 v 52.084 h 10.948 l 0,-41.355 z"
       style="fill:#58585a;fill-opacity:1;fill-rule:nonzero;stroke:none"
       transform="matrix(1.3333333,0,0,-1.3333333,504.80333,354.354)"
       clip-path="url(#clipPath28)" />
    <path
       id="path29"
       d="m 0,0 v -10.558 c -0.276,-0.013 -0.539,-0.036 -0.802,-0.036 -3.599,-0.003 -7.198,-0.017 -10.797,0.013 -0.645,0.005 -0.805,-0.19 -0.804,-0.817 0.017,-13.266 0.013,-26.533 0.013,-39.799 v -0.892 H -23.386 V -10.62 H -35.281 V 0 Z"
       style="fill:#58585a;fill-opacity:1;fill-rule:nonzero;stroke:none"
       transform="matrix(1.3333333,0,0,-1.3333333,299.9088,299.20813)"
       clip-path="url(#clipPath30)" />
    <path
       id="path31"
       d="M 0,0 C 0,-0.562 0.004,-1.124 -0.002,-1.687 -0.005,-1.967 0.07,-2.212 0.222,-2.45 1.441,-4.366 4.125,-5.165 6.187,-4.217 8.384,-3.206 9.46,-0.585 8.632,1.743 7.848,3.949 5.468,5.167 3.107,4.568 0.96,4.023 -0.001,2.804 -0.001,0.625 -0.001,0.417 -0.001,0.209 0,0 m -5.66,6.597 c 0,4.859 -10e-4,9.719 0,14.579 0.001,0.871 0.016,0.886 0.867,0.887 1.255,0.002 2.509,0.002 3.764,0 0.919,-10e-4 0.92,-0.002 0.921,-0.955 0,-4.338 -0.001,-8.676 0.004,-13.015 0,-0.222 -0.106,-0.518 0.094,-0.649 C 0.217,7.297 0.391,7.583 0.583,7.685 3.746,9.356 6.998,9.861 10.308,8.2 12.656,7.021 13.934,4.966 14.386,2.435 14.835,-0.08 14.697,-2.549 13.437,-4.863 11.758,-7.943 8.061,-9.771 4.565,-9.314 3.048,-9.117 1.688,-8.635 0.481,-7.706 0.372,-7.622 0.255,-7.474 0.101,-7.552 -0.056,-7.63 0.008,-7.811 0,-7.949 c -0.05,-0.945 -0.048,-0.946 -0.994,-0.946 -1.297,-0.001 -2.593,0.026 -3.889,-0.011 -0.613,-0.018 -0.789,0.209 -0.786,0.798 0.017,4.901 0.009,9.802 0.009,14.705"
       style="fill:#6aa75c;fill-opacity:1;fill-rule:nonzero;stroke:none"
       transform="matrix(1.3333333,0,0,-1.3333333,372.9596,433.52973)"
       clip-path="url(#clipPath32)" />
    <path
       id="path33"
       d="M 0,0 C 0,0.479 -0.019,0.96 0.005,1.438 0.029,1.942 -0.124,2.371 -0.4,2.786 -1.669,4.687 -4.737,5.325 -6.73,4.082 -8.688,2.86 -9.361,0.753 -8.643,-1.488 c 0.688,-2.145 2.681,-3.351 4.938,-3.085 1.234,0.144 2.23,0.71 3.095,1.612 0.704,0.736 0.607,1.593 0.61,2.46 0.001,0.167 0,0.334 0,0.501 m 5.57,6.535 c 0,-4.862 10e-4,-9.724 0,-14.587 -0.001,-0.834 -0.008,-0.84 -0.839,-0.841 -1.338,-0.003 -2.678,0.019 -4.016,-0.01 -0.55,-0.012 -0.764,0.179 -0.724,0.725 0.02,0.259 0.137,0.635 -0.093,0.766 -0.28,0.16 -0.51,-0.192 -0.745,-0.339 -2.609,-1.643 -5.394,-2.122 -8.338,-1.125 -2.984,1.012 -4.532,3.299 -5.191,6.245 -0.458,2.047 -0.428,4.109 0.255,6.112 1.115,3.272 3.494,5.036 6.857,5.563 1.833,0.287 3.626,0.12 5.362,-0.562 0.53,-0.209 0.997,-0.525 1.464,-0.842 0.112,-0.078 0.211,-0.258 0.372,-0.159 0.137,0.085 0.078,0.266 0.083,0.408 0.007,0.228 0.002,0.459 0.002,0.688 0,4.215 -0.001,8.431 0.001,12.647 0.001,0.814 0.026,0.838 0.85,0.84 1.318,0.003 2.637,-0.019 3.954,0.01 C 5.398,22.087 5.583,21.881 5.58,21.31 5.563,16.385 5.57,11.46 5.57,6.535"
       style="fill:#6aa75c;fill-opacity:1;fill-rule:nonzero;stroke:none"
       transform="matrix(1.3333333,0,0,-1.3333333,601.75387,433.53107)"
       clip-path="url(#clipPath34)" />
    <path
       id="path35"
       d="M 0,0 C 0.097,-0.642 -0.162,-1.44 0.177,-2.208 0.86,-3.756 2.484,-4.743 4.607,-4.562 7.205,-4.339 9.098,-2.27 8.948,0.19 8.763,3.209 6.738,4.924 3.86,4.688 2.602,4.585 1.574,4.043 0.678,3.133 -0.069,2.372 -0.012,1.488 0,0.574 0.001,0.429 0,0.283 0,0 m 0.093,-7.327 c -0.149,-0.257 -0.09,-0.49 -0.09,-0.712 -0.005,-2.609 -0.002,-5.218 -0.004,-7.826 0,-0.855 -0.004,-0.858 -0.885,-0.859 -1.318,-0.002 -2.636,0.018 -3.954,-0.008 -0.53,-0.011 -0.741,0.145 -0.74,0.708 0.014,8.097 0.015,16.194 -0.002,24.292 -0.001,0.598 0.23,0.749 0.778,0.734 1.109,-0.028 2.219,-0.035 3.326,0.003 0.553,0.019 0.772,-0.196 0.891,-0.713 C -0.319,7.128 -0.291,7.126 0.702,7.785 3.155,9.414 5.821,9.888 8.67,9.175 11.822,8.386 14.13,5.488 14.549,1.95 14.781,-0.006 14.736,-1.935 13.98,-3.774 12.802,-6.642 10.57,-8.23 7.578,-8.824 5.083,-9.319 2.646,-9.165 0.093,-7.327"
       style="fill:#6aa75c;fill-opacity:1;fill-rule:nonzero;stroke:none"
       transform="matrix(1.3333333,0,0,-1.3333333,110.66987,433.94387)"
       clip-path="url(#clipPath36)" />
    <path
       id="path37"
       d="m 0,0 c -0.095,0.692 0.173,1.534 -0.24,2.335 -1.104,2.137 -4.322,2.952 -6.318,1.581 -1.804,-1.24 -2.493,-3.52 -1.71,-5.66 0.735,-2.008 2.583,-3.147 4.787,-2.95 C -1.439,-4.512 0,-2.96 0,-0.939 Z M 0.001,-6.845 C -1.225,-8.043 -2.443,-8.894 -3.956,-9.147 -7,-9.657 -9.8,-9.16 -12.058,-6.883 c -1.166,1.178 -1.791,2.654 -2.046,4.282 -0.395,2.507 -0.253,4.946 0.931,7.253 1.94,3.776 6.434,5.527 10.431,4.065 0.907,-0.332 1.614,-0.955 2.327,-1.565 0.337,-0.288 0.468,-0.254 0.557,0.185 0.207,1.033 0.097,0.997 1.258,0.996 1.171,0 2.343,-0.016 3.515,0.006 0.485,0.01 0.662,-0.166 0.661,-0.655 -0.011,-5.3 -0.011,-10.6 0,-15.901 0.001,-0.484 -0.169,-0.666 -0.658,-0.659 -1.422,0.021 -2.845,0.021 -4.268,0 -0.49,-0.007 -0.685,0.176 -0.654,0.661 0.025,0.389 0.005,0.781 0.005,1.37"
       style="fill:#6aa75c;fill-opacity:1;fill-rule:nonzero;stroke:none"
       transform="matrix(1.3333333,0,0,-1.3333333,550.69787,433.5636)"
       clip-path="url(#clipPath38)" />
    <path
       id="path39"
       d="m 0,0 h -0.002 c 0,0.521 -0.004,1.044 0.002,1.565 0.003,0.366 -0.1,0.699 -0.278,1.014 -1.073,1.905 -3.739,2.559 -5.553,1.784 -2.245,-0.959 -3.094,-3.191 -2.552,-5.455 0.571,-2.387 2.55,-3.723 4.942,-3.499 C -1.403,-4.4 0,-2.886 0,-0.876 Z m 0.001,-6.799 c -0.816,-0.718 -1.531,-1.305 -2.379,-1.723 -4.813,-2.374 -10.84,0.689 -11.678,5.953 -0.412,2.59 -0.279,5.111 1.011,7.472 2.317,4.241 7.101,5.326 10.827,3.689 0.692,-0.304 1.268,-0.806 1.81,-1.33 C -0.11,6.972 0.071,6.87 0.176,7.409 0.379,8.445 0.182,8.441 1.529,8.437 2.658,8.433 3.788,8.42 4.917,8.441 5.404,8.451 5.578,8.271 5.577,7.785 5.565,2.486 5.566,-2.813 5.576,-8.11 5.577,-8.591 5.415,-8.78 4.922,-8.773 c -1.422,0.02 -2.844,0.02 -4.266,0 -0.485,-0.007 -0.692,0.165 -0.66,0.655 0.025,0.387 0.005,0.776 0.005,1.319"
       style="fill:#6aa75c;fill-opacity:1;fill-rule:nonzero;stroke:none"
       transform="matrix(1.3333333,0,0,-1.3333333,332.07547,433.7004)"
       clip-path="url(#clipPath40)" />
    <path
       id="path41"
       d="M 0,0 C 0,1.795 -0.017,3.59 0.009,5.385 0.017,5.927 -0.155,6.146 -0.709,6.109 -1.23,6.074 -1.755,6.112 -2.278,6.102 -2.687,6.092 -2.896,6.234 -2.891,6.68 c 0.015,1.294 0.012,2.588 10e-4,3.882 -0.003,0.406 0.18,0.564 0.569,0.557 0.523,-0.008 1.048,0.028 1.569,-0.006 0.565,-0.038 0.772,0.158 0.763,0.744 -0.026,1.9 -0.076,3.803 0.022,5.697 0.252,4.909 3.729,7.503 8.459,7.019 1.237,-0.126 2.432,-0.4 3.526,-1.03 C 12.39,23.329 12.531,23.1 12.284,22.689 11.659,21.652 11.057,20.602 10.445,19.558 10.293,19.3 10.174,19.135 9.826,19.395 8.077,20.703 5.862,19.784 5.725,17.619 5.598,15.623 5.689,13.614 5.68,11.61 5.678,11.164 5.963,11.119 6.309,11.12 c 1.255,0.003 2.511,-0.021 3.766,0.01 0.579,0.015 0.773,-0.199 0.758,-0.766 C 10.803,9.175 10.809,7.984 10.832,6.796 10.841,6.285 10.657,6.086 10.138,6.096 8.924,6.119 7.709,6.074 6.497,6.114 5.872,6.135 5.66,5.938 5.665,5.299 5.691,1.771 5.678,-1.756 5.677,-5.282 5.676,-6.186 5.672,-6.187 4.769,-6.188 3.409,-6.189 2.048,-6.173 0.689,-6.196 0.176,-6.205 -0.014,-6.029 -0.008,-5.51 0.014,-3.674 0,-1.837 0,0"
       style="fill:#6aa75c;fill-opacity:1;fill-rule:nonzero;stroke:none"
       transform="matrix(1.3333333,0,0,-1.3333333,277.33653,437.13787)"
       clip-path="url(#clipPath42)" />
    <path
       id="path43"
       d="M 0,0 C -0.044,-0.464 0.054,-1.076 0.266,-1.674 0.86,-3.352 2.331,-4.469 3.96,-4.479 5.796,-4.491 7.195,-3.523 7.809,-1.754 8.354,-0.181 8.263,1.364 7.437,2.834 6.309,4.84 3.641,5.409 1.803,4.028 0.523,3.065 -0.039,1.754 0,0 m 4.124,-9.112 c -1.771,0.032 -3.495,0.293 -5.096,1.106 -2.38,1.209 -3.927,3.097 -4.463,5.71 -0.591,2.887 -0.322,5.649 1.566,8.074 C -2.178,7.953 0.117,8.999 2.804,9.31 4.486,9.505 6.146,9.395 7.751,8.854 10.978,7.769 12.95,5.536 13.606,2.206 14.113,-0.363 13.767,-2.817 12.339,-5.062 10.819,-7.45 8.553,-8.623 5.81,-9.002 5.52,-9.042 5.23,-9.089 4.939,-9.108 4.669,-9.126 4.396,-9.112 4.124,-9.112"
       style="fill:#6aa75c;fill-opacity:1;fill-rule:nonzero;stroke:none"
       transform="matrix(1.3333333,0,0,-1.3333333,640.95827,433.8696)"
       clip-path="url(#clipPath44)" />
    <path
       id="path45"
       d="M 0,0 C 0.024,-0.294 -0.144,-0.798 0.546,-0.563 2.642,0.147 4.738,0.856 6.837,1.559 7.178,1.673 7.251,1.852 7.086,2.169 6.642,3.021 6.012,3.653 5.046,3.878 2.367,4.504 0.123,2.799 0,0 M -5.541,-0.916 C -5.695,4.008 -1.566,7.837 3.022,8.338 4.585,8.509 6.117,8.416 7.602,7.924 9.983,7.134 11.62,5.514 12.621,3.238 13,2.377 13.275,1.481 13.468,0.558 13.555,0.139 13.444,-0.052 13.042,-0.178 9.37,-1.325 5.702,-2.483 2.036,-3.647 1.79,-3.726 1.394,-3.708 1.362,-4.004 1.329,-4.31 1.687,-4.46 1.933,-4.607 c 1.749,-1.048 3.488,-0.816 5.18,0.121 0.511,0.282 0.779,0.294 1.08,-0.259 0.568,-1.045 1.204,-2.052 1.821,-3.069 0.187,-0.309 0.259,-0.536 -0.151,-0.75 -3.246,-1.699 -6.608,-2.065 -10.055,-0.75 -3.021,1.152 -4.664,3.466 -5.232,6.591 -0.049,0.267 -0.097,0.536 -0.112,0.806 -0.019,0.332 -0.005,0.667 -0.005,1.001"
       style="fill:#6aa75c;fill-opacity:1;fill-rule:nonzero;stroke:none"
       transform="matrix(1.3333333,0,0,-1.3333333,198.8796,432.57013)"
       clip-path="url(#clipPath46)" />
    <path
       id="path47"
       d="M 0,0 C 2.027,0.047 3.945,-0.327 5.699,-1.408 6.209,-1.722 6.295,-2.002 5.936,-2.496 5.445,-3.171 4.998,-3.879 4.57,-4.596 4.309,-5.035 4.096,-5.18 3.61,-4.823 c -0.797,0.585 -1.705,0.967 -2.701,1.108 -0.633,0.09 -1.212,-0.058 -1.724,-0.417 -0.764,-0.535 -0.764,-1.372 0,-1.917 0.444,-0.317 0.95,-0.513 1.479,-0.666 0.843,-0.242 1.688,-0.487 2.511,-0.788 2.88,-1.052 4.109,-3.656 3.127,-6.554 -0.654,-1.928 -2.005,-3.193 -3.904,-3.768 -3.166,-0.958 -6.205,-0.6 -9.002,1.245 -1.438,0.948 -1.451,1.101 -0.404,2.412 0.364,0.457 0.732,0.915 1.062,1.396 0.257,0.374 0.455,0.441 0.831,0.109 0.851,-0.752 1.79,-1.379 2.923,-1.641 0.81,-0.187 1.62,-0.213 2.396,0.137 0.886,0.4 1.01,1.267 0.279,1.905 -0.401,0.352 -0.898,0.524 -1.394,0.693 -1.203,0.412 -2.464,0.661 -3.574,1.333 -3.318,2.007 -3.494,6.715 -0.327,8.97 C -3.438,-0.288 -2.341,0.001 0,0"
       style="fill:#6aa75c;fill-opacity:1;fill-rule:nonzero;stroke:none"
       transform="matrix(1.3333333,0,0,-1.3333333,692.07427,421.4516)"
       clip-path="url(#clipPath48)" />
    <path
       id="path49"
       d="M 0,0 C 2.429,-0.042 4.568,-0.546 6.471,-1.884 6.945,-2.218 6.988,-2.486 6.627,-2.935 5.945,-3.779 5.3,-4.652 4.663,-5.531 4.413,-5.877 4.193,-5.918 3.836,-5.68 c -0.917,0.611 -1.904,1.028 -3.039,1.034 -2.145,0.011 -3.706,-1.215 -4.178,-3.31 -0.576,-2.559 0.897,-4.977 3.389,-5.484 1.264,-0.257 2.514,-0.137 3.618,0.598 0.382,0.255 0.575,0.169 0.817,-0.145 0.676,-0.876 1.344,-1.759 2.063,-2.599 0.398,-0.466 0.23,-0.701 -0.199,-0.968 -1.208,-0.75 -2.524,-1.215 -3.917,-1.441 -2.661,-0.432 -5.228,-0.121 -7.568,1.268 -2.513,1.494 -3.719,3.822 -3.929,6.679 -0.196,2.655 0.338,5.106 2.222,7.128 1.485,1.593 3.338,2.467 5.469,2.794 C -0.901,-0.047 -0.384,0.045 0,0"
       style="fill:#6aa75c;fill-opacity:1;fill-rule:nonzero;stroke:none"
       transform="matrix(1.3333333,0,0,-1.3333333,500.27733,421.80067)"
       clip-path="url(#clipPath50)" />
    <path
       id="path51"
       d="M 0,0 C 0.959,1.654 2.298,2.752 3.841,3.624 4.479,3.984 5.152,4.267 5.867,4.447 6.251,4.544 6.483,4.475 6.481,4.024 6.476,2.482 6.357,0.946 6.256,-0.591 6.234,-0.925 6.114,-1.05 5.748,-1.028 2.799,-0.856 0.573,-3.273 0.207,-5.878 -0.091,-7.991 0.139,-10.126 0.081,-12.25 c -0.004,-0.146 0,-0.292 -0.001,-0.438 -0.005,-0.836 -0.007,-0.842 -0.836,-0.843 -1.338,-0.003 -2.677,0.014 -4.015,-0.009 -0.506,-0.009 -0.708,0.161 -0.707,0.682 0.012,5.277 0.011,10.554 10e-4,15.832 -10e-4,0.498 0.152,0.715 0.684,0.704 C -3.56,3.651 -2.325,3.647 -1.092,3.679 -0.505,3.694 -0.34,3.431 -0.303,2.9 -0.238,1.973 -0.113,1.049 0,0"
       style="fill:#6aa75c;fill-opacity:1;fill-rule:nonzero;stroke:none"
       transform="matrix(1.3333333,0,0,-1.3333333,161.6192,427.34613)"
       clip-path="url(#clipPath52)" />
    <path
       id="path53"
       d="M 0,0 C 1.445,2.247 3.345,3.572 5.662,4.335 6.382,4.572 6.552,4.434 6.512,3.713 6.432,2.278 6.35,0.845 6.269,-0.59 6.253,-0.87 6.264,-1.135 5.835,-1.1 2.789,-0.849 0.642,-3.402 0.218,-5.721 0.116,-6.282 0.117,-6.841 0.116,-7.403 0.112,-9.219 0.099,-11.034 0.124,-12.85 c 0.008,-0.575 -0.198,-0.764 -0.769,-0.752 -1.379,0.033 -2.76,0.025 -4.141,0.004 -0.491,-0.006 -0.657,0.178 -0.656,0.661 0.01,5.3 0.01,10.601 0,15.901 -10e-4,0.49 0.179,0.662 0.663,0.653 1.255,-0.02 2.51,-0.018 3.765,0 0.455,0.006 0.62,-0.177 0.66,-0.619 C -0.269,2.051 -0.134,1.107 0,0"
       style="fill:#6aa75c;fill-opacity:1;fill-rule:nonzero;stroke:none"
       transform="matrix(1.3333333,0,0,-1.3333333,423.86067,427.268)"
       clip-path="url(#clipPath54)" />
    <path
       id="path55"
       d="m 0,0 c 0,-2.588 -0.018,-5.176 0.012,-7.764 0.008,-0.637 -0.207,-0.834 -0.835,-0.816 -1.38,0.04 -2.762,0.029 -4.143,0.005 -0.516,-0.01 -0.699,0.178 -0.698,0.69 0.011,5.281 0.011,10.561 -0.001,15.841 -0.001,0.518 0.191,0.695 0.704,0.687 1.401,-0.024 2.804,-0.03 4.205,0.003 C -0.181,8.658 0.014,8.46 0.009,7.89 -0.012,5.26 0,2.63 0,0"
       style="fill:#6aa75c;fill-opacity:1;fill-rule:nonzero;stroke:none"
       transform="matrix(1.3333333,0,0,-1.3333333,464.02213,433.966)"
       clip-path="url(#clipPath56)" />
    <path
       id="path57"
       d="M 0,0 C 1.023,0 2.047,-0.017 3.07,0.007 3.558,0.018 3.74,-0.171 3.733,-0.651 3.715,-1.859 3.717,-3.068 3.732,-4.276 3.738,-4.723 3.573,-4.917 3.11,-4.915 c -2.109,0.012 -4.218,0.011 -6.327,0.002 -0.426,-0.002 -0.602,0.172 -0.598,0.596 0.011,1.229 0.016,2.459 -0.003,3.687 -0.008,0.502 0.218,0.646 0.685,0.636 C -2.089,-0.015 -1.044,0 0,0"
       style="fill:#6aa75c;fill-opacity:1;fill-rule:nonzero;stroke:none"
       transform="matrix(1.3333333,0,0,-1.3333333,244.7812,430.134)"
       clip-path="url(#clipPath58)" />
    <path
       id="path59"
       d="M 0,0 C 2.028,0.001 3.375,-1.59 2.95,-3.484 2.616,-4.973 0.786,-5.927 -0.851,-5.465 -2.339,-5.046 -3.254,-3.808 -3.063,-2.474 -2.854,-1.017 -1.597,0 0,0"
       style="fill:#6aa75c;fill-opacity:1;fill-rule:nonzero;stroke:none"
       transform="matrix(1.3333333,0,0,-1.3333333,460.42707,410.76547)"
       clip-path="url(#clipPath60)" />
    <path
       id="path61"
       d="m 0,0 c 0.857,0 1.714,0.003 2.572,-0.003 0.157,-0.001 0.373,0.053 0.429,-0.155 0.044,-0.157 -0.13,-0.24 -0.237,-0.337 -1.636,-1.488 -3.277,-2.971 -4.902,-4.47 -0.344,-0.318 -0.703,-0.474 -1.178,-0.455 -0.751,0.032 -1.505,0.014 -2.258,0.01 -0.391,-0.002 -0.497,0.155 -0.3,0.498 0.885,1.536 1.769,3.073 2.655,4.608 C -3.061,-0.03 -2.791,0 -2.509,0 -1.672,-0.002 -0.836,-0.001 0,0"
       style="fill:#6aa75c;fill-opacity:1;fill-rule:nonzero;stroke:none"
       transform="matrix(1.3333333,0,0,-1.3333333,208.25133,411.62613)"
       clip-path="url(#clipPath62)" />
  </g>
</svg>
