<?xml version="1.0" encoding="UTF-8" standalone="no"?>
<svg
   xmlns:dc="http://purl.org/dc/elements/1.1/"
   xmlns:cc="http://creativecommons.org/ns#"
   xmlns:rdf="http://www.w3.org/1999/02/22-rdf-syntax-ns#"
   xmlns:svg="http://www.w3.org/2000/svg"
   xmlns="http://www.w3.org/2000/svg"
   viewBox="0 0 1440 1119.4694"
   height="1119.4694"
   width="1440"
   xml:space="preserve"
   id="svg2"
   version="1.1"><metadata
     id="metadata8"><rdf:RDF><cc:Work
         rdf:about=""><dc:format>image/svg+xml</dc:format><dc:type
           rdf:resource="http://purl.org/dc/dcmitype/StillImage" /></cc:Work></rdf:RDF></metadata><defs
     id="defs6"><clipPath
       id="clipPath18"
       clipPathUnits="userSpaceOnUse"><path
         id="path16"
         d="M 0,839.602 H 1080 V 0 H 0 Z" /></clipPath></defs><g
     transform="matrix(1.3333333,0,0,-1.3333333,0,1119.4693)"
     id="g10"><g
       id="g12"><g
         clip-path="url(#clipPath18)"
         id="g14"><g
           transform="translate(709.8691,340.3564)"
           id="g20"><path
             id="path22"
             style="fill:#cb1e25;fill-opacity:1;fill-rule:nonzero;stroke:none"
             d="m 0,0 c 0,-24.845 0.023,-49.689 -0.044,-74.535 -0.005,-2.004 0.309,-2.737 2.57,-2.72 14.888,0.119 29.778,0.09 44.666,0.025 1.787,-0.008 2.407,0.365 2.405,2.304 -0.057,49.975 -0.058,99.949 0.002,149.924 0.002,2.071 -0.659,2.481 -2.579,2.47 C 32.32,77.393 17.62,77.37 2.922,77.485 0.562,77.503 -0.062,76.902 -0.055,74.535 0.033,49.69 0,24.846 0,0 m -243.451,-79.131 c 19.291,-0.181 33.917,1.232 47.439,7.65 15.58,7.393 26.772,18.584 30.34,36.442 4.396,21.998 -8.873,42.37 -28.3,49.648 -9.905,3.711 -20.381,5.71 -30.634,8.354 -6.959,1.794 -14.139,2.624 -20.977,4.956 -3.897,1.329 -5.358,4.345 -5.765,8.001 -0.356,3.213 1.787,6.017 5.25,7.711 4.176,2.043 8.653,2.155 13.078,1.78 9.584,-0.812 17.608,-4.411 21.87,-13.749 0.617,-1.354 1.281,-1.598 2.586,-1.229 12.47,3.519 24.943,7.031 37.436,10.472 1.467,0.405 1.912,0.81 1.074,2.249 -0.997,1.713 -1.774,3.552 -2.69,5.313 -6.851,13.172 -17.517,21.905 -31.469,26.618 -18.762,6.338 -37.819,6.213 -56.879,1.689 -14.372,-3.411 -26.069,-10.736 -33.478,-24.114 -7.346,-13.263 -8.581,-26.889 -2.898,-40.903 3.404,-8.392 9.128,-15.096 17.402,-19.091 11.98,-5.787 24.704,-9.442 37.631,-12.449 6.699,-1.559 13.681,-2.008 20.033,-4.947 5.676,-2.627 8.227,-5.048 6.991,-11.174 -0.803,-3.978 -4.239,-4.799 -7.279,-5.92 -5.894,-2.173 -11.959,-1.253 -18.01,-0.743 -10.572,0.89 -17.84,6.123 -21.523,16.105 -0.514,1.392 -1.087,1.666 -2.462,1.426 -14.083,-2.459 -28.171,-4.89 -42.273,-7.235 -1.82,-0.301 -1.816,-1.006 -1.304,-2.427 1.892,-5.251 3.865,-10.43 6.801,-15.245 6.846,-11.231 16.69,-18.732 28.838,-23.212 10.819,-3.991 22.014,-6.318 29.172,-5.976 m 149.977,0.167 c 6.483,-0.36 12.137,-0.152 17.803,0.616 11.045,1.499 21.878,3.666 31.532,9.59 11.467,7.034 20.632,16.042 23.991,29.641 2.408,9.747 2.902,19.391 -1.402,28.896 -5.389,11.902 -13.956,20.597 -26.215,24.916 -9.069,3.196 -18.563,5.189 -27.878,7.687 -7.584,2.034 -15.445,2.91 -22.92,5.379 -4.116,1.358 -6.121,4.158 -6.215,8.212 -0.084,3.59 1.916,6.323 5.757,7.957 3.96,1.684 8.148,1.835 12.299,1.492 9.689,-0.8 17.844,-4.315 22.09,-13.824 0.826,-1.85 1.898,-1.313 3.174,-0.956 10.84,3.03 21.686,6.038 32.524,9.071 6.229,1.742 6.219,1.755 3.332,7.566 -6.838,13.77 -17.692,22.953 -32.172,27.832 -18.672,6.29 -37.636,6.178 -56.605,1.712 -14.58,-3.432 -26.405,-10.844 -33.842,-24.487 -7.21,-13.227 -8.384,-26.731 -2.694,-40.632 3.435,-8.391 9.141,-15.076 17.421,-19.063 11.985,-5.774 24.704,-9.436 37.634,-12.433 6.699,-1.554 13.683,-2.004 20.026,-4.961 5.591,-2.605 8.074,-4.914 7.021,-10.919 -0.721,-4.119 -4.269,-5.021 -7.412,-6.171 -5.799,-2.12 -11.767,-1.235 -17.728,-0.744 -10.671,0.878 -18.085,6.03 -21.758,16.182 -0.523,1.449 -1.168,1.585 -2.484,1.356 -14.084,-2.451 -28.175,-4.862 -42.271,-7.245 -1.43,-0.242 -1.926,-0.593 -1.343,-2.194 1.909,-5.246 3.853,-10.428 6.766,-15.258 6.905,-11.447 16.893,-18.997 29.266,-23.509 10.663,-3.889 21.661,-6.156 32.303,-5.709 m -372.3,78.86 c 0.299,-8.552 0.898,-17.271 3.164,-25.722 3.825,-14.266 11.15,-26.435 22.548,-36 9.047,-7.592 19.038,-13.245 30.779,-15.635 9.177,-1.868 18.358,-2.373 27.635,-1.267 5.547,0.662 11.225,1.032 16.489,2.85 11.565,3.996 22.092,9.811 30.495,19.025 5.584,6.124 10.557,12.545 13.864,20.269 6.225,14.538 8.049,29.716 7.127,45.309 -1.089,18.421 -6.839,35.002 -19.869,48.59 -9.981,10.41 -21.997,17.19 -36.055,20.296 -11.315,2.5 -22.703,2.638 -34.19,1.102 -19.957,-2.67 -35.739,-12.057 -47.497,-28.429 -10.812,-15.056 -13.849,-32.28 -14.49,-50.388 m -14.331,-77.088 c -0.489,1.122 -0.822,1.883 -1.153,2.646 -9.022,20.82 -18.016,41.654 -27.115,62.442 -0.79,1.806 -0.628,2.566 1.206,3.334 5.713,2.395 10.94,5.695 15.526,9.811 6.21,5.572 8.651,13.037 10.036,21.074 3.254,18.888 -2.33,34.379 -17.964,45.521 -10.166,7.245 -22.234,9.594 -34.493,9.707 -28.821,0.262 -57.646,0.061 -86.47,0.131 -2.085,0.005 -2.704,-0.456 -2.701,-2.64 0.067,-49.868 0.065,-99.736 0.004,-149.605 -0.002,-2.033 0.566,-2.48 2.524,-2.468 14.79,0.085 29.582,0.103 44.372,-0.014 2.312,-0.018 2.761,0.68 2.751,2.836 -0.084,18.013 -0.016,36.026 -0.094,54.039 -0.009,1.969 0.447,2.637 2.481,2.515 3.024,-0.182 6.08,-0.232 9.095,0.01 2.482,0.2 3.582,-0.654 4.502,-2.995 7.091,-18.036 14.351,-36.006 21.564,-53.995 0.473,-1.18 0.644,-2.406 2.553,-2.397 17.632,0.081 35.266,0.048 53.376,0.048 M 335.681,109.57 c 0.01,-54.055 0.022,-108.111 0.032,-162.167 0.003,-20.388 -0.064,-40.778 0.075,-61.167 0.019,-2.798 -0.724,-3.344 -3.411,-3.344 -233.024,0.068 -466.05,0.063 -699.074,0.063 -98.54,0 -197.08,0.013 -295.62,-0.063 -2.759,-0.002 -3.556,0.508 -3.552,3.457 0.099,73.401 0.077,146.803 0.082,220.205 0,1.041 0.059,2.082 0.091,3.122 1.517,-0.021 3.034,-0.056 4.551,-0.056 240.422,-0.003 480.843,-0.006 721.264,0.042 2.366,0 4.032,-0.559 5.619,-2.433 8.456,-9.982 17.062,-19.836 25.6,-29.749 31.555,-36.629 63.114,-73.255 94.619,-109.928 1.373,-1.599 1.991,-1.514 3.308,0.028 7.324,8.579 14.733,17.087 22.167,25.571 33.547,38.292 67.115,76.567 100.656,114.865 0.94,1.074 1.907,1.647 3.394,1.63 6.733,-0.082 13.466,-0.06 20.199,-0.076" /></g><g
           transform="translate(897.9209,356.3496)"
           id="g24"><path
             id="path26"
             style="fill:#9e1b20;fill-opacity:1;fill-rule:nonzero;stroke:none"
             d="m 0,0 c -5.035,5.767 -10.019,11.467 -14.992,17.175 -27.4,31.449 -54.788,62.908 -82.224,94.326 -1.328,1.521 -1.919,3.002 -1.917,5.051 0.057,53.19 0.067,106.381 -0.018,159.571 -0.005,2.658 0.74,3.231 3.286,3.228 63.813,-0.07 127.628,-0.069 191.441,-0.003 2.417,0.003 3.187,-0.454 3.182,-3.075 -0.09,-53.38 -0.07,-106.76 -0.051,-160.14 0.001,-1.465 -0.202,-2.684 -1.242,-3.882 C 65.452,75.393 33.478,38.5 1.495,1.616 1.062,1.117 0.599,0.646 0,0" /></g><g
           transform="translate(1045.5498,449.9268)"
           id="g28"><path
             id="path30"
             style="fill:#070708;fill-opacity:1;fill-rule:nonzero;stroke:none"
             d="m 0,0 c -6.732,0.016 -13.466,-0.006 -20.198,0.075 -1.488,0.018 -2.454,-0.555 -3.395,-1.63 -33.541,-38.298 -67.108,-76.572 -100.656,-114.864 -7.434,-8.484 -14.843,-16.992 -22.167,-25.571 -1.316,-1.542 -1.935,-1.627 -3.308,-0.029 -31.505,36.673 -63.064,73.299 -94.619,109.929 -8.538,9.912 -17.143,19.767 -25.599,29.748 -1.587,1.874 -3.253,2.434 -5.62,2.434 -240.42,-0.048 -480.842,-0.045 -721.263,-0.042 -1.517,0 -3.034,0.035 -4.551,0.055 -0.033,4.457 -0.019,8.913 -0.125,13.366 -0.034,1.388 0.433,1.885 1.78,1.723 0.655,-0.079 1.326,-0.013 1.991,-0.013 242.892,0 485.784,-0.005 728.676,0.06 2.617,0 4.206,-0.774 5.92,-2.771 29.395,-34.244 58.893,-68.4 88.368,-102.574 8.853,-10.265 17.705,-20.529 26.716,-30.975 5.217,5.937 10.34,11.756 15.449,17.586 33.691,38.43 67.41,76.835 100.991,115.359 2.15,2.467 4.14,3.494 7.368,3.39 7.485,-0.24 14.983,-0.137 22.474,-0.03 1.79,0.024 2.323,-0.504 2.193,-2.233 C 0.1,8.671 0.912,4.308 0,0" /></g><g
           transform="translate(202.4717,532.3105)"
           id="g32"><path
             id="path34"
             style="fill:#070809;fill-opacity:1;fill-rule:nonzero;stroke:none"
             d="m 0,0 v -15.579 c 0,-9.195 -0.087,-18.392 0.061,-27.584 0.037,-2.324 -0.696,-2.831 -2.857,-2.76 -4.735,0.155 -9.48,0.102 -14.219,0.019 -1.618,-0.029 -2.347,0.274 -2.342,2.148 0.06,24.077 0.048,48.155 0.017,72.233 -0.002,1.404 0.304,2.043 1.875,2.019 5.307,-0.08 10.618,-0.101 15.924,0.012 1.655,0.035 2.322,-0.971 3.134,-2.01 10.965,-14.033 21.933,-28.062 32.906,-42.089 0.554,-0.709 1.157,-1.381 2.178,-2.595 V -3.97 c 0,10.616 0.069,21.235 -0.056,31.85 -0.026,2.19 0.611,2.702 2.701,2.636 4.925,-0.156 9.859,-0.092 14.787,-0.024 1.449,0.02 1.965,-0.389 1.962,-1.918 -0.043,-24.173 -0.041,-48.345 -0.003,-72.517 0.003,-1.48 -0.433,-1.98 -1.931,-1.959 -5.308,0.072 -10.619,0.098 -15.926,-0.014 -1.666,-0.035 -2.313,1.015 -3.117,2.042 -10.971,14.029 -21.94,28.06 -32.911,42.087 -0.508,0.649 -1.038,1.28 -1.558,1.92 C 0.417,0.089 0.208,0.044 0,0" /></g><g
           transform="translate(538.6997,502.8984)"
           id="g36"><path
             id="path38"
             style="fill:#060708;fill-opacity:1;fill-rule:nonzero;stroke:none"
             d="M 0,0 C 12.737,0.939 21.327,8.952 21.475,21.812 21.576,30.568 13.727,43.384 -0.286,43.065 -14.322,42.747 -21.196,31.072 -21.218,21.082 -21.244,8.792 -12.418,0.459 0,0 M 42.17,20.879 C 40.897,8.317 36.385,-2.884 26.222,-10.759 c -6.134,-4.753 -13.669,-6.924 -21.588,-7.733 -11.522,-1.18 -21.904,1.534 -31.328,8.046 -7.502,5.182 -11.048,13.084 -13.532,21.395 -2.622,8.773 -2.149,17.725 1.567,26.059 5.141,11.529 13.242,19.903 26.095,23.258 6.437,1.679 12.815,2.908 19.203,1.469 10.517,-2.368 20.494,-5.894 26.743,-15.869 3.177,-5.071 6.216,-10.131 7.688,-15.949 0.735,-2.908 1.137,-5.918 1.1,-9.038" /></g><g
           transform="translate(293.5718,524.7441)"
           id="g40"><path
             id="path42"
             style="fill:#070809;fill-opacity:1;fill-rule:nonzero;stroke:none"
             d="m 0,0 v -16.188 c 0,-5.767 0.018,-6.016 5.847,-5.587 5.624,0.414 11.334,1.788 14.941,6.385 4.962,6.324 7.353,13.55 4.65,21.767 C 23.588,12 20.58,16.777 15.167,19.257 11.168,21.088 6.756,21.944 2.19,21.585 0.475,21.45 -0.064,21.056 -0.038,19.313 0.058,12.877 0,6.437 0,0 m -19.359,-0.053 c 0,11.849 0.04,23.698 -0.04,35.546 -0.014,1.92 0.414,2.612 2.48,2.587 9.289,-0.111 18.591,0.239 27.867,-0.119 12.266,-0.474 21.718,-6.499 28.788,-16.27 4.881,-6.748 7.559,-14.395 7.26,-22.794 -0.373,-10.467 -4.503,-19.197 -12.145,-26.55 -8.102,-7.797 -17.63,-10.898 -28.61,-10.682 -7.297,0.144 -14.598,0.01 -21.898,0.034 -4.168,0.014 -3.69,-0.515 -3.696,3.556 -0.017,11.563 -0.006,23.128 -0.006,34.692" /></g><g
           transform="translate(386.1631,539.2319)"
           id="g44"><path
             id="path46"
             style="fill:#070808;fill-opacity:1;fill-rule:nonzero;stroke:none"
             d="m 0,0 c -2.995,-8.161 -5.726,-15.566 -8.424,-22.984 -0.625,-1.72 0.754,-1.332 1.585,-1.337 4.457,-0.028 8.916,0.051 13.372,-0.044 1.877,-0.04 2.272,0.349 1.557,2.228 C 5.403,-15.076 2.888,-7.95 0,0 m 0.189,23.542 c 2.845,0 5.693,-0.086 8.533,0.035 1.549,0.066 2.338,-0.367 2.913,-1.906 8.994,-24.072 18.034,-48.127 27.145,-72.154 0.768,-2.023 0.347,-2.388 -1.659,-2.348 -5.403,0.107 -10.81,0.102 -16.213,-0.003 -1.588,-0.032 -2.354,0.411 -2.822,1.966 -0.924,3.074 -2.16,6.054 -3.085,9.127 -0.428,1.421 -1.049,1.93 -2.56,1.917 -8.438,-0.072 -16.878,-0.085 -25.316,0.008 -1.672,0.019 -2.276,-0.601 -2.718,-2.101 -0.854,-2.897 -2.047,-5.695 -2.89,-8.595 -0.503,-1.733 -1.293,-2.385 -3.167,-2.331 -5.021,0.143 -10.052,0.141 -15.074,0.008 -2.297,-0.062 -2.955,0.265 -1.998,2.731 8.141,20.959 16.159,41.965 24.212,62.957 1.151,2.998 2.37,5.974 3.412,9.01 0.449,1.308 1.116,1.75 2.47,1.708 2.936,-0.092 5.878,-0.029 8.817,-0.029" /></g><g
           transform="translate(101.5366,534.8594)"
           id="g48"><path
             id="path50"
             style="fill:#070808;fill-opacity:1;fill-rule:nonzero;stroke:none"
             d="m 0,0 c 0,9.692 0.069,17.659 -0.05,25.623 -0.029,1.932 0.57,2.377 2.385,2.332 4.739,-0.118 9.487,-0.151 14.223,0.009 2.183,0.074 2.854,-0.471 2.837,-2.773 -0.114,-15.172 -0.06,-30.346 -0.058,-45.519 0,-7.811 5.976,-13.431 13.777,-13.039 4.745,0.238 8.381,2.196 11.22,6.108 1.377,1.896 1.236,3.949 1.597,5.908 0.527,2.862 0.587,5.835 0.6,8.762 0.057,12.612 0.072,25.226 -0.023,37.839 -0.015,2.053 0.385,2.808 2.615,2.722 4.829,-0.185 9.672,-0.118 14.507,-0.024 1.678,0.033 2.297,-0.361 2.288,-2.193 -0.076,-14.699 0.315,-29.41 -0.17,-44.094 -0.315,-9.508 -2.648,-18.676 -10.944,-24.851 -9.491,-7.065 -20.166,-8.603 -31.552,-6.253 -3.606,0.744 -7.065,1.802 -10.368,3.624 C 5.031,-41.49 1.47,-34.663 0.487,-26.101 -0.576,-16.839 0.353,-7.546 0,0" /></g><g
           transform="translate(653.7969,509.208)"
           id="g52"><path
             id="path54"
             style="fill:#060708;fill-opacity:1;fill-rule:nonzero;stroke:none"
             d="m 0,0 c 4.745,-3.321 8.779,-7.246 14.509,-8.001 4.331,-0.57 8.517,-0.539 11.393,3.657 2.009,2.932 1.418,6.412 -1.451,8.664 -4.041,3.169 -9.04,3.657 -13.699,5.11 -5.755,1.796 -11.116,3.996 -14.021,9.98 -4.484,9.239 -1.463,23.727 6.507,30.154 7.684,6.196 16.109,8.148 25.734,5.204 4.594,-1.406 9.308,-2.415 13.79,-4.226 1.55,-0.626 1.934,-1.225 1.037,-2.843 -2.155,-3.881 -4.146,-7.859 -6.063,-11.865 -0.715,-1.495 -1.374,-1.693 -2.732,-0.787 -3.246,2.167 -6.711,3.814 -10.649,4.407 -4.375,0.657 -8.057,-1.477 -9.172,-5.718 -0.522,-1.983 0.353,-3.628 1.801,-5.09 2.289,-2.313 5.029,-3.477 8.21,-3.858 5.937,-0.711 10.906,-3.69 15.508,-7.184 6.648,-5.044 7.517,-12.261 6.743,-19.914 -0.151,-1.5 -0.45,-3 -0.833,-4.461 -2.468,-9.394 -9.187,-13.996 -18.126,-16.308 -4.067,-1.052 -8.091,-1.954 -12.305,-1.629 -8.426,0.651 -16.232,3.164 -23.367,7.745 -0.975,0.627 -0.958,1.105 -0.477,2.024 C -5.084,-9.998 -2.568,-5.023 0,0" /></g><g
           transform="translate(463.0444,486.6904)"
           id="g56"><path
             id="path58"
             style="fill:#060708;fill-opacity:1;fill-rule:nonzero;stroke:none"
             d="M 0,0 C 0.014,-0.093 0.027,-0.186 0.041,-0.278 H 14.573 L 14.567,0 Z m 25.037,24.694 c 0,-7.787 -0.009,-14.855 0.011,-21.923 0.003,-0.97 -0.606,-1.228 -1.337,-1.563 -2.25,-1.034 -4.596,-1.798 -7.023,-2.158 -1.755,-0.261 -2.721,-1.06 -3.079,-2.754 -0.155,-0.736 -0.453,-1.442 -0.663,-2.169 -1.654,-5.725 -1.653,-5.725 -7.53,-5.721 -2.655,0.002 -5.31,0.033 -7.964,-0.01 -1.225,-0.02 -1.591,0.256 -1.374,1.64 0.467,2.982 0.691,5.994 2.956,8.752 -7.169,0.983 -12.624,4.457 -17.904,8.609 -5.111,4.021 -8.358,9.238 -10.936,14.916 -3.912,8.617 -4.067,17.703 -1.451,26.619 3.71,12.645 11.852,21.421 24.358,26.103 10.412,3.898 20.595,2.849 30.79,-0.709 0.882,-0.308 1.169,-0.685 1.165,-1.578 -0.027,-7.28 -0.015,-14.559 -0.015,-22.744 -5.792,7.019 -12.512,9.999 -20.897,8.044 -5.006,-1.167 -9.559,-3.296 -12.67,-7.527 -6.347,-8.634 -5.161,-21.913 2.531,-28.845 6.438,-5.804 22.068,-7.065 31.032,3.018" /></g><g
           transform="translate(593.4834,524.6709)"
           id="g60"><path
             id="path62"
             style="fill:#08090a;fill-opacity:1;fill-rule:nonzero;stroke:none"
             d="m 0,0 c 0,11.853 0.039,23.705 -0.039,35.557 -0.013,1.903 0.387,2.616 2.47,2.6 12.61,-0.097 25.222,-0.084 37.834,-0.009 1.81,0.011 2.467,-0.39 2.395,-2.32 -0.152,-4.071 -0.118,-8.154 -0.011,-12.229 0.043,-1.622 -0.46,-2.082 -2.072,-2.059 -6.163,0.089 -12.328,-0.038 -18.49,0.078 -2.004,0.038 -2.938,-0.33 -2.762,-2.604 0.212,-2.734 0.142,-5.5 0.016,-8.244 -0.073,-1.602 0.399,-2.104 2.036,-2.078 5.878,0.094 11.759,-0.027 17.637,0.077 1.736,0.03 2.301,-0.433 2.245,-2.216 -0.131,-4.074 -0.151,-8.157 0.006,-12.229 0.073,-1.906 -0.698,-2.142 -2.311,-2.12 -5.783,0.082 -11.569,-0.029 -17.351,0.07 -1.691,0.029 -2.354,-0.344 -2.269,-2.17 0.149,-3.217 0.132,-6.449 0.007,-9.668 -0.07,-1.772 0.544,-2.26 2.273,-2.234 6.162,0.094 12.328,-0.037 18.49,0.08 1.884,0.035 2.66,-0.294 2.564,-2.41 -0.186,-4.068 -0.114,-8.153 -0.022,-12.228 0.033,-1.504 -0.455,-1.917 -1.936,-1.912 -12.897,0.052 -25.793,0.071 -38.689,-0.012 -2,-0.013 -2.045,0.945 -2.041,2.439 C 0.016,-23.894 0,-11.946 0,0" /></g><g
           transform="translate(46.5146,524.7168)"
           id="g64"><path
             id="path66"
             style="fill:#08090a;fill-opacity:1;fill-rule:nonzero;stroke:none"
             d="m 0,0 c 0,11.854 0.045,23.708 -0.044,35.561 -0.016,1.975 0.501,2.561 2.513,2.547 12.802,-0.089 25.606,-0.09 38.408,0.002 1.959,0.015 2.358,-0.634 2.301,-2.42 -0.124,-3.884 -0.143,-7.779 0.006,-11.661 0.074,-1.943 -0.416,-2.597 -2.467,-2.55 -6.066,0.142 -12.144,-0.109 -18.204,0.123 -2.749,0.105 -3.387,-0.853 -3.185,-3.345 0.199,-2.449 0.152,-4.934 0.007,-7.391 -0.103,-1.728 0.394,-2.263 2.181,-2.227 5.782,0.119 11.57,-0.034 17.353,0.089 1.866,0.039 2.463,-0.469 2.398,-2.36 C 41.13,2.391 41.1,-1.602 41.277,-5.576 41.369,-7.62 40.533,-7.871 38.815,-7.843 33.412,-7.753 28,-7.934 22.601,-7.754 c -2.474,0.082 -3.37,-0.436 -3.303,-3.16 0.203,-8.34 0.023,-16.689 0.114,-25.032 0.02,-1.838 -0.447,-2.442 -2.36,-2.385 -4.833,0.143 -9.677,0.178 -14.507,-0.01 -2.283,-0.089 -2.604,0.776 -2.589,2.78 C 0.045,-23.707 0,-11.854 0,0" /></g><g
           transform="translate(531.1431,587.0874)"
           id="g68"><path
             id="path70"
             style="fill:#070809;fill-opacity:1;fill-rule:nonzero;stroke:none"
             d="m 0,0 c 2.4,0.367 4.73,-0.225 6.879,-1.609 2.594,-1.671 5.643,-1.369 8.491,-1.733 1.505,-0.193 3.381,0.219 4.17,2.148 0.398,0.972 1.18,1.302 2.27,1.262 2.269,-0.085 4.549,-0.118 6.815,0.006 1.505,0.082 1.955,-0.618 1.579,-1.831 -1.016,-3.28 -1.376,-6.743 -3.77,-9.59 -3.516,-4.179 -7.867,-5.575 -13.08,-4.896 -4.412,0.575 -8.654,1.884 -12.915,3.099 -2.182,0.623 -4.007,0.231 -4.979,-1.954 -0.524,-1.181 -1.255,-1.413 -2.403,-1.352 -1.605,0.086 -3.237,0.178 -4.823,-0.015 -2.244,-0.274 -2.811,0.613 -2.505,2.696 0.803,5.471 2.564,10.215 8.065,12.787 C -4.204,-0.047 -2.233,0.099 0,0" /></g><g
           transform="translate(136.2368,370.5332)"
           id="g72"><path
             id="path74"
             style="fill:#fffefe;fill-opacity:1;fill-rule:nonzero;stroke:none"
             d="m 0,0 c 0,-4.264 0.09,-8.529 -0.042,-12.789 -0.057,-1.845 0.452,-2.411 2.346,-2.381 7.105,0.112 14.224,-0.208 21.314,0.138 4.454,0.217 9.107,0.671 12.812,3.665 5.484,4.431 5.652,10.345 4.106,16.539 -1.366,5.47 -5.946,7.578 -10.663,8.56 -9.335,1.945 -18.883,0.824 -28.34,1.07 -1.626,0.042 -1.544,-0.916 -1.54,-2.011 C 0.01,8.527 0,4.264 0,0 m 93.527,-107.369 c -18.11,0 -35.743,0.033 -53.376,-0.048 -1.908,-0.009 -2.08,1.217 -2.553,2.397 -7.212,17.99 -14.473,35.959 -21.563,53.996 -0.921,2.34 -2.02,3.194 -4.503,2.995 -3.014,-0.242 -6.071,-0.193 -9.094,-0.011 -2.035,0.122 -2.49,-0.546 -2.481,-2.515 0.078,-18.012 0.009,-36.026 0.093,-54.039 0.011,-2.156 -0.439,-2.854 -2.751,-2.836 -14.79,0.117 -29.581,0.099 -44.372,0.014 -1.957,-0.012 -2.526,0.436 -2.524,2.468 0.061,49.869 0.063,99.737 -0.004,149.605 -0.003,2.184 0.617,2.645 2.702,2.64 28.823,-0.069 57.648,0.132 86.469,-0.131 12.259,-0.112 24.327,-2.462 34.493,-9.707 15.635,-11.142 21.218,-26.633 17.964,-45.521 -1.384,-8.037 -3.826,-15.501 -10.035,-21.074 -4.586,-4.116 -9.813,-7.416 -15.527,-9.81 -1.834,-0.769 -1.996,-1.529 -1.205,-3.335 9.098,-20.787 18.093,-41.621 27.115,-62.442 0.33,-0.762 0.663,-1.524 1.152,-2.646" /></g><g
           transform="translate(343.5586,343.7959)"
           id="g76"><path
             id="path78"
             style="fill:#fffefe;fill-opacity:1;fill-rule:nonzero;stroke:none"
             d="m 0,0 c -0.475,11.104 -1.146,20.813 -5.407,30.044 -5.939,12.869 -21.593,14.938 -30.402,6.1 -4.015,-4.029 -6.037,-9.102 -7.524,-14.399 -3.294,-11.735 -3.407,-23.755 -2.695,-35.793 0.437,-7.395 1.802,-14.633 4.961,-21.43 1.9,-4.088 4.135,-7.983 8.347,-10.034 10.737,-5.227 24.743,-1.388 28.748,12.482 C -0.726,-21.79 -0.148,-10.312 0,0 m -99.464,-3.543 c 0.642,18.107 3.678,35.331 14.491,50.388 11.758,16.372 27.54,25.759 47.496,28.428 11.488,1.537 22.876,1.399 34.19,-1.101 14.058,-3.107 26.075,-9.887 36.055,-20.296 13.031,-13.589 18.78,-30.169 19.869,-48.591 0.922,-15.593 -0.901,-30.77 -7.126,-45.308 -3.308,-7.724 -8.281,-14.146 -13.864,-20.269 -8.403,-9.215 -18.93,-15.029 -30.495,-19.025 -5.265,-1.819 -10.942,-2.189 -16.49,-2.85 -9.277,-1.106 -18.458,-0.602 -27.634,1.267 -11.741,2.389 -21.733,8.043 -30.779,15.634 -11.398,9.566 -18.723,21.735 -22.549,36 -2.266,8.452 -2.865,17.17 -3.164,25.723" /></g><g
           transform="translate(616.3955,261.3926)"
           id="g80"><path
             id="path82"
             style="fill:#fffefe;fill-opacity:1;fill-rule:nonzero;stroke:none"
             d="m 0,0 c -10.643,-0.447 -21.641,1.82 -32.304,5.709 -12.373,4.512 -22.36,12.062 -29.265,23.509 -2.913,4.83 -4.858,10.011 -6.766,15.258 -0.583,1.601 -0.087,1.952 1.343,2.194 14.096,2.383 28.186,4.794 42.27,7.245 1.317,0.229 1.961,0.093 2.485,-1.356 3.673,-10.152 11.087,-15.304 21.758,-16.182 5.96,-0.491 11.928,-1.376 17.728,0.744 3.143,1.15 6.69,2.052 7.412,6.171 1.053,6.005 -1.431,8.313 -7.021,10.919 -6.343,2.957 -13.328,3.407 -20.027,4.961 -12.929,2.997 -25.648,6.659 -37.634,12.432 -8.28,3.988 -13.986,10.673 -17.42,19.064 -5.691,13.901 -4.516,27.405 2.694,40.632 7.436,13.643 19.262,21.054 33.842,24.487 18.968,4.466 37.932,4.578 56.604,-1.712 14.481,-4.879 25.334,-14.062 32.173,-27.832 2.887,-5.811 2.897,-5.824 -3.332,-7.566 -10.839,-3.033 -21.685,-6.041 -32.524,-9.072 -1.277,-0.356 -2.348,-0.893 -3.174,0.957 -4.246,9.509 -12.402,13.024 -22.09,13.824 -4.151,0.343 -8.339,0.192 -12.3,-1.492 -3.841,-1.634 -5.841,-4.367 -5.757,-7.957 0.095,-4.054 2.1,-6.854 6.215,-8.212 7.476,-2.469 15.337,-3.345 22.921,-5.379 C 27.146,98.848 36.64,96.854 45.709,93.659 57.968,89.34 66.534,80.645 71.924,68.743 76.228,59.238 75.733,49.594 73.325,39.847 69.967,26.248 60.802,17.24 49.335,10.206 39.681,4.282 28.848,2.115 17.803,0.616 12.137,-0.152 6.482,-0.36 0,0" /></g><g
           transform="translate(466.4185,261.2256)"
           id="g84"><path
             id="path86"
             style="fill:#fffefe;fill-opacity:1;fill-rule:nonzero;stroke:none"
             d="m 0,0 c -7.159,-0.342 -18.353,1.985 -29.172,5.976 -12.148,4.48 -21.992,11.981 -28.838,23.211 -2.936,4.816 -4.909,9.995 -6.802,15.246 -0.512,1.421 -0.516,2.126 1.304,2.427 14.103,2.345 28.191,4.776 42.274,7.235 1.375,0.24 1.948,-0.034 2.462,-1.426 3.683,-9.982 10.951,-15.215 21.522,-16.106 6.051,-0.509 12.117,-1.429 18.01,0.744 3.04,1.121 6.477,1.942 7.28,5.92 1.236,6.126 -1.315,8.546 -6.992,11.173 -6.352,2.94 -13.333,3.389 -20.032,4.948 -12.928,3.006 -25.651,6.662 -37.632,12.449 -8.273,3.995 -13.997,10.699 -17.401,19.091 -5.684,14.013 -4.448,27.64 2.898,40.903 7.409,13.378 19.105,20.703 33.477,24.114 19.061,4.524 38.118,4.649 56.879,-1.689 13.953,-4.713 24.619,-13.446 31.47,-26.618 0.916,-1.761 1.693,-3.6 2.69,-5.313 0.838,-1.439 0.393,-1.845 -1.075,-2.249 -12.492,-3.441 -24.965,-6.953 -37.435,-10.473 -1.305,-0.368 -1.969,-0.125 -2.587,1.23 -4.261,9.338 -12.285,12.936 -21.869,13.749 -4.425,0.375 -8.903,0.263 -13.078,-1.78 -3.463,-1.695 -5.606,-4.498 -5.25,-7.711 0.406,-3.656 1.867,-6.672 5.764,-8.001 6.839,-2.332 14.019,-3.162 20.977,-4.956 C 29.098,99.45 39.574,97.451 49.479,93.74 68.906,86.462 82.174,66.09 77.779,44.092 74.21,26.233 63.019,15.043 47.439,7.649 33.917,1.231 19.291,-0.181 0,0" /></g><g
           transform="translate(709.8691,340.3564)"
           id="g88"><path
             id="path90"
             style="fill:#fffefe;fill-opacity:1;fill-rule:nonzero;stroke:none"
             d="m 0,0 c 0,24.846 0.033,49.69 -0.055,74.535 -0.007,2.367 0.617,2.968 2.977,2.95 14.698,-0.115 29.398,-0.092 44.098,-0.017 1.92,0.011 2.581,-0.399 2.579,-2.47 -0.06,-49.975 -0.059,-99.949 -0.002,-149.924 0.002,-1.939 -0.618,-2.312 -2.405,-2.304 -14.888,0.065 -29.778,0.094 -44.666,-0.025 -2.261,-0.017 -2.575,0.716 -2.57,2.72 C 0.023,-49.689 0,-24.845 0,0" /></g><g
           transform="translate(293.5718,524.7441)"
           id="g92"><path
             id="path94"
             style="fill:#faf9f9;fill-opacity:1;fill-rule:nonzero;stroke:none"
             d="m 0,0 c 0,6.437 0.058,12.877 -0.038,19.313 -0.026,1.743 0.513,2.137 2.228,2.272 4.566,0.359 8.978,-0.497 12.977,-2.328 C 20.58,16.777 23.588,12 25.438,6.377 28.141,-1.84 25.75,-9.066 20.788,-15.39 17.181,-19.987 11.471,-21.361 5.847,-21.775 0.018,-22.204 0,-21.955 0,-16.188 Z" /></g><g
           transform="translate(386.1631,539.2319)"
           id="g96"><path
             id="path98"
             style="fill:#faf9f9;fill-opacity:1;fill-rule:nonzero;stroke:none"
             d="m 0,0 c 2.888,-7.95 5.403,-15.076 8.09,-22.137 0.715,-1.879 0.32,-2.268 -1.557,-2.228 -4.456,0.095 -8.915,0.016 -13.372,0.044 -0.831,0.005 -2.21,-0.383 -1.585,1.337 C -5.726,-15.566 -2.995,-8.161 0,0" /></g><g
           transform="translate(463.0444,486.6904)"
           id="g100"><path
             id="path102"
             style="fill:#08090a;fill-opacity:1;fill-rule:nonzero;stroke:none"
             d="m 0,0 h 14.567 l 0.006,-0.278 H 0.041 C 0.027,-0.186 0.014,-0.093 0,0" /></g><g
           transform="translate(136.2368,370.5332)"
           id="g104"><path
             id="path106"
             style="fill:#cc1e25;fill-opacity:1;fill-rule:nonzero;stroke:none"
             d="m 0,0 c 0,4.264 0.01,8.527 -0.007,12.791 -0.004,1.095 -0.086,2.053 1.54,2.011 9.457,-0.246 19.005,0.875 28.34,-1.07 4.717,-0.982 9.297,-3.09 10.663,-8.56 1.546,-6.194 1.378,-12.108 -4.106,-16.539 -3.705,-2.994 -8.358,-3.448 -12.812,-3.665 -7.09,-0.346 -14.209,-0.026 -21.314,-0.138 -1.894,-0.03 -2.403,0.536 -2.346,2.381 C 0.09,-8.529 0,-4.264 0,0" /></g><g
           transform="translate(343.5586,343.7959)"
           id="g108"><path
             id="path110"
             style="fill:#cc1e25;fill-opacity:1;fill-rule:nonzero;stroke:none"
             d="m 0,0 c -0.148,-10.312 -0.726,-21.79 -3.972,-33.03 -4.005,-13.87 -18.011,-17.709 -28.748,-12.482 -4.212,2.051 -6.447,5.946 -8.347,10.034 -3.159,6.797 -4.524,14.035 -4.961,21.43 -0.712,12.038 -0.599,24.058 2.695,35.793 1.487,5.297 3.509,10.37 7.524,14.399 8.809,8.838 24.463,6.769 30.402,-6.1 C -1.146,20.813 -0.475,11.104 0,0" /></g></g></g></g></svg>