<?xml version="1.0" encoding="UTF-8" standalone="no"?>
<!-- Created with Inkscape (http://www.inkscape.org/) -->

<svg
   version="1.1"
   id="svg1"
   width="2560"
   height="568.32001"
   viewBox="0 0 2560 568.32001"
   sodipodi:docname="85d4fb45-4185-467b-b0cd-45014859324b.pdf"
   xmlns:inkscape="http://www.inkscape.org/namespaces/inkscape"
   xmlns:sodipodi="http://sodipodi.sourceforge.net/DTD/sodipodi-0.dtd"
   xmlns="http://www.w3.org/2000/svg"
   xmlns:svg="http://www.w3.org/2000/svg">
  <defs
     id="defs1">
    <clipPath
       clipPathUnits="userSpaceOnUse"
       id="clipPath2">
      <path
         d="M 0,426.24 H 1920 V 0 H 0 Z"
         transform="translate(-471.79441,-179.35941)"
         id="path2" />
    </clipPath>
    <clipPath
       clipPathUnits="userSpaceOnUse"
       id="clipPath4">
      <path
         d="M 0,426.24 H 1920 V 0 H 0 Z"
         transform="translate(-633.22562,-179.35941)"
         id="path4" />
    </clipPath>
    <clipPath
       clipPathUnits="userSpaceOnUse"
       id="clipPath6">
      <path
         d="M 0,426.24 H 1920 V 0 H 0 Z"
         transform="translate(-828.84332,-179.35941)"
         id="path6" />
    </clipPath>
    <clipPath
       clipPathUnits="userSpaceOnUse"
       id="clipPath8">
      <path
         d="M 0,426.24 H 1920 V 0 H 0 Z"
         transform="translate(-994.43852,-237.96001)"
         id="path8" />
    </clipPath>
    <clipPath
       clipPathUnits="userSpaceOnUse"
       id="clipPath10">
      <path
         d="M 0,426.24 H 1920 V 0 H 0 Z"
         transform="translate(-1466.6455,-120.54981)"
         id="path10" />
    </clipPath>
    <clipPath
       clipPathUnits="userSpaceOnUse"
       id="clipPath12">
      <path
         d="M 0,426.24 H 1920 V 0 H 0 Z"
         transform="translate(-1766.3818,-260.98101)"
         id="path12" />
    </clipPath>
    <clipPath
       clipPathUnits="userSpaceOnUse"
       id="clipPath14">
      <path
         d="M 0,426.24 H 1920 V 0 H 0 Z"
         transform="translate(-1131.2013,-262.31641)"
         id="path14" />
    </clipPath>
    <clipPath
       clipPathUnits="userSpaceOnUse"
       id="clipPath16">
      <path
         d="M 0,426.24 H 1920 V 0 H 0 Z"
         transform="translate(-1347.5977,-262.31641)"
         id="path16" />
    </clipPath>
    <clipPath
       clipPathUnits="userSpaceOnUse"
       id="clipPath18">
      <path
         d="M 0,426.24 H 1920 V 0 H 0 Z"
         transform="translate(-1595.6427,-162.2764)"
         id="path18" />
    </clipPath>
    <clipPath
       clipPathUnits="userSpaceOnUse"
       id="clipPath20">
      <path
         d="M 0,426.24 H 1920 V 0 H 0 Z"
         transform="translate(-1319.251,-141.5146)"
         id="path20" />
    </clipPath>
    <clipPath
       clipPathUnits="userSpaceOnUse"
       id="clipPath22">
      <path
         d="M 0,426.24 H 1920 V 0 H 0 Z"
         transform="translate(-263.63721,-76.185504)"
         id="path22" />
    </clipPath>
    <clipPath
       clipPathUnits="userSpaceOnUse"
       id="clipPath24">
      <path
         d="M 0,426.24 H 1920 V 0 H 0 Z"
         transform="translate(-153.77151,-76.185504)"
         id="path24" />
    </clipPath>
    <clipPath
       clipPathUnits="userSpaceOnUse"
       id="clipPath26">
      <path
         d="M 0,426.24 H 1920 V 0 H 0 Z"
         transform="translate(-210.6172,-272.5894)"
         id="path26" />
    </clipPath>
  </defs>
  <sodipodi:namedview
     id="namedview1"
     pagecolor="#ffffff"
     bordercolor="#000000"
     borderopacity="0.25"
     inkscape:showpageshadow="2"
     inkscape:pageopacity="0.0"
     inkscape:pagecheckerboard="0"
     inkscape:deskcolor="#d1d1d1">
    <inkscape:page
       x="0"
       y="0"
       inkscape:label="1"
       id="page1"
       width="2560"
       height="568.32001"
       margin="0"
       bleed="0" />
  </sodipodi:namedview>
  <g
     id="layer-MC0"
     inkscape:groupmode="layer"
     inkscape:label="Camada 1">
    <path
       id="path1"
       d="m 0,0 c -27.089,0 -45.076,17.37 -45.076,43.532 v 0.838 c 0,26.16 17.987,43.531 45.076,43.531 h 78.453 c 3.901,0 6.501,-2.511 6.501,-6.278 V 64.879 c 0,-3.767 -2.6,-6.278 -6.501,-6.278 H 0.218 c -9.102,0 -14.953,-5.86 -14.953,-14.859 0,-8.791 5.851,-14.441 14.953,-14.441 h 43.994 c 27.089,0 45.076,-17.37 45.076,-44.579 0,-26.16 -17.987,-43.532 -45.076,-43.532 h -78.45 c -3.902,0 -6.502,2.512 -6.502,6.279 v 16.744 c 0,3.766 2.6,6.278 6.502,6.278 h 78.232 c 9.102,0 14.954,5.86 14.954,14.859 C 58.948,-5.859 53.096,0 43.994,0 Z"
       style="fill:#3c63a2;fill-opacity:1;fill-rule:nonzero;stroke:none"
       transform="matrix(1.3333333,0,0,-1.3333333,629.0592,329.17413)"
       clip-path="url(#clipPath2)" />
    <path
       id="path3"
       d="m 0,0 c -3.902,0 -6.502,2.511 -6.502,6.279 v 16.742 c 0,3.767 2.6,6.28 6.502,6.28 h 63.062 c 3.901,0 6.502,-2.513 6.502,-6.28 V 6.279 C 69.564,2.511 66.963,0 63.062,0 Z m -47.676,81.623 c 0,3.767 2.598,6.278 6.499,6.278 H 71.514 c 3.901,0 6.502,-2.511 6.502,-6.278 V 64.879 c 0,-3.767 -2.601,-6.278 -6.502,-6.278 h -88.852 v -88.11 h 88.852 c 3.901,0 6.502,-2.512 6.502,-6.278 v -16.744 c 0,-3.767 -2.601,-6.279 -6.502,-6.279 H -41.177 c -3.901,0 -6.499,2.512 -6.499,6.279 z"
       style="fill:#3c63a2;fill-opacity:1;fill-rule:nonzero;stroke:none"
       transform="matrix(1.3333333,0,0,-1.3333333,844.3008,329.17413)"
       clip-path="url(#clipPath4)" />
    <path
       id="path5"
       d="m 0,0 45.076,-45.415 c 8.018,-7.951 5.635,-13.395 -5.852,-13.395 h -16.47 c -3.901,0 -8.234,1.884 -11.051,4.605 L -43.125,0.628 c -1.735,1.675 -3.25,2.931 -3.25,5.651 v 16.742 c 0,3.767 2.6,6.28 6.499,6.28 H 4.551 c 9.1,0 14.952,5.861 14.952,14.858 0,8.79 -5.852,14.442 -14.952,14.442 H -57.213 V -52.531 c 0,-3.767 -2.6,-6.279 -6.501,-6.279 h -17.337 c -3.901,0 -6.501,2.512 -6.501,6.279 V 81.623 c 0,3.767 2.6,6.278 6.501,6.278 H 4.767 C 31.856,87.901 49.843,70.53 49.843,43.532 49.843,17.37 31.856,0 4.767,0 Z"
       style="fill:#3c63a2;fill-opacity:1;fill-rule:nonzero;stroke:none"
       transform="matrix(1.3333333,0,0,-1.3333333,1105.1244,329.17413)"
       clip-path="url(#clipPath6)" />
    <path
       id="path7"
       d="m 0,0 v -88.108 h 56.778 c 13.436,0 22.323,8.581 22.323,21.555 v 44.999 C 79.101,-8.58 70.214,0 56.778,0 Z m -23.838,-117.41 c -3.901,0 -6.502,2.512 -6.502,6.278 V 23.022 c 0,3.767 2.601,6.278 6.502,6.278 h 83.434 c 29.908,0 49.844,-19.254 49.844,-48.136 v -50.438 c 0,-28.882 -19.936,-48.136 -49.844,-48.136 z"
       style="fill:#3c65a5;fill-opacity:1;fill-rule:nonzero;stroke:none"
       transform="matrix(1.3333333,0,0,-1.3333333,1325.918,251.04)"
       clip-path="url(#clipPath8)" />
    <path
       id="path9"
       d="M 0,0 C -3.9,0 -6.502,2.511 -6.502,6.279 V 117.41 h -54.177 c -3.902,0 -6.502,2.512 -6.502,6.278 v 16.743 c 0,3.768 2.6,6.279 6.502,6.279 H 77.797 c 3.903,0 6.503,-2.511 6.503,-6.279 v -16.743 c 0,-3.766 -2.6,-6.278 -6.503,-6.278 H 23.838 V 6.279 C 23.838,2.511 21.238,0 17.337,0 Z"
       style="fill:#3c65a5;fill-opacity:1;fill-rule:nonzero;stroke:none"
       transform="matrix(1.3333333,0,0,-1.3333333,1955.5273,407.58693)"
       clip-path="url(#clipPath10)" />
    <path
       id="path11"
       d="m 0,0 v -111.131 h 88.853 c 3.9,0 6.501,-2.512 6.501,-6.279 v -16.743 c 0,-3.767 -2.601,-6.278 -6.501,-6.278 H -23.839 c -3.9,0 -6.502,2.511 -6.502,6.278 V 0 c 0,3.767 2.602,6.279 6.502,6.279 H -6.502 C -2.601,6.279 0,3.767 0,0"
       style="fill:#3c65a5;fill-opacity:1;fill-rule:nonzero;stroke:none"
       transform="matrix(1.3333333,0,0,-1.3333333,2355.1757,220.34533)"
       clip-path="url(#clipPath12)" />
    <path
       id="path13"
       d="m 0,0 c 0,2.966 2.598,4.944 6.493,4.944 h 17.314 c 3.895,0 6.492,-1.978 6.492,-4.944 v -136.822 c 0,-2.966 -2.597,-4.945 -6.492,-4.945 H 6.493 c -3.895,0 -6.493,1.979 -6.493,4.945 z"
       style="fill:#3c65a5;fill-opacity:1;fill-rule:nonzero;stroke:none"
       transform="matrix(1.3333333,0,0,-1.3333333,1508.2683,218.5648)"
       clip-path="url(#clipPath14)" />
    <path
       id="path15"
       d="m 0,0 c 0,2.966 2.597,4.944 6.492,4.944 h 17.314 c 3.895,0 6.493,-1.978 6.493,-4.944 v -136.822 c 0,-2.966 -2.598,-4.945 -6.493,-4.945 H 6.492 c -3.895,0 -6.492,1.979 -6.492,4.945 z"
       style="fill:#3c65a5;fill-opacity:1;fill-rule:nonzero;stroke:none"
       transform="matrix(1.3333333,0,0,-1.3333333,1796.7969,218.5648)"
       clip-path="url(#clipPath16)" />
    <path
       id="path17"
       d="m 0,0 c -5.722,0 -9.537,2.512 -9.537,6.279 v 16.742 c 0,3.768 3.815,6.28 9.537,6.28 h 60.423 c 5.724,0 9.541,-2.512 9.541,-6.28 V 6.279 C 69.964,2.512 66.147,0 60.423,0 Z m 11.431,99.333 c 1.515,3.349 5.202,5.651 9.102,5.651 h 20.368 c 3.903,0 7.586,-2.302 9.103,-5.651 l 61.114,-132.061 c 2.383,-5.44 0,-8.999 -6.286,-8.999 h -16.47 c -3.901,0 -7.584,2.304 -9.102,5.652 L 30.718,69.195 -18.043,-36.075 c -1.517,-3.348 -5.418,-5.652 -9.318,-5.652 h -16.471 c -6.067,0 -8.452,3.559 -6.067,8.999 z"
       style="fill:#3c65a5;fill-opacity:1;fill-rule:nonzero;stroke:none"
       transform="matrix(1.3333333,0,0,-1.3333333,2127.5235,351.95147)"
       clip-path="url(#clipPath18)" />
    <path
       id="path19"
       d="m 0,0 c 0,-4.608 -2.8,-8.789 -7.146,-10.696 -15.517,-6.802 -31.401,-10.269 -47.653,-10.269 -23.483,0 -41.915,6.537 -55.291,19.612 -13.37,13.075 -20.056,31.149 -20.056,54.416 0,22.882 6.522,40.763 19.731,53.456 13.212,12.882 31.806,19.227 55.616,19.227 16.355,0 32.989,-3.583 49.897,-10.594 2.504,-1.039 3.768,-3.761 2.907,-6.257 L -7.479,93.02 c -0.999,-2.891 -4.454,-4.246 -7.235,-2.807 -12.589,6.511 -25.681,9.766 -39.271,9.766 -15.494,0 -27.725,-4.229 -36.695,-12.69 -8.971,-8.269 -13.372,-19.806 -13.372,-34.226 0,-14.613 4.567,-26.149 13.535,-34.61 8.971,-8.461 21.202,-12.692 36.695,-12.692 9.298,0 18.92,1.731 28.543,5 V 38.45 h -36.867 c -2.237,0 -3.814,2.122 -3.095,4.17 l 6.176,17.607 c 0.795,2.27 3.002,3.797 5.484,3.797 h 46.646 c 3.831,0 6.935,-3 6.935,-6.698 z"
       style="fill:#3c65a5;fill-opacity:1;fill-rule:nonzero;stroke:none"
       transform="matrix(1.3333333,0,0,-1.3333333,1759.0013,379.63387)"
       clip-path="url(#clipPath20)" />
    <path
       id="path21"
       d="m 0,0 c -17.33,21.845 -30.269,44.852 -38.832,68.98 -8.549,24.166 -9.112,46.214 -1.57,66.227 6.643,17.626 18.818,32.447 36.616,44.478 20.709,13.925 48.758,25.185 84.226,33.751 l 29.322,-10.307 C 85.655,194.176 69.412,187.437 61.031,182.914 47.88,175.99 36.638,167.837 27.1,158.611 15.371,147.067 6.869,134.302 1.598,120.314 -11.831,84.687 -2.58,41.17 29.322,-10.306 Z"
       style="fill:#3d4372;fill-opacity:1;fill-rule:evenodd;stroke:none"
       transform="matrix(1.3333333,0,0,-1.3333333,351.51627,466.73933)"
       clip-path="url(#clipPath22)" />
    <path
       id="path23"
       d="M 0,0 -29.321,-10.306 C 2.58,41.17 11.83,84.687 -1.598,120.314 c -5.242,13.912 -13.7,26.564 -25.387,37.995 -9.291,9.268 -20.533,17.421 -33.607,24.373 -8.409,4.598 -24.774,11.423 -49.169,20.447 l 29.321,10.307 C -44.973,204.87 -16.845,193.638 3.864,179.711 21.585,167.654 33.76,152.833 40.403,135.208 47.945,115.194 47.381,93.146 38.755,68.953 30.114,44.797 17.175,21.791 0,0"
       style="fill:#3d4372;fill-opacity:1;fill-rule:evenodd;stroke:none"
       transform="matrix(1.3333333,0,0,-1.3333333,205.02867,466.73933)"
       clip-path="url(#clipPath24)" />
    <path
       id="path25"
       d="M 0,0 C 28.336,0 51.448,22.32 51.448,49.685 51.448,77.05 28.336,99.371 0,99.371 -28.337,99.371 -51.447,77.05 -51.447,49.685 -51.447,22.32 -28.337,0 0,0"
       style="fill:#cc2c2d;fill-opacity:1;fill-rule:evenodd;stroke:none"
       transform="matrix(1.3333333,0,0,-1.3333333,280.82293,204.86747)"
       clip-path="url(#clipPath26)" />
  </g>
</svg>
