<?xml version="1.0" encoding="UTF-8" standalone="no"?>
<!-- Created with Inkscape (http://www.inkscape.org/) -->

<svg
   version="1.1"
   id="svg1"
   width="965.00665"
   height="289.94666"
   viewBox="0 0 965.00665 289.94666"
   sodipodi:docname="0ec234e6-65e8-4943-8642-583d6b0c1797.pdf"
   xmlns:inkscape="http://www.inkscape.org/namespaces/inkscape"
   xmlns:sodipodi="http://sodipodi.sourceforge.net/DTD/sodipodi-0.dtd"
   xmlns="http://www.w3.org/2000/svg"
   xmlns:svg="http://www.w3.org/2000/svg">
  <defs
     id="defs1">
    <clipPath
       clipPathUnits="userSpaceOnUse"
       id="clipPath3">
      <path
         d="M 0,217.46 H 723.755 V 0 H 0 Z"
         transform="translate(-51.030901,-148.693)"
         id="path3" />
    </clipPath>
    <clipPath
       clipPathUnits="userSpaceOnUse"
       id="clipPath5">
      <path
         d="M 0,217.46 H 723.755 V 0 H 0 Z"
         transform="translate(-70.831102,-91.032802)"
         id="path5" />
    </clipPath>
  </defs>
  <sodipodi:namedview
     id="namedview1"
     pagecolor="#ffffff"
     bordercolor="#000000"
     borderopacity="0.25"
     inkscape:showpageshadow="2"
     inkscape:pageopacity="0.0"
     inkscape:pagecheckerboard="0"
     inkscape:deskcolor="#d1d1d1">
    <inkscape:page
       x="0"
       y="0"
       inkscape:label="1"
       id="page1"
       width="965.00665"
       height="289.94666"
       margin="91.682404 65.398666 91.682663"
       bleed="0" />
  </sodipodi:namedview>
  <g
     id="g1"
     inkscape:groupmode="layer"
     inkscape:label="1">
    <g
       id="group-MC0">
      <g
         id="group-MC1" />
    </g>
    <g
       id="group-MC2">
      <g
         id="group-MC3" />
    </g>
    <g
       id="group-MC4">
      <g
         id="group-MC5" />
    </g>
    <g
       id="group-MC6">
      <g
         id="group-MC7" />
    </g>
    <g
       id="group-MC8">
      <path
         id="path2"
         d="M 0,0 0.25,-2.715 14.647,-41.779 0.191,-77.251 0,-79.931 h 32.313 c 5.848,0 11.408,1.052 16.518,3.126 5.097,2.065 9.632,4.915 13.485,8.474 3.873,3.576 6.964,7.836 9.196,12.672 2.244,4.859 3.379,10.123 3.379,15.64 0,5.758 -1.225,11.153 -3.644,16.033 -2.393,4.82 -5.609,9.036 -9.564,12.529 -3.932,3.476 -8.484,6.244 -13.528,8.23 C 43.132,-1.252 37.84,-0.167 32.374,0 Z m 19.359,-18.41 h 12.903 c 3.175,0 6.204,-0.578 9.003,-1.721 2.821,-1.151 5.323,-2.741 7.445,-4.723 2.112,-1.975 3.799,-4.299 5.016,-6.909 1.197,-2.573 1.808,-5.35 1.808,-8.256 0,-2.909 -0.611,-5.688 -1.808,-8.261 -1.217,-2.608 -2.9,-4.908 -5.002,-6.841 -2.123,-1.951 -4.631,-3.526 -7.459,-4.68 -2.794,-1.14 -5.824,-1.72 -9.003,-1.72 H 19.359 Z M 0,0 0.25,-2.715 14.647,-41.779 0.191,-77.251 0,-79.931 h 32.313 c 5.848,0 11.408,1.052 16.518,3.126 5.097,2.065 9.632,4.915 13.485,8.474 3.873,3.576 6.964,7.836 9.196,12.672 2.244,4.859 3.379,10.123 3.379,15.64 0,5.758 -1.225,11.153 -3.644,16.033 -2.393,4.82 -5.609,9.036 -9.564,12.529 -3.932,3.476 -8.484,6.244 -13.528,8.23 C 43.132,-1.252 37.84,-0.167 32.374,0 Z m 19.359,-18.41 h 12.903 c 3.175,0 6.204,-0.578 9.003,-1.721 2.821,-1.151 5.323,-2.741 7.445,-4.723 2.112,-1.975 3.799,-4.299 5.016,-6.909 1.197,-2.573 1.808,-5.35 1.808,-8.256 0,-2.909 -0.611,-5.688 -1.808,-8.261 -1.217,-2.608 -2.9,-4.908 -5.002,-6.841 -2.123,-1.951 -4.631,-3.526 -7.459,-4.68 -2.794,-1.14 -5.824,-1.72 -9.003,-1.72 H 19.359 Z M 0,0 0.25,-2.715 14.647,-41.779 0.191,-77.251 0,-79.931 h 32.313 c 5.848,0 11.408,1.052 16.518,3.126 5.097,2.065 9.632,4.915 13.485,8.474 3.873,3.576 6.964,7.836 9.196,12.672 2.244,4.859 3.379,10.123 3.379,15.64 0,5.758 -1.225,11.153 -3.644,16.033 -2.393,4.82 -5.609,9.036 -9.564,12.529 -3.932,3.476 -8.484,6.244 -13.528,8.23 -2.509,0.986 -5.086,1.751 -7.716,2.289 -0.004,0 -0.007,0.002 -0.009,0.002 -0.081,0.018 -0.162,0.033 -0.244,0.048 0,0 -0.002,0.003 -0.004,0.003 -0.075,0.015 -0.152,0.028 -0.226,0.044 -0.009,0.002 -0.016,0.002 -0.022,0.004 -0.077,0.015 -0.156,0.029 -0.233,0.044 -0.005,0.002 -0.009,0.002 -0.016,0.002 -0.074,0.015 -0.149,0.029 -0.224,0.042 -0.006,0.002 -0.015,0.004 -0.024,0.004 -0.072,0.013 -0.145,0.027 -0.217,0.04 -0.011,0.002 -0.022,0.004 -0.033,0.006 -0.066,0.011 -0.134,0.025 -0.202,0.036 -0.018,0.002 -0.033,0.004 -0.049,0.008 -0.066,0.011 -0.131,0.022 -0.2,0.033 -0.015,0.002 -0.033,0.005 -0.05,0.009 -0.066,0.011 -0.134,0.022 -0.2,0.033 -0.015,0.002 -0.033,0.004 -0.048,0.007 -0.068,0.011 -0.134,0.022 -0.202,0.033 -0.016,0.002 -0.033,0.004 -0.049,0.006 -0.066,0.011 -0.132,0.02 -0.198,0.031 -0.017,0.002 -0.035,0.004 -0.052,0.006 -0.064,0.011 -0.13,0.02 -0.194,0.029 -0.019,0.002 -0.039,0.007 -0.059,0.009 -0.061,0.009 -0.125,0.017 -0.187,0.026 -0.022,0.002 -0.041,0.007 -0.063,0.009 -0.062,0.009 -0.123,0.018 -0.187,0.026 -0.022,0.003 -0.042,0.005 -0.066,0.009 -0.062,0.007 -0.123,0.016 -0.185,0.022 -0.022,0.005 -0.044,0.007 -0.065,0.009 -0.06,0.009 -0.119,0.015 -0.181,0.022 -0.024,0.004 -0.048,0.006 -0.072,0.011 -0.059,0.006 -0.117,0.013 -0.174,0.02 -0.026,0.002 -0.052,0.006 -0.079,0.008 -0.059,0.007 -0.118,0.014 -0.18,0.022 -0.024,0.003 -0.048,0.005 -0.07,0.007 -0.062,0.007 -0.121,0.013 -0.18,0.02 -0.025,0.002 -0.049,0.004 -0.075,0.009 -0.057,0.004 -0.117,0.011 -0.176,0.017 -0.026,0.002 -0.05,0.004 -0.077,0.007 -0.059,0.006 -0.121,0.013 -0.182,0.017 -0.022,0.002 -0.046,0.005 -0.068,0.007 -0.062,0.006 -0.125,0.013 -0.187,0.017 -0.022,0.003 -0.046,0.005 -0.068,0.007 -0.059,0.004 -0.121,0.011 -0.18,0.015 -0.024,0.003 -0.048,0.005 -0.075,0.007 -0.059,0.004 -0.121,0.009 -0.18,0.015 -0.024,0.003 -0.048,0.003 -0.073,0.005 -0.065,0.006 -0.129,0.011 -0.193,0.015 -0.02,0.002 -0.037,0.002 -0.057,0.005 -0.068,0.004 -0.134,0.008 -0.202,0.013 -0.018,0.002 -0.035,0.002 -0.053,0.004 -0.07,0.005 -0.14,0.009 -0.211,0.013 -0.013,0.002 -0.026,0.002 -0.039,0.002 -0.075,0.007 -0.15,0.011 -0.224,0.014 -0.009,0.002 -0.02,0.002 -0.031,0.002 -0.075,0.004 -0.152,0.009 -0.229,0.013 -0.008,0 -0.015,0 -0.024,0.002 -0.081,0.002 -0.162,0.007 -0.241,0.011 H 33.139 C 32.884,-0.018 32.629,-0.009 32.374,0 Z m 19.359,-18.41 h 12.903 c 3.175,0 6.204,-0.578 9.003,-1.721 2.821,-1.151 5.323,-2.741 7.445,-4.723 2.112,-1.975 3.799,-4.299 5.016,-6.909 1.197,-2.573 1.808,-5.35 1.808,-8.256 0,-2.909 -0.611,-5.688 -1.808,-8.261 -1.217,-2.608 -2.9,-4.908 -5.002,-6.841 -2.123,-1.951 -4.631,-3.526 -7.459,-4.68 -2.794,-1.14 -5.824,-1.72 -9.003,-1.72 H 19.359 Z M 0,0 0.25,-2.715 14.647,-41.779 0.191,-77.251 0,-79.931 h 32.313 c 5.848,0 11.408,1.052 16.518,3.126 5.097,2.065 9.632,4.915 13.485,8.474 3.873,3.576 6.964,7.836 9.196,12.672 2.244,4.859 3.379,10.123 3.379,15.64 0,5.758 -1.225,11.153 -3.644,16.033 -2.393,4.82 -5.609,9.036 -9.564,12.529 -3.932,3.476 -8.484,6.244 -13.528,8.23 -2.509,0.986 -5.086,1.751 -7.716,2.289 -0.004,0 -0.007,0.002 -0.009,0.002 -0.081,0.018 -0.162,0.033 -0.244,0.048 0,0 -0.002,0.003 -0.004,0.003 -0.075,0.015 -0.152,0.028 -0.226,0.044 -0.009,0.002 -0.016,0.002 -0.022,0.004 -0.077,0.015 -0.156,0.029 -0.233,0.044 -0.005,0.002 -0.009,0.002 -0.016,0.002 -0.074,0.015 -0.149,0.029 -0.224,0.042 -0.006,0.002 -0.015,0.004 -0.024,0.004 -0.072,0.013 -0.145,0.027 -0.217,0.04 -0.011,0.002 -0.022,0.004 -0.033,0.006 -0.066,0.011 -0.134,0.025 -0.202,0.036 -0.018,0.002 -0.033,0.004 -0.049,0.008 -0.066,0.011 -0.131,0.022 -0.2,0.033 -0.015,0.002 -0.033,0.005 -0.05,0.009 -0.066,0.011 -0.134,0.022 -0.2,0.033 -0.015,0.002 -0.033,0.004 -0.048,0.007 -0.068,0.011 -0.134,0.022 -0.202,0.033 -0.016,0.002 -0.033,0.004 -0.049,0.006 -0.066,0.011 -0.132,0.02 -0.198,0.031 -0.017,0.002 -0.035,0.004 -0.052,0.006 -0.064,0.011 -0.13,0.02 -0.194,0.029 -0.019,0.002 -0.039,0.007 -0.059,0.009 -0.061,0.009 -0.125,0.017 -0.187,0.026 -0.022,0.002 -0.041,0.007 -0.063,0.009 -0.062,0.009 -0.123,0.018 -0.187,0.026 -0.022,0.003 -0.042,0.005 -0.066,0.009 -0.062,0.007 -0.123,0.016 -0.185,0.022 -0.022,0.005 -0.044,0.007 -0.065,0.009 -0.06,0.009 -0.119,0.015 -0.181,0.022 -0.024,0.004 -0.048,0.006 -0.072,0.011 -0.059,0.006 -0.117,0.013 -0.174,0.02 -0.026,0.002 -0.052,0.006 -0.079,0.008 -0.059,0.007 -0.118,0.014 -0.18,0.022 -0.024,0.003 -0.048,0.005 -0.07,0.007 -0.062,0.007 -0.121,0.013 -0.18,0.02 -0.025,0.002 -0.049,0.004 -0.075,0.009 -0.057,0.004 -0.117,0.011 -0.176,0.017 -0.026,0.002 -0.05,0.004 -0.077,0.007 -0.059,0.006 -0.121,0.013 -0.182,0.017 -0.022,0.002 -0.046,0.005 -0.068,0.007 -0.062,0.006 -0.125,0.013 -0.187,0.017 -0.022,0.003 -0.046,0.005 -0.068,0.007 -0.059,0.004 -0.121,0.011 -0.18,0.015 -0.024,0.003 -0.048,0.005 -0.075,0.007 -0.059,0.004 -0.121,0.009 -0.18,0.015 -0.024,0.003 -0.048,0.003 -0.073,0.005 -0.065,0.006 -0.129,0.011 -0.193,0.015 -0.02,0.002 -0.037,0.002 -0.057,0.005 -0.068,0.004 -0.134,0.008 -0.202,0.013 -0.018,0.002 -0.035,0.002 -0.053,0.004 -0.07,0.005 -0.14,0.009 -0.211,0.013 -0.013,0.002 -0.026,0.002 -0.039,0.002 -0.075,0.007 -0.15,0.011 -0.224,0.014 -0.009,0.002 -0.02,0.002 -0.031,0.002 -0.075,0.004 -0.152,0.009 -0.229,0.013 -0.008,0 -0.015,0 -0.024,0.002 -0.081,0.002 -0.162,0.007 -0.241,0.011 H 33.139 C 32.884,-0.018 32.629,-0.009 32.374,0 Z m 19.359,-18.41 h 12.903 c 3.175,0 6.204,-0.578 9.003,-1.721 2.821,-1.151 5.323,-2.741 7.445,-4.723 2.112,-1.975 3.799,-4.299 5.016,-6.909 1.197,-2.573 1.808,-5.35 1.808,-8.256 0,-2.909 -0.611,-5.688 -1.808,-8.261 -1.217,-2.608 -2.9,-4.908 -5.002,-6.841 -2.123,-1.951 -4.631,-3.526 -7.459,-4.68 -2.794,-1.14 -5.824,-1.72 -9.003,-1.72 H 19.359 Z M 0,0 0.25,-2.715 14.647,-41.779 0.191,-77.251 0,-79.931 h 32.313 c 5.848,0 11.408,1.052 16.518,3.126 5.097,2.065 9.632,4.915 13.485,8.474 3.873,3.576 6.964,7.836 9.196,12.672 2.244,4.859 3.379,10.123 3.379,15.64 0,5.758 -1.225,11.153 -3.644,16.033 -2.393,4.82 -5.609,9.036 -9.564,12.529 -3.932,3.476 -8.484,6.244 -13.528,8.23 C 43.132,-1.252 37.84,-0.167 32.374,0 Z m 19.359,-18.41 h 12.903 c 3.175,0 6.204,-0.578 9.003,-1.721 2.821,-1.151 5.323,-2.741 7.445,-4.723 2.112,-1.975 3.799,-4.299 5.016,-6.909 1.197,-2.573 1.808,-5.35 1.808,-8.256 0,-2.909 -0.611,-5.688 -1.808,-8.261 -1.217,-2.608 -2.9,-4.908 -5.002,-6.841 -2.123,-1.951 -4.631,-3.526 -7.459,-4.68 -2.794,-1.14 -5.824,-1.72 -9.003,-1.72 H 19.359 Z M 0,0 0.25,-2.715 14.647,-41.779 0.191,-77.251 0,-79.931 h 32.313 c 5.848,0 11.408,1.052 16.518,3.126 5.097,2.065 9.632,4.915 13.485,8.474 3.873,3.576 6.964,7.836 9.196,12.672 2.244,4.859 3.379,10.123 3.379,15.64 0,5.758 -1.225,11.153 -3.644,16.033 -2.393,4.82 -5.609,9.036 -9.564,12.529 -3.932,3.476 -8.484,6.244 -13.528,8.23 C 43.132,-1.252 37.84,-0.167 32.374,0 Z m 19.359,-18.41 h 12.903 c 3.175,0 6.204,-0.578 9.003,-1.721 2.821,-1.151 5.323,-2.741 7.445,-4.723 2.112,-1.975 3.799,-4.299 5.016,-6.909 1.197,-2.573 1.808,-5.35 1.808,-8.256 0,-2.909 -0.611,-5.688 -1.808,-8.261 -1.217,-2.608 -2.9,-4.908 -5.002,-6.841 -2.123,-1.951 -4.631,-3.526 -7.459,-4.68 -2.794,-1.14 -5.824,-1.72 -9.003,-1.72 H 19.359 Z m 0,-0.003 h 12.903 c 3.175,0 6.204,-0.577 9.003,-1.718 2.819,-1.153 5.323,-2.741 7.445,-4.725 2.112,-1.973 3.799,-4.3 5.016,-6.907 1.197,-2.573 1.806,-5.352 1.806,-8.259 0,-2.906 -0.609,-5.685 -1.806,-8.258 -1.219,-2.608 -2.9,-4.91 -5.002,-6.841 -2.123,-1.953 -4.632,-3.526 -7.459,-4.68 -2.797,-1.14 -5.826,-1.72 -9.003,-1.72 H 19.359 Z m 42.327,6.956 v 0 C 57.753,-7.981 53.199,-5.213 48.155,-3.23 43.115,-1.246 37.798,-0.158 32.313,0 H 0 L 0.25,-2.715 14.647,-41.779 0.191,-77.251 0,-79.931 h 32.313 c 5.848,0 11.406,1.052 16.521,3.126 5.092,2.063 9.629,4.915 13.484,8.474 3.869,3.574 6.962,7.836 9.194,12.669 2.244,4.862 3.379,10.124 3.379,15.64 0,5.761 -1.225,11.156 -3.644,16.036 -2.393,4.818 -5.611,9.034 -9.561,12.529 m 519.782,9.881 h 4.38 c 0.791,0 1.433,-0.64 1.433,-1.433 v -56.58 c 0,-0.791 0.643,-1.434 1.437,-1.434 h 33.527 c 0.791,0 1.43,-0.644 1.43,-1.435 v -14.744 c 0,-0.793 -0.639,-1.434 -1.43,-1.434 h -51.143 c -0.788,0 -1.432,0.641 -1.432,1.434 v 63.828 c 0,6.518 5.281,11.798 11.798,11.798 m -156.064,0 h 7.188 c 0.452,0 0.877,-0.216 1.149,-0.578 l 34.525,-46.371 c 0.823,-1.107 2.585,-0.525 2.585,0.857 v 44.659 c 0,0.791 0.642,1.433 1.433,1.433 h 14.746 c 0.791,0 1.432,-0.642 1.432,-1.433 v -74.193 c 0,-0.793 -0.641,-1.434 -1.432,-1.434 h -12.453 c -3.734,0 -7.251,1.768 -9.477,4.769 l -31.295,42.166 c -0.826,1.107 -2.588,0.527 -2.588,-0.857 v -44.644 c 0,-0.793 -0.642,-1.434 -1.433,-1.434 h -14.746 c -0.79,0 -1.432,0.641 -1.432,1.434 v 63.828 c 0,6.518 5.282,11.798 11.798,11.798 m -36.846,-49.539 c -1.982,-3.377 -4.662,-6.055 -8.037,-8.036 -3.374,-1.982 -7.043,-2.973 -11.008,-2.973 -3.964,0 -7.635,0.991 -11.007,2.973 -3.379,1.981 -6.055,4.659 -8.036,8.036 -1.982,3.375 -2.971,7.043 -2.971,11.009 0,3.961 0.989,7.632 2.971,11.007 1.981,3.378 4.657,6.056 8.036,8.04 3.372,1.978 7.043,2.971 11.007,2.971 3.965,0 7.634,-0.993 11.008,-2.971 3.375,-1.984 6.055,-4.662 8.037,-8.04 1.984,-3.375 2.974,-7.046 2.974,-11.007 0,-3.966 -0.99,-7.634 -2.974,-11.009 m 15.244,30.882 c -3.559,6.053 -8.363,10.855 -14.418,14.419 -6.055,3.557 -12.681,5.338 -19.871,5.338 -7.193,0 -13.815,-1.781 -19.87,-5.338 -6.054,-3.564 -10.859,-8.366 -14.42,-14.419 -3.564,-6.059 -5.341,-12.68 -5.341,-19.873 0,-7.193 1.777,-13.817 5.341,-19.871 3.561,-6.055 8.366,-10.864 14.42,-14.421 6.055,-3.561 12.677,-5.341 19.87,-5.341 7.19,0 13.816,1.78 19.871,5.341 6.055,3.557 10.859,8.366 14.418,14.421 3.564,6.054 5.343,12.678 5.343,19.871 0,7.193 -1.779,13.814 -5.343,19.873 m -84.645,18.657 h 4.378 c 0.793,0 1.435,-0.64 1.435,-1.433 v -74.193 c 0,-0.793 -0.642,-1.434 -1.435,-1.434 h -14.743 c -0.791,0 -1.433,0.641 -1.433,1.434 v 63.828 c 0,6.518 5.282,11.798 11.798,11.798 M 248.38,-74.397 c -6.422,3.557 -11.523,8.366 -15.302,14.418 -3.781,6.055 -5.67,12.681 -5.67,19.872 0,7.195 1.889,13.814 5.67,19.873 3.779,6.055 8.88,10.857 15.302,14.421 6.419,3.557 13.41,5.336 20.972,5.336 6.753,0 13.137,-1.467 19.152,-4.4 5.548,-2.707 10.188,-6.347 13.925,-10.919 0.52,-0.637 0.389,-1.608 -0.268,-2.1 l -11.82,-8.863 c -0.6,-0.45 -1.417,-0.334 -1.911,0.233 -2.136,2.45 -4.75,4.42 -7.85,5.905 -3.522,1.688 -7.265,2.533 -11.228,2.533 -4.405,0 -8.461,-0.993 -12.167,-2.972 -3.704,-1.982 -6.659,-4.662 -8.86,-8.036 -2.202,-3.377 -3.305,-7.048 -3.305,-11.011 0,-3.964 1.103,-7.633 3.305,-11.007 2.201,-3.377 5.156,-6.055 8.86,-8.039 3.706,-1.979 7.762,-2.972 12.167,-2.972 3.963,0 7.706,0.846 11.228,2.535 3.1,1.483 5.714,3.454 7.85,5.905 0.494,0.567 1.311,0.682 1.911,0.229 l 11.82,-8.862 c 0.657,-0.493 0.788,-1.464 0.272,-2.096 -3.741,-4.577 -8.381,-8.217 -13.929,-10.919 -6.015,-2.937 -12.399,-4.407 -19.152,-4.407 -7.562,0 -14.553,1.782 -20.972,5.343 m -65.922,72.821 h 42.92 c 0.791,0 1.432,-0.642 1.432,-1.433 v -14.746 c 0,-0.793 -0.641,-1.434 -1.432,-1.434 h -35.67 c -0.793,0 -1.434,-0.644 -1.434,-1.435 v -9.792 c 0,-0.793 0.643,-1.436 1.437,-1.436 h 29.061 c 0.793,0 1.434,-0.642 1.434,-1.435 V -46.93 c 0,-0.791 -0.641,-1.435 -1.434,-1.435 h -29.064 c -0.793,0 -1.434,-0.641 -1.434,-1.432 v -9.792 c 0,-0.793 0.641,-1.434 1.434,-1.434 h 35.67 c 0.791,0 1.432,-0.644 1.432,-1.435 v -14.744 c 0,-0.793 -0.641,-1.434 -1.432,-1.434 h -42.917 c -6.516,0 -11.8,5.283 -11.8,11.802 v 53.46 c 0,6.518 5.279,11.798 11.797,11.798 m -91.285,0 h 4.381 c 0.793,0 1.432,-0.64 1.432,-1.433 v -74.193 c 0,-0.793 -0.639,-1.434 -1.432,-1.434 H 80.808 c -0.791,0 -1.435,0.641 -1.435,1.434 v 63.828 c 0,6.518 5.284,11.798 11.8,11.798 m 42.272,-44.782 h -12.698 c -0.796,0 -1.435,0.644 -1.435,1.433 v 26.521 c 0,0.795 0.639,1.435 1.435,1.435 h 12.698 c 8.148,0 15.064,-6.257 15.064,-14.698 0,-8.434 -6.916,-14.691 -15.064,-14.691 M 148.14,-60.95 c -0.771,0.683 -0.567,1.903 0.36,2.355 10.48,5.126 17.554,15.405 17.554,26.928 0,16.462 -14.434,30.393 -32.609,30.393 h -19.88 c -6.516,0 -11.798,-5.284 -11.798,-11.8 v -64.14 c 0,-0.791 0.639,-1.434 1.433,-1.434 h 14.677 c 0.791,0 1.435,0.643 1.435,1.434 v 15.164 h 6.118 c 0.35,0 0.69,-0.128 0.947,-0.359 L 144.41,-78.29 c 0.263,-0.231 0.599,-0.358 0.949,-0.358 h 19.071 c 1.323,0 1.94,1.636 0.952,2.509 z m 387.588,10.278 h -13.454 c -1.564,0 -2.691,1.505 -2.248,3.006 l 6.679,22.709 c 0.659,2.241 3.829,2.248 4.493,0.007 l 6.775,-22.705 c 0.451,-1.508 -0.676,-3.017 -2.245,-3.017 m 30.287,-25.55 -24.177,73.094 c -0.248,0.751 -0.952,1.261 -1.745,1.261 h -14.767 c -5.137,0 -9.68,-3.324 -11.245,-8.216 l -21.077,-66.163 c -0.378,-1.185 0.503,-2.393 1.751,-2.393 h 14.955 c 0.808,0 1.529,0.534 1.757,1.312 l 2.531,8.454 c 0.235,0.779 0.949,1.313 1.762,1.313 h 28.25 c 0.791,0 1.494,-0.507 1.745,-1.261 l 2.843,-8.559 c 0.25,-0.754 0.951,-1.259 1.744,-1.259 h 13.931 c 1.252,0 2.137,1.226 1.742,2.417"
         style="fill:#20489a;fill-opacity:1;fill-rule:nonzero;stroke:none"
         transform="matrix(1.3333333,0,0,-1.3333333,68.0412,91.689333)"
         clip-path="url(#clipPath3)" />
      <path
         id="path4"
         d="M 0,0 C 0.009,0 16.745,17.699 16.745,17.699 L 0.081,35.397 0.092,35.399 -18.828,54.31 c -1.239,1.237 -0.362,3.355 1.389,3.355 h -2.373 c -1.232,0 -2.16,-1.122 -1.929,-2.333 L -9.345,17.699 -21.748,-19.972 c -0.226,-1.191 0.686,-2.294 1.897,-2.294 h 1.372 0.868 c -1.722,0 -2.583,2.081 -1.366,3.298 z"
         style="fill:#cf123c;fill-opacity:1;fill-rule:nonzero;stroke:none"
         transform="matrix(1.3333333,0,0,-1.3333333,94.441467,168.5696)"
         clip-path="url(#clipPath5)" />
    </g>
  </g>
</svg>
