<?xml version="1.0" encoding="UTF-8" standalone="no"?>
<!-- Created with Inkscape (http://www.inkscape.org/) -->

<svg
   version="1.1"
   id="svg1"
   width="2560"
   height="1440"
   viewBox="0 0 2560 1440"
   sodipodi:docname="1f6ba6d2-b44a-4550-9ee4-badcc8cd81e6.pdf"
   xmlns:inkscape="http://www.inkscape.org/namespaces/inkscape"
   xmlns:sodipodi="http://sodipodi.sourceforge.net/DTD/sodipodi-0.dtd"
   xmlns="http://www.w3.org/2000/svg"
   xmlns:svg="http://www.w3.org/2000/svg">
  <defs
     id="defs1">
    <clipPath
       clipPathUnits="userSpaceOnUse"
       id="clipPath3">
      <path
         d="M 0,1080 H 1920 V 0 H 0 Z"
         transform="translate(-1175.335,-492.07421)"
         id="path3" />
    </clipPath>
    <clipPath
       clipPathUnits="userSpaceOnUse"
       id="clipPath5">
      <path
         d="M 0,1080 H 1920 V 0 H 0 Z"
         transform="translate(-121.0845,-507.62791)"
         id="path5" />
    </clipPath>
    <clipPath
       clipPathUnits="userSpaceOnUse"
       id="clipPath7">
      <path
         d="M 0,1080 H 1920 V 0 H 0 Z"
         transform="translate(-1497.7491,-619.22021)"
         id="path7" />
    </clipPath>
    <clipPath
       clipPathUnits="userSpaceOnUse"
       id="clipPath9">
      <path
         d="M 0,1080 H 1920 V 0 H 0 Z"
         transform="translate(-696.76811,-403.63531)"
         id="path9" />
    </clipPath>
    <clipPath
       clipPathUnits="userSpaceOnUse"
       id="clipPath11">
      <path
         d="M 0,1080 H 1920 V 0 H 0 Z"
         transform="translate(-403.55321,-487.76321)"
         id="path11" />
    </clipPath>
    <clipPath
       clipPathUnits="userSpaceOnUse"
       id="clipPath13">
      <path
         d="M 0,1080 H 1920 V 0 H 0 Z"
         transform="translate(-944.93995,-509.68991)"
         id="path13" />
    </clipPath>
    <clipPath
       clipPathUnits="userSpaceOnUse"
       id="clipPath15">
      <path
         d="M 0,1080 H 1920 V 0 H 0 Z"
         id="path15" />
    </clipPath>
    <clipPath
       clipPathUnits="userSpaceOnUse"
       id="clipPath17">
      <path
         d="M 0,1080 H 1920 V 0 H 0 Z"
         id="path17" />
    </clipPath>
    <clipPath
       clipPathUnits="userSpaceOnUse"
       id="clipPath19">
      <path
         d="M 0,1080 H 1920 V 0 H 0 Z"
         transform="translate(-1020.1362,-658.59572)"
         id="path19" />
    </clipPath>
    <clipPath
       clipPathUnits="userSpaceOnUse"
       id="clipPath21">
      <path
         d="M 0,1080 H 1920 V 0 H 0 Z"
         transform="translate(-990.1753,-352.78811)"
         id="path21" />
    </clipPath>
    <clipPath
       clipPathUnits="userSpaceOnUse"
       id="clipPath23">
      <path
         d="M 0,1080 H 1920 V 0 H 0 Z"
         transform="translate(-554.73832,-352.67681)"
         id="path23" />
    </clipPath>
    <clipPath
       clipPathUnits="userSpaceOnUse"
       id="clipPath25">
      <path
         d="M 0,1080 H 1920 V 0 H 0 Z"
         transform="translate(-1109.4546,-334.98001)"
         id="path25" />
    </clipPath>
    <clipPath
       clipPathUnits="userSpaceOnUse"
       id="clipPath27">
      <path
         d="M 0,1080 H 1920 V 0 H 0 Z"
         transform="translate(-489.16111,-351.64891)"
         id="path27" />
    </clipPath>
    <clipPath
       clipPathUnits="userSpaceOnUse"
       id="clipPath29">
      <path
         d="M 0,1080 H 1920 V 0 H 0 Z"
         transform="translate(-1135.6372,-351.64891)"
         id="path29" />
    </clipPath>
    <clipPath
       clipPathUnits="userSpaceOnUse"
       id="clipPath31">
      <path
         d="M 0,1080 H 1920 V 0 H 0 Z"
         transform="translate(-1215.0885,-351.54351)"
         id="path31" />
    </clipPath>
    <clipPath
       clipPathUnits="userSpaceOnUse"
       id="clipPath33">
      <path
         d="M 0,1080 H 1920 V 0 H 0 Z"
         transform="translate(-793.13574,-351.55571)"
         id="path33" />
    </clipPath>
    <clipPath
       clipPathUnits="userSpaceOnUse"
       id="clipPath35">
      <path
         d="M 0,1080 H 1920 V 0 H 0 Z"
         transform="translate(-941.812,-334.96781)"
         id="path35" />
    </clipPath>
    <clipPath
       clipPathUnits="userSpaceOnUse"
       id="clipPath37">
      <path
         d="M 0,1080 H 1920 V 0 H 0 Z"
         transform="translate(-1073.0895,-334.96781)"
         id="path37" />
    </clipPath>
    <clipPath
       clipPathUnits="userSpaceOnUse"
       id="clipPath39">
      <path
         d="M 0,1080 H 1920 V 0 H 0 Z"
         transform="translate(-706.64792,-371.73541)"
         id="path39" />
    </clipPath>
    <clipPath
       clipPathUnits="userSpaceOnUse"
       id="clipPath41">
      <path
         d="M 0,1080 H 1920 V 0 H 0 Z"
         transform="translate(-859.4248,-356.81451)"
         id="path41" />
    </clipPath>
    <clipPath
       clipPathUnits="userSpaceOnUse"
       id="clipPath43">
      <path
         d="M 0,1080 H 1920 V 0 H 0 Z"
         transform="translate(-570.59471,-371.64941)"
         id="path43" />
    </clipPath>
    <clipPath
       clipPathUnits="userSpaceOnUse"
       id="clipPath45">
      <path
         d="M 0,1080 H 1920 V 0 H 0 Z"
         transform="translate(-1030.6909,-356.90141)"
         id="path45" />
    </clipPath>
    <clipPath
       clipPathUnits="userSpaceOnUse"
       id="clipPath47">
      <path
         d="M 0,1080 H 1920 V 0 H 0 Z"
         transform="translate(-656.35792,-356.99371)"
         id="path47" />
    </clipPath>
    <clipPath
       clipPathUnits="userSpaceOnUse"
       id="clipPath49">
      <path
         d="M 0,1080 H 1920 V 0 H 0 Z"
         transform="translate(-920.99372,-356.87011)"
         id="path49" />
    </clipPath>
    <clipPath
       clipPathUnits="userSpaceOnUse"
       id="clipPath51">
      <path
         d="M 0,1080 H 1920 V 0 H 0 Z"
         transform="translate(-686.88232,-366.86771)"
         id="path51" />
    </clipPath>
    <clipPath
       clipPathUnits="userSpaceOnUse"
       id="clipPath53">
      <path
         d="M 0,1080 H 1920 V 0 H 0 Z"
         transform="translate(-644.24272,-371.73541)"
         id="path53" />
    </clipPath>
    <clipPath
       clipPathUnits="userSpaceOnUse"
       id="clipPath55">
      <path
         d="M 0,1080 H 1920 V 0 H 0 Z"
         transform="translate(-1174.7403,-372.80761)"
         id="path55" />
    </clipPath>
    <clipPath
       clipPathUnits="userSpaceOnUse"
       id="clipPath57">
      <path
         d="M 0,1080 H 1920 V 0 H 0 Z"
         transform="translate(-504.35551,-372.05221)"
         id="path57" />
    </clipPath>
    <clipPath
       clipPathUnits="userSpaceOnUse"
       id="clipPath59">
      <path
         d="M 0,1080 H 1920 V 0 H 0 Z"
         transform="translate(-754.07574,-335.02391)"
         id="path59" />
    </clipPath>
    <clipPath
       clipPathUnits="userSpaceOnUse"
       id="clipPath61">
      <path
         d="M 0,1080 H 1920 V 0 H 0 Z"
         id="path61" />
    </clipPath>
    <clipPath
       clipPathUnits="userSpaceOnUse"
       id="clipPath63">
      <path
         d="M 0,1080 H 1920 V 0 H 0 Z"
         id="path63" />
    </clipPath>
    <clipPath
       clipPathUnits="userSpaceOnUse"
       id="clipPath65">
      <path
         d="M 0,1080 H 1920 V 0 H 0 Z"
         transform="translate(-612.96872,-374.77101)"
         id="path65" />
    </clipPath>
    <clipPath
       clipPathUnits="userSpaceOnUse"
       id="clipPath67">
      <path
         d="M 0,1080 H 1920 V 0 H 0 Z"
         transform="translate(-1190.0151,-380.66161)"
         id="path67" />
    </clipPath>
  </defs>
  <sodipodi:namedview
     id="namedview1"
     pagecolor="#ffffff"
     bordercolor="#000000"
     borderopacity="0.25"
     inkscape:showpageshadow="2"
     inkscape:pageopacity="0.0"
     inkscape:pagecheckerboard="0"
     inkscape:deskcolor="#d1d1d1">
    <inkscape:page
       x="0"
       y="0"
       inkscape:label="1"
       id="page1"
       width="2560"
       height="1440"
       margin="0"
       bleed="0" />
  </sodipodi:namedview>
  <g
     id="layer-MC0"
     inkscape:groupmode="layer"
     inkscape:label="Layer 1">
    <path
       id="path1"
       d="M 0,0 H 1920 V 1080 H 0 Z"
       style="fill:#231f20;fill-opacity:1;fill-rule:nonzero;stroke:none"
       transform="matrix(1.3333333,0,0,-1.3333333,0,1440)" />
    <path
       id="path2"
       d="m 0,0 c -3.769,-4.979 -8.525,-7.852 -13.986,-9.267 -6.26,-1.623 -12.698,-2.632 -19.086,-3.799 -10.015,-1.846 -20.036,-3.806 -28.668,-9.578 -8.29,-5.575 -10.865,-14.023 -9.655,-23.366 1.168,-8.81 7.498,-13.238 15.749,-15.147 16.834,-3.881 32.482,-0.406 47.108,8.138 4.472,2.613 8.303,6.59 8.436,12.07 C 0.228,-27.318 0,-13.656 0,0 m 231.053,275.275 c 9.672,-0.279 19.351,-0.736 29.037,-0.812 22.916,-0.171 45.832,-0.114 68.743,-0.273 34.834,-0.266 69.667,-0.608 104.508,-0.958 28.302,-0.278 56.616,-0.57 84.93,-1.046 1.833,-0.025 4.681,-1.047 5.315,-2.404 10.852,-23.43 21.445,-47.006 32.234,-70.867 -1.535,-0.774 -2.873,-1.459 -4.51,-2.271 -8.771,10.979 -17.392,21.781 -25.993,32.576 -5.461,6.838 -10.947,13.65 -16.288,20.557 -1.687,2.188 -3.273,2.594 -6.057,1.973 -71.368,-15.857 -142.749,-31.581 -214.156,-47.254 -3.52,-0.767 -5.695,-2.454 -7.643,-5.518 -37.003,-58.385 -74.14,-116.675 -111.245,-174.99 -0.59,-0.932 -1.167,-1.877 -1.928,-3.082 10.015,-12.533 20.023,-25.06 30.064,-37.568 24.254,-30.255 48.598,-60.484 72.739,-90.841 2.696,-3.362 5.017,-4.459 9.514,-3.495 65.603,14.018 131.269,27.775 196.903,41.609 1.865,0.387 3.717,1.008 5.608,1.11 11.461,0.621 18.146,6.831 24.197,16.554 29.405,47.387 59.635,94.253 89.636,141.278 1.338,2.093 3.285,3.844 5.601,6.527 5.86,-12.908 11.15,-24.559 16.44,-36.211 0.856,-1.865 1.414,-3.932 2.575,-5.594 4.04,-5.81 2.416,-10.003 -2.156,-15.115 -49.703,-55.613 -99.106,-111.461 -148.605,-167.245 -14.474,-16.301 -28.916,-32.595 -43.523,-48.776 -1.161,-1.294 -3.432,-2.27 -5.189,-2.277 -97.399,-0.152 -194.792,-0.171 -292.184,-0.285 -3.013,-0.013 -4.39,0.97 -5.626,3.685 -22.827,50.774 -45.782,101.49 -68.717,152.213 -0.831,1.852 -1.745,3.672 -3.533,5.404 V -88.398 H 0.285 v 17.093 c -2.81,-2.366 -4.896,-4.186 -7.021,-5.905 -10.694,-8.569 -23.38,-10.643 -36.592,-11.651 -15.171,-1.155 -29.76,0.463 -43.745,6.716 -14.563,6.52 -23.665,17.291 -25.911,33.351 -2.289,16.192 -0.456,31.472 10.84,44.303 7.136,8.1 16.345,13.504 26.564,16.003 13.675,3.349 27.622,5.601 41.538,7.7 9.699,1.472 19.08,3.261 27.008,9.515 13.427,10.592 12.97,26.759 -1.859,35.252 -5.95,3.387 -13.421,5.303 -20.303,5.658 -27.775,1.421 -51.82,-7.541 -71.172,-28.016 -0.393,-0.431 -0.907,-0.755 -2.315,-1.915 1.693,8.321 3.171,15.533 4.656,22.757 0.089,0.457 0.419,0.901 0.419,1.351 -0.197,10.847 6.856,15.699 15.634,19.511 18.704,8.169 38.291,11.385 58.55,10.529 9.336,-0.4 18.698,-1.32 27.933,-2.76 15.191,-2.359 28.53,-8.55 38.691,-21.444 5.061,5.803 9.933,11.322 14.728,16.916 53.849,62.755 107.674,125.51 161.505,188.271 0.095,0.121 0.108,0.298 0.159,0.438 z"
       style="fill:#ffffff;fill-opacity:1;fill-rule:evenodd;stroke:none"
       transform="matrix(1.3333333,0,0,-1.3333333,1567.1133,783.90107)"
       clip-path="url(#clipPath3)" />
    <path
       id="path4"
       d="m 0,0 c 1.82,10.11 3.019,20.386 5.606,30.299 7.073,27.223 25.955,41.425 52.899,46.068 27.001,4.642 53.469,0.945 79.792,-5.081 2.429,-0.545 3.64,-1.668 4.11,-4.332 1.306,-7.478 3.012,-14.868 4.573,-22.288 -9.057,2.473 -17.842,5.48 -26.849,7.173 -12.622,2.372 -25.428,3.8 -38.278,0.806 -10.866,-2.519 -18.419,-8.747 -22.65,-19.092 -5.062,-12.4 -6.845,-25.32 -6.907,-38.634 -0.077,-17.049 0.817,-33.94 5.86,-50.386 5.252,-17.176 15.686,-24.851 33.705,-24.889 18.724,-0.025 36.535,3.717 53.242,12.368 0.532,0.267 1.141,0.425 2.397,0.876 -0.989,-9.572 -1.795,-18.686 -3.051,-27.743 -0.171,-1.288 -2.296,-2.924 -3.787,-3.318 -20.912,-5.372 -42.172,-7.814 -63.681,-6 -9.609,0.818 -19.319,2.005 -28.605,4.453 C 24.444,-93.422 10.313,-77.153 4.935,-53.387 2.613,-43.067 1.61,-32.449 0,-21.971 Z"
       style="fill:#ffffff;fill-opacity:1;fill-rule:evenodd;stroke:none"
       transform="matrix(1.3333333,0,0,-1.3333333,161.446,763.1628)"
       clip-path="url(#clipPath5)" />
    <path
       id="path6"
       d="m 0,0 c 16.211,0 32.43,-0.07 48.636,0.057 2.683,0.019 4.35,-0.71 5.822,-3.006 17.912,-27.94 35.938,-55.81 53.774,-83.813 0.945,-1.472 1.123,-4.262 0.4,-5.861 -13.726,-29.83 -27.686,-59.52 -41.374,-89.35 -1.44,-3.133 -3.146,-4.142 -6.419,-4.148 -20.208,-0.045 -40.397,-0.241 -60.605,-0.419 -11.924,-0.107 -23.861,-0.165 -35.779,-0.438 -3.045,-0.069 -4.865,0.793 -6.552,3.451 -17.975,28.295 -36.02,56.539 -54.18,84.694 -1.579,2.455 -1.795,4.25 -0.501,6.908 14.239,29.069 28.378,58.175 42.376,87.345 1.294,2.747 2.753,3.698 5.715,3.679 16.218,-0.12 32.449,-0.051 48.687,-0.051 z"
       style="fill:#ffffff;fill-opacity:1;fill-rule:evenodd;stroke:none"
       transform="matrix(1.3333333,0,0,-1.3333333,1996.9987,614.37307)"
       clip-path="url(#clipPath7)" />
    <path
       id="path8"
       d="m 0,0 h -39.852 v 5.759 c 0,40.891 -0.323,81.802 0.133,122.694 0.21,18.698 -14.416,27.591 -30.806,25.587 -17.379,-2.094 -28.555,-16.01 -28.555,-33.63 V 6.298 0.196 h -51.237 v 181.155 h 51.053 v -12.825 c 0.952,0.247 1.618,0.222 2.017,0.552 15.413,12.724 33.749,14.366 52.632,13.796 3.317,-0.108 6.635,-0.679 9.939,-1.142 12.844,-1.732 21.47,-9.368 27.87,-20.126 3.698,3.355 7.028,6.997 10.928,9.851 21.186,15.444 59.984,14.601 79.272,-1.681 9.057,-7.643 14.766,-17.658 14.88,-29.348 C 98.699,93.815 98.446,47.19 98.446,0.184 H 59.215 v 5.34 c 0,40.733 -0.222,81.479 0.102,122.225 0.159,20.626 -13.161,28.016 -31.269,26.259 C 10.966,152.359 0,138.512 0,121.171 V 6.114 Z"
       style="fill:#ffffff;fill-opacity:1;fill-rule:evenodd;stroke:none"
       transform="matrix(1.3333333,0,0,-1.3333333,929.02413,901.8196)"
       clip-path="url(#clipPath9)" />
    <path
       id="path10"
       d="m 0,0 c -0.407,0.07 -0.812,0.133 -1.225,0.19 0,2.392 0.025,4.776 0,7.167 -0.203,16.371 -0.926,32.691 -6.248,48.402 -2.638,7.846 -7.801,13.231 -15.755,15.92 -21.343,7.244 -40.098,-2.759 -45.268,-24.489 -6.203,-26.259 -4.878,-52.752 -0.558,-79.018 1.947,-11.778 7.618,-22.63 20.322,-26.633 5.309,-1.674 11.233,-1.928 16.872,-1.852 13.091,0.178 22.339,6.85 25.232,19.605 C -3.604,-27.312 -2.144,-13.573 0,0 m -124.375,5.144 c 0.895,16.409 2.67,32.411 8.702,47.742 8.823,22.345 25.073,36.324 48.097,42.268 21.667,5.594 43.543,5.245 65.108,-0.146 C 22.655,88.729 38.861,72.853 45.077,47.52 51.934,19.523 51.991,-8.524 44.227,-36.337 36.882,-62.622 19.224,-77.946 -7.27,-83.4 c -19.554,-4.022 -39.122,-4.136 -58.67,-0.007 -30.007,6.324 -47.83,24.971 -53.976,54.63 -2.328,11.131 -3.032,22.599 -4.459,33.921"
       style="fill:#ffffff;fill-opacity:1;fill-rule:evenodd;stroke:none"
       transform="matrix(1.3333333,0,0,-1.3333333,538.07093,789.64907)"
       clip-path="url(#clipPath11)" />
    <path
       id="path12"
       d="M 0,0 C -0.952,7.624 -1.301,14.772 -2.797,21.692 -8.512,48.04 -33.458,60.935 -57.383,50.564 -74.153,43.283 -80.756,19.098 -78.815,0 Z m 32.392,-24.458 h -111.81 c 0.508,-3.469 0.534,-6.361 1.383,-9.013 3.286,-10.414 6.07,-21.064 10.421,-31.028 5.537,-12.647 16.098,-18.774 29.989,-18.857 22.637,-0.121 38.608,1.751 63.922,17.975 -2.556,-10.395 -4.764,-20.442 -7.618,-30.312 -0.552,-1.928 -3.393,-3.97 -5.562,-4.516 -11.03,-2.803 -22.048,-6.38 -33.3,-7.338 -18.666,-1.579 -37.447,-1.421 -55.93,3.177 -28.149,6.977 -45.402,24.16 -50.793,52.823 -4.833,25.834 -4.433,51.515 2.975,76.848 8.29,28.289 27.636,44.444 56.235,49.829 16.434,3.095 32.912,2.34 49.251,-0.984 28.194,-5.702 43.296,-24.121 49.112,-51.204 3.298,-15.343 3.945,-30.858 1.725,-47.4"
       style="fill:#ffffff;fill-opacity:1;fill-rule:evenodd;stroke:none"
       transform="matrix(1.3333333,0,0,-1.3333333,1259.9199,760.41347)"
       clip-path="url(#clipPath13)" />
    <path
       id="path14"
       d="m 471.761,658.173 h 49.898 V 403.696 h -49.898 z"
       style="fill:#ffffff;fill-opacity:1;fill-rule:evenodd;stroke:none"
       transform="matrix(1.3333333,0,0,-1.3333333,0,1440)"
       clip-path="url(#clipPath15)" />
    <path
       id="path16"
       d="m 994.333,585.085 h 50.704 V 403.791 h -50.704 z"
       style="fill:#ffffff;fill-opacity:1;fill-rule:evenodd;stroke:none"
       transform="matrix(1.3333333,0,0,-1.3333333,0,1440)"
       clip-path="url(#clipPath17)" />
    <path
       id="path18"
       d="M 0,0 C 17.258,0 29.005,-11.753 28.998,-29.018 28.966,-46.562 16.96,-58.359 -0.882,-58.334 -17.405,-58.321 -29.925,-45.883 -29.944,-29.475 -29.964,-12.273 -17.481,0.019 0,0"
       style="fill:#ffffff;fill-opacity:1;fill-rule:evenodd;stroke:none"
       transform="matrix(1.3333333,0,0,-1.3333333,1360.1816,561.8724)"
       clip-path="url(#clipPath19)" />
    <path
       id="path20"
       d="m 0,0 c 0,2.226 -0.14,4.459 0.031,6.666 0.248,3.305 -0.247,6.019 -4.084,6.799 -3.92,0.812 -7.599,0.267 -9.305,-3.672 -2.766,-6.368 -2.79,-13.034 0.139,-19.371 1.827,-3.951 5.69,-4.034 9.483,-3.469 3.926,0.558 3.9,3.387 3.755,6.393 C -0.095,-4.44 0,-2.22 0,0 m 10.471,19.11 c 0,-13.827 0.102,-26.867 -0.044,-39.889 -0.063,-4.953 -3.717,-8.746 -9.691,-9.4 -5.164,-0.552 -10.428,-0.196 -15.654,0.057 -4.117,0.197 -6.197,2.518 -5.658,6.584 4.56,-0.736 9.108,-1.941 13.694,-2.106 6.229,-0.228 7.528,1.846 6.33,8.271 -3.121,-0.241 -6.241,-0.704 -9.362,-0.704 -7.319,0 -11.747,3.108 -12.736,10.161 -0.767,5.404 -0.767,11.145 0.139,16.542 1.268,7.611 6.191,11.011 14.005,10.51 4.3,-0.273 8.449,-1.922 12.851,-0.134 1.605,0.666 3.691,0.108 6.126,0.108"
       style="fill:#ffffff;fill-opacity:1;fill-rule:evenodd;stroke:none"
       transform="matrix(1.3333333,0,0,-1.3333333,1320.2337,969.61587)"
       clip-path="url(#clipPath21)" />
    <path
       id="path22"
       d="m 0,0 c 0,2.22 -0.185,4.453 0.024,6.647 0.375,3.59 -0.411,6.248 -4.433,6.997 -3.989,0.748 -7.509,-0.045 -9.108,-4.035 -2.493,-6.254 -2.417,-12.787 0.298,-18.945 1.859,-4.212 5.925,-4.212 9.863,-3.527 3.704,0.628 3.438,3.463 3.368,6.203 C -0.045,-4.446 0,-2.22 0,0 m 0.024,-17.258 c -3.849,-0.273 -7.141,-0.73 -10.44,-0.685 -6.875,0.063 -11.397,3.412 -12.304,10.091 -0.705,5.264 -0.737,10.814 0.05,16.066 1.149,7.751 6.223,11.728 14.094,10.948 4.662,-0.489 9.121,-0.927 13.725,0.012 1.504,0.305 3.127,0.045 5.011,0.045 V -32.252 H 0.024 Z"
       style="fill:#ffffff;fill-opacity:1;fill-rule:evenodd;stroke:none"
       transform="matrix(1.3333333,0,0,-1.3333333,739.65107,969.76427)"
       clip-path="url(#clipPath23)" />
    <path
       id="path24"
       d="m 0,0 h -7.795 c 0,8.373 0.019,16.574 -0.007,24.788 -0.012,6.228 -3.887,8.784 -9.685,6.551 -2.727,-1.052 -3.806,-2.803 -3.748,-5.809 0.177,-8.379 0.05,-16.771 0.05,-25.422 h -10.504 v 51.091 h 10.44 V 36.147 c 5.468,0 10.593,0.724 15.331,-0.298 2.328,-0.501 5.486,-4.103 5.645,-6.476 C 0.38,19.745 0,10.053 0,0"
       style="fill:#ffffff;fill-opacity:1;fill-rule:evenodd;stroke:none"
       transform="matrix(1.3333333,0,0,-1.3333333,1479.2728,993.36)"
       clip-path="url(#clipPath25)" />
    <path
       id="path26"
       d="m 0,0 c -3.647,-0.945 -7.465,-1.491 -10.821,-3.045 -1.484,-0.678 -2.664,-3.336 -2.778,-5.169 -0.057,-0.913 2.493,-2.683 4.015,-2.899 C -1.726,-12.191 1.161,-8.69 0,0 m 10.3,-16.903 c -3.565,0.887 -7.706,-1.834 -10.801,2.467 -4.75,-2.969 -10.149,-3.19 -15.699,-1.522 -4.147,1.255 -6.317,4.109 -6.565,8.359 -0.247,4.263 0.845,8.119 5.024,9.933 3.006,1.313 6.336,1.903 9.559,2.708 1.047,0.267 2.251,0.07 3.285,0.387 2.772,0.888 6.241,2.024 5.17,5.518 -0.572,1.827 -4.041,4.136 -5.931,3.914 -4.979,-0.577 -9.799,-2.417 -14.271,-3.634 0.489,5.961 1.053,6.761 8.144,8.252 2.619,0.558 5.36,0.906 8.024,0.773 8.981,-0.425 15.571,-2.689 14.727,-15.089 -0.45,-6.819 -0.108,-13.688 -0.152,-20.519 0,-0.291 -0.19,-0.59 -0.514,-1.547"
       style="fill:#ffffff;fill-opacity:1;fill-rule:evenodd;stroke:none"
       transform="matrix(1.3333333,0,0,-1.3333333,652.2148,971.1348)"
       clip-path="url(#clipPath27)" />
    <path
       id="path28"
       d="m 0,0 c -3.647,-0.945 -7.465,-1.491 -10.827,-3.045 -1.485,-0.665 -2.658,-3.33 -2.772,-5.15 -0.057,-0.92 2.474,-2.696 3.996,-2.918 C -1.776,-12.21 1.141,-8.709 0,0 m -20.012,11.15 c 0.984,6.496 1.187,6.965 8.386,8.329 3.533,0.672 7.3,0.995 10.839,0.558 8.931,-1.104 11.696,-4.542 11.671,-13.542 0,-7.294 -0.038,-14.595 -0.09,-21.914 0,-0.286 -0.209,-0.565 -0.469,-1.263 -3.481,0.565 -7.573,-2.124 -10.827,2.246 -4.782,-2.962 -10.161,-3.19 -15.71,-1.522 -4.136,1.249 -6.293,4.097 -6.565,8.347 -0.298,4.471 1.078,8.328 5.404,10.186 2.848,1.243 6.045,1.732 9.102,2.467 1.065,0.26 2.271,0.051 3.298,0.375 2.759,0.856 5.873,1.813 5.423,5.511 -0.444,3.603 -3.692,4.573 -6.508,4.079 -4.775,-0.869 -9.431,-2.563 -13.954,-3.857"
       style="fill:#ffffff;fill-opacity:1;fill-rule:evenodd;stroke:none"
       transform="matrix(1.3333333,0,0,-1.3333333,1514.1829,971.1348)"
       clip-path="url(#clipPath29)" />
    <path
       id="path30"
       d="m 0,0 c -3.508,-0.875 -7.161,-1.345 -10.377,-2.791 -1.604,-0.729 -3.374,-3.342 -3.235,-4.935 0.114,-1.268 2.994,-3.19 4.694,-3.241 C -1.77,-11.214 1.795,-9.641 0,0 m -19.574,10.218 c -0.793,4.992 1.325,8.316 5.886,8.848 5.582,0.654 11.373,0.907 16.91,0.134 5.359,-0.73 7.65,-4.396 7.688,-9.87 0.056,-8.429 0.018,-16.859 0.018,-26.049 -3.818,0.628 -7.732,-1.573 -10.357,1.008 -5.69,-0.127 -10.923,-0.774 -16.035,-0.19 -4.281,0.507 -6.786,3.748 -7.122,8.321 -0.381,4.808 1.325,8.588 5.778,10.459 2.886,1.219 6.108,1.58 9.178,2.29 1.687,0.406 3.729,0.279 5.004,1.225 1.446,1.078 3.197,3.203 3.013,4.642 -0.191,1.453 -2.594,3.756 -3.99,3.711 -3.989,-0.076 -8.004,-1.002 -11.931,-1.934 -1.427,-0.35 -2.638,-1.663 -4.04,-2.595"
       style="fill:#ffffff;fill-opacity:1;fill-rule:evenodd;stroke:none"
       transform="matrix(1.3333333,0,0,-1.3333333,1620.1179,971.27533)"
       clip-path="url(#clipPath31)" />
    <path
       id="path32"
       d="m 0,0 c -3.628,-0.952 -7.409,-1.548 -10.795,-3.02 -1.459,-0.64 -3.045,-3.259 -2.83,-4.731 0.191,-1.294 2.683,-3.038 4.307,-3.241 C -1.618,-11.981 0.875,-8.924 0,0 m -19.758,11.106 c -0.609,4.586 2.01,7.611 6.647,8.131 5.271,0.59 10.719,0.774 15.959,0.083 5.543,-0.736 7.928,-4.389 7.953,-10.079 0.038,-8.41 0.013,-16.827 0.013,-25.954 -3.851,0.577 -7.801,-1.605 -11.474,2.099 -4.542,-2.696 -9.921,-2.955 -15.419,-1.237 -4.053,1.282 -6.317,4.174 -6.577,8.405 -0.274,4.262 0.976,8.106 5.124,9.837 3.311,1.377 6.933,2.112 10.459,2.728 3.59,0.628 7.199,1.262 7.916,5.448 0.483,2.879 -3.869,5.385 -8.594,4.491 -4.066,-0.768 -7.935,-2.569 -12.007,-3.952"
       style="fill:#ffffff;fill-opacity:1;fill-rule:evenodd;stroke:none"
       transform="matrix(1.3333333,0,0,-1.3333333,1057.5143,971.25907)"
       clip-path="url(#clipPath33)" />
    <path
       id="path34"
       d="m 0,0 h -10.523 v 37.556 c 3.755,-0.819 7.281,-1.65 10.827,-2.316 0.805,-0.158 1.706,0.413 2.6,0.521 3.419,0.412 6.889,1.281 10.283,1.059 4.94,-0.324 8.175,-3.723 8.238,-8.252 0.146,-9.349 0.038,-18.711 0.038,-28.409 h -7.718 c 0,7.7 0.012,15.425 0,23.144 C 13.738,29.456 12.33,31.232 7.56,31.34 2.499,31.454 0.038,28.866 0.006,23.234 -0.045,15.642 0,8.043 0,0"
       style="fill:#ffffff;fill-opacity:1;fill-rule:evenodd;stroke:none"
       transform="matrix(1.3333333,0,0,-1.3333333,1255.7493,993.37627)"
       clip-path="url(#clipPath35)" />
    <path
       id="path36"
       d="m 0,0 h -7.713 v 23.291 c -0.013,6.146 -1.409,7.935 -6.178,8.049 -5.017,0.126 -7.535,-2.486 -7.573,-8.081 -0.038,-7.605 -0.019,-15.21 -0.019,-23.126 h -10.491 v 37.416 c 3.73,-0.824 7.256,-1.643 10.82,-2.309 0.8,-0.145 1.713,0.4 2.575,0.514 3.42,0.419 6.895,1.269 10.295,1.072 4.916,-0.292 8.163,-3.71 8.252,-8.233 C 0.107,19.225 0,9.882 0,0"
       style="fill:#ffffff;fill-opacity:1;fill-rule:evenodd;stroke:none"
       transform="matrix(1.3333333,0,0,-1.3333333,1430.7859,993.37627)"
       clip-path="url(#clipPath37)" />
    <path
       id="path38"
       d="m 0,0 h 10.415 c 0,-8.334 -0.267,-16.542 0.177,-24.724 0.114,-2.22 2.106,-5.86 3.704,-6.121 2.67,-0.456 5.917,0.869 8.429,2.316 1.117,0.621 1.339,3.374 1.377,5.175 0.133,7.611 0.063,15.216 0.063,23.17 h 7.712 v -37.181 c -3.132,0.59 -5.999,1.129 -10.198,1.916 -3.006,-0.362 -7.656,-1.269 -12.33,-1.396 C 4.173,-36.978 0.31,-33.648 0.107,-28.51 -0.267,-19.18 0,-9.825 0,0"
       style="fill:#ffffff;fill-opacity:1;fill-rule:evenodd;stroke:none"
       transform="matrix(1.3333333,0,0,-1.3333333,942.1972,944.3528)"
       clip-path="url(#clipPath39)" />
    <path
       id="path40"
       d="M 0,0 C -0.222,7.091 -3.014,10.573 -8.069,10.402 -12.8,10.25 -15.464,6.317 -15.014,0 Z m 6.735,-5.683 h -21.603 c 0.558,-11.811 6.121,-14.157 19.91,-8.696 0.076,-5.829 -0.805,-6.908 -6.292,-7.63 -1.263,-0.159 -2.531,-0.254 -3.793,-0.349 -15.407,-1.282 -22.999,6.894 -20.652,22.225 2.011,13.148 13.04,19.193 25.371,13.884 C 5.695,11.163 8.537,3.742 6.735,-5.683"
       style="fill:#ffffff;fill-opacity:1;fill-rule:evenodd;stroke:none"
       transform="matrix(1.3333333,0,0,-1.3333333,1145.8997,964.24733)"
       clip-path="url(#clipPath41)" />
    <path
       id="path42"
       d="m 0,0 h 10.256 v -24.369 c -0.006,-2.987 0.349,-5.886 3.85,-6.755 3.495,-0.888 6.781,-0.228 8.772,3.019 0.831,1.357 1.053,3.267 1.079,4.941 0.113,7.593 0.05,15.185 0.05,23.094 h 7.472 v -36.122 c -5.797,-1.307 -6.368,-1.173 -7.693,1.11 C 18.444,-35.704 13.491,-36.61 8.537,-36.737 3.964,-36.845 0.26,-33.693 0.12,-29.31 -0.228,-19.675 0,-10.021 0,0"
       style="fill:#ffffff;fill-opacity:1;fill-rule:evenodd;stroke:none"
       transform="matrix(1.3333333,0,0,-1.3333333,760.79293,944.46747)"
       clip-path="url(#clipPath43)" />
    <path
       id="path44"
       d="m 0,0 c 0.088,6.488 -2.849,10.326 -7.783,10.326 -4.694,0 -7.396,-3.781 -7.155,-10.326 z m 7.033,-5.842 h -21.939 c 0.768,-11.62 5.448,-13.643 19.986,-8.854 0.558,-4.205 -1.04,-6.914 -5.302,-7.219 -4.561,-0.304 -9.23,-0.564 -13.739,0.039 -6.729,0.894 -10.662,5.359 -11.392,12.114 -0.329,2.817 -0.45,5.715 -0.19,8.538 1.218,13.656 11.95,20.17 24.775,15.115 4.757,-1.878 7.047,-5.81 7.745,-10.593 0.38,-2.772 0.056,-5.645 0.056,-9.14"
       style="fill:#ffffff;fill-opacity:1;fill-rule:evenodd;stroke:none"
       transform="matrix(1.3333333,0,0,-1.3333333,1374.2545,964.13147)"
       clip-path="url(#clipPath45)" />
    <path
       id="path46"
       d="M 0,0 H 15.425 C 14.868,6.869 12.14,10.244 7.434,10.218 2.803,10.193 0.393,6.901 0,0 m 20.315,-14.632 c 0.673,-5.151 -1.871,-7.238 -6.095,-7.479 -4.097,-0.234 -8.264,-0.412 -12.324,0.032 -7.046,0.78 -11.087,4.998 -12.007,12.058 -0.33,2.664 -0.507,5.397 -0.354,8.061 0.837,13.916 11.626,20.772 24.749,15.8 5.011,-1.884 7.268,-6 7.978,-10.973 0.369,-2.632 0.071,-5.347 0.071,-8.449 H -0.806 c 1.821,-3.996 2.48,-7.915 4.783,-9.913 5.163,-4.497 10.738,-0.907 16.338,0.863"
       style="fill:#ffffff;fill-opacity:1;fill-rule:evenodd;stroke:none"
       transform="matrix(1.3333333,0,0,-1.3333333,875.14387,964.0084)"
       clip-path="url(#clipPath47)" />
    <path
       id="path48"
       d="M 0,0 C -0.419,6.901 -3.171,10.345 -7.866,10.37 -12.451,10.376 -14.938,7.021 -15.407,0 Z M 6.691,-5.721 H -14.88 c 0.145,-11.563 5.975,-14.088 19.751,-8.829 0.812,-4.554 -1.148,-7.079 -5.538,-7.383 -4.401,-0.292 -8.93,-0.59 -13.243,0.127 -2.924,0.469 -6.083,2.156 -8.227,4.237 -4.706,4.611 -5.143,18.438 -1.363,25.371 3.089,5.677 9.971,8.385 18.286,7.205 C 4.237,13.668 8.1,7.18 6.691,-5.721"
       style="fill:#ffffff;fill-opacity:1;fill-rule:evenodd;stroke:none"
       transform="matrix(1.3333333,0,0,-1.3333333,1227.9916,964.1732)"
       clip-path="url(#clipPath49)" />
    <path
       id="path50"
       d="m 0,0 c -2.499,0.171 -4.383,0.317 -6.724,0.463 -0.088,1.307 -0.19,2.6 -0.297,4.218 2.353,0.222 4.351,0.412 6.887,0.64 V 19.263 H 10.675 V 5.404 C 13.104,5.163 15.089,4.985 17.322,4.77 V 0.444 C 15.324,0.336 13.453,0.241 10.998,0.095 c 0,-7.776 -0.285,-15.508 0.248,-23.183 0.127,-1.56 3.386,-2.905 6.07,-3.628 v -5.289 c -2.462,0 -4.827,-0.216 -7.155,0.044 C 3.754,-31.27 0.507,-27.965 0.146,-21.432 -0.146,-16.047 0.025,-10.637 0,-5.239 -0.013,-3.533 0,-1.827 0,0"
       style="fill:#ffffff;fill-opacity:1;fill-rule:evenodd;stroke:none"
       transform="matrix(1.3333333,0,0,-1.3333333,915.84307,950.84307)"
       clip-path="url(#clipPath51)" />
    <path
       id="path52"
       d="m 0,0 v -4.288 c -2.03,-0.177 -4.035,-0.367 -6.501,-0.596 0,-7.643 -0.35,-15.235 0.246,-22.758 0.14,-1.744 3.406,-3.234 5.24,-4.839 0.336,0.254 0.665,0.514 1.015,0.774 0.076,-1.529 0.171,-3.07 0.285,-5.258 -3.222,0.158 -6.228,-0.038 -9.096,0.532 -5.885,1.18 -8.283,4.295 -8.341,10.371 -0.069,6.945 -0.018,13.897 -0.018,21.121 -2.48,0.229 -4.459,0.419 -6.407,0.59 -0.545,4.161 -0.545,4.161 6.261,4.884 V 14.398 H -6.68 V 0.375 C -4.32,0.235 -2.461,0.133 0,0"
       style="fill:#ffffff;fill-opacity:1;fill-rule:evenodd;stroke:none"
       transform="matrix(1.3333333,0,0,-1.3333333,858.99027,944.3528)"
       clip-path="url(#clipPath53)" />
    <path
       id="path54"
       d="m 0,0 c 0.691,-2.772 1.059,-4.3 1.573,-6.394 -1.795,0 -3.317,0.045 -4.808,-0.012 -6.146,-0.222 -10.32,-4.421 -10.402,-10.656 -0.089,-6.806 -0.013,-13.605 -0.013,-20.665 h -10.364 v 36.972 c 3.704,-1.383 8.303,2.474 10.821,-2.746 C -9.166,-2.436 -4.833,-1.281 0,0"
       style="fill:#ffffff;fill-opacity:1;fill-rule:evenodd;stroke:none"
       transform="matrix(1.3333333,0,0,-1.3333333,1566.3203,942.9232)"
       clip-path="url(#clipPath55)" />
    <path
       id="path56"
       d="m 0,0 c 3.691,-1.434 8.422,2.625 10.643,-2.747 4.249,1.104 8.563,2.233 13.205,3.426 0.698,-2.595 1.13,-4.231 1.674,-6.318 -1.762,0 -3.165,0.032 -4.541,-0.012 -6.577,-0.191 -10.636,-4.257 -10.713,-10.808 -0.05,-6.673 -0.012,-13.352 -0.012,-20.412 l -10.256,0 z"
       style="fill:#ffffff;fill-opacity:1;fill-rule:evenodd;stroke:none"
       transform="matrix(1.3333333,0,0,-1.3333333,672.474,943.9304)"
       clip-path="url(#clipPath57)" />
    <path
       id="path58"
       d="m 0,0 h -10.237 v 36.223 c 7.56,1.592 9.298,1.173 10.566,-2.124 3.014,0.938 5.963,2.099 9.013,2.758 4.123,0.876 5.957,-0.843 4.866,-5.492 -1.548,0 -3.108,0.095 -4.675,-0.032 C 3.913,30.915 0.12,27.064 0.019,21.413 -0.095,14.442 0,7.459 0,0"
       style="fill:#ffffff;fill-opacity:1;fill-rule:evenodd;stroke:none"
       transform="matrix(1.3333333,0,0,-1.3333333,1005.4343,993.30147)"
       clip-path="url(#clipPath59)" />
    <path
       id="path60"
       d="m 607.545,371.754 h 9.667 v -36.661 h -9.667 z"
       style="fill:#ffffff;fill-opacity:1;fill-rule:evenodd;stroke:none"
       transform="matrix(1.3333333,0,0,-1.3333333,0,1440)"
       clip-path="url(#clipPath61)" />
    <path
       id="path62"
       d="m 1189.219,334.935 h -9.806 v 36.61 h 9.806 z"
       style="fill:#ffffff;fill-opacity:1;fill-rule:evenodd;stroke:none"
       transform="matrix(1.3333333,0,0,-1.3333333,0,1440)"
       clip-path="url(#clipPath63)" />
    <path
       id="path64"
       d="m 0,0 c -4.687,0 -6.623,2.328 -6.546,5.956 0.069,3.672 2.207,5.797 6.139,5.734 C 3.589,11.646 5.499,9.356 5.403,5.708 5.302,2.055 3.291,-0.19 0,0"
       style="fill:#ffffff;fill-opacity:1;fill-rule:evenodd;stroke:none"
       transform="matrix(1.3333333,0,0,-1.3333333,817.2916,940.30533)"
       clip-path="url(#clipPath65)" />
    <path
       id="path66"
       d="m 0,0 c -0.197,-3.564 -1.72,-5.892 -5.772,-5.892 -3.857,0 -5.963,1.877 -6.02,5.695 -0.05,3.749 1.833,5.861 5.734,5.988 C -2.075,5.931 -0.28,3.837 0,0"
       style="fill:#ffffff;fill-opacity:1;fill-rule:evenodd;stroke:none"
       transform="matrix(1.3333333,0,0,-1.3333333,1586.6868,932.4512)"
       clip-path="url(#clipPath67)" />
  </g>
</svg>
