<?xml version="1.0" encoding="UTF-8" standalone="no"?>
<svg
   xmlns:dc="http://purl.org/dc/elements/1.1/"
   xmlns:cc="http://creativecommons.org/ns#"
   xmlns:rdf="http://www.w3.org/1999/02/22-rdf-syntax-ns#"
   xmlns:svg="http://www.w3.org/2000/svg"
   xmlns="http://www.w3.org/2000/svg"
   viewBox="0 0 1311.1893 412.92801"
   height="412.92801"
   width="1311.1893"
   xml:space="preserve"
   id="svg2"
   version="1.1"><metadata
     id="metadata8"><rdf:RDF><cc:Work
         rdf:about=""><dc:format>image/svg+xml</dc:format><dc:type
           rdf:resource="http://purl.org/dc/dcmitype/StillImage" /></cc:Work></rdf:RDF></metadata><defs
     id="defs6"><clipPath
       id="clipPath22"
       clipPathUnits="userSpaceOnUse"><path
         id="path20"
         d="M 0,309.696 H 983.392 V 0 H 0 Z" /></clipPath></defs><g
     transform="matrix(1.3333333,0,0,-1.3333333,0,412.928)"
     id="g10"><g
       transform="translate(164.9174,89.7738)"
       id="g12"><path
         id="path14"
         style="fill:#606060;fill-opacity:1;fill-rule:nonzero;stroke:none"
         d="m 0,0 h -12.156 v 21.661 h 11.673 v -3.052 h -8.079 v -6.132 h 7.444 V 9.441 H -8.562 V 3.036 l 8.562,0 z" /></g><g
       id="g16"><g
         clip-path="url(#clipPath22)"
         id="g18"><g
           transform="translate(187.1294,89.7738)"
           id="g24"><path
             id="path26"
             style="fill:#606060;fill-opacity:1;fill-rule:nonzero;stroke:none"
             d="m 0,0 h -3.926 l -10.343,15.92 c -0.262,0.403 -0.478,0.821 -0.65,1.254 h -0.09 c 0.081,-0.463 0.12,-1.455 0.12,-2.975 V 0 h -3.472 v 21.661 h 4.182 L -4.181,6.117 C -3.76,5.473 -3.488,5.03 -3.367,4.788 h 0.06 C -3.406,5.362 -3.458,6.334 -3.458,7.703 V 21.661 H 0 Z" /></g><g
           transform="translate(209.3867,91.2542)"
           id="g28"><path
             id="path30"
             style="fill:#606060;fill-opacity:1;fill-rule:nonzero;stroke:none"
             d="m 0,0 c -2.255,-1.229 -4.767,-1.843 -7.535,-1.843 -3.201,0 -5.793,0.997 -7.777,2.991 -1.983,1.994 -2.974,4.632 -2.974,7.915 0,3.353 1.085,6.104 3.254,8.255 2.169,2.149 4.925,3.225 8.267,3.225 2.405,0 4.43,-0.353 6.07,-1.058 v -3.701 c -1.662,1.108 -3.639,1.662 -5.934,1.662 -2.306,0 -4.196,-0.761 -5.67,-2.281 -1.475,-1.52 -2.212,-3.489 -2.212,-5.906 0,-2.487 0.633,-4.443 1.902,-5.868 1.269,-1.425 2.989,-2.137 5.165,-2.137 1.489,0 2.778,0.287 3.865,0.861 v 5.15 h -4.56 v 3.021 H 0 Z" /></g><g
           transform="translate(226.2089,89.7738)"
           id="g32"><path
             id="path34"
             style="fill:#606060;fill-opacity:1;fill-rule:nonzero;stroke:none"
             d="m 0,0 h -12.156 v 21.661 h 11.673 v -3.052 h -8.079 v -6.132 h 7.444 V 9.441 H -8.562 V 3.036 l 8.562,0 z" /></g><g
           transform="translate(248.4209,89.7738)"
           id="g36"><path
             id="path38"
             style="fill:#606060;fill-opacity:1;fill-rule:nonzero;stroke:none"
             d="m 0,0 h -3.926 l -10.343,15.92 c -0.262,0.403 -0.478,0.821 -0.65,1.254 h -0.09 c 0.081,-0.463 0.12,-1.455 0.12,-2.975 V 0 h -3.472 v 21.661 h 4.182 L -4.181,6.117 C -3.76,5.473 -3.488,5.03 -3.367,4.788 h 0.06 C -3.406,5.362 -3.458,6.334 -3.458,7.703 V 21.661 H 0 Z" /></g><g
           transform="translate(271.1767,89.7738)"
           id="g40"><path
             id="path42"
             style="fill:#606060;fill-opacity:1;fill-rule:nonzero;stroke:none"
             d="M 0,0 H -3.609 V 9.395 H -13.802 V 0 h -3.594 v 21.661 h 3.594 v -9.109 h 10.193 v 9.109 H 0 Z" /></g><g
           transform="translate(287.4686,98.2174)"
           id="g44"><path
             id="path46"
             style="fill:#606060;fill-opacity:1;fill-rule:nonzero;stroke:none"
             d="m 0,0 -3.005,8.64 c -0.09,0.282 -0.185,0.735 -0.287,1.359 h -0.06 C -3.443,9.425 -3.542,8.972 -3.654,8.64 L -6.629,0 Z M 6.842,-8.444 H 2.9 l -1.948,5.513 h -8.517 l -1.872,-5.513 h -3.926 l 8.109,21.661 h 4.047 z" /></g><g
           transform="translate(300.8632,108.519)"
           id="g48"><path
             id="path50"
             style="fill:#606060;fill-opacity:1;fill-rule:nonzero;stroke:none"
             d="m 0,0 v -7.039 h 2.991 c 0.553,0 1.063,0.086 1.532,0.257 0.468,0.171 0.873,0.418 1.216,0.74 0.341,0.322 0.609,0.715 0.8,1.179 0.191,0.463 0.287,0.981 0.287,1.555 0,1.037 -0.327,1.848 -0.981,2.432 C 5.19,-0.292 4.249,0 3.021,0 Z M 13.153,-18.745 H 8.955 l -3.458,5.8 c -0.313,0.534 -0.616,0.989 -0.914,1.367 -0.297,0.378 -0.598,0.687 -0.906,0.929 -0.307,0.242 -0.641,0.418 -1.003,0.529 -0.363,0.111 -0.771,0.166 -1.224,0.166 H 0 v -8.791 h -3.579 v 21.66 h 7.127 c 1.017,0 1.954,-0.12 2.81,-0.362 0.855,-0.242 1.6,-0.607 2.234,-1.095 0.635,-0.489 1.13,-1.098 1.488,-1.828 0.357,-0.73 0.537,-1.584 0.537,-2.561 0,-0.765 -0.114,-1.467 -0.34,-2.106 C 10.05,-5.677 9.727,-6.246 9.31,-6.744 8.891,-7.243 8.388,-7.669 7.799,-8.021 7.21,-8.373 6.548,-8.645 5.814,-8.836 v -0.061 c 0.393,-0.221 0.734,-0.466 1.028,-0.732 0.291,-0.267 0.568,-0.542 0.829,-0.824 0.263,-0.281 0.521,-0.602 0.778,-0.959 0.257,-0.357 0.541,-0.773 0.853,-1.246 z" /></g><path
           id="path52"
           style="fill:#606060;fill-opacity:1;fill-rule:nonzero;stroke:none"
           d="m 320.222,89.774 h -3.699 v 21.661 h 3.699 z" /><g
           transform="translate(336.4984,98.2174)"
           id="g54"><path
             id="path56"
             style="fill:#606060;fill-opacity:1;fill-rule:nonzero;stroke:none"
             d="m 0,0 -3.005,8.64 c -0.09,0.282 -0.185,0.735 -0.287,1.359 h -0.06 C -3.443,9.425 -3.542,8.972 -3.654,8.64 L -6.629,0 Z M 6.842,-8.444 H 2.9 l -1.948,5.513 h -8.517 l -1.872,-5.513 h -3.926 l 8.109,21.661 h 4.047 z" /></g><g
           transform="translate(373.6927,95.2415)"
           id="g58"><path
             id="path60"
             style="fill:#606060;fill-opacity:1;fill-rule:nonzero;stroke:none"
             d="m 0,0 c -1.045,0 -1.946,0.368 -2.701,1.103 -0.755,0.735 -1.133,1.626 -1.133,2.674 0,1.037 0.378,1.935 1.133,2.696 0.755,0.76 1.656,1.14 2.701,1.14 1.048,0 1.94,-0.377 2.674,-1.132 C 3.408,5.725 3.777,4.823 3.777,3.777 3.777,2.729 3.408,1.838 2.674,1.103 1.94,0.368 1.048,0 0,0" /></g><g
           transform="translate(422.44,108.383)"
           id="g62"><path
             id="path64"
             style="fill:#606060;fill-opacity:1;fill-rule:nonzero;stroke:none"
             d="M 0,0 H -6.221 V -18.609 H -9.816 V 0 h -6.206 V 3.051 H 0 Z" /></g><g
           transform="translate(437.7667,89.7738)"
           id="g66"><path
             id="path68"
             style="fill:#606060;fill-opacity:1;fill-rule:nonzero;stroke:none"
             d="m 0,0 h -12.157 v 21.661 h 11.674 v -3.052 h -8.079 v -6.132 h 7.444 V 9.441 H -8.562 V 3.036 l 8.562,0 z" /></g><g
           transform="translate(456.7157,90.6802)"
           id="g70"><path
             id="path72"
             style="fill:#606060;fill-opacity:1;fill-rule:nonzero;stroke:none"
             d="m 0,0 c -1.628,-0.846 -3.659,-1.269 -6.085,-1.269 -3.139,0 -5.655,0.992 -7.55,2.976 -1.891,1.983 -2.837,4.586 -2.837,7.809 0,3.464 1.064,6.263 3.194,8.398 2.127,2.135 4.819,3.203 8.069,3.203 2.094,0 3.831,-0.298 5.209,-0.891 v -3.565 c -1.459,0.866 -3.07,1.299 -4.831,1.299 -2.344,0 -4.245,-0.75 -5.701,-2.251 -1.453,-1.5 -2.181,-3.504 -2.181,-6.012 0,-2.386 0.679,-4.288 2.039,-5.702 1.36,-1.415 3.145,-2.122 5.36,-2.122 2.042,0 3.815,0.484 5.314,1.45 z" /></g><g
           transform="translate(479.1845,89.7738)"
           id="g74"><path
             id="path76"
             style="fill:#606060;fill-opacity:1;fill-rule:nonzero;stroke:none"
             d="m 0,0 h -3.925 l -10.344,15.92 c -0.26,0.403 -0.478,0.821 -0.65,1.254 h -0.09 c 0.081,-0.463 0.12,-1.455 0.12,-2.975 V 0 h -3.471 v 21.661 h 4.181 L -4.181,6.117 C -3.758,5.473 -3.486,5.03 -3.366,4.788 h 0.061 c -0.1,0.574 -0.151,1.546 -0.151,2.915 V 21.661 H 0 Z" /></g><g
           transform="translate(493.638,108.6398)"
           id="g78"><path
             id="path80"
             style="fill:#606060;fill-opacity:1;fill-rule:nonzero;stroke:none"
             d="m 0,0 c -1.985,0 -3.598,-0.74 -4.84,-2.221 -1.245,-1.48 -1.864,-3.428 -1.864,-5.845 0,-2.407 0.604,-4.345 1.81,-5.816 1.208,-1.47 2.788,-2.204 4.743,-2.204 2.073,0 3.71,0.699 4.906,2.099 1.2,1.399 1.798,3.358 1.798,5.876 0,2.587 -0.583,4.587 -1.743,5.996 C 3.647,-0.705 2.042,0 0,0 m -0.166,-19.229 c -3.121,0 -5.62,1.013 -7.499,3.037 -1.876,2.024 -2.816,4.657 -2.816,7.9 0,3.484 0.958,6.263 2.871,8.337 1.912,2.074 4.507,3.112 7.791,3.112 3.04,0 5.487,-1.007 7.345,-3.021 1.858,-2.014 2.785,-4.647 2.785,-7.9 0,-3.535 -0.951,-6.329 -2.852,-8.383 -1.903,-2.054 -4.444,-3.082 -7.625,-3.082" /></g><g
           transform="translate(519.9105,89.7738)"
           id="g82"><path
             id="path84"
             style="fill:#606060;fill-opacity:1;fill-rule:nonzero;stroke:none"
             d="m 0,0 h -11.988 v 21.661 h 3.592 V 3.036 l 8.396,0 z" /></g><g
           transform="translate(532.1284,108.6398)"
           id="g86"><path
             id="path88"
             style="fill:#606060;fill-opacity:1;fill-rule:nonzero;stroke:none"
             d="m 0,0 c -1.985,0 -3.598,-0.74 -4.84,-2.221 -1.245,-1.48 -1.864,-3.428 -1.864,-5.845 0,-2.407 0.604,-4.345 1.81,-5.816 1.208,-1.47 2.788,-2.204 4.743,-2.204 2.073,0 3.71,0.699 4.906,2.099 1.2,1.399 1.798,3.358 1.798,5.876 0,2.587 -0.583,4.587 -1.743,5.996 C 3.647,-0.705 2.042,0 0,0 m -0.166,-19.229 c -3.121,0 -5.62,1.013 -7.499,3.037 -1.876,2.024 -2.816,4.657 -2.816,7.9 0,3.484 0.958,6.263 2.871,8.337 1.912,2.074 4.507,3.112 7.791,3.112 3.04,0 5.487,-1.007 7.345,-3.021 1.858,-2.014 2.785,-4.647 2.785,-7.9 0,-3.535 -0.951,-6.329 -2.852,-8.383 -1.903,-2.054 -4.444,-3.082 -7.625,-3.082" /></g><g
           transform="translate(563.3073,91.2542)"
           id="g90"><path
             id="path92"
             style="fill:#606060;fill-opacity:1;fill-rule:nonzero;stroke:none"
             d="m 0,0 c -2.254,-1.229 -4.767,-1.843 -7.535,-1.843 -3.199,0 -5.792,0.997 -7.777,2.991 -1.981,1.994 -2.972,4.632 -2.972,7.915 0,3.353 1.084,6.104 3.253,8.255 2.17,2.149 4.925,3.225 8.266,3.225 2.405,0 4.43,-0.353 6.07,-1.058 v -3.701 c -1.662,1.108 -3.637,1.662 -5.934,1.662 -2.305,0 -4.196,-0.761 -5.67,-2.281 -1.475,-1.52 -2.212,-3.489 -2.212,-5.906 0,-2.487 0.635,-4.443 1.903,-5.868 1.269,-1.425 2.988,-2.137 5.164,-2.137 1.489,0 2.779,0.287 3.867,0.861 v 5.15 h -4.562 v 3.021 H 0 Z" /></g><path
           id="path94"
           style="fill:#606060;fill-opacity:1;fill-rule:nonzero;stroke:none"
           d="m 571.658,89.774 h -3.698 v 21.661 h 3.698 z" /><g
           transform="translate(587.9363,98.2174)"
           id="g96"><path
             id="path98"
             style="fill:#606060;fill-opacity:1;fill-rule:nonzero;stroke:none"
             d="M 0,0 -3.006,8.64 C -3.097,8.922 -3.19,9.375 -3.293,9.999 H -3.354 C -3.444,9.425 -3.544,8.972 -3.656,8.64 L -6.629,0 Z M 6.84,-8.444 H 2.9 l -1.948,5.513 h -8.517 l -1.873,-5.513 h -3.925 l 8.109,21.661 h 4.046 z" /></g><g
           transform="translate(627.3058,95.2415)"
           id="g100"><path
             id="path102"
             style="fill:#606060;fill-opacity:1;fill-rule:nonzero;stroke:none"
             d="m 0,0 c -1.048,0 -1.949,0.368 -2.704,1.103 -0.755,0.735 -1.133,1.626 -1.133,2.674 0,1.037 0.378,1.935 1.133,2.696 0.755,0.76 1.656,1.14 2.704,1.14 1.045,0 1.937,-0.377 2.674,-1.132 C 3.408,5.725 3.773,4.823 3.773,3.777 3.773,2.729 3.408,1.838 2.674,1.103 1.937,0.368 1.045,0 0,0" /></g><g
           transform="translate(668.5499,90.6802)"
           id="g104"><path
             id="path106"
             style="fill:#606060;fill-opacity:1;fill-rule:nonzero;stroke:none"
             d="m 0,0 c -1.63,-0.846 -3.659,-1.269 -6.085,-1.269 -3.14,0 -5.657,0.992 -7.55,2.976 -1.893,1.983 -2.838,4.586 -2.838,7.809 0,3.464 1.063,6.263 3.193,8.398 2.129,2.135 4.819,3.203 8.071,3.203 2.094,0 3.83,-0.298 5.209,-0.891 v -3.565 c -1.459,0.866 -3.07,1.299 -4.831,1.299 -2.346,0 -4.246,-0.75 -5.701,-2.251 -1.455,-1.5 -2.181,-3.504 -2.181,-6.012 0,-2.386 0.678,-4.288 2.038,-5.702 1.359,-1.415 3.146,-2.122 5.361,-2.122 2.042,0 3.814,0.484 5.314,1.45 z" /></g><g
           transform="translate(681.7481,108.6398)"
           id="g108"><path
             id="path110"
             style="fill:#606060;fill-opacity:1;fill-rule:nonzero;stroke:none"
             d="m 0,0 c -1.983,0 -3.597,-0.74 -4.84,-2.221 -1.243,-1.48 -1.864,-3.428 -1.864,-5.845 0,-2.407 0.604,-4.345 1.811,-5.816 1.209,-1.47 2.789,-2.204 4.742,-2.204 2.074,0 3.71,0.699 4.908,2.099 1.198,1.399 1.796,3.358 1.796,5.876 0,2.587 -0.582,4.587 -1.743,5.996 C 3.647,-0.705 2.044,0 0,0 m -0.166,-19.229 c -3.121,0 -5.62,1.013 -7.497,3.037 -1.878,2.024 -2.816,4.657 -2.816,7.9 0,3.484 0.956,6.263 2.869,8.337 1.912,2.074 4.509,3.112 7.791,3.112 3.04,0 5.488,-1.007 7.346,-3.021 1.857,-2.014 2.786,-4.647 2.786,-7.9 0,-3.535 -0.952,-6.329 -2.854,-8.383 -1.903,-2.054 -4.444,-3.082 -7.625,-3.082" /></g><g
           transform="translate(714.3939,89.7738)"
           id="g112"><path
             id="path114"
             style="fill:#606060;fill-opacity:1;fill-rule:nonzero;stroke:none"
             d="m 0,0 h -3.926 l -10.343,15.92 c -0.262,0.403 -0.478,0.821 -0.65,1.254 h -0.09 c 0.081,-0.463 0.12,-1.455 0.12,-2.975 V 0 h -3.473 v 21.661 h 4.183 L -4.181,6.117 C -3.76,5.473 -3.488,5.03 -3.367,4.788 h 0.06 C -3.406,5.362 -3.458,6.334 -3.458,7.703 V 21.661 H 0 Z" /></g><g
           transform="translate(718.7581,90.6349)"
           id="g116"><path
             id="path118"
             style="fill:#606060;fill-opacity:1;fill-rule:nonzero;stroke:none"
             d="M 0,0 V 3.701 C 0.331,3.399 0.727,3.127 1.184,2.885 1.642,2.644 2.128,2.44 2.642,2.273 3.156,2.107 3.669,1.979 4.181,1.888 4.695,1.798 5.168,1.752 5.601,1.752 c 1.511,0 2.635,0.252 3.375,0.756 0.74,0.503 1.11,1.233 1.11,2.189 0,0.514 -0.124,0.959 -0.37,1.337 C 9.47,6.412 9.124,6.757 8.681,7.069 8.239,7.381 7.718,7.681 7.12,7.968 6.52,8.255 5.878,8.555 5.193,8.867 4.459,9.259 3.775,9.657 3.141,10.06 c -0.635,0.402 -1.186,0.848 -1.655,1.337 -0.468,0.488 -0.835,1.039 -1.102,1.654 -0.266,0.614 -0.399,1.334 -0.399,2.159 0,1.018 0.228,1.901 0.686,2.651 0.459,0.75 1.062,1.37 1.812,1.858 0.75,0.488 1.603,0.851 2.559,1.088 0.957,0.237 1.934,0.355 2.929,0.355 2.266,0 3.917,-0.257 4.954,-0.77 v -3.55 C 11.697,17.728 10.117,18.171 8.183,18.171 7.65,18.171 7.12,18.121 6.591,18.02 6.062,17.92 5.589,17.753 5.171,17.522 4.754,17.29 4.414,16.993 4.151,16.63 3.89,16.268 3.76,15.83 3.76,15.316 c 0,-0.483 0.1,-0.901 0.3,-1.254 0.203,-0.352 0.497,-0.674 0.884,-0.966 0.388,-0.292 0.861,-0.577 1.42,-0.853 0.559,-0.277 1.206,-0.577 1.94,-0.899 0.755,-0.393 1.468,-0.806 2.137,-1.239 C 11.111,9.672 11.7,9.194 12.207,8.67 12.716,8.147 13.118,7.565 13.416,6.925 13.712,6.286 13.861,5.558 13.861,4.743 13.861,3.645 13.639,2.719 13.197,1.964 12.754,1.208 12.157,0.594 11.408,0.121 10.657,-0.353 9.795,-0.695 8.817,-0.906 7.842,-1.118 6.81,-1.224 5.722,-1.224 5.36,-1.224 4.914,-1.196 4.385,-1.141 3.858,-1.085 3.316,-1.005 2.763,-0.899 2.208,-0.793 1.686,-0.665 1.192,-0.514 0.699,-0.363 0.301,-0.192 0,0" /></g><g
           transform="translate(753.2468,98.5346)"
           id="g120"><path
             id="path122"
             style="fill:#606060;fill-opacity:1;fill-rule:nonzero;stroke:none"
             d="m 0,0 c 0,-6.082 -2.879,-9.123 -8.638,-9.123 -5.516,0 -8.275,2.925 -8.275,8.776 V 12.9 h 3.594 V 0.393 c 0,-4.25 1.651,-6.374 4.953,-6.374 3.182,0 4.772,2.049 4.772,6.147 V 12.9 L 0,12.9 Z" /></g><g
           transform="translate(770.3242,89.7738)"
           id="g124"><path
             id="path126"
             style="fill:#606060;fill-opacity:1;fill-rule:nonzero;stroke:none"
             d="m 0,0 h -11.99 v 21.661 h 3.594 V 3.036 l 8.396,0 z" /></g><g
           transform="translate(785.0541,108.383)"
           id="g128"><path
             id="path130"
             style="fill:#606060;fill-opacity:1;fill-rule:nonzero;stroke:none"
             d="M 0,0 H -6.222 V -18.609 H -9.816 V 0 h -6.206 V 3.051 H 0 Z" /></g><g
           transform="translate(796.7584,108.6398)"
           id="g132"><path
             id="path134"
             style="fill:#606060;fill-opacity:1;fill-rule:nonzero;stroke:none"
             d="m 0,0 c -1.983,0 -3.597,-0.74 -4.84,-2.221 -1.243,-1.48 -1.864,-3.428 -1.864,-5.845 0,-2.407 0.604,-4.345 1.811,-5.816 1.209,-1.47 2.789,-2.204 4.742,-2.204 2.074,0 3.71,0.699 4.908,2.099 1.198,1.399 1.796,3.358 1.796,5.876 0,2.587 -0.582,4.587 -1.743,5.996 C 3.647,-0.705 2.044,0 0,0 m -0.166,-19.229 c -3.121,0 -5.62,1.013 -7.497,3.037 -1.878,2.024 -2.816,4.657 -2.816,7.9 0,3.484 0.956,6.263 2.869,8.337 1.912,2.074 4.509,3.112 7.791,3.112 3.04,0 5.488,-1.007 7.346,-3.021 1.857,-2.014 2.786,-4.647 2.786,-7.9 0,-3.535 -0.952,-6.329 -2.854,-8.383 -1.903,-2.054 -4.444,-3.082 -7.625,-3.082" /></g><g
           transform="translate(814.6213,108.519)"
           id="g136"><path
             id="path138"
             style="fill:#606060;fill-opacity:1;fill-rule:nonzero;stroke:none"
             d="m 0,0 v -7.039 h 2.991 c 0.553,0 1.064,0.086 1.532,0.257 0.468,0.171 0.873,0.418 1.216,0.74 0.341,0.322 0.609,0.715 0.8,1.179 0.191,0.463 0.287,0.981 0.287,1.555 0,1.037 -0.327,1.848 -0.981,2.432 C 5.19,-0.292 4.249,0 3.021,0 Z M 13.153,-18.745 H 8.955 l -3.458,5.8 c -0.313,0.534 -0.616,0.989 -0.914,1.367 -0.297,0.378 -0.598,0.687 -0.906,0.929 -0.307,0.242 -0.641,0.418 -1.003,0.529 -0.363,0.111 -0.771,0.166 -1.224,0.166 H 0 v -8.791 h -3.579 v 21.66 h 7.127 c 1.017,0 1.954,-0.12 2.81,-0.362 0.855,-0.242 1.6,-0.607 2.234,-1.095 0.635,-0.489 1.13,-1.098 1.488,-1.828 0.357,-0.73 0.537,-1.584 0.537,-2.561 0,-0.765 -0.114,-1.467 -0.34,-2.106 C 10.05,-5.677 9.727,-6.246 9.31,-6.744 8.891,-7.243 8.388,-7.669 7.799,-8.021 7.21,-8.373 6.549,-8.645 5.814,-8.836 v -0.061 c 0.393,-0.221 0.735,-0.466 1.028,-0.732 0.291,-0.267 0.568,-0.542 0.829,-0.824 0.263,-0.281 0.521,-0.602 0.778,-0.959 0.257,-0.357 0.541,-0.773 0.853,-1.246 z" /></g><path
           id="path140"
           style="fill:#606060;fill-opacity:1;fill-rule:nonzero;stroke:none"
           d="m 833.98,89.774 h -3.699 v 21.661 h 3.699 z" /><g
           transform="translate(850.2581,98.2174)"
           id="g142"><path
             id="path144"
             style="fill:#606060;fill-opacity:1;fill-rule:nonzero;stroke:none"
             d="m 0,0 -3.005,8.64 c -0.09,0.282 -0.185,0.735 -0.287,1.359 h -0.06 C -3.443,9.425 -3.542,8.972 -3.654,8.64 L -6.629,0 Z M 6.842,-8.444 H 2.9 l -1.948,5.513 h -8.517 l -1.872,-5.513 h -3.926 l 8.109,21.661 h 4.047 z" /></g><g
           transform="translate(669.8834,166.2528)"
           id="g146"><path
             id="path148"
             style="fill:#606060;fill-opacity:1;fill-rule:nonzero;stroke:none"
             d="m 0,0 c -3.789,0 -7.379,-0.004 -10.969,0.001 -2.542,0.005 -3.168,0.634 -3.169,3.167 -0.002,2.511 -0.015,5.023 0.007,7.535 0.015,1.724 0.81,2.538 2.53,2.541 8.217,0.017 16.434,0.02 24.651,0.007 1.728,-0.002 2.549,-0.816 2.525,-2.555 -0.075,-5.478 0.289,-10.962 -0.242,-16.435 -0.894,-9.222 -6.939,-16.264 -16.755,-17.16 -8.963,-0.818 -17.951,-0.383 -26.922,-0.246 -4.326,0.067 -8.506,1.321 -11.969,4.206 -1.95,1.625 -3.456,3.584 -4.589,5.867 -1.602,3.23 -2.239,6.657 -2.255,10.211 -0.033,7.535 -0.149,15.074 0.03,22.605 0.162,6.822 2.555,12.684 8.507,16.616 2.704,1.786 5.816,2.694 8.956,2.962 8.345,0.715 16.728,0.356 25.089,0.239 4.785,-0.066 9.432,-1.182 13.331,-4.323 4.022,-3.241 5.962,-7.542 6.565,-12.552 0.049,-0.406 0.079,-0.814 0.121,-1.222 0.214,-2.112 -0.503,-2.934 -2.627,-2.943 -3.441,-0.015 -6.882,0.03 -10.322,-0.02 -1.391,-0.02 -2.136,0.504 -2.539,1.875 -1.042,3.549 -1.87,4.1 -5.59,4.1 -6.83,0 -13.661,-0.022 -20.491,0.007 -4.879,0.022 -5.238,-1.73 -5.356,-5.145 -0.259,-7.527 -0.266,-15.075 0.003,-22.6 0.121,-3.386 0.819,-5.053 5.399,-5.043 6.881,0.015 13.763,-10e-4 20.645,0.007 3.921,0.005 4.903,1.091 5.421,5.423 C 0.087,-2.023 0,-1.148 0,0" /></g><g
           transform="translate(385.5109,190.7287)"
           id="g150"><path
             id="path152"
             style="fill:#606060;fill-opacity:1;fill-rule:nonzero;stroke:none"
             d="m 0,0 v -18.395 c 0.24,-0.106 0.333,-0.183 0.426,-0.183 7.08,-0.061 14.166,-0.247 21.237,0.112 4.196,0.212 6.47,2.324 7.005,5.985 0.311,2.138 0.311,4.308 -0.01,6.433 -0.417,2.776 -1.772,4.885 -4.761,5.515 -1.349,0.285 -2.701,0.536 -4.089,0.535 C 13.803,-0.002 7.798,0 1.794,0 Z m 32.932,-31.718 c 3.145,-4.954 6.801,-9.374 9.623,-14.186 -0.326,-1.795 -1.651,-2.007 -2.832,-2.038 -3.592,-0.094 -7.19,-0.089 -10.783,-0.007 -1.966,0.044 -3.392,1.001 -4.445,2.779 -2.287,3.861 -4.617,7.704 -7.199,11.384 -0.056,0.08 -0.153,0.133 -0.283,0.242 H 0.214 c -0.502,-0.664 -0.348,-1.351 -0.352,-1.998 -0.02,-3.075 0.028,-6.151 -0.032,-9.226 -0.042,-2.209 -0.577,-3.003 -2.739,-3.11 -3.473,-0.173 -6.975,-0.369 -10.441,0.123 -1.801,0.256 -2.234,0.849 -2.315,2.644 -0.044,0.972 -0.023,1.947 -0.023,2.921 -0.002,17.683 -10e-4,35.366 -10e-4,53.049 0,0.564 -0.016,1.129 0.022,1.691 0.121,1.76 0.947,2.535 2.748,2.604 0.359,0.014 0.719,0.003 1.079,0.003 9.808,0 19.616,-0.038 29.424,0.017 4.227,0.024 8.368,-0.457 12.447,-1.533 7.842,-2.069 12.408,-7.291 13.968,-15.047 1.178,-5.853 1.123,-11.794 -0.376,-17.62 -1.492,-5.796 -4.797,-10.19 -10.691,-12.692" /></g><g
           transform="translate(579.2471,190.7287)"
           id="g154"><path
             id="path156"
             style="fill:#606060;fill-opacity:1;fill-rule:nonzero;stroke:none"
             d="m 0,0 v -9.226 c 0.705,-0.465 1.392,-0.327 2.045,-0.328 6.113,-0.011 12.225,-10e-4 18.337,-0.009 2.853,-0.003 3.236,-0.389 3.237,-3.17 0.002,-2.512 -0.02,-5.024 0.012,-7.536 0.01,-0.858 -0.153,-1.618 -0.971,-2.575 -7.306,-0.483 -14.892,0 -22.609,-0.264 v -9.457 c 0.693,-0.34 1.37,-0.202 2.023,-0.203 10.683,-0.01 21.367,-0.006 32.051,-0.007 2.578,-0.001 3.326,-0.722 3.336,-3.25 0.012,-2.871 0.02,-5.742 -0.002,-8.613 -0.017,-2.214 -0.885,-3.095 -3.064,-3.097 -15.615,-0.009 -31.229,-0.012 -46.844,-0.003 -2.507,0.002 -3.258,0.805 -3.258,3.354 -10e-4,18.713 -10e-4,37.425 0,56.137 0,2.55 0.835,3.399 3.416,3.4 15.46,0.007 30.921,0.006 46.381,10e-4 2.421,-10e-4 3.359,-0.932 3.371,-3.322 0.014,-2.871 0.014,-5.742 0,-8.613 C 37.449,0.913 36.521,0.004 34.171,0.003 23.436,-0.003 12.701,0 1.966,0 Z" /></g><g
           transform="translate(167.0494,190.5112)"
           id="g158"><path
             id="path160"
             style="fill:#606060;fill-opacity:1;fill-rule:nonzero;stroke:none"
             d="m 0,0 v -9.011 c 0.703,-0.453 1.388,-0.325 2.044,-0.326 6.164,-0.01 12.327,0 18.491,-0.009 2.802,-0.004 3.186,-0.404 3.187,-3.208 10e-4,-2.563 0.015,-5.127 -0.007,-7.69 -0.015,-1.76 -0.471,-2.289 -2.232,-2.452 -1.275,-0.118 -2.563,-0.119 -3.845,-0.122 -5.799,-0.011 -11.598,-0.005 -17.565,-0.005 v -9.528 c 0.634,-0.35 1.313,-0.198 1.963,-0.199 10.735,-0.01 21.47,-0.006 32.206,-0.008 2.475,0 3.291,-0.821 3.299,-3.332 0.008,-2.87 0.013,-5.742 -0.002,-8.612 -0.01,-2.085 -0.915,-3.013 -2.995,-3.014 -15.718,-0.01 -31.435,-0.011 -47.153,-0.002 -2.174,10e-4 -3.035,0.89 -3.035,3.088 -0.004,18.815 -0.004,37.63 -10e-4,56.446 10e-4,2.386 0.953,3.354 3.335,3.355 15.512,0.007 31.024,0.007 46.537,-0.001 2.365,-10e-4 3.309,-0.99 3.315,-3.394 C 37.548,9.105 37.553,6.234 37.541,3.363 37.531,1.154 36.579,0.22 34.337,0.219 23.551,0.215 12.764,0.22 1.977,0.212 1.373,0.211 0.75,0.33 0,0" /></g><g
           transform="translate(782.8821,166.9775)"
           id="g162"><path
             id="path164"
             style="fill:#606060;fill-opacity:1;fill-rule:nonzero;stroke:none"
             d="m 0,0 c 0.411,-6.709 -0.57,-13.004 -5.294,-18.164 -3.068,-3.351 -7.044,-5.029 -11.522,-5.457 -8.654,-0.828 -17.336,-0.379 -25.999,-0.267 -4.358,0.056 -8.614,1.245 -12.115,4.201 -4.091,3.455 -6.324,7.932 -6.652,13.174 -0.568,9.104 -0.568,18.233 -0.018,27.339 0.51,8.422 5.692,15.452 14.55,17.281 2.374,0.49 4.727,0.803 7.136,0.802 6.164,-0.003 12.327,0.043 18.49,-0.015 4.722,-0.045 9.255,-0.93 13.284,-3.574 4.127,-2.707 6.309,-6.701 7.501,-11.357 0.563,-2.198 0.758,-4.42 0.707,-6.676 -0.038,-1.666 -0.564,-2.551 -2.165,-2.607 -3.844,-0.134 -7.696,-0.07 -11.543,-10e-4 -0.608,0.011 -1.352,0.135 -1.871,0.886 -0.172,1.429 -0.027,3.013 -0.318,4.581 -0.433,2.334 -1.523,3.563 -3.85,3.581 -7.498,0.058 -14.997,0.061 -22.496,0.001 -2.622,-0.021 -4.072,-1.966 -4.083,-5.276 -0.024,-7.125 -0.006,-14.251 -0.01,-21.376 -10e-4,-0.821 0.077,-1.617 0.259,-2.428 0.575,-2.551 1.585,-3.613 4.164,-3.639 7.293,-0.074 14.587,-0.077 21.879,-0.006 2.62,0.026 3.682,1.207 4.142,3.819 0.225,1.276 0.226,2.543 0.254,3.821 0.028,1.309 0.747,2.15 2.047,2.166 3.903,0.048 7.807,0.015 11.71,0.023 C -1.082,0.834 -0.581,0.418 0,0" /></g><g
           transform="translate(480.7554,165.4496)"
           id="g166"><path
             id="path168"
             style="fill:#606060;fill-opacity:1;fill-rule:nonzero;stroke:none"
             d="M 0,0 C -3.374,8.113 -6.666,16.026 -9.957,23.94 -10.081,23.92 -10.206,23.899 -10.33,23.879 -13.608,15.975 -16.887,8.071 -20.235,0 Z m 5.249,-12.807 h -30.777 c -0.948,-2.231 -1.952,-4.455 -2.84,-6.725 -0.829,-2.118 -1.947,-3.104 -4.176,-3.144 -3.491,-0.062 -6.985,-0.073 -10.475,10e-4 -2.821,0.059 -3.567,1.359 -2.428,3.869 3.315,7.301 6.576,14.625 9.911,21.916 4.053,8.863 8.167,17.698 12.241,26.551 1.281,2.784 2.559,5.57 3.764,8.386 0.717,1.676 1.909,2.414 3.707,2.398 3.748,-0.032 7.498,-0.051 11.246,0.006 1.89,0.029 3.095,-0.831 3.838,-2.477 4.41,-9.77 8.802,-19.548 13.232,-29.309 2.362,-5.205 4.791,-10.378 7.182,-15.57 1.858,-4.034 3.731,-8.061 5.544,-12.116 0.959,-2.145 0.495,-3.327 -1.732,-3.499 -4.126,-0.318 -8.282,-0.419 -12.416,0.077 -1.555,0.186 -2.38,1.182 -2.922,2.584 -0.899,2.331 -1.896,4.625 -2.899,7.052" /></g><g
           transform="translate(820.1193,189.2873)"
           id="g170"><path
             id="path172"
             style="fill:#606060;fill-opacity:1;fill-rule:nonzero;stroke:none"
             d="M 0,0 C -0.136,0.029 -0.272,0.059 -0.408,0.088 -3.695,-7.841 -6.982,-15.77 -10.335,-23.857 H 9.901 C 6.546,-15.774 3.273,-7.887 0,0 m 15.243,-36.676 h -30.876 c -0.977,-2.256 -2,-4.472 -2.899,-6.736 -0.885,-2.228 -1.823,-3.06 -4.188,-3.103 -3.439,-0.062 -6.881,-0.023 -10.322,-0.011 -0.349,0.001 -0.703,0.1 -1.047,0.182 -2.08,0.499 -2.529,1.355 -1.648,3.306 1.533,3.396 3.119,6.767 4.663,10.159 3.531,7.76 7.054,15.525 10.574,23.29 2.698,5.953 5.331,11.936 8.113,17.85 0.955,2.031 1.823,4.101 2.821,6.109 0.701,1.409 1.805,2.264 3.518,2.242 3.697,-0.047 7.397,-0.09 11.091,0.015 2.166,0.062 3.427,-0.874 4.264,-2.783 1.559,-3.552 3.224,-7.057 4.831,-10.587 3.086,-6.779 6.159,-13.564 9.243,-20.344 3.786,-8.322 7.577,-16.642 11.366,-24.962 0.063,-0.14 0.124,-0.281 0.186,-0.421 1.233,-2.801 0.43,-4.038 -2.672,-4.057 -3.235,-0.02 -6.47,-0.018 -9.706,-10e-4 -2.609,0.014 -3.937,0.863 -4.705,3.312 -0.691,2.207 -2.001,4.136 -2.607,6.54" /></g><g
           transform="translate(536.755,190.7286)"
           id="g174"><path
             id="path176"
             style="fill:#606060;fill-opacity:1;fill-rule:nonzero;stroke:none"
             d="m 0,0 v -46.419 c -1.179,-1.163 -2.338,-1.56 -3.678,-1.553 -2.773,0.014 -5.551,-0.094 -8.319,0.023 -3.399,0.142 -3.803,1.413 -3.79,3.751 0.079,14.096 0.039,28.192 0.039,42.287 0,0.557 0,1.113 0,1.597 -0.61,0.474 -1.195,0.304 -1.737,0.305 -5.033,0.015 -10.066,0.004 -15.099,0.012 -2.082,0.003 -2.877,0.784 -2.894,2.87 -0.022,2.871 -0.012,5.741 -0.012,8.611 0.001,2.844 0.815,3.671 3.643,3.671 14.79,0.003 29.581,0.002 44.371,0.001 1.386,0 2.773,0.017 4.159,-0.023 2.301,-0.066 3.135,-0.931 3.134,-3.178 C 19.815,8.879 19.814,5.804 19.813,2.728 19.813,0.885 18.964,0.007 17.124,0.004 12.142,-0.006 7.161,0 2.179,0 1.572,0 0.965,0 0,0" /></g><g
           transform="translate(326.7373,190.7287)"
           id="g178"><path
             id="path180"
             style="fill:#606060;fill-opacity:1;fill-rule:nonzero;stroke:none"
             d="m 0,0 c -0.563,0 -1.122,0 -1.681,0 -5.086,0 -10.171,-0.01 -15.257,0.004 -1.602,0.005 -2.424,0.752 -2.44,2.301 -0.037,3.486 -0.026,6.973 -0.001,10.459 0.01,1.374 0.74,2.179 2.13,2.312 0.612,0.059 1.23,0.077 1.846,0.077 15.872,0.004 31.745,0.004 47.617,0.003 2.716,0 3.457,-0.74 3.461,-3.473 C 35.68,8.709 35.693,5.735 35.662,2.762 35.641,0.712 34.897,0.004 32.861,0.002 27.878,-0.003 22.895,0 17.913,0 17.357,0 16.802,0 16.324,0 15.8,-0.8 15.984,-1.538 15.983,-2.234 15.971,-16.18 15.975,-30.125 15.974,-44.071 c -10e-4,-3.027 -0.877,-3.889 -3.973,-3.901 -2.62,-0.009 -5.24,0.015 -7.859,-0.013 -0.788,-0.009 -1.534,0.147 -2.26,0.388 -0.95,0.315 -1.569,0.933 -1.557,2.022 0.006,0.614 -0.033,1.229 -0.033,1.844 -0.003,13.843 0,27.686 -0.009,41.529 C 0.282,-1.548 0.411,-0.872 0,0" /></g><g
           transform="translate(711.0461,174.3974)"
           id="g182"><path
             id="path184"
             style="fill:#606060;fill-opacity:1;fill-rule:nonzero;stroke:none"
             d="m 0,0 c 0,-9.383 0.002,-18.766 -0.001,-28.149 -0.001,-2.481 -0.928,-3.454 -3.417,-3.485 -2.825,-0.036 -5.651,-0.039 -8.476,0.001 -2.775,0.039 -3.581,0.85 -3.584,3.587 -0.014,18.715 -0.019,37.429 -0.015,56.144 10e-4,2.643 0.767,3.381 3.412,3.388 3.03,0.008 6.061,0.016 9.092,-0.002 2.038,-0.013 2.983,-0.971 2.985,-3.028 C 0.005,18.971 0,9.485 0,0" /></g><g
           transform="translate(602.0817,221.0061)"
           id="g186"><path
             id="path188"
             style="fill:#606060;fill-opacity:1;fill-rule:nonzero;stroke:none"
             d="m 0,0 c 0.236,-0.985 0.13,-1.73 -0.395,-2.459 -1.429,-1.986 -2.87,-3.968 -4.188,-6.027 -0.922,-1.441 -2.132,-2.098 -3.811,-2.073 -2.051,0.032 -4.103,-0.008 -6.154,0.012 -1.671,0.016 -1.887,0.184 -2.679,1.951 0.704,2.268 1.361,4.672 2.209,7.007 0.547,1.504 1.717,2.308 3.44,2.277 C -8.502,0.633 -5.424,0.669 -2.347,0.676 -1.509,0.678 -0.732,0.513 0,0" /></g><g
           transform="translate(246.0268,157.6181)"
           id="g190"><path
             id="path192"
             style="fill:#ef8224;fill-opacity:1;fill-rule:nonzero;stroke:none"
             d="m 0,0 c 0,-1.377 -0.525,-2.754 -1.576,-3.804 l -0.289,-0.289 h -12.988 c -1.486,0 -2.831,-0.602 -3.804,-1.576 l 9.473,9.474 c 2.101,2.1 5.507,2.1 7.608,0 C -0.525,2.754 0,1.377 0,0" /></g><g
           transform="translate(303.2011,142.7649)"
           id="g194"><path
             id="path196"
             style="fill:#f39324;fill-opacity:1;fill-rule:nonzero;stroke:none"
             d="m 0,0 h -72.028 c -0.043,0 -0.086,0.001 -0.129,0.002 -0.043,0 -0.086,0.002 -0.129,0.004 -0.043,0.003 -0.086,0.005 -0.128,0.008 -0.036,0.003 -0.07,0.005 -0.105,0.009 -0.011,0 -0.021,0.001 -0.032,0.002 -0.041,0.004 -0.081,0.009 -0.12,0.014 -0.03,0.003 -0.058,0.007 -0.086,0.011 -0.015,10e-4 -0.029,0.004 -0.043,0.005 -0.009,0.002 -0.018,0.003 -0.028,0.005 -0.004,0.001 -0.01,0.002 -0.015,0.002 -0.028,0.004 -0.056,0.009 -0.085,0.014 -0.085,0.014 -0.169,0.031 -0.254,0.049 -0.037,0.008 -0.074,0.016 -0.111,0.026 -0.01,0.001 -0.021,0.004 -0.031,0.007 -0.031,0.008 -0.061,0.015 -0.091,0.023 -0.012,0.003 -0.025,0.006 -0.037,0.01 -0.035,0.01 -0.072,0.02 -0.107,0.031 -0.078,0.023 -0.155,0.048 -0.233,0.074 -0.014,0.005 -0.028,0.01 -0.042,0.016 -0.03,0.01 -0.059,0.02 -0.088,0.032 -0.019,0.006 -0.038,0.013 -0.057,0.021 -0.012,0.004 -0.025,0.01 -0.038,0.015 -0.029,0.011 -0.057,0.023 -0.086,0.035 -0.028,0.012 -0.056,0.024 -0.083,0.036 -0.005,0.002 -0.01,0.004 -0.014,0.006 -0.027,0.012 -0.053,0.024 -0.079,0.035 -0.034,0.016 -0.067,0.031 -0.099,0.047 -0.033,0.016 -0.066,0.033 -0.099,0.05 -0.038,0.019 -0.077,0.04 -0.115,0.06 -0.044,0.024 -0.087,0.048 -0.13,0.074 -0.025,0.014 -0.051,0.029 -0.075,0.043 -0.002,0.002 -0.003,0.003 -0.005,0.003 -0.004,0.003 -0.007,0.005 -0.011,0.007 -0.038,0.024 -0.076,0.048 -0.114,0.071 -0.036,0.023 -0.07,0.046 -0.104,0.069 -0.065,0.043 -0.128,0.088 -0.191,0.134 -0.032,0.024 -0.063,0.048 -0.094,0.072 -0.03,0.023 -0.059,0.046 -0.089,0.07 -0.022,0.018 -0.045,0.037 -0.067,0.055 -0.026,0.021 -0.051,0.043 -0.076,0.065 -0.016,0.014 -0.033,0.028 -0.048,0.043 -0.017,0.014 -0.033,0.028 -0.048,0.042 -0.128,0.116 -0.25,0.239 -0.366,0.366 -0.014,0.015 -0.028,0.031 -0.042,0.048 -0.015,0.016 -0.03,0.032 -0.043,0.048 -0.022,0.025 -0.044,0.051 -0.065,0.076 -0.032,0.039 -0.063,0.078 -0.094,0.116 -10e-4,10e-4 -0.002,0.003 -0.002,0.004 -0.031,0.038 -0.061,0.078 -0.091,0.117 -0.02,0.028 -0.041,0.056 -0.061,0.085 -0.025,0.034 -0.049,0.069 -0.073,0.104 -0.007,0.009 -0.013,0.019 -0.02,0.028 -0.016,0.025 -0.033,0.051 -0.049,0.077 -0.006,0.008 -0.011,0.017 -0.017,0.026 -0.02,0.031 -0.039,0.062 -0.058,0.094 -0.003,0.003 -0.004,0.006 -0.006,0.009 -0.02,0.033 -0.04,0.066 -0.059,0.1 -0.003,0.004 -0.005,0.009 -0.008,0.014 -0.02,0.035 -0.04,0.071 -0.06,0.107 -0.019,0.036 -0.039,0.073 -0.059,0.11 0,10e-4 0,0.002 -0.001,0.003 0,0.002 -0.002,0.004 -0.003,0.005 -0.004,0.007 -0.007,0.015 -0.011,0.022 -0.012,0.026 -0.024,0.051 -0.037,0.077 -0.006,0.011 -0.012,0.023 -0.017,0.034 -0.012,0.027 -0.025,0.053 -0.037,0.08 -0.005,0.01 -0.01,0.02 -0.014,0.031 -0.017,0.039 -0.035,0.077 -0.05,0.117 -0.008,0.016 -0.015,0.033 -0.022,0.05 -0.006,0.015 -0.011,0.03 -0.018,0.045 -0.001,0.002 -0.001,0.004 -0.002,0.006 -0.019,0.048 -0.038,0.097 -0.055,0.146 -0.01,0.025 -0.019,0.05 -0.027,0.076 -0.013,0.035 -0.025,0.07 -0.036,0.105 -0.013,0.042 -0.026,0.083 -0.038,0.125 -0.011,0.036 -0.021,0.07 -0.03,0.106 -0.004,0.015 -0.009,0.03 -0.012,0.046 -0.021,0.074 -0.039,0.149 -0.055,0.225 -0.001,0.001 -0.001,0.002 -0.001,0.003 -0.018,0.083 -0.034,0.168 -0.048,0.252 -0.007,0.033 -0.012,0.067 -0.017,0.101 -0.003,0.022 -0.006,0.044 -0.009,0.066 -0.004,0.029 -0.008,0.059 -0.011,0.089 -0.005,0.039 -0.01,0.079 -0.014,0.12 -10e-4,0.011 -0.002,0.023 -0.003,0.035 -0.003,0.034 -0.006,0.068 -0.008,0.102 -0.003,0.043 -0.005,0.085 -0.008,0.129 -0.002,0.043 -0.004,0.086 -0.005,0.129 0,0.042 -10e-4,0.084 -10e-4,0.127 V 5.38 c 0,0.043 10e-4,0.086 10e-4,0.129 0.001,0.043 0.003,0.086 0.005,0.129 0.002,0.043 0.005,0.086 0.008,0.129 0.002,0.037 0.006,0.074 0.009,0.111 0.001,0.008 0.001,0.015 0.002,0.023 0.004,0.041 0.009,0.082 0.014,0.123 0.003,0.031 0.007,0.061 0.011,0.092 0.002,0.012 0.004,0.024 0.005,0.036 0.001,0.007 0.002,0.014 0.003,0.021 0.006,0.036 0.011,0.071 0.018,0.107 0.007,0.042 0.014,0.085 0.023,0.128 0.007,0.041 0.016,0.084 0.026,0.127 0.007,0.037 0.016,0.074 0.026,0.111 0.001,0.009 0.004,0.019 0.007,0.028 0.008,0.037 0.017,0.073 0.027,0.108 0,0.003 0,0.005 0.002,0.007 0.011,0.042 0.023,0.082 0.035,0.123 0.012,0.041 0.025,0.083 0.038,0.124 0.012,0.038 0.025,0.077 0.039,0.116 0.005,0.012 0.009,0.026 0.013,0.038 0.011,0.031 0.022,0.062 0.034,0.093 0.013,0.034 0.026,0.067 0.04,0.101 0.021,0.052 0.042,0.104 0.065,0.155 0.002,0.005 0.004,0.009 0.006,0.013 0.012,0.026 0.023,0.053 0.035,0.08 0.006,0.011 0.011,0.022 0.016,0.033 0.013,0.026 0.025,0.053 0.038,0.079 0.017,0.033 0.033,0.067 0.05,0.1 0,10e-4 0.001,10e-4 0.001,0.002 0.014,0.028 0.029,0.056 0.044,0.084 0.005,0.008 0.01,0.018 0.015,0.027 0.013,0.024 0.026,0.048 0.041,0.072 0.025,0.045 0.051,0.09 0.078,0.134 0.003,0.005 0.006,0.01 0.009,0.015 0.021,0.035 0.042,0.069 0.064,0.103 0.005,0.008 0.01,0.015 0.015,0.023 0.015,0.022 0.029,0.045 0.043,0.067 0.007,0.009 0.013,0.019 0.02,0.028 0.024,0.035 0.048,0.07 0.073,0.104 0.02,0.029 0.041,0.057 0.061,0.085 0.037,0.049 0.075,0.098 0.113,0.146 0.025,0.03 0.049,0.06 0.074,0.09 0.021,0.026 0.043,0.052 0.065,0.077 0.013,0.016 0.028,0.032 0.043,0.048 0.014,0.017 0.028,0.032 0.042,0.048 0.058,0.064 0.118,0.126 0.179,0.187 0.972,0.974 2.318,1.576 3.803,1.576 h 58.176 L -3.629,1.41 C -2.597,0.466 -1.296,0 0,0" /></g><g
           transform="translate(225.8698,147.2449)"
           id="g198"><path
             id="path200"
             style="fill:#f39324;fill-opacity:1;fill-rule:nonzero;stroke:none"
             d="M 0,0 C 0.014,-0.084 0.03,-0.169 0.048,-0.252 0.03,-0.17 0.013,-0.085 0,0" /></g><g
           transform="translate(225.9187,146.9901)"
           id="g202"><path
             id="path204"
             style="fill:#f39324;fill-opacity:1;fill-rule:nonzero;stroke:none"
             d="M 0,0 C 0.017,-0.076 0.035,-0.151 0.055,-0.226 0.035,-0.152 0.016,-0.076 0,0" /></g><g
           transform="translate(230.0192,142.8896)"
           id="g206"><path
             id="path208"
             style="fill:#f39324;fill-opacity:1;fill-rule:nonzero;stroke:none"
             d="M 0,0 C 0.084,-0.018 0.169,-0.035 0.254,-0.049 0.168,-0.036 0.084,-0.019 0,0" /></g><g
           transform="translate(303.2027,142.7649)"
           id="g210"><path
             id="path212"
             style="fill:#f39324;fill-opacity:1;fill-rule:nonzero;stroke:none"
             d="M 0,0 0.408,0.016 C 0.273,0.006 0.137,0 0,0" /></g><g
           transform="translate(304.5544,142.9369)"
           id="g214"><path
             id="path216"
             style="fill:#f39324;fill-opacity:1;fill-rule:nonzero;stroke:none"
             d="M 0,0 C 0.177,0.046 0.352,0.101 0.525,0.165 0.353,0.1 0.179,0.046 0,0" /></g><g
           transform="translate(305.6519,143.3535)"
           id="g218"><path
             id="path220"
             style="fill:#f39324;fill-opacity:1;fill-rule:nonzero;stroke:none"
             d="M 0,0 0.358,0.201 C 0.241,0.129 0.122,0.062 0,0" /></g><g
           transform="translate(306.317,143.7575)"
           id="g222"><path
             id="path224"
             style="fill:#f39324;fill-opacity:1;fill-rule:nonzero;stroke:none"
             d="M 0,0 0.406,0.32 C 0.276,0.207 0.14,0.1 0,0" /></g><g
           transform="translate(308.2453,150.0215)"
           id="g226"><path
             id="path228"
             style="fill:#f39324;fill-opacity:1;fill-rule:nonzero;stroke:none"
             d="M 0,0 C 0.064,-0.17 0.119,-0.346 0.165,-0.525 0.119,-0.348 0.065,-0.173 0,0" /></g><g
           transform="translate(308.5822,148.1546)"
           id="g230"><path
             id="path232"
             style="fill:#de2029;fill-opacity:1;fill-rule:nonzero;stroke:none"
             d="m 0,0 c 0,-0.044 0,-0.088 -0.002,-0.133 0,-0.017 0,-0.035 -0.001,-0.053 0,-0.01 -0.001,-0.02 -0.001,-0.03 -0.002,-0.056 -0.005,-0.112 -0.009,-0.167 -0.002,-0.035 -0.005,-0.07 -0.008,-0.105 0,-0.006 -10e-4,-0.012 -0.002,-0.018 -0.002,-0.027 -0.005,-0.055 -0.008,-0.083 -0.004,-0.034 -0.008,-0.067 -0.012,-0.101 0,-0.003 0,-0.005 0,-0.007 -0.006,-0.044 -0.012,-0.088 -0.019,-0.131 -0.003,-0.02 -0.006,-0.04 -0.01,-0.06 -0.005,-0.03 -0.01,-0.061 -0.016,-0.092 -0.004,-0.025 -0.008,-0.05 -0.014,-0.075 -0.005,-0.024 -0.009,-0.049 -0.015,-0.073 v -0.001 c -0.006,-0.032 -0.013,-0.064 -0.021,-0.096 -0.01,-0.043 -0.02,-0.086 -0.032,-0.128 -0.034,-0.135 -0.074,-0.269 -0.12,-0.402 -0.011,-0.035 -0.024,-0.07 -0.037,-0.105 -0.015,-0.041 -0.03,-0.082 -0.046,-0.122 0,-0.002 -0.001,-0.003 -0.002,-0.005 -0.016,-0.039 -0.031,-0.078 -0.048,-0.117 -0.015,-0.036 -0.031,-0.071 -0.046,-0.107 -0.038,-0.083 -0.077,-0.166 -0.12,-0.248 -0.033,-0.065 -0.067,-0.129 -0.103,-0.192 -0.005,-0.008 -0.009,-0.017 -0.014,-0.025 -0.066,-0.117 -0.138,-0.232 -0.216,-0.346 -0.019,-0.029 -0.04,-0.058 -0.06,-0.088 -0.011,-0.016 -0.024,-0.033 -0.036,-0.05 -0.007,-0.009 -0.014,-0.019 -0.021,-0.028 -0.014,-0.019 -0.026,-0.036 -0.04,-0.053 C -1.13,-3.31 -1.184,-3.378 -1.239,-3.444 -1.266,-3.477 -1.294,-3.51 -1.323,-3.543 -1.352,-3.576 -1.381,-3.608 -1.41,-3.641 l -0.107,-0.114 c -0.03,-0.031 -0.06,-0.061 -0.091,-0.091 l -0.076,-0.073 c -0.023,-0.022 -0.045,-0.043 -0.069,-0.065 l -0.024,-0.021 c -0.026,-0.024 -0.053,-0.047 -0.08,-0.07 L -1.859,-4.078 -2.265,-4.397 C -2.3,-4.422 -2.335,-4.447 -2.372,-4.471 -2.407,-4.495 -2.444,-4.519 -2.48,-4.542 -2.509,-4.561 -2.539,-4.58 -2.569,-4.598 L -2.572,-4.6 -2.93,-4.801 -2.945,-4.809 c -0.028,-0.014 -0.056,-0.028 -0.086,-0.043 l -0.016,-0.008 -0.188,-0.085 -0.022,-0.01 c -0.04,-0.017 -0.078,-0.032 -0.118,-0.048 -0.042,-0.018 -0.086,-0.034 -0.128,-0.05 -0.173,-0.064 -0.348,-0.119 -0.525,-0.165 l -0.104,-0.026 c -0.043,-0.01 -0.086,-0.02 -0.129,-0.029 -0.04,-0.008 -0.079,-0.016 -0.118,-0.024 -0.039,-0.007 -0.078,-0.014 -0.118,-0.02 -0.034,-0.006 -0.067,-0.011 -0.101,-0.016 -0.052,-0.007 -0.103,-0.014 -0.154,-0.02 -0.033,-0.004 -0.067,-0.008 -0.1,-0.011 -0.04,-0.004 -0.08,-0.007 -0.12,-0.01 L -5.38,-5.39 h -0.001 c -1.296,0 -2.598,0.467 -3.63,1.41 l -10.222,9.35 -30.063,27.496 c 0.954,-0.861 2.219,-1.386 3.606,-1.386 2.971,0 5.38,2.409 5.38,5.38 0,1.569 -0.672,2.981 -1.744,3.964 L -1.763,3.973 -1.748,3.96 C -1.722,3.935 -1.694,3.91 -1.668,3.884 -1.642,3.86 -1.617,3.835 -1.591,3.81 -1.583,3.802 -1.575,3.794 -1.567,3.786 -1.541,3.76 -1.516,3.734 -1.49,3.707 -1.487,3.704 -1.484,3.701 -1.482,3.698 -1.457,3.671 -1.431,3.644 -1.406,3.617 -1.398,3.609 -1.391,3.601 -1.385,3.593 -1.36,3.566 -1.336,3.539 -1.312,3.511 -1.284,3.479 -1.256,3.446 -1.229,3.412 -1.201,3.379 -1.174,3.345 -1.147,3.311 -1.094,3.244 -1.042,3.175 -0.993,3.105 -0.967,3.069 -0.943,3.034 -0.918,2.998 -0.895,2.963 -0.871,2.926 -0.847,2.89 -0.825,2.854 -0.801,2.817 -0.779,2.78 -0.762,2.753 -0.746,2.726 -0.731,2.698 -0.722,2.683 -0.712,2.668 -0.705,2.653 -0.686,2.62 -0.667,2.588 -0.649,2.555 -0.629,2.517 -0.608,2.478 -0.589,2.44 -0.571,2.406 -0.555,2.373 -0.538,2.339 -0.492,2.245 -0.449,2.149 -0.409,2.052 -0.398,2.026 -0.388,2 -0.378,1.974 -0.364,1.939 -0.35,1.902 -0.337,1.867 -0.32,1.823 -0.305,1.78 -0.29,1.737 -0.26,1.65 -0.234,1.563 -0.208,1.475 -0.196,1.431 -0.184,1.386 -0.172,1.342 l 0.026,-0.104 c 0.01,-0.043 0.02,-0.086 0.029,-0.129 0.008,-0.04 0.016,-0.079 0.024,-0.118 0.007,-0.039 0.014,-0.078 0.02,-0.118 0.006,-0.033 0.011,-0.067 0.016,-0.101 0.007,-0.052 0.014,-0.103 0.021,-0.154 0.003,-0.033 0.007,-0.067 0.01,-0.1 0.004,-0.04 0.007,-0.08 0.01,-0.12 0.004,-0.047 0.007,-0.093 0.01,-0.141 0.001,-0.036 0.003,-0.073 0.004,-0.109 0,-0.009 0,-0.018 0,-0.026 C -0.001,0.081 0,0.041 0,0" /></g><g
           transform="translate(307.435,151.4661)"
           id="g234"><path
             id="path236"
             style="fill:#de2029;fill-opacity:1;fill-rule:nonzero;stroke:none"
             d="M 0,0 C 0.054,-0.068 0.106,-0.137 0.155,-0.207 0.105,-0.137 0.053,-0.068 0,0" /></g><g
           transform="translate(268.2722,185.0143)"
           id="g238"><path
             id="path240"
             style="fill:#c92427;fill-opacity:1;fill-rule:nonzero;stroke:none"
             d="m 0,0 c 0,-2.971 -2.409,-5.38 -5.38,-5.38 -1.387,0 -2.652,0.525 -3.606,1.387 -0.047,0.043 -0.094,0.087 -0.14,0.131 -0.03,0.03 -0.061,0.06 -0.09,0.091 -0.025,0.025 -0.049,0.05 -0.074,0.075 -0.022,0.023 -0.043,0.046 -0.065,0.07 -0.007,0.008 -0.014,0.015 -0.021,0.023 -0.024,0.026 -0.047,0.053 -0.07,0.08 -0.114,0.131 -0.221,0.268 -0.322,0.409 -0.025,0.035 -0.05,0.071 -0.074,0.106 -0.024,0.036 -0.047,0.072 -0.071,0.108 -0.023,0.037 -0.047,0.074 -0.069,0.111 -0.016,0.027 -0.032,0.053 -0.048,0.081 -0.053,0.09 -0.103,0.181 -0.15,0.274 -0.014,0.028 -0.028,0.057 -0.042,0.085 -0.036,0.075 -0.071,0.15 -0.104,0.227 -0.016,0.039 -0.032,0.078 -0.048,0.117 -0.017,0.043 -0.034,0.086 -0.05,0.129 -0.015,0.043 -0.031,0.087 -0.046,0.13 -0.029,0.087 -0.057,0.174 -0.082,0.261 -0.013,0.044 -0.025,0.089 -0.037,0.133 -0.029,0.113 -0.055,0.228 -0.077,0.344 0,0.002 -10e-4,0.005 -10e-4,0.008 -10e-4,0.003 -0.002,0.007 -0.002,0.011 -0.021,0.112 -0.039,0.227 -0.053,0.34 -0.009,0.081 -0.016,0.161 -0.023,0.241 -0.01,0.135 -0.016,0.271 -0.016,0.408 0,0.041 10e-4,0.082 0.002,0.123 0.001,0.028 0.002,0.056 0.002,0.084 0.003,0.056 0.005,0.112 0.01,0.167 10e-4,0.035 0.005,0.069 0.008,0.104 0,0.006 0.001,0.012 0.001,0.018 0.003,0.028 0.005,0.056 0.008,0.083 0.004,0.034 0.008,0.068 0.012,0.102 0,0.002 10e-4,0.005 10e-4,0.007 0.005,0.043 0.012,0.088 0.019,0.131 0.002,0.021 0.005,0.04 0.009,0.059 0.005,0.031 0.011,0.062 0.016,0.092 0.036,0.203 0.085,0.402 0.144,0.596 0.012,0.039 0.024,0.078 0.037,0.117 0.012,0.034 0.023,0.068 0.035,0.102 0.022,0.064 0.046,0.129 0.071,0.192 0.016,0.04 0.032,0.078 0.048,0.117 0.015,0.036 0.031,0.072 0.047,0.107 0.101,0.225 0.217,0.442 0.347,0.65 0.013,0.023 0.028,0.045 0.043,0.067 0.023,0.035 0.046,0.071 0.07,0.106 0.024,0.035 0.048,0.07 0.073,0.104 0.025,0.035 0.05,0.07 0.076,0.104 0.051,0.068 0.105,0.136 0.16,0.203 0.028,0.033 0.055,0.066 0.085,0.098 0.028,0.033 0.057,0.066 0.086,0.098 h 0.001 c 0.033,0.036 0.067,0.072 0.101,0.107 0.034,0.035 0.068,0.07 0.103,0.104 0.031,0.031 0.064,0.062 0.096,0.092 0.006,0.006 0.012,0.012 0.018,0.017 0.029,0.026 0.057,0.052 0.086,0.078 0.006,0.006 0.014,0.012 0.02,0.017 0.033,0.03 0.067,0.058 0.101,0.087 0.035,0.03 0.07,0.058 0.106,0.087 0.263,0.208 0.546,0.393 0.846,0.549 0.025,0.014 0.051,0.027 0.077,0.039 0.021,0.011 0.042,0.022 0.064,0.033 0.075,0.036 0.152,0.071 0.229,0.105 0.04,0.016 0.078,0.032 0.118,0.048 0.042,0.017 0.086,0.034 0.128,0.049 0.173,0.064 0.348,0.12 0.525,0.165 0.113,0.029 0.227,0.056 0.343,0.078 0.002,0 0.003,0 0.004,0 0.005,0.001 0.011,0.003 0.015,0.003 0.113,0.021 0.227,0.038 0.34,0.053 0.081,0.008 0.161,0.016 0.242,0.023 0.135,0.01 0.27,0.015 0.408,0.015 0.041,0 0.082,0 0.123,-0.001 0.027,-10e-4 0.056,-0.002 0.083,-0.003 0.056,-0.002 0.112,-0.004 0.168,-0.009 0.034,-0.002 0.069,-0.005 0.104,-0.008 0.005,0 0.012,-0.001 0.017,-0.002 0.029,-0.002 0.058,-0.005 0.087,-0.008 0.031,-0.003 0.062,-0.007 0.093,-0.011 0.005,0 0.01,-0.001 0.014,-0.002 0.041,-0.005 0.081,-0.01 0.121,-0.016 0.02,-0.004 0.039,-0.006 0.058,-0.01 0.034,-0.005 0.068,-0.011 0.102,-0.017 0.08,-0.015 0.16,-0.031 0.239,-0.05 0.035,-0.007 0.069,-0.016 0.102,-0.024 0.055,-0.013 0.108,-0.027 0.162,-0.043 0.07,-0.02 0.14,-0.042 0.21,-0.065 0.034,-0.011 0.068,-0.022 0.101,-0.034 0.065,-0.023 0.13,-0.046 0.193,-0.071 0.039,-0.016 0.078,-0.032 0.117,-0.049 0.029,-0.011 0.058,-0.024 0.087,-0.037 0.07,-0.031 0.14,-0.064 0.209,-0.098 0.03,-0.015 0.061,-0.031 0.092,-0.048 0.115,-0.06 0.229,-0.124 0.339,-0.192 0.033,-0.02 0.065,-0.04 0.097,-0.061 0.035,-0.023 0.07,-0.046 0.106,-0.07 0.035,-0.024 0.069,-0.048 0.104,-0.074 0.035,-0.024 0.07,-0.049 0.104,-0.075 C -2.08,4.25 -2.012,4.197 -1.946,4.142 -1.913,4.114 -1.879,4.086 -1.847,4.057 -1.812,4.027 -1.778,3.996 -1.744,3.965 -0.672,2.982 0,1.569 0,0" /></g><g
           transform="translate(257.5274,184.6064)"
           id="g242"><path
             id="path244"
             style="fill:#c92427;fill-opacity:1;fill-rule:nonzero;stroke:none"
             d="M 0,0 C 0.024,-0.318 0.076,-0.634 0.156,-0.944 0.077,-0.638 0.024,-0.324 0,0" /></g><g
           transform="translate(257.6837,183.6627)"
           id="g246"><path
             id="path248"
             style="fill:#c92427;fill-opacity:1;fill-rule:nonzero;stroke:none"
             d="M 0,0 C 0.046,-0.177 0.101,-0.352 0.165,-0.525 0.101,-0.354 0.046,-0.179 0,0" /></g><g
           transform="translate(258.9217,188.6453)"
           id="g250"><path
             id="path252"
             style="fill:#c92427;fill-opacity:1;fill-rule:nonzero;stroke:none"
             d="M 0,0 C 0.033,0.036 0.066,0.073 0.102,0.107 0.068,0.072 0.034,0.036 0.001,0 Z" /></g><g
           transform="translate(261.0157,190.0577)"
           id="g254"><path
             id="path256"
             style="fill:#c92427;fill-opacity:1;fill-rule:nonzero;stroke:none"
             d="M 0,0 C 0.171,0.065 0.346,0.119 0.525,0.165 0.348,0.119 0.173,0.064 0,0" /></g><g
           transform="translate(261.5404,190.2226)"
           id="g258"><path
             id="path260"
             style="fill:#c92427;fill-opacity:1;fill-rule:nonzero;stroke:none"
             d="M 0,0 C 0.305,0.08 0.62,0.133 0.944,0.156 0.626,0.133 0.31,0.08 0,0" /></g><g
           transform="translate(263.8624,190.307)"
           id="g262"><path
             id="path264"
             style="fill:#c92427;fill-opacity:1;fill-rule:nonzero;stroke:none"
             d="M 0,0 C 0.08,-0.015 0.16,-0.031 0.239,-0.05 0.16,-0.031 0.081,-0.014 0,0" /></g><g
           transform="translate(295.0656,196.8045)"
           id="g266"><path
             id="path268"
             style="fill:#299b48;fill-opacity:1;fill-rule:nonzero;stroke:none"
             d="m 0,0 -9.474,-9.473 c -2.1,-2.101 -5.507,-2.101 -7.608,0 -2.101,2.101 -2.101,5.507 0,7.609 l 0.289,0.288 h 12.988 c 1.486,0 2.831,0.602 3.805,1.576" /></g><g
           transform="translate(296.6413,200.6092)"
           id="g270"><path
             id="path272"
             style="fill:#54af54;fill-opacity:1;fill-rule:nonzero;stroke:none"
             d="m 0,0 -0.014,-0.387 c -0.003,-0.034 -0.005,-0.068 -0.008,-0.102 l -0.003,-0.036 c -0.004,-0.04 -0.009,-0.079 -0.014,-0.12 -0.003,-0.029 -0.007,-0.059 -0.011,-0.088 -0.003,-0.022 -0.006,-0.044 -0.009,-0.066 L -0.076,-0.9 c -0.014,-0.085 -0.03,-0.169 -0.048,-0.253 l -0.068,-0.274 c -0.009,-0.035 -0.019,-0.07 -0.03,-0.105 -0.023,-0.078 -0.048,-0.156 -0.074,-0.232 l -0.082,-0.22 C -0.391,-2.018 -0.405,-2.052 -0.419,-2.085 L -0.484,-2.234 C -0.496,-2.261 -0.509,-2.287 -0.522,-2.313 L -0.538,-2.347 C -0.551,-2.375 -0.565,-2.403 -0.579,-2.43 l -0.016,-0.033 c -0.018,-0.033 -0.036,-0.068 -0.054,-0.101 -0.02,-0.037 -0.04,-0.072 -0.06,-0.108 l -0.007,-0.013 c -0.018,-0.03 -0.035,-0.06 -0.053,-0.089 L -0.863,-2.925 C -0.878,-2.947 -0.892,-2.969 -0.907,-2.991 L -0.999,-3.124 C -1.019,-3.152 -1.04,-3.181 -1.06,-3.208 L -1.247,-3.445 C -1.268,-3.47 -1.29,-3.496 -1.312,-3.521 -1.34,-3.554 -1.369,-3.586 -1.397,-3.618 L -1.576,-3.805 C -2.549,-4.778 -3.895,-5.38 -5.38,-5.38 h -58.417 l -10.222,9.35 c -1.027,0.938 -2.319,1.405 -3.608,1.41 H -5.38 c 0.13,0 0.259,-0.005 0.387,-0.015 0.034,-0.002 0.068,-0.004 0.102,-0.008 0.012,0 0.024,-0.002 0.035,-0.003 0.041,-0.004 0.081,-0.008 0.12,-0.013 0.03,-0.003 0.059,-0.007 0.089,-0.011 0.022,-0.003 0.044,-0.007 0.066,-0.01 0.034,-0.004 0.068,-0.01 0.101,-0.016 0.084,-0.014 0.169,-0.03 0.252,-0.048 0.053,-0.011 0.105,-0.024 0.157,-0.037 0.025,-0.007 0.051,-0.013 0.076,-0.02 0.014,-0.003 0.028,-0.007 0.041,-0.011 0.036,-0.01 0.07,-0.02 0.106,-0.03 0.042,-0.013 0.083,-0.025 0.125,-0.039 0.035,-0.011 0.07,-0.023 0.105,-0.035 C -3.543,5.058 -3.469,5.031 -3.396,5.002 -3.362,4.988 -3.328,4.975 -3.295,4.96 -3.245,4.939 -3.196,4.918 -3.147,4.896 -3.12,4.883 -3.094,4.871 -3.067,4.858 -3.056,4.852 -3.044,4.847 -3.033,4.841 -3,4.826 -2.968,4.81 -2.934,4.793 -2.933,4.792 -2.931,4.791 -2.929,4.79 -2.891,4.77 -2.853,4.751 -2.816,4.73 -2.78,4.71 -2.744,4.691 -2.709,4.67 -2.704,4.668 -2.699,4.665 -2.695,4.662 -2.661,4.643 -2.628,4.624 -2.595,4.603 -2.592,4.602 -2.589,4.6 -2.586,4.598 -2.554,4.579 -2.523,4.559 -2.492,4.539 -2.483,4.534 -2.474,4.528 -2.466,4.523 -2.44,4.506 -2.414,4.489 -2.389,4.473 -2.345,4.442 -2.301,4.412 -2.257,4.381 -2.228,4.36 -2.2,4.34 -2.172,4.319 -2.092,4.259 -2.013,4.197 -1.935,4.132 -1.91,4.112 -1.884,4.089 -1.859,4.067 -1.827,4.04 -1.794,4.011 -1.763,3.982 -1.636,3.866 -1.513,3.745 -1.397,3.617 -1.369,3.585 -1.34,3.553 -1.312,3.521 -1.29,3.495 -1.268,3.469 -1.247,3.444 -1.183,3.367 -1.12,3.288 -1.06,3.207 -1.04,3.18 -1.019,3.151 -0.999,3.123 -0.967,3.079 -0.937,3.035 -0.907,2.99 -0.89,2.965 -0.873,2.939 -0.857,2.914 L -0.84,2.888 c 0.019,-0.032 0.039,-0.063 0.058,-0.094 0.002,-0.003 0.004,-0.006 0.006,-0.01 0.02,-0.033 0.04,-0.066 0.06,-0.1 0.002,-0.004 0.004,-0.008 0.007,-0.014 0.02,-0.035 0.041,-0.07 0.06,-0.106 0.02,-0.038 0.04,-0.075 0.06,-0.113 0.014,-0.029 0.029,-0.058 0.043,-0.087 0.012,-0.023 0.023,-0.047 0.034,-0.07 0.081,-0.172 0.154,-0.35 0.216,-0.532 C -0.283,1.726 -0.271,1.692 -0.26,1.656 -0.247,1.614 -0.234,1.573 -0.222,1.531 -0.211,1.494 -0.2,1.457 -0.19,1.419 -0.187,1.412 -0.185,1.404 -0.184,1.396 -0.175,1.364 -0.167,1.332 -0.159,1.299 -0.146,1.251 -0.135,1.203 -0.125,1.154 -0.112,1.094 -0.099,1.035 -0.088,0.975 V 0.974 c 0.011,-0.06 0.02,-0.12 0.03,-0.181 0.003,-0.019 0.005,-0.038 0.007,-0.058 0.005,-0.03 0.009,-0.06 0.012,-0.091 0.005,-0.04 0.01,-0.081 0.014,-0.122 C -0.024,0.513 -0.023,0.503 -0.023,0.494 -0.02,0.458 -0.017,0.423 -0.014,0.387 -0.005,0.259 0,0.13 0,0" /></g><g
           transform="translate(292.1613,205.9129)"
           id="g274"><path
             id="path276"
             style="fill:#54af54;fill-opacity:1;fill-rule:nonzero;stroke:none"
             d="M 0,0 C 0.085,-0.013 0.17,-0.03 0.253,-0.048 0.169,-0.03 0.084,-0.014 0,0" /></g><g
           transform="translate(296.5174,199.4564)"
           id="g278"><path
             id="path280"
             style="fill:#54af54;fill-opacity:1;fill-rule:nonzero;stroke:none"
             d="M 0,0 C 0.018,0.084 0.034,0.168 0.048,0.252 0.035,0.167 0.018,0.083 0,0" /></g><g
           transform="translate(253.0948,164.4959)"
           id="g282"><path
             id="path284"
             style="fill:#26a992;fill-opacity:1;fill-rule:nonzero;stroke:none"
             d="m 0,0 c 0,-1.557 0.661,-2.96 1.718,-3.942 l -39.453,36.085 c -2.192,2.006 -2.344,5.409 -0.338,7.601 0.967,1.057 2.259,1.639 3.583,1.734 0.089,0.006 0.18,0.011 0.27,0.013 0.047,0.002 0.093,0.002 0.139,0.002 1.29,-0.005 2.582,-0.471 3.608,-1.41 L -20.25,30.733 8.997,3.982 C 8.042,4.85 6.772,5.38 5.38,5.38 2.409,5.38 0,2.971 0,0" /></g><g
           transform="translate(218.6046,205.9737)"
           id="g286"><path
             id="path288"
             style="fill:#26a992;fill-opacity:1;fill-rule:nonzero;stroke:none"
             d="M 0,0 C 0.09,0.007 0.181,0.011 0.271,0.013 0.18,0.011 0.089,0.006 0,0" /></g><g
           transform="translate(263.8546,164.4959)"
           id="g290"><path
             id="path292"
             style="fill:#169480;fill-opacity:1;fill-rule:nonzero;stroke:none"
             d="m 0,0 c 0,-0.041 -0.001,-0.082 -0.002,-0.123 0,-0.017 0,-0.036 -0.001,-0.054 -0.003,-0.107 -0.01,-0.214 -0.02,-0.319 -0.002,-0.029 -0.005,-0.057 -0.009,-0.086 0,-0.004 0,-0.009 -0.001,-0.013 -0.002,-0.02 -0.004,-0.04 -0.006,-0.06 -0.009,-0.071 -0.019,-0.142 -0.031,-0.213 -0.006,-0.035 -0.011,-0.069 -0.018,-0.102 -0.009,-0.052 -0.019,-0.102 -0.03,-0.153 -0.007,-0.034 -0.014,-0.067 -0.022,-0.1 -0.008,-0.039 -0.019,-0.079 -0.029,-0.118 0,-0.003 -0.001,-0.006 -0.002,-0.009 -0.01,-0.039 -0.02,-0.077 -0.031,-0.115 -0.01,-0.037 -0.021,-0.074 -0.032,-0.111 -0.009,-0.029 -0.019,-0.056 -0.027,-0.084 -0.016,-0.05 -0.033,-0.1 -0.051,-0.148 -0.045,-0.127 -0.094,-0.251 -0.149,-0.373 -0.02,-0.047 -0.042,-0.095 -0.065,-0.14 -0.02,-0.044 -0.041,-0.086 -0.063,-0.129 -0.057,-0.113 -0.12,-0.223 -0.185,-0.331 -0.025,-0.043 -0.051,-0.085 -0.078,-0.126 -0.027,-0.042 -0.054,-0.083 -0.081,-0.123 -0.035,-0.05 -0.07,-0.1 -0.106,-0.149 -0.014,-0.018 -0.026,-0.035 -0.04,-0.053 C -1.156,-3.335 -1.237,-3.435 -1.323,-3.533 -1.354,-3.569 -1.386,-3.604 -1.418,-3.639 -1.906,-4.172 -2.502,-4.605 -3.17,-4.907 -3.194,-4.918 -3.218,-4.928 -3.243,-4.938 -3.249,-4.942 -3.255,-4.945 -3.261,-4.946 -3.299,-4.963 -3.337,-4.979 -3.375,-4.994 -3.417,-5.011 -3.461,-5.028 -3.503,-5.043 -3.546,-5.06 -3.589,-5.076 -3.633,-5.09 -3.699,-5.113 -3.764,-5.133 -3.83,-5.153 -3.863,-5.163 -3.895,-5.173 -3.929,-5.181 -3.962,-5.192 -3.995,-5.2 -4.028,-5.208 -4.056,-5.215 -4.085,-5.222 -4.113,-5.23 -4.202,-5.252 -4.291,-5.271 -4.381,-5.287 -4.419,-5.294 -4.458,-5.301 -4.497,-5.308 -4.534,-5.314 -4.571,-5.32 -4.608,-5.325 c -0.006,-10e-4 -0.012,-0.002 -0.02,-0.002 -0.033,-0.005 -0.066,-0.01 -0.099,-0.014 -0.006,-10e-4 -0.012,-10e-4 -0.018,-10e-4 -0.076,-0.01 -0.152,-0.017 -0.227,-0.023 -0.135,-0.01 -0.27,-0.015 -0.408,-0.015 -0.041,0 -0.082,0 -0.123,0.001 -0.02,0 -0.039,10e-4 -0.059,0.002 -0.133,0.004 -0.265,0.013 -0.395,0.027 -0.035,0.004 -0.069,0.008 -0.103,0.012 -0.082,0.011 -0.165,0.023 -0.246,0.037 -0.015,0.003 -0.03,0.005 -0.045,0.008 -0.042,0.008 -0.083,0.016 -0.125,0.025 -0.025,0.004 -0.049,0.01 -0.073,0.016 -0.025,0.005 -0.05,0.011 -0.076,0.017 -0.041,0.009 -0.083,0.02 -0.125,0.031 -0.028,0.007 -0.055,0.015 -0.083,0.023 -0.038,0.01 -0.075,0.021 -0.113,0.033 -0.038,0.012 -0.078,0.023 -0.116,0.037 -0.034,0.011 -0.068,0.022 -0.102,0.034 -0.03,0.011 -0.059,0.021 -0.089,0.032 -0.116,0.043 -0.229,0.089 -0.341,0.14 -0.052,0.023 -0.103,0.048 -0.154,0.073 -0.046,0.022 -0.092,0.046 -0.137,0.07 -0.019,0.01 -0.039,0.02 -0.059,0.031 -0.043,0.024 -0.086,0.047 -0.129,0.073 -0.053,0.03 -0.105,0.062 -0.157,0.094 -0.023,0.014 -0.045,0.028 -0.067,0.043 -0.036,0.023 -0.071,0.046 -0.107,0.07 -0.035,0.024 -0.069,0.048 -0.104,0.074 -0.035,0.024 -0.069,0.049 -0.103,0.075 -0.104,0.078 -0.204,0.16 -0.302,0.245 -0.034,0.03 -0.069,0.061 -0.103,0.092 -0.009,0.007 -0.017,0.015 -0.025,0.023 -1.058,0.982 -1.719,2.385 -1.719,3.942 0,2.971 2.409,5.38 5.38,5.38 1.392,0 2.662,-0.53 3.617,-1.398 0.191,-0.173 0.37,-0.36 0.534,-0.56 0.042,-0.05 0.082,-0.1 0.121,-0.152 0.04,-0.051 0.078,-0.103 0.115,-0.156 0.27,-0.379 0.492,-0.794 0.656,-1.238 0.065,-0.171 0.119,-0.345 0.165,-0.524 0.009,-0.035 0.017,-0.07 0.026,-0.105 C -0.135,1.205 -0.125,1.161 -0.117,1.118 -0.109,1.079 -0.101,1.04 -0.093,1 -0.086,0.961 -0.079,0.922 -0.073,0.883 -0.067,0.849 -0.062,0.815 -0.057,0.781 -0.049,0.73 -0.042,0.679 -0.036,0.627 -0.033,0.594 -0.029,0.56 -0.026,0.527 -0.022,0.488 -0.019,0.447 -0.016,0.408 -0.006,0.273 0,0.137 0,0" /></g></g></g></g></svg>