<?xml version="1.0" encoding="UTF-8" standalone="no"?>
<!-- Created with Inkscape (http://www.inkscape.org/) -->

<svg
   version="1.1"
   id="svg1"
   width="1011.9507"
   height="932.89203"
   viewBox="0 0 1011.9507 932.89203"
   sodipodi:docname="28bc43c4-761d-4609-b9e2-97632bfe6e67.pdf"
   xmlns:inkscape="http://www.inkscape.org/namespaces/inkscape"
   xmlns:sodipodi="http://sodipodi.sourceforge.net/DTD/sodipodi-0.dtd"
   xmlns="http://www.w3.org/2000/svg"
   xmlns:svg="http://www.w3.org/2000/svg">
  <defs
     id="defs1">
    <clipPath
       clipPathUnits="userSpaceOnUse"
       id="clipPath3">
      <path
         d="M 0,699.669 H 758.963 V 0 H 0 Z"
         transform="translate(-267.3493,-304.23241)"
         id="path3" />
    </clipPath>
    <clipPath
       clipPathUnits="userSpaceOnUse"
       id="clipPath5">
      <path
         d="M 0,699.669 H 758.963 V 0 H 0 Z"
         transform="translate(-318.47581,-173.4147)"
         id="path5" />
    </clipPath>
    <clipPath
       clipPathUnits="userSpaceOnUse"
       id="clipPath7">
      <path
         d="M 0,699.669 H 758.963 V 0 H 0 Z"
         transform="translate(-378.65141,-173.1604)"
         id="path7" />
    </clipPath>
    <clipPath
       clipPathUnits="userSpaceOnUse"
       id="clipPath9">
      <path
         d="M 0,699.669 H 758.963 V 0 H 0 Z"
         transform="translate(-429.12651,-165.591)"
         id="path9" />
    </clipPath>
    <clipPath
       clipPathUnits="userSpaceOnUse"
       id="clipPath11">
      <path
         d="M 0,699.669 H 758.963 V 0 H 0 Z"
         transform="translate(-487.17901,-183.7057)"
         id="path11" />
    </clipPath>
    <clipPath
       clipPathUnits="userSpaceOnUse"
       id="clipPath13">
      <path
         d="M 0,699.669 H 758.963 V 0 H 0 Z"
         id="path13" />
    </clipPath>
    <clipPath
       clipPathUnits="userSpaceOnUse"
       id="clipPath15">
      <path
         d="M 0,699.669 H 758.963 V 0 H 0 Z"
         transform="translate(-526.73081,-175.5646)"
         id="path15" />
    </clipPath>
    <clipPath
       clipPathUnits="userSpaceOnUse"
       id="clipPath17">
      <path
         d="M 0,699.669 H 758.963 V 0 H 0 Z"
         transform="translate(-574.04581,-194.37291)"
         id="path17" />
    </clipPath>
    <clipPath
       clipPathUnits="userSpaceOnUse"
       id="clipPath19">
      <path
         d="M 0,699.669 H 758.963 V 0 H 0 Z"
         transform="translate(-306.26411,-126.90861)"
         id="path19" />
    </clipPath>
    <clipPath
       clipPathUnits="userSpaceOnUse"
       id="clipPath21">
      <path
         d="M 0,699.669 H 758.963 V 0 H 0 Z"
         transform="translate(-373.11441,-120.2763)"
         id="path21" />
    </clipPath>
    <clipPath
       clipPathUnits="userSpaceOnUse"
       id="clipPath23">
      <path
         d="M 0,699.669 H 758.963 V 0 H 0 Z"
         transform="translate(-403.07061,-130.8024)"
         id="path23" />
    </clipPath>
    <clipPath
       clipPathUnits="userSpaceOnUse"
       id="clipPath25">
      <path
         d="M 0,699.669 H 758.963 V 0 H 0 Z"
         transform="translate(-450.76551,-120.0957)"
         id="path25" />
    </clipPath>
    <clipPath
       clipPathUnits="userSpaceOnUse"
       id="clipPath27">
      <path
         d="M 0,699.669 H 758.963 V 0 H 0 Z"
         transform="translate(-495.95041,-140.214)"
         id="path27" />
    </clipPath>
    <clipPath
       clipPathUnits="userSpaceOnUse"
       id="clipPath29">
      <path
         d="M 0,699.669 H 758.963 V 0 H 0 Z"
         transform="translate(-556.54241,-120.2763)"
         id="path29" />
    </clipPath>
    <clipPath
       clipPathUnits="userSpaceOnUse"
       id="clipPath31">
      <path
         d="M 0,699.669 H 758.963 V 0 H 0 Z"
         transform="translate(-586.69681,-133.00671)"
         id="path31" />
    </clipPath>
    <clipPath
       clipPathUnits="userSpaceOnUse"
       id="clipPath33">
      <path
         d="M 0,699.669 H 758.963 V 0 H 0 Z"
         transform="translate(-246.28771,-390.10191)"
         id="path33" />
    </clipPath>
    <clipPath
       clipPathUnits="userSpaceOnUse"
       id="clipPath35">
      <path
         d="M 0,699.669 H 758.963 V 0 H 0 Z"
         transform="translate(-462.14421,-264.1849)"
         id="path35" />
    </clipPath>
    <clipPath
       clipPathUnits="userSpaceOnUse"
       id="clipPath37">
      <path
         d="M 0,699.669 H 758.963 V 0 H 0 Z"
         transform="translate(-562.44431,-279.92511)"
         id="path37" />
    </clipPath>
  </defs>
  <sodipodi:namedview
     id="namedview1"
     pagecolor="#ffffff"
     bordercolor="#000000"
     borderopacity="0.25"
     inkscape:showpageshadow="2"
     inkscape:pageopacity="0.0"
     inkscape:pagecheckerboard="0"
     inkscape:deskcolor="#d1d1d1">
    <inkscape:page
       x="0"
       y="0"
       inkscape:label="1"
       id="page1"
       width="1011.9507"
       height="932.89203"
       margin="140.104 183.15334 176.784"
       bleed="0" />
  </sodipodi:namedview>
  <g
     id="g1"
     inkscape:groupmode="layer"
     inkscape:label="1">
    <g
       id="group-MC0">
      <path
         id="path2"
         d="m 0,0 -1.884,2.919 0.028,-3.474 0.01,-0.362 c 0.004,-0.116 0.008,-0.231 0.008,-0.348 0,-46.208 -37.593,-83.802 -83.8,-83.802 -13.871,0 -27.626,3.479 -39.779,10.06 l -2.506,1.36 -2.062,-12.971 1.319,-0.662 c 13.448,-6.754 27.924,-10.177 43.028,-10.177 48.122,0 89.122,35.951 95.37,83.625 l 0.058,0.438 -0.283,0.34 C 6.322,-9.248 3.213,-4.977 0,0"
         style="fill:#040606;fill-opacity:1;fill-rule:nonzero;stroke:none"
         transform="matrix(1.3333333,0,0,-1.3333333,356.46573,527.2488)"
         clip-path="url(#clipPath3)" />
      <path
         id="path4"
         d="M 0,0 H 16.713 C 14.342,-5.781 9.14,-8.712 1.253,-8.712 c -5.036,0 -9.139,1.194 -12.197,3.549 -3.059,2.354 -4.61,5.463 -4.61,9.24 0,3.935 1.801,7.169 5.353,9.616 3.062,2.107 6.915,3.176 11.454,3.176 5.79,0 10.607,-1.881 14.317,-5.59 l 0.068,-0.067 5.581,2.628 -0.129,0.137 c -5.024,5.345 -11.531,8.056 -19.341,8.056 -6.521,0 -11.982,-1.542 -16.231,-4.582 -4.843,-3.475 -7.298,-7.974 -7.298,-13.374 0,-5.492 2.422,-10.006 7.199,-13.418 4.215,-3.01 9.542,-4.536 15.834,-4.536 6.883,0 12.486,1.711 16.653,5.084 4.168,3.373 6.281,7.861 6.281,13.34 V 5.072 L 0,5.072 Z"
         style="fill:#040606;fill-opacity:1;fill-rule:nonzero;stroke:none"
         transform="matrix(1.3333333,0,0,-1.3333333,424.6344,701.6724)"
         clip-path="url(#clipPath5)" />
      <path
         id="path6"
         d="m 0,0 h -18.369 l 9.241,16.352 z m -12.937,21.212 -18.902,-33.649 -0.114,-0.204 h 6.539 l 4.14,7.57 H 2.905 l 4.139,-7.57 h 6.541 L -5.431,21.212 Z"
         style="fill:#040606;fill-opacity:1;fill-rule:nonzero;stroke:none"
         transform="matrix(1.3333333,0,0,-1.3333333,504.86853,702.01147)"
         clip-path="url(#clipPath7)" />
      <path
         id="path8"
         d="M 0,0 H -22.711 V 9.554 H 0.943 C 5.248,9.554 7.43,7.891 7.43,4.612 7.43,1.552 4.93,0 0,0 M 6.239,19.214 C 6.239,17.941 5.681,16.845 4.582,15.96 3.48,15.074 2.089,14.625 0.447,14.625 h -23.158 v 9.086 H 0.695 c 1.708,0 3.074,-0.411 4.06,-1.218 0.985,-0.807 1.484,-1.911 1.484,-3.279 m 1.184,-6.842 c 3.083,1.676 4.646,4.08 4.646,7.146 0,2.794 -1.053,5.061 -3.13,6.739 -2.077,1.675 -4.967,2.525 -8.591,2.525 H -28.689 V -5.071 h 28.64 c 9.028,0 13.606,2.991 13.606,8.89 0,4.367 -2.064,7.245 -6.134,8.553"
         style="fill:#040606;fill-opacity:1;fill-rule:nonzero;stroke:none"
         transform="matrix(1.3333333,0,0,-1.3333333,572.16867,712.104)"
         clip-path="url(#clipPath9)" />
      <path
         id="path10"
         d="m 0,0 c 0,-3.463 -2.316,-5.219 -6.884,-5.219 h -21.47 V 5.596 H -7.429 C -2.5,5.596 0,3.713 0,0 m 3.495,-6.922 c 1.747,1.739 2.632,4.068 2.632,6.923 0,3.259 -1.086,5.88 -3.229,7.79 -2.141,1.908 -5.132,2.876 -8.889,2.876 h -28.342 v -33.853 h 5.979 v 12.895 h 18.114 l 9.68,-12.841 0.04,-0.054 h 6.957 l -9.627,13.179 c 2.824,0.436 5.073,1.475 6.685,3.085"
         style="fill:#040606;fill-opacity:1;fill-rule:nonzero;stroke:none"
         transform="matrix(1.3333333,0,0,-1.3333333,649.572,687.95107)"
         clip-path="url(#clipPath11)" />
      <path
         id="path12"
         d="m 503.585,160.52 h 5.979 v 33.853 h -5.979 z"
         style="fill:#040606;fill-opacity:1;fill-rule:nonzero;stroke:none"
         transform="matrix(1.3333333,0,0,-1.3333333,0,932.892)"
         clip-path="url(#clipPath13)" />
      <path
         id="path14"
         d="M 0,0 H 21.036 V 5.071 H 0 v 8.666 h 30.264 v 5.071 H -5.979 v -33.853 h 37.633 v 5.071 L 0,-9.974 Z"
         style="fill:#040606;fill-opacity:1;fill-rule:nonzero;stroke:none"
         transform="matrix(1.3333333,0,0,-1.3333333,702.30773,698.80587)"
         clip-path="url(#clipPath15)" />
      <path
         id="path16"
         d="m 0,0 h -5.979 v -33.853 h 33.713 v 5.071 l -27.734,0 z"
         style="fill:#040606;fill-opacity:1;fill-rule:nonzero;stroke:none"
         transform="matrix(1.3333333,0,0,-1.3333333,765.3944,673.72813)"
         clip-path="url(#clipPath17)" />
      <path
         id="path18"
         d="m 0,0 v 6.098 h 20.778 c 1.316,0 2.34,-0.293 3.043,-0.869 0.646,-0.53 0.947,-1.208 0.947,-2.137 0,-0.843 -0.34,-1.493 -1.103,-2.108 C 22.853,0.331 21.803,0 20.545,0 Z m 25.887,-10.632 c 0,-0.851 0,-3.115 -5.762,-3.115 H 0 v 6.539 h 21.01 c 4.323,0 4.877,-1.83 4.877,-3.424 m 3.743,7.529 c 2.029,1.689 3.058,3.868 3.058,6.481 0,3.013 -1.142,5.463 -3.395,7.282 -2.175,1.755 -5.15,2.645 -8.841,2.645 H -8.059 v -34.258 h 28.137 c 9.296,0 14.009,3.222 14.009,9.575 0,3.833 -1.498,6.615 -4.457,8.275"
         style="fill:#040606;fill-opacity:1;fill-rule:nonzero;stroke:none"
         transform="matrix(1.3333333,0,0,-1.3333333,408.35213,763.68053)"
         clip-path="url(#clipPath19)" />
      <path
         id="path20"
         d="m 0,0 h -13.095 l 6.588,11.657 z m -2.312,19.938 h -8.483 l -19.015,-33.851 -0.23,-0.407 h 8.956 l 3.891,7.114 H 4.085 l 3.89,-7.114 h 8.957 L -2.234,19.798 Z"
         style="fill:#040606;fill-opacity:1;fill-rule:nonzero;stroke:none"
         transform="matrix(1.3333333,0,0,-1.3333333,497.48587,772.5236)"
         clip-path="url(#clipPath21)" />
      <path
         id="path22"
         d="m 0,0 c 2.707,2.075 6.289,3.128 10.651,3.128 5.786,0 10.325,-1.607 13.49,-4.778 l 0.541,-0.542 7.497,2.526 -1.13,1.379 c -4.732,5.78 -11.595,8.709 -20.398,8.709 -6.109,0 -11.322,-1.51 -15.495,-4.488 -4.892,-3.479 -7.374,-8.041 -7.374,-13.563 0,-5.609 2.45,-10.202 7.28,-13.653 4.142,-2.948 9.386,-4.443 15.589,-4.443 4.392,0 8.236,0.627 11.426,1.863 3.229,1.249 6.156,3.299 8.697,6.093 l 1.077,1.184 -7.03,3.661 -0.64,-0.65 c -3.163,-3.222 -7.605,-4.856 -13.203,-4.856 -4.645,0 -8.356,1.031 -11.028,3.065 -2.607,1.981 -3.875,4.511 -3.875,7.736 0,3.107 1.284,5.603 3.925,7.629"
         style="fill:#040606;fill-opacity:1;fill-rule:nonzero;stroke:none"
         transform="matrix(1.3333333,0,0,-1.3333333,537.42747,758.4888)"
         clip-path="url(#clipPath23)" />
      <path
         id="path24"
         d="M 0,0 H 19.772 V 7.207 H 0 v 5.704 h 28.445 v 7.207 H -8.059 V -14.14 h 37.81 v 7.206 L 0,-6.934 Z"
         style="fill:#040606;fill-opacity:1;fill-rule:nonzero;stroke:none"
         transform="matrix(1.3333333,0,0,-1.3333333,601.02067,772.7644)"
         clip-path="url(#clipPath25)" />
      <path
         id="path26"
         d="m 0,0 h -8.06 v -34.258 h 34.127 v 7.206 l -26.067,0 z"
         style="fill:#040606;fill-opacity:1;fill-rule:nonzero;stroke:none"
         transform="matrix(1.3333333,0,0,-1.3333333,661.2672,745.94)"
         clip-path="url(#clipPath27)" />
      <path
         id="path28"
         d="m 0,0 h -13.095 l 6.588,11.657 z m -2.312,19.938 h -8.483 L -30.04,-14.32 h 8.956 l 3.891,7.114 H 4.085 l 3.891,-7.114 h 8.956 L -2.234,19.798 Z"
         style="fill:#040606;fill-opacity:1;fill-rule:nonzero;stroke:none"
         transform="matrix(1.3333333,0,0,-1.3333333,742.05653,772.5236)"
         clip-path="url(#clipPath29)" />
      <path
         id="path30"
         d="m 0,0 h 18.446 c 5.108,0 5.763,-2.158 5.763,-4.038 0,-1.716 -0.597,-3.685 -5.25,-3.685 L 0,-7.723 Z m 24.524,-14.24 c 2.043,0.57 3.741,1.522 5.05,2.829 1.88,1.872 2.835,4.352 2.835,7.373 0,3.426 -1.159,6.195 -3.444,8.232 -2.244,1.999 -5.329,3.013 -9.167,3.013 H -8.06 V -27.051 H 0 v 12.12 h 15.196 l 9.055,-12.011 0.082,-0.109 h 9.549 z"
         style="fill:#040606;fill-opacity:1;fill-rule:nonzero;stroke:none"
         transform="matrix(1.3333333,0,0,-1.3333333,782.2624,755.54973)"
         clip-path="url(#clipPath31)" />
      <path
         id="path32"
         d="m 0,0 c 4.888,-3.703 9.494,-7.921 13.888,-12.524 -1.615,8.87 -2.436,17.948 -2.436,26.989 0,82.937 67.473,150.411 150.411,150.411 73.336,0 134.572,-52.761 147.769,-122.315 4.176,-0.075 8.324,-0.256 12.412,-0.628 -13.09,76.575 -79.931,135.046 -160.181,135.046 C 72.252,176.979 -0.651,104.076 -0.651,14.465 -0.651,9.648 -0.424,4.794 0,0"
         style="fill:#040606;fill-opacity:1;fill-rule:nonzero;stroke:none"
         transform="matrix(1.3333333,0,0,-1.3333333,328.3836,412.75613)"
         clip-path="url(#clipPath33)" />
      <path
         id="path34"
         d="m 0,0 c -16.768,-6.471 -34.972,-10.029 -53.994,-10.029 -29.02,0 -57.207,8.322 -81.513,24.067 -23.669,15.333 -42.532,36.884 -54.554,62.331 -5.098,10.549 -11.624,22.642 -21.377,32.409 l -0.146,0.162 c -0.187,0.177 -0.349,0.33 -0.497,0.452 l 0.005,0.005 c -17.408,17.537 -41.956,27.594 -67.348,27.594 -0.91,0 -1.877,-0.017 -2.927,-0.052 l 15.979,75.141 h 56.629 l 0.178,0.786 c 0.801,3.541 1.971,6.961 3.479,10.168 l 0.676,1.437 h -71.189 l -20.654,-101.729 2.863,0.519 c 4.914,0.888 9.95,1.34 14.966,1.34 32.199,0 61.042,-18.015 75.273,-47.014 l 0.373,-0.697 c 6.516,-13.597 11.474,-22.861 18.629,-32.399 l 1.031,-1.352 c 14.672,-19.578 33.816,-35.836 55.462,-47.081 22.908,-11.901 48.726,-18.19 74.662,-18.19 19.806,0 38.793,3.567 56.36,10.083 C 1.303,-8.496 0.548,-4.486 0,0"
         style="fill:#040606;fill-opacity:1;fill-rule:nonzero;stroke:none"
         transform="matrix(1.3333333,0,0,-1.3333333,616.19227,580.64547)"
         clip-path="url(#clipPath35)" />
      <path
         id="path36"
         d="m 0,0 h -55.238 c -10.83,0 -21.967,2.509 -27.26,6.39 -5.085,3.637 -7.509,9.466 -7.871,15.913 l -0.001,24.433 1.146,-1.525 c 7.766,-10.327 18.262,-16.742 35.888,-16.742 H 1.275 C 11.631,28.469 17.05,21.256 17.05,14.132 17.05,7.098 11.778,0 0,0 m -97.262,112.527 c -0.643,6.28 -1.249,12.211 -3.183,17.046 -7.554,14.525 -31.66,20.416 -71.617,17.445 v -0.001 c -0.801,-0.045 -1.553,-0.095 -2.237,-0.158 -1.634,-0.116 -2.876,-1.553 -2.76,-3.194 l 2.557,-36.045 c 0.117,-1.641 1.549,-2.888 3.184,-2.772 4.101,0.398 7.281,0.637 11.13,0.79 v 0 c 23.144,0.762 33.528,-0.179 43.789,-3.5 1.249,-0.412 1.742,-0.443 2.773,-0.914 5.191,-2.374 8.33,-6.75 8.33,-12.319 l 0.03,-24.321 -1.136,1.426 c -6.741,8.462 -25.262,11.253 -66.065,9.961 -29.418,-0.001 -52.447,21.736 -52.447,49.485 0,27.631 23.386,50.109 52.132,50.109 28.879,1.695 57.458,1.602 70.653,-10.465 4.814,-4.402 7.366,-10.28 7.587,-17.472 l 0.307,-3.509 c 1.393,-16.134 2.493,-28.877 12.162,-35.453 13.924,-8.188 38.345,-8.251 61.015,-8.305 8.417,-0.021 16.367,-0.04 22.82,-0.509 C 11.9,99.176 16.285,91.846 16.068,85.322 15.838,78.407 10.449,70.964 -0.839,70.96 -4.613,70.844 -8.405,70.7 -12.196,70.555 c -20.597,-0.788 -40.62,-1.603 -58.905,2.545 -22.794,6.508 -24.583,23.997 -26.161,39.427 m 128.896,-63.618 -1.321,0.522 1.268,0.64 c 20.137,10.161 28.653,30.459 23.668,51.714 -4.398,18.757 -22.398,40.744 -58.652,40.984 H -45.89 c -36.125,0 -44.222,10.305 -51.661,43.116 -6.256,23.036 -18.211,31.304 -38.684,31.304 -17.989,0.199 -33.599,0.896 -47.523,-0.795 -47.324,-5.392 -83.01,-44.487 -83.01,-90.938 0,-23.389 9.051,-45.846 25.488,-63.234 16.513,-17.47 41.872,-30.237 65.587,-29.363 11.668,0.468 20.513,1.031 26.47,1.031 18.399,0 36.523,-2.098 45.909,-11.12 6.637,-6.38 9.923,-15.98 10.047,-29.35 0.256,-25.386 14.552,-36.253 47.804,-36.335 H 2.975 c 35.078,0 51.548,20.875 55.265,40.411 4.262,22.403 -6.678,43.545 -26.606,51.413"
         style="fill:#b21d23;fill-opacity:1;fill-rule:nonzero;stroke:none"
         transform="matrix(1.3333333,0,0,-1.3333333,749.92573,559.65853)"
         clip-path="url(#clipPath37)" />
    </g>
  </g>
</svg>
