<?xml version="1.0" encoding="UTF-8"?>
<svg xmlns="http://www.w3.org/2000/svg" xmlns:xlink="http://www.w3.org/1999/xlink" width="580.87" height="170.663" viewBox="0 0 580.87 170.663">
<defs>
<clipPath id="clip-0">
<path clip-rule="nonzero" d="M 567 148 L 580.871094 148 L 580.871094 166 L 567 166 Z M 567 148 "/>
</clipPath>
</defs>
<path fill-rule="nonzero" fill="rgb(54.499817%, 8.999634%, 21.598816%)" fill-opacity="1" d="M 80.265625 38.609375 L 80.265625 93.683594 C 80.265625 117.667969 64.722656 134.28125 40.066406 134.28125 C 16.75 134.28125 0 119.8125 0 94.484375 L 14.742188 94.484375 C 14.742188 110.96875 23.71875 120.214844 40.066406 120.214844 C 56.414062 120.214844 65.257812 109.226562 65.257812 93.683594 L 65.257812 38.609375 Z M 80.265625 38.609375 "/>
<path fill-rule="nonzero" fill="rgb(54.499817%, 8.999634%, 21.598816%)" fill-opacity="1" d="M 173.394531 120.347656 C 163.75 129.863281 151.285156 134.285156 138.15625 134.285156 C 104.117188 134.285156 88.84375 110.832031 88.710938 86.175781 C 88.574219 61.523438 104.65625 37 138.15625 37 C 150.75 37 162.945312 41.691406 172.460938 51.203125 L 162.410156 60.851562 C 155.707031 54.285156 146.863281 51.203125 138.15625 51.203125 C 114.300781 51.203125 103.449219 68.757812 103.582031 86.042969 C 103.71875 103.195312 113.902344 120.210938 138.15625 120.210938 C 146.863281 120.210938 156.511719 116.59375 163.078125 110.03125 Z M 173.394531 120.347656 "/>
<path fill-rule="nonzero" fill="rgb(54.499817%, 8.999634%, 21.598816%)" fill-opacity="1" d="M 195.640625 89.792969 L 224.050781 89.792969 C 248.839844 89.792969 248.707031 52.277344 224.050781 52.277344 L 195.640625 52.277344 Z M 195.640625 103.597656 L 195.640625 132.40625 L 180.632812 132.40625 L 180.632812 38.609375 C 194.972656 38.609375 209.710938 38.472656 224.050781 38.472656 C 268.804688 38.472656 268.9375 103.328125 224.050781 103.597656 Z M 195.640625 103.597656 "/>
<path fill-rule="nonzero" fill="rgb(54.499817%, 8.999634%, 21.598816%)" fill-opacity="1" d="M 346.792969 60.582031 L 314.902344 104.9375 L 311.6875 104.9375 L 280.195312 60.582031 L 280.195312 132.542969 L 265.1875 132.542969 L 265.1875 38.742188 L 282.609375 38.742188 L 313.5625 82.691406 L 344.382812 38.742188 L 361.800781 38.742188 L 361.800781 132.542969 L 346.792969 132.542969 Z M 346.792969 60.582031 "/>
<path fill-rule="nonzero" fill="rgb(54.499817%, 8.999634%, 21.598816%)" fill-opacity="1" d="M 82.859375 5.675781 C 81.265625 4.113281 78.90625 3.285156 76.832031 3.285156 C 71.601562 3.285156 68.570312 7.207031 68.601562 11.929688 C 68.601562 16.011719 71.027344 19.964844 76.832031 19.964844 C 78.746094 19.964844 80.5 19.488281 82.285156 17.988281 L 82.285156 13.460938 L 76.066406 13.460938 L 76.066406 10.269531 L 85.601562 10.269531 L 85.601562 19.425781 C 83.371094 21.878906 80.59375 23.316406 76.832031 23.316406 C 68.636719 23.316406 65.09375 17.863281 65.09375 11.929688 C 65.09375 5.488281 69.210938 0 76.832031 0 C 79.796875 0 82.796875 1.117188 85.09375 3.382812 Z M 82.859375 5.675781 "/>
<path fill-rule="nonzero" fill="rgb(54.499817%, 8.999634%, 21.598816%)" fill-opacity="1" d="M 139.023438 3.796875 L 139.023438 11.898438 L 145.820312 11.898438 C 148.785156 11.898438 150.09375 10.015625 150.09375 7.910156 C 150.09375 5.902344 148.785156 3.796875 145.851562 3.796875 Z M 154.714844 22.871094 L 150.539062 22.871094 L 143.746094 15.152344 L 139.023438 15.152344 L 139.023438 22.871094 L 135.453125 22.871094 L 135.453125 0.511719 C 138.929688 0.511719 142.375 0.542969 145.851562 0.542969 C 151.015625 0.542969 153.726562 4.082031 153.726562 7.847656 C 153.726562 11.035156 152.070312 14.160156 147.667969 14.800781 L 154.335938 22.230469 Z M 154.714844 22.871094 "/>
<path fill-rule="nonzero" fill="rgb(54.499817%, 8.999634%, 21.598816%)" fill-opacity="1" d="M 222.394531 0.574219 L 222.394531 13.621094 C 222.394531 20.191406 218.058594 23.476562 212.667969 23.285156 C 207.691406 23.15625 203.449219 19.964844 203.449219 13.621094 L 203.449219 0.574219 L 206.988281 0.574219 L 206.988281 13.621094 C 206.988281 17.671875 209.351562 19.871094 212.667969 20 C 216.238281 20.191406 218.855469 17.863281 218.855469 13.621094 L 218.855469 0.574219 Z M 222.394531 0.574219 "/>
<path fill-rule="nonzero" fill="rgb(54.499817%, 8.999634%, 21.598816%)" fill-opacity="1" d="M 276.582031 12.726562 L 283.34375 12.726562 C 289.246094 12.726562 289.210938 3.796875 283.34375 3.796875 L 276.582031 3.796875 Z M 276.582031 16.011719 L 276.582031 22.871094 L 273.007812 22.871094 L 273.007812 0.542969 C 276.421875 0.542969 279.929688 0.511719 283.34375 0.511719 C 293.996094 0.511719 294.027344 15.949219 283.34375 16.011719 Z M 276.582031 16.011719 "/>
<path fill-rule="nonzero" fill="rgb(54.499817%, 8.999634%, 21.598816%)" fill-opacity="1" d="M 350.382812 20.0625 C 355.933594 20.0625 358.261719 16.140625 358.261719 11.867188 C 358.261719 7.75 355.902344 3.476562 350.449219 3.382812 C 345.28125 3.382812 342.503906 6.984375 342.503906 11.867188 C 342.570312 15.820312 344.867188 20.0625 350.382812 20.0625 M 361.800781 11.800781 C 361.800781 17.832031 358.132812 23.347656 350.382812 23.347656 C 342.632812 23.347656 338.964844 17.703125 338.964844 11.832031 C 338.964844 5.039062 343.71875 0.128906 350.449219 0.128906 C 358.070312 0.160156 361.800781 5.773438 361.800781 11.800781 "/>
<path fill-rule="nonzero" fill="rgb(2.398682%, 11.799622%, 37.998962%)" fill-opacity="1" d="M 515.753906 132.210938 C 514.714844 132.210938 513.664062 132.183594 512.625 132.132812 C 506.035156 131.804688 499.605469 130.453125 493.527344 128.152344 C 491.839844 127.515625 492.324219 125.03125 494.128906 125.035156 L 494.21875 125.035156 C 508.976562 125.035156 522.757812 119.167969 533.097656 108.519531 C 543.441406 97.859375 548.898438 83.902344 548.457031 69.210938 C 548.375 66.398438 548.070312 63.585938 547.550781 60.824219 C 547.363281 59.820312 548.109375 58.894531 549.125 58.894531 L 576.441406 58.894531 C 577.234375 58.894531 577.921875 59.472656 578.035156 60.257812 C 578.429688 62.980469 578.644531 65.738281 578.679688 68.488281 C 578.902344 85.324219 572.445312 101.265625 560.496094 113.367188 C 548.503906 125.519531 532.617188 132.210938 515.753906 132.210938 "/>
<path fill-rule="nonzero" fill="rgb(2.398682%, 11.799622%, 37.998962%)" fill-opacity="1" d="M 475.257812 104.175781 C 474.460938 104.175781 473.773438 103.59375 473.660156 102.808594 C 473.265625 100.085938 473.050781 97.328125 473.015625 94.578125 C 472.792969 77.742188 479.253906 61.804688 491.199219 49.695312 C 503.191406 37.546875 519.078125 30.855469 535.941406 30.855469 C 536.980469 30.855469 538.03125 30.882812 539.070312 30.933594 C 545.660156 31.261719 552.089844 32.613281 558.167969 34.914062 C 559.855469 35.550781 559.371094 38.035156 557.570312 38.03125 C 557.539062 38.03125 557.507812 38.03125 557.476562 38.03125 C 542.71875 38.03125 528.9375 43.898438 518.597656 54.550781 C 508.253906 65.207031 502.796875 79.164062 503.238281 93.855469 C 503.320312 96.667969 503.625 99.480469 504.144531 102.242188 C 504.332031 103.246094 503.589844 104.175781 502.570312 104.175781 Z M 475.257812 104.175781 "/>
<path fill-rule="nonzero" fill="rgb(2.398682%, 11.799622%, 37.998962%)" fill-opacity="1" d="M 402.101562 152.269531 L 399.195312 158.9375 L 405.011719 158.9375 Z M 406.195312 161.6875 L 398.007812 161.6875 L 396.667969 164.640625 L 393.46875 164.640625 L 400.492188 148.984375 L 403.710938 148.984375 L 410.734375 164.640625 L 407.515625 164.640625 Z M 406.195312 161.6875 "/>
<path fill-rule="nonzero" fill="rgb(2.398682%, 11.799622%, 37.998962%)" fill-opacity="1" d="M 463.613281 159.519531 L 463.613281 148.984375 L 466.566406 148.984375 L 466.566406 164.640625 L 464.175781 164.640625 L 455.855469 154.21875 L 455.855469 164.640625 L 452.902344 164.640625 L 452.902344 148.984375 L 455.292969 148.984375 Z M 463.613281 159.519531 "/>
<path fill-rule="nonzero" fill="rgb(2.398682%, 11.799622%, 37.998962%)" fill-opacity="1" d="M 517.65625 162.292969 C 521.347656 162.292969 522.734375 159.519531 522.777344 156.945312 C 522.824219 154.328125 521.324219 151.421875 517.722656 151.355469 C 514.390625 151.355469 512.421875 153.859375 512.511719 156.96875 C 512.578125 159.539062 513.964844 162.292969 517.65625 162.292969 M 525.6875 156.902344 C 525.640625 160.949219 523.15625 165 517.65625 165 C 512.15625 165 509.605469 161.039062 509.605469 156.925781 C 509.605469 151.980469 513.183594 148.671875 517.722656 148.671875 C 523.070312 148.714844 525.730469 152.832031 525.6875 156.902344 "/>
<g clip-path="url(#clip-0)">
<path fill-rule="nonzero" fill="rgb(2.398682%, 11.799622%, 37.998962%)" fill-opacity="1" d="M 578.027344 152.761719 C 577.492188 151.867188 576.015625 151.019531 574.3125 151.019531 C 572.121094 151.019531 571.070312 151.9375 571.070312 153.097656 C 571.070312 154.464844 572.683594 154.84375 574.5625 155.066406 C 577.828125 155.46875 580.867188 156.320312 580.867188 160.054688 C 580.867188 163.542969 577.78125 165.042969 574.292969 165.042969 C 571.09375 165.042969 568.632812 164.058594 567.472656 161.195312 L 569.929688 159.921875 C 570.625 161.644531 572.4375 162.402344 574.335938 162.402344 C 576.195312 162.402344 577.9375 161.753906 577.9375 160.054688 C 577.9375 158.578125 576.394531 157.972656 574.3125 157.75 C 571.117188 157.371094 568.164062 156.523438 568.164062 153.007812 C 568.164062 149.789062 571.339844 148.46875 574.226562 148.449219 C 576.664062 148.449219 579.191406 149.140625 580.378906 151.554688 Z M 578.027344 152.761719 "/>
</g>
<path fill-rule="nonzero" fill="rgb(2.398682%, 11.799622%, 37.998962%)" fill-opacity="1" d="M 422.082031 43.144531 C 410.097656 43.144531 401.855469 50.636719 401.855469 63.371094 C 401.855469 76.855469 409.347656 82.851562 422.832031 82.851562 C 434.820312 82.851562 444.558594 76.109375 444.558594 76.109375 L 444.558594 71.613281 C 444.558594 51.386719 434.070312 43.144531 422.082031 43.144531 M 407.101562 125.554688 C 443.0625 125.554688 443.808594 88.097656 443.808594 88.097656 C 443.808594 88.097656 433.320312 95.589844 418.335938 95.589844 C 401.105469 95.589844 386.121094 85.097656 386.121094 64.871094 C 386.121094 43.144531 402.605469 30.40625 422.082031 30.40625 C 448.304688 30.40625 460.292969 49.886719 460.292969 76.109375 C 460.292969 112.070312 443.0625 138.289062 406.351562 138.289062 C 398.859375 138.289062 394.363281 136.792969 394.363281 136.792969 L 395.113281 124.804688 C 395.113281 124.804688 400.359375 125.554688 407.101562 125.554688 "/>
<path fill-rule="nonzero" fill="rgb(54.499817%, 8.999634%, 21.598816%)" fill-opacity="1" d="M 3.621094 156.902344 C 3.6875 159.386719 5.09375 162.042969 8.839844 162.042969 C 12.582031 162.042969 13.992188 159.363281 14.035156 156.878906 C 14.082031 154.328125 12.582031 151.476562 8.839844 151.476562 C 5.09375 151.476562 3.550781 154.351562 3.621094 156.902344 M 16.984375 156.835938 C 16.941406 160.746094 14.421875 164.65625 8.839844 164.65625 C 3.257812 164.65625 0.667969 160.832031 0.667969 156.859375 C 0.667969 152.882812 3.347656 148.886719 8.839844 148.886719 C 14.308594 148.886719 17.03125 152.882812 16.984375 156.835938 "/>
<path fill-rule="nonzero" fill="rgb(54.499817%, 8.999634%, 21.598816%)" fill-opacity="1" d="M 22.65625 151.84375 L 22.65625 156.683594 L 27.214844 156.683594 C 29.121094 156.683594 29.9375 155.476562 29.9375 154.265625 C 29.9375 153.054688 29.097656 151.84375 27.214844 151.84375 Z M 33.730469 164.3125 L 30.167969 164.3125 L 25.539062 159.257812 L 22.65625 159.257812 L 22.65625 164.3125 L 19.660156 164.3125 L 19.660156 149.164062 C 22.179688 149.164062 24.699219 149.1875 27.214844 149.1875 C 30.960938 149.210938 32.933594 151.585938 32.933594 154.199219 C 32.933594 156.273438 31.9375 158.371094 28.917969 158.953125 L 33.730469 164.117188 Z M 33.730469 164.3125 "/>
<path fill-rule="nonzero" fill="rgb(54.499817%, 8.999634%, 21.598816%)" fill-opacity="1" d="M 47.207031 152.882812 C 46.140625 151.910156 44.550781 151.371094 43.167969 151.371094 C 39.761719 151.371094 37.699219 153.832031 37.699219 156.945312 C 37.699219 159.429688 39.21875 162 43.167969 162 C 44.414062 162 45.503906 161.742188 46.753906 160.789062 L 46.753906 158.109375 L 42.691406 158.109375 L 42.691406 155.5625 L 49.5 155.5625 L 49.5 161.933594 C 47.933594 163.640625 45.957031 164.65625 43.167969 164.65625 C 37.199219 164.65625 34.769531 160.917969 34.769531 156.945312 C 34.769531 152.6875 37.5625 148.753906 43.167969 148.753906 C 45.300781 148.753906 47.433594 149.53125 49.066406 151.066406 Z M 47.207031 152.882812 "/>
<path fill-rule="nonzero" fill="rgb(54.499817%, 8.999634%, 21.598816%)" fill-opacity="1" d="M 66.332031 149.210938 L 66.332031 157.875 C 66.332031 162.347656 63.449219 164.636719 59.457031 164.636719 C 55.644531 164.636719 52.398438 162.433594 52.398438 157.875 L 52.398438 149.210938 L 55.371094 149.210938 L 55.371094 157.875 C 55.371094 160.59375 57.007812 162.042969 59.480469 162.042969 C 61.953125 162.042969 63.359375 160.464844 63.359375 157.875 L 63.359375 149.210938 Z M 66.332031 149.210938 "/>
<path fill-rule="nonzero" fill="rgb(54.499817%, 8.999634%, 21.598816%)" fill-opacity="1" d="M 72.707031 149.1875 L 72.707031 161.675781 L 80.875 161.675781 L 80.875 164.3125 L 69.710938 164.3125 L 69.710938 149.1875 Z M 72.707031 149.1875 "/>
<path fill-rule="nonzero" fill="rgb(54.499817%, 8.999634%, 21.598816%)" fill-opacity="1" d="M 94.261719 164.332031 L 94.261719 158.21875 L 86.453125 158.21875 L 86.453125 164.332031 L 83.457031 164.332031 L 83.457031 149.210938 L 86.453125 149.210938 L 86.453125 155.582031 L 94.261719 155.582031 L 94.261719 149.210938 L 97.234375 149.210938 L 97.234375 164.332031 Z M 94.261719 164.332031 "/>
<path fill-rule="nonzero" fill="rgb(54.499817%, 8.999634%, 21.598816%)" fill-opacity="1" d="M 102.746094 156.902344 C 102.8125 159.386719 104.222656 162.042969 107.964844 162.042969 C 111.710938 162.042969 113.117188 159.363281 113.160156 156.878906 C 113.207031 154.328125 111.710938 151.476562 107.964844 151.476562 C 104.222656 151.476562 102.675781 154.351562 102.746094 156.902344 M 116.113281 156.835938 C 116.066406 160.746094 113.546875 164.65625 107.964844 164.65625 C 102.382812 164.65625 99.792969 160.832031 99.792969 156.859375 C 99.792969 152.882812 102.472656 148.886719 107.964844 148.886719 C 113.433594 148.886719 116.15625 152.882812 116.113281 156.835938 "/>
<path fill-rule="nonzero" fill="rgb(54.499817%, 8.999634%, 21.598816%)" fill-opacity="1" d="M 126.566406 161.566406 L 129.835938 161.566406 C 133.445312 161.566406 134.875 159.0625 134.804688 156.597656 C 134.738281 154.242188 133.285156 151.886719 129.835938 151.886719 L 126.566406 151.886719 Z M 137.777344 156.621094 C 137.847656 160.445312 135.394531 164.3125 129.835938 164.3125 L 123.59375 164.3125 L 123.59375 149.1875 L 129.835938 149.1875 C 135.28125 149.1875 137.710938 152.882812 137.777344 156.621094 "/>
<path fill-rule="nonzero" fill="rgb(54.499817%, 8.999634%, 21.598816%)" fill-opacity="1" d="M 152.050781 164.3125 L 140.160156 164.3125 L 140.160156 149.1875 L 152.050781 149.1875 L 152.050781 151.953125 L 143.132812 151.953125 L 143.132812 155.433594 L 151.730469 155.433594 L 151.730469 158.089844 L 143.132812 158.089844 L 143.132812 161.503906 L 152.050781 161.503906 Z M 152.050781 164.3125 "/>
<path fill-rule="nonzero" fill="rgb(54.499817%, 8.999634%, 21.598816%)" fill-opacity="1" d="M 169.65625 152.839844 C 169.109375 151.976562 167.613281 151.152344 165.886719 151.152344 C 163.664062 151.152344 162.597656 152.039062 162.597656 153.164062 C 162.597656 154.480469 164.230469 154.847656 166.136719 155.0625 C 169.449219 155.453125 172.535156 156.273438 172.535156 159.882812 C 172.535156 163.253906 169.40625 164.699219 165.863281 164.699219 C 162.621094 164.699219 160.125 163.75 158.945312 160.984375 L 161.441406 159.753906 C 162.144531 161.417969 163.980469 162.152344 165.910156 162.152344 C 167.792969 162.152344 169.566406 161.523438 169.566406 159.882812 C 169.566406 158.457031 167.996094 157.875 165.886719 157.65625 C 162.640625 157.289062 159.648438 156.46875 159.648438 153.078125 C 159.648438 149.964844 162.871094 148.691406 165.796875 148.667969 C 168.269531 148.667969 170.835938 149.339844 172.039062 151.671875 Z M 169.65625 152.839844 "/>
<path fill-rule="nonzero" fill="rgb(54.499817%, 8.999634%, 21.598816%)" fill-opacity="1" d="M 187.148438 164.3125 L 175.257812 164.3125 L 175.257812 149.1875 L 187.148438 149.1875 L 187.148438 151.953125 L 178.230469 151.953125 L 178.230469 155.433594 L 186.832031 155.433594 L 186.832031 158.089844 L 178.230469 158.089844 L 178.230469 161.503906 L 187.148438 161.503906 Z M 187.148438 164.3125 "/>
<path fill-rule="nonzero" fill="rgb(54.499817%, 8.999634%, 21.598816%)" fill-opacity="1" d="M 192.933594 151.84375 L 192.933594 156.683594 L 197.496094 156.683594 C 199.398438 156.683594 200.21875 155.476562 200.21875 154.265625 C 200.21875 153.054688 199.378906 151.84375 197.496094 151.84375 Z M 204.007812 164.3125 L 200.441406 164.3125 L 195.8125 159.257812 L 192.933594 159.257812 L 192.933594 164.3125 L 189.9375 164.3125 L 189.9375 149.164062 C 192.457031 149.164062 194.972656 149.1875 197.496094 149.1875 C 201.238281 149.210938 203.210938 151.585938 203.210938 154.199219 C 203.210938 156.273438 202.214844 158.371094 199.195312 158.953125 L 204.007812 164.117188 Z M 204.007812 164.3125 "/>
<path fill-rule="nonzero" fill="rgb(54.499817%, 8.999634%, 21.598816%)" fill-opacity="1" d="M 221.160156 149.164062 L 224.152344 149.164062 L 224.152344 164.3125 L 222.292969 164.3125 L 222.292969 164.332031 L 213.941406 154.113281 L 213.941406 164.3125 L 210.945312 164.3125 L 210.945312 149.1875 L 213.375 149.1875 L 221.160156 158.566406 Z M 221.160156 149.164062 "/>
<path fill-rule="nonzero" fill="rgb(54.499817%, 8.999634%, 21.598816%)" fill-opacity="1" d="M 229.824219 156.902344 C 229.890625 159.386719 231.300781 162.042969 235.042969 162.042969 C 238.789062 162.042969 240.195312 159.363281 240.242188 156.878906 C 240.285156 154.328125 238.789062 151.476562 235.042969 151.476562 C 231.300781 151.476562 229.757812 154.351562 229.824219 156.902344 M 243.191406 156.835938 C 243.144531 160.746094 240.625 164.65625 235.042969 164.65625 C 229.460938 164.65625 226.871094 160.832031 226.871094 156.859375 C 226.871094 152.882812 229.550781 148.886719 235.042969 148.886719 C 240.511719 148.886719 243.234375 152.882812 243.191406 156.835938 "/>
<path fill-rule="nonzero" fill="rgb(54.499817%, 8.999634%, 21.598816%)" fill-opacity="1" d="M 248.859375 151.84375 L 248.859375 156.683594 L 253.421875 156.683594 C 255.324219 156.683594 256.144531 155.476562 256.144531 154.265625 C 256.144531 153.054688 255.304688 151.84375 253.421875 151.84375 Z M 259.933594 164.3125 L 256.371094 164.3125 L 251.742188 159.257812 L 248.859375 159.257812 L 248.859375 164.3125 L 245.863281 164.3125 L 245.863281 149.164062 C 248.382812 149.164062 250.902344 149.1875 253.421875 149.1875 C 257.164062 149.210938 259.140625 151.585938 259.140625 154.199219 C 259.140625 156.273438 258.140625 158.371094 255.121094 158.953125 L 259.933594 164.117188 Z M 259.933594 164.3125 "/>
<path fill-rule="nonzero" fill="rgb(54.499817%, 8.999634%, 21.598816%)" fill-opacity="1" d="M 264.378906 161.566406 L 267.644531 161.566406 C 271.253906 161.566406 272.683594 159.0625 272.617188 156.597656 C 272.546875 154.242188 271.09375 151.886719 267.644531 151.886719 L 264.378906 151.886719 Z M 275.589844 156.621094 C 275.65625 160.445312 273.207031 164.3125 267.644531 164.3125 L 261.40625 164.3125 L 261.40625 149.1875 L 267.644531 149.1875 C 273.089844 149.1875 275.519531 152.882812 275.589844 156.621094 "/>
<path fill-rule="nonzero" fill="rgb(54.499817%, 8.999634%, 21.598816%)" fill-opacity="1" d="M 289.859375 164.3125 L 277.96875 164.3125 L 277.96875 149.1875 L 289.859375 149.1875 L 289.859375 151.953125 L 280.941406 151.953125 L 280.941406 155.433594 L 289.542969 155.433594 L 289.542969 158.089844 L 280.941406 158.089844 L 280.941406 161.503906 L 289.859375 161.503906 Z M 289.859375 164.3125 "/>
<path fill-rule="nonzero" fill="rgb(54.499817%, 8.999634%, 21.598816%)" fill-opacity="1" d="M 302.90625 152.839844 C 302.359375 151.976562 300.863281 151.152344 299.136719 151.152344 C 296.914062 151.152344 295.847656 152.039062 295.847656 153.164062 C 295.847656 154.480469 297.480469 154.847656 299.386719 155.0625 C 302.699219 155.453125 305.785156 156.273438 305.785156 159.882812 C 305.785156 163.253906 302.65625 164.699219 299.113281 164.699219 C 295.871094 164.699219 293.375 163.75 292.195312 160.984375 L 294.691406 159.753906 C 295.394531 161.417969 297.230469 162.152344 299.160156 162.152344 C 301.042969 162.152344 302.816406 161.523438 302.816406 159.882812 C 302.816406 158.457031 301.246094 157.875 299.136719 157.65625 C 295.890625 157.289062 292.898438 156.46875 292.898438 153.078125 C 292.898438 149.964844 296.121094 148.691406 299.046875 148.667969 C 301.519531 148.667969 304.085938 149.339844 305.289062 151.671875 Z M 302.90625 152.839844 "/>
<path fill-rule="nonzero" fill="rgb(54.499817%, 8.999634%, 21.598816%)" fill-opacity="1" d="M 312.660156 151.78125 L 307.621094 151.78125 L 307.621094 149.1875 L 320.691406 149.1875 L 320.691406 151.78125 L 315.65625 151.78125 L 315.65625 164.3125 L 312.660156 164.3125 Z M 312.660156 151.78125 "/>
<path fill-rule="nonzero" fill="rgb(54.499817%, 8.999634%, 21.598816%)" fill-opacity="1" d="M 322.980469 149.1875 L 325.953125 149.1875 L 325.953125 164.3125 L 322.980469 164.3125 Z M 322.980469 149.1875 "/>
<path fill-rule="nonzero" fill="rgb(54.499817%, 8.999634%, 21.598816%)" fill-opacity="1" d="M 339.660156 149.164062 L 342.65625 149.164062 L 342.65625 164.3125 L 340.792969 164.3125 L 340.792969 164.332031 L 332.441406 154.113281 L 332.441406 164.3125 L 329.449219 164.3125 L 329.449219 149.1875 L 331.875 149.1875 L 339.660156 158.566406 Z M 339.660156 149.164062 "/>
<path fill-rule="nonzero" fill="rgb(54.499817%, 8.999634%, 21.598816%)" fill-opacity="1" d="M 348.324219 156.902344 C 348.394531 159.386719 349.800781 162.042969 353.542969 162.042969 C 357.289062 162.042969 358.695312 159.363281 358.742188 156.878906 C 358.785156 154.328125 357.289062 151.476562 353.542969 151.476562 C 349.800781 151.476562 348.257812 154.351562 348.324219 156.902344 M 361.691406 156.835938 C 361.644531 160.746094 359.128906 164.65625 353.542969 164.65625 C 347.960938 164.65625 345.375 160.832031 345.375 156.859375 C 345.375 152.882812 348.050781 148.886719 353.542969 148.886719 C 359.011719 148.886719 361.734375 152.882812 361.691406 156.835938 "/>
</svg>
