<?xml version="1.0" encoding="UTF-8" standalone="no"?>
<svg
   xmlns:dc="http://purl.org/dc/elements/1.1/"
   xmlns:cc="http://creativecommons.org/ns#"
   xmlns:rdf="http://www.w3.org/1999/02/22-rdf-syntax-ns#"
   xmlns:svg="http://www.w3.org/2000/svg"
   xmlns="http://www.w3.org/2000/svg"
   viewBox="0 0 5646.4268 3450.5867"
   height="3450.5867"
   width="5646.4268"
   xml:space="preserve"
   id="svg2"
   version="1.1"><metadata
     id="metadata8"><rdf:RDF><cc:Work
         rdf:about=""><dc:format>image/svg+xml</dc:format><dc:type
           rdf:resource="http://purl.org/dc/dcmitype/StillImage" /></cc:Work></rdf:RDF></metadata><defs
     id="defs6"><clipPath
       id="clipPath20"
       clipPathUnits="userSpaceOnUse"><path
         id="path18"
         d="M 0,2587.944 H 4234.817 V 0 H 0 Z" /></clipPath></defs><g
     transform="matrix(1.3333333,0,0,-1.3333333,0,3450.5867)"
     id="g10"><path
       id="path12"
       style="fill:#77151b;fill-opacity:1;fill-rule:nonzero;stroke:none"
       d="M 0,0 H 4234.816 V 2587.944 H 0 Z" /><g
       id="g14"><g
         clip-path="url(#clipPath20)"
         id="g16"><g
           transform="translate(1840.7329,706.9466)"
           id="g22"><path
             id="path24"
             style="fill:#ffffff;fill-opacity:1;fill-rule:nonzero;stroke:none"
             d="m 0,0 c -11.69,-16.629 -32.454,-29.491 -55.035,-29.491 -21.167,0 -35.817,12.119 -35.817,30.634 0,19.659 13.579,32.856 41.869,32.856 14.65,0 30.907,-3.03 48.983,-9.09 z m -45.224,139.434 c -30.574,0 -53.217,-12.86 -67.937,-38.513 l 19.287,-18.178 c 7.527,16.967 25.673,30.634 48.246,30.634 C -18.479,113.377 0,97.488 0,69.884 V 50.965 c -19.955,6.059 -36.959,9.088 -50.529,9.088 -40.719,0 -68.28,-21.544 -68.28,-58.168 0,-35.146 27.149,-56.353 62.228,-56.353 24.531,0 43.415,7.946 57.319,23.496 V -50.294 H 27.957 V 66.854 c 0,46.523 -28.291,72.58 -73.181,72.58" /></g><g
           transform="translate(1475.2432,750.0355)"
           id="g26"><path
             id="path28"
             style="fill:#ffffff;fill-opacity:1;fill-rule:nonzero;stroke:none"
             d="m 0,0 c 0,-44.974 -17.742,-71.03 -53.559,-71.03 -29.827,0 -45.286,18.85 -45.286,53.996 V 91.765 H -126.73 V -15.89 c 0,-54.401 22.976,-81.667 69.412,-81.667 24.461,0 44.082,9.088 58.46,27.603 V -93.383 H 27.886 V 91.765 L 0,91.765 Z" /></g><g
           transform="translate(1240.2524,698.596)"
           id="g30"><path
             id="path32"
             style="fill:#ffffff;fill-opacity:1;fill-rule:nonzero;stroke:none"
             d="m 0,0 c -12.094,-13.195 -27.552,-19.995 -46.436,-19.995 -18.48,0 -33.929,6.8 -45.962,19.995 -12.094,13.602 -18.145,30.635 -18.145,50.631 0,20.063 6.051,37.097 18.145,50.293 12.033,13.601 27.482,20.4 45.962,20.4 18.884,0 34.342,-6.799 46.436,-20.4 C 12.033,87.728 18.076,70.694 18.076,50.631 18.076,30.635 12.033,13.602 0,0 m -46.436,147.784 c -26.34,0 -48.649,-9.427 -66.391,-28.345 -17.672,-18.852 -26.411,-41.944 -26.411,-68.808 0,-26.797 8.739,-49.822 26.411,-68.74 17.742,-18.515 40.051,-28.009 66.391,-28.009 26.814,0 49.062,9.494 66.795,28.009 17.742,18.918 26.815,41.943 26.815,68.74 0,26.864 -9.073,49.956 -27.219,68.808 -17.733,18.918 -39.98,28.345 -66.391,28.345" /></g><g
           transform="translate(965.2812,846.3802)"
           id="g34"><path
             id="path36"
             style="fill:#ffffff;fill-opacity:1;fill-rule:nonzero;stroke:none"
             d="M 0,0 C -24.531,0 -43.819,-10.235 -57.722,-30.636 -69.421,-10.235 -87.559,0 -112.827,0 c -22.239,0 -42.607,-11.716 -53.155,-26.864 V -4.58 h -27.219 v -185.148 h 27.956 V -87.66 c 0,39.319 16.934,61.604 48.659,61.604 27.543,0 41.526,-18.515 41.526,-55.611 v -108.061 h 27.886 V -87.66 c 0,39.319 16.995,61.604 47.507,61.604 28.695,0 43.002,-17.775 43.002,-53.659 V -189.728 H 71.231 V -82.004 C 71.231,-27.201 47.507,0 0,0" /></g><g
           transform="translate(1605.7422,817.2928)"
           id="g38"><path
             id="path40"
             style="fill:#ffffff;fill-opacity:1;fill-rule:nonzero;stroke:none"
             d="M 0,0 V 24.508 H -27.148 V -160.64 H 0.737 v 78.974 c 0,60.124 17.813,82.071 61.491,82.071 2.283,0 4.567,0 6.446,-0.405 V 26.865 C 66.057,27.202 63.027,27.202 60.41,27.202 33.2,27.202 16.266,20.066 0,0" /></g><g
           transform="translate(3129.3218,750.0355)"
           id="g42"><path
             id="path44"
             style="fill:#ffffff;fill-opacity:1;fill-rule:nonzero;stroke:none"
             d="m 0,0 c 0,-44.974 -17.742,-71.03 -53.55,-71.03 -29.836,0 -45.294,18.85 -45.294,53.996 v 108.8 H -126.73 V -15.89 c 0,-54.401 22.976,-81.667 69.342,-81.667 24.601,0 44.152,9.089 58.53,27.603 V -93.382 H 27.895 V 91.766 L 0,91.766 Z" /></g><g
           transform="translate(3378.6289,841.8011)"
           id="g46"><path
             id="path48"
             style="fill:#ffffff;fill-opacity:1;fill-rule:nonzero;stroke:none"
             d="M 0,0 H -33.534 L -79.565,-69.078 -125.185,0 h -33.604 l 61.886,-89.879 -66.383,-95.269 h 33.525 l 50.196,74.866 50.537,-74.866 H 4.567 l -66.391,95.269 z" /></g><g
           transform="translate(2804.4893,765.5198)"
           id="g50"><path
             id="path52"
             style="fill:#ffffff;fill-opacity:1;fill-rule:nonzero;stroke:none"
             d="m 0,0 c 4.91,32.116 23.785,54.4 55.105,54.4 30.574,0 50.933,-21.544 53.55,-54.4 z M 101.875,66.116 C 89.034,75.944 73.18,80.86 54.367,80.86 28.694,80.86 8.335,71.434 -7.123,52.515 -22.239,34 -29.766,10.572 -29.766,-17.369 c 0,-28.412 8.335,-51.44 24.522,-69.145 16.6,-17.843 38.848,-26.527 66.391,-26.527 28.3,0 52.418,11.715 72.039,35.548 l -19.217,17.774 c -14.72,-18.178 -32.058,-27.199 -52.822,-27.199 -36.221,0 -59.601,23.023 -62.219,62.008 h 137.684 l 0.333,12.792 c 0,30.633 -9.064,58.573 -35.07,78.234" /></g><g
           transform="translate(2671.7773,698.5965)"
           id="g54"><path
             id="path56"
             style="fill:#ffffff;fill-opacity:1;fill-rule:nonzero;stroke:none"
             d="m 0,0 c -10.961,-13.196 -25.339,-19.995 -43.749,-19.995 -18.479,0 -33.261,6.799 -44.152,19.995 -10.953,13.265 -16.258,30.231 -16.258,50.631 0,20.467 5.305,37.433 16.258,50.697 10.891,13.196 25.673,19.996 44.152,19.996 18.41,0 32.788,-6.8 43.749,-19.996 C 10.882,88.064 16.187,71.098 16.187,50.631 16.187,30.231 10.882,13.265 0,0 m -41.131,147.784 c -24.927,0 -45.699,-9.831 -62.29,-29.088 v 104.293 h -27.886 V -41.944 h 27.148 v 25.314 c 16.996,-19.657 37.768,-29.488 63.028,-29.488 25.269,0 45.628,9.493 61.824,28.008 16.266,18.515 24.188,41.541 24.188,68.741 0,27.266 -7.922,50.293 -24.188,68.807 -16.196,18.919 -36.555,28.346 -61.824,28.346" /></g><g
           transform="translate(2197.2197,698.5965)"
           id="g58"><path
             id="path60"
             style="fill:#ffffff;fill-opacity:1;fill-rule:nonzero;stroke:none"
             d="m 0,0 c -10.953,-13.196 -25.664,-19.995 -44.152,-19.995 -18.48,0 -32.788,6.799 -43.74,19.995 -10.953,13.265 -16.196,30.231 -16.196,50.631 0,20.467 5.243,37.433 16.196,50.697 10.952,13.196 25.26,19.996 43.74,19.996 18.488,0 33.199,-6.8 44.152,-19.996 C 10.952,88.064 16.6,71.098 16.6,50.631 16.6,30.231 10.952,13.265 0,0 m 15.458,118.696 c -16.6,19.257 -37.363,29.088 -62.228,29.088 -25.269,0 -45.628,-9.427 -61.885,-28.346 -16.197,-18.514 -24.127,-41.541 -24.127,-68.807 0,-27.2 7.93,-50.226 24.127,-68.741 16.257,-18.515 36.616,-28.008 61.885,-28.008 25.269,0 46.366,9.83 63.37,29.488 V -41.944 H 43.344 V 222.989 H 15.458 Z" /></g><g
           transform="translate(2437.1201,750.0355)"
           id="g62"><path
             id="path64"
             style="fill:#ffffff;fill-opacity:1;fill-rule:nonzero;stroke:none"
             d="m 0,0 c 0,-44.974 -17.671,-71.03 -53.559,-71.03 -29.836,0 -45.295,18.85 -45.295,53.996 v 108.8 H -126.74 V -15.89 c 0,-54.401 23.047,-81.667 69.413,-81.667 24.531,0 44.152,9.088 58.469,27.603 V -93.383 H 27.957 V 91.766 L 0,91.766 Z" /></g><g
           transform="translate(3096.2803,1799.5095)"
           id="g66"><path
             id="path68"
             style="fill:#ffffff;fill-opacity:1;fill-rule:nonzero;stroke:none"
             d="m 0,0 c 55.298,-55.342 89.438,-131.893 89.438,-216.389 0,-168.99 -136.682,-306.001 -305.414,-306.001 h -50.748 V 89.613 h 50.748 C -131.641,89.613 -55.307,55.409 0,0 m 309.778,-214.369 c -1.01,270.25 -205.084,492.497 -467.364,521.514 -19.147,2.155 -38.707,3.233 -58.39,3.233 h -163.496 c -36.485,0 -68.939,-17.371 -89.57,-44.303 -0.544,-0.739 -1.01,-1.413 -1.546,-2.155 l -410.784,-553.157 v -0.067 l -0.008,-0.006 v 486.725 c 0,0.019 0.008,0.036 0.008,0.055 0,0.029 -0.008,0.057 -0.008,0.086 v 0.376 h -0.018 c -0.246,62.198 -50.599,112.446 -112.669,112.446 -36.555,0 -68.938,-17.371 -89.508,-44.303 -0.597,-0.739 -1.142,-1.413 -1.608,-2.155 l -410.783,-553.157 v -0.067 l -0.01,-0.01 v 486.687 c 0,0.033 0.01,0.064 0.01,0.097 0,0.051 -0.01,0.1 -0.01,0.152 v 0.31 h -0.01 c -0.255,62.198 -50.608,112.446 -112.678,112.446 -36.484,0 -68.938,-17.371 -89.508,-44.303 -0.597,-0.739 -1.142,-1.413 -1.607,-2.155 l -410.714,-553.157 v -0.068 l -204.153,-274.962 h 0.07 c -13.377,-18.582 -21.369,-41.339 -21.369,-65.981 0,-62.345 50.467,-112.974 112.757,-112.974 36.353,0 68.684,17.302 89.306,44.098 0.07,0.069 0.07,0.136 0.132,0.136 l 1.958,2.692 c 0.194,0.202 0.466,0.606 0.668,0.943 l 409.765,551.871 v -491.892 h 0.263 c 2.697,-59.953 51.873,-107.848 112.432,-107.848 36.424,0 68.745,17.302 89.377,44.098 0.07,0.069 0.07,0.136 0.132,0.136 l 1.888,2.692 c 0.264,0.202 0.536,0.606 0.738,0.943 l 409.764,551.872 v -491.893 h 0.01 v -0.058 h 0.132 c 2.687,-59.921 52.013,-107.79 112.555,-107.79 36.757,0 69.281,17.639 89.912,44.773 0.272,0.47 0.606,0.874 0.879,1.211 l 411.117,553.764 2.679,3.61 -2.688,-3.619 v -486.774 -1.702 h 0.053 c 0.009,-1.153 0,-2.3 0.088,-3.473 2.617,-59.921 52.013,-107.79 112.555,-107.79 h 156.979 c 290.289,0 533.413,238 532.271,528.853" /></g></g></g></g></svg>