<svg version="1.2" xmlns="http://www.w3.org/2000/svg" viewBox="0 0 1280 550" width="1280" height="550">
	<title>Novo Projeto</title>
	<style>
		.s0 { fill: #232425 } 
		.s1 { fill: #664a3c } 
	</style>
	<path id="path22" class="s0" d="m610.4 303.9h-45.6v-254.1h-29.9v236.4q0 9.3 4.8 18.2c3.2 5.9 7.5 10.8 12.9 14.5q8.1 5.6 17.5 5.6h33.5q9.6 0 18.1-4.9 8.4-4.8 13.4-13 4.9-8.2 4.9-17.9v-238.9h-29.6z"/>
	<path id="path26" class="s0" d="m967.9 56q-8.5-5.2-17.3-5.2h-95.3q-9.6 0-17.7 5.6c-5.4 3.6-9.8 8.4-13 14.3q-4.9 8.8-4.9 17.7v236.4h30v-253.1h38.3v253.1h29.6v-253.1h39.5v253.8h29.9v-238.6q0-8.8-5.2-17.3-5.4-8.4-13.9-13.6z"/>
	<path id="path30" class="s0" d="m704.6 54.9c-6.3 3-11.4 7.3-15.2 12.8q-5.8 8.2-5.8 18.8v63.7c0 7.4 1.7 14 4.9 20.2 3.3 6.2 7.8 11.1 13.7 14.6q8.8 5.4 19.8 5.4h31.3v113.5h-39.8v-8.1h-24.6v28.7h57.6q9.4 0 17.8-4.8 8.5-4.8 13.6-12.9c3.4-5.4 5-11.2 5-17.5v-83c0-6.1-1.6-11.9-4.9-17.6-3.3-5.6-7.7-10.1-13.4-13.6q-8.3-5.2-17.5-5.2h-33.6v-98h39.8v8h24.4v-29.5h-53.2q-10.5 0-19.9 4.5z"/>
	<path id="path34" class="s0" d="m474.2 55.2q-8.3-5.4-17.4-5.4h-32.9q-9 0-17.4 5.1-8.3 5.2-13.4 13.6-5 8.5-5 17.4v200.3q0 14.6 10.1 26.4 10.1 11.9 24.8 11.9h33.2c6.2 0 12.1-1.6 17.8-4.9q8.4-4.9 13.6-13.2 5.1-8.2 5.1-17.7v-125.3h-52.6v16h23v123.8h-45.1v-232.5h45.1v32.5h29.6v-16.4q0-8.9-5-17.6c-3.4-5.7-7.9-10.3-13.5-14z"/>
	<path id="path36" fill-rule="evenodd" class="s0" d="m1280 87.5v202.2c0 6.5-1.7 12.4-4.9 17.9q-5 8.2-13.4 13.1-8.5 4.8-18.1 4.8h-33.6q-9.3 0-17.4-5.6c-5.4-3.7-9.7-8.6-12.9-14.5q-4.9-8.9-4.9-18.2v-200.9q0-8.9 5.3-17.3c3.6-5.6 8.2-10.2 13.9-13.7q8.6-5.2 17.3-5.2h32.3q9.1 0 17.6 5.5c5.7 3.6 10.2 8.3 13.7 14.1q5.1 8.7 5.1 17.8zm-75.2-15.8v232.6h45v-232.6z"/>
	<path id="path38" fill-rule="evenodd" class="s0" d="m1128.6 70c3.4 5.7 5.1 11.6 5.1 17.8v237.7h-29.6v-138.7h-45.1v138.7h-30.5v-238.6c0-6.1 1.7-12 5.2-17.6 3.4-5.6 8-10.2 13.7-13.5 5.6-3.3 11.4-5 17.5-5h32.3c6.3 0 12.2 1.8 17.9 5.3 5.7 3.6 10.2 8.2 13.5 13.9zm-70.3 1.7v94.3h45.1v-94.3z"/>
	<path id="path40" class="s0" d="m1117.4 11.5v20.8h-72.7v-20.8z"/>
	<path id="path44" fill-rule="evenodd" class="s1" d="m400.9 423v26.2h-5v-60.7h22c11.8 0 19.1 5.9 19.1 17.2 0 11.4-7.3 17.3-19.1 17.3zm16.7-30h-16.7v25.4h16.7c9.4 0 14.3-4.7 14.3-12.7 0-7.9-4.9-12.7-14.3-12.7z"/>
	<path id="path46" class="s1" d="m457.3 384.9v64.3h-4.9v-64.3z"/>
	<path id="path50" fill-rule="evenodd" class="s1" d="m501.4 449.2v-4.1c-1.8 2.3-6.7 4.8-12.1 4.8-8.9 0-16.2-5.1-16.2-13.5 0-8.1 7.3-13.5 16.4-13.5 5.1 0 10 2.5 11.9 4.7v-7.8c0-6.6-3.9-11-10.9-11-5.5 0-9 2.3-10.7 7.5h-4.9c1.7-7.4 7.9-11.9 15.6-11.9 9.8 0 15.7 6 15.7 15.2v29.6zm0-15.6c-1.4-3.8-6.3-6.5-11.7-6.5-6.2 0-12 3-12 9.3 0 6.2 5.8 9.4 12 9.4 5.4 0 10.3-2.8 11.7-6.6z"/>
	<path id="path54" class="s1" d="m524.7 405.3h5v7c2.6-4.1 7.8-7.9 14-7.9 10 0 15.2 6.5 15.2 15.7v29.1h-4.8v-28.4c0-6.8-3.5-11.8-11.3-11.8-6 0-11 4.2-13.1 9.5v30.7h-5z"/>
	<path id="path58" fill-rule="evenodd" class="s1" d="m610.8 436.5c-1.7 8.1-7.8 13.6-17 13.6-11.6 0-19.5-9.2-19.5-22.8 0-13.1 7.4-22.9 19.4-22.9 11.6 0 17.8 9 17.8 21.5v1.8h-32.4c0.1 11.1 6.2 18.1 14.7 18.1 6.2 0 10.8-3.5 12.2-9.3zm-31.4-12.7h27.2c-0.3-7.7-4.2-15-12.9-15-7.9 0-13.3 5.8-14.3 15z"/>
	<path id="path62" class="s1" d="m629.7 395.3c-1.9 0-3.4-1.5-3.4-3.3 0-1.8 1.5-3.4 3.4-3.4 1.9 0 3.3 1.6 3.3 3.4 0 1.8-1.4 3.3-3.3 3.3zm2.5 60.3c0 7.5-4.3 11.3-11.1 11.3-0.8 0-1.8-0.1-2.3-0.3v-4.3c0.5 0.2 1.2 0.3 2 0.3 4 0 6.4-1.6 6.4-7.5v-49.8h5z"/>
	<path id="path66" fill-rule="evenodd" class="s1" d="m676.3 449.2v-4.1c-1.9 2.3-6.8 4.8-12.2 4.8-8.9 0-16.2-5.1-16.2-13.5 0-8.1 7.3-13.5 16.4-13.5 5.2 0 10 2.5 12 4.7v-7.8c0-6.6-4-11-11-11-5.4 0-9 2.3-10.7 7.5h-4.8c1.7-7.4 7.8-11.9 15.5-11.9 9.8 0 15.7 6 15.7 15.2v29.6zm0-15.6c-1.4-3.8-6.3-6.5-11.6-6.5-6.3 0-12.1 3-12.1 9.3 0 6.2 5.8 9.4 12.1 9.4 5.3 0 10.2-2.8 11.6-6.6z"/>
	<path id="path70" class="s1" d="m743.1 404.4c8.9 0 13.3 6.4 13.3 15.2v29.6h-4.8v-29c0-6.7-3-11.2-9.4-11.2-5.5 0-9.9 3.9-11.7 9.2v31h-5v-29c0-6.7-2.9-11.2-9.4-11.2-5.4 0-9.8 3.9-11.6 9.2v31h-5v-43.9h5v6.7c2.2-4.1 6.7-7.6 12.6-7.6 6.4 0 10.5 3.5 12.3 8.4 2.5-4.3 7.4-8.4 13.7-8.4z"/>
	<path id="path74" fill-rule="evenodd" class="s1" d="m808.4 436.5c-1.7 8.1-7.9 13.6-17.1 13.6-11.5 0-19.4-9.2-19.4-22.8 0-13.1 7.4-22.9 19.3-22.9 11.7 0 17.9 9 17.9 21.5v1.8h-32.4c0.1 11.1 6.1 18.1 14.6 18.1 6.3 0 10.9-3.5 12.3-9.3zm-31.4-12.7h27.2c-0.3-7.7-4.2-15-12.9-15-7.9 0-13.4 5.8-14.3 15z"/>
	<path id="path78" class="s1" d="m824.8 405.3h4.9v7c2.7-4.1 7.9-7.9 14.1-7.9 10 0 15.2 6.5 15.2 15.7v29.1h-4.8v-28.4c0-6.8-3.5-11.8-11.3-11.8-6 0-11 4.2-13.2 9.5v30.7h-4.9z"/>
	<path id="path82" class="s1" d="m879.5 409.6h-7.4v-4.3h7.4v-11.3h4.8v11.3h11.4v4.3h-11.4v29c0 4.9 2.2 7.1 6.4 7.1 2.2 0 4.3-0.7 6-1.7v4.6c-1.7 0.9-4.1 1.5-6.5 1.5-6.4 0-10.7-3.5-10.7-11.1z"/>
	<path id="path86" fill-rule="evenodd" class="s1" d="m927.6 450.1c-10.7 0-19.4-10.2-19.4-22.8 0-12.7 8.7-22.9 19.4-22.9 10.8 0 19.5 10.2 19.5 22.9 0 12.6-8.7 22.8-19.5 22.8zm14.5-22.8c0-10.3-6.5-18.5-14.5-18.5-8 0-14.5 8.2-14.5 18.5 0 10.2 6.5 18.5 14.5 18.5 8 0 14.5-8.3 14.5-18.5z"/>
	<path id="path90" fill-rule="evenodd" class="s1" d="m425.2 492.4c-0.7-6.5-4.7-10.6-11.1-10.6-6.2 0-11 3.9-11 10.8 0 5 3.4 8.4 7.3 12.6l18.7 19.9c2.6-4.3 4-9.9 4.2-15.8h4.6c-0.2 6.9-2.1 13.6-5.7 19.1l10.3 10.9h-6.3l-6.9-7.3c-4.5 5-10.8 8.1-18.4 8.1-11.1 0-19.1-7.9-19.1-18.5 0-7.6 5-14.1 11.8-16.9-3.2-3.7-5.2-7.2-5.2-12.1 0-9.1 6.8-15 15.7-15 9.9 0 15.1 6.6 15.9 14.8zm-28.6 29.2c0 8.2 6.1 14.2 14.4 14.2 6.5 0 11.7-2.6 15.5-6.8l-19.9-21.1c-5.7 1.9-10 7.4-10 13.7z"/>
	<path id="path94" fill-rule="evenodd" class="s1" d="m506.2 540.1c-14.9 0-26.9-13.9-26.9-31.2 0-17.3 12-31.3 26.9-31.3 14.8 0 26.8 14 26.8 31.3 0 17.3-12 31.2-26.8 31.2zm21.7-31.2c0-14.7-9.7-26.5-21.7-26.5-12.1 0-21.8 11.8-21.8 26.5 0 14.6 9.7 26.5 21.8 26.5 12 0 21.7-11.9 21.7-26.5z"/>
	<path id="path98" fill-rule="evenodd" class="s1" d="m553.7 539.3h-4.8v-64.3h4.8v26.9c2.5-3.8 7.6-7.5 13.7-7.5 12.9 0 19.1 10.7 19.1 22.9 0 12.2-6.2 22.8-19.1 22.8-6.1 0-11.2-3.6-13.7-7.4zm0-12.3c3 5.6 7.9 8.7 13.3 8.7 9.2 0 14.6-7.8 14.6-18.3 0-10.6-5.4-18.3-14.6-18.3-5.4 0-10.3 3-13.3 8.7z"/>
	<path id="path102" class="s1" d="m623.1 499.9c-1.2-0.5-2.5-0.8-4.1-0.8-5.3 0-9.6 3.8-11.7 9.5v30.7h-4.9v-44h4.9v7.1c2-4.4 6.5-8 11.9-8 1.7 0 2.9 0.3 3.9 0.6z"/>
	<path id="path106" fill-rule="evenodd" class="s1" d="m661.4 539.3v-4.2c-1.8 2.3-6.7 4.9-12.1 4.9-8.9 0-16.3-5.2-16.3-13.6 0-8.1 7.4-13.5 16.5-13.5 5.1 0 10 2.5 11.9 4.7v-7.8c0-6.6-3.9-11-10.9-11-5.5 0-9 2.4-10.7 7.5h-4.9c1.7-7.4 7.8-11.9 15.6-11.9 9.7 0 15.7 6 15.7 15.2v29.7zm0-15.7c-1.4-3.7-6.3-6.5-11.7-6.5-6.2 0-12 3.1-12 9.3 0 6.2 5.8 9.4 12 9.4 5.4 0 10.3-2.8 11.7-6.5z"/>
	<path id="path110" class="s1" d="m685.6 527.9c1.8 5.3 6.2 8 12.3 8 5.9 0 10.6-2.6 10.6-8.1 0-3.8-2.5-6.3-8.1-7.8l-8.2-2.3c-6.2-1.7-10.4-4.8-10.4-11.1 0-7.6 6.7-12.2 14.9-12.2 9.1 0 14.7 4.7 16.3 12h-4.9c-1.6-5.1-5.2-7.7-11.4-7.7-5.5 0-10.1 2.6-10.1 7.7 0 4.2 2.6 5.7 7.9 7.1l7.8 2.2c7.5 2 11 6.2 11 12 0 7.9-6.6 12.4-15.5 12.4-8.9 0-15.8-4.5-17.2-12.2z"/>
	<path id="path112" class="s1" d="m319.2 9v166h-153.2v-166z"/>
	<path id="path114" class="s1" d="m153.3 110.5v217.5h-153.3v-217.5z"/>
	<path id="path116" class="s0" d="m319.2 187.4v140.6h-153.2v-140.6z"/>
	<path id="path118" class="s0" d="m153.3 9v89h-153.3v-89z"/>
</svg>