<?xml version="1.0" encoding="utf-8"?>
<!DOCTYPE svg PUBLIC "-//W3C//DTD SVG 20010904//EN" "http://www.w3.org/TR/2001/REC-SVG-20010904/DTD/svg10.dtd">
<svg version="1.0" xmlns="http://www.w3.org/2000/svg" width="2562pt" height="938pt" viewBox="0 0 2562 938" style="" preserveAspectRatio="xMidYMid meet">
<g fill="#191F3FFF" stroke="#191F3FFF">
<path d="M 1446.372 38.761 C 1444.803 39.790 1439.984 49.575 1354.647 225.051 C 1313.041 310.604 1279.000 381.517 1279.000 382.636 C 1279.000 383.754 1284.671 394.532 1291.602 406.585 C 1298.533 418.638 1313.688 445.033 1325.279 465.239 C 1336.871 485.446 1346.462 501.871 1346.594 501.739 C 1346.725 501.608 1397.478 397.325 1459.377 270.000 L 1571.922 38.500 1509.711 38.261 C 1475.495 38.130 1446.993 38.355 1446.372 38.761 "/></g>
<g fill="#191F3FFF" stroke="#191F3FFF">
<path d="M 1205.643 40.242 C 1204.155 41.595 1184.109 81.806 1155.665 140.500 C 1129.543 194.400 1092.610 270.450 1073.590 309.500 C 1054.571 348.550 1039.007 381.452 1039.005 382.615 C 1039.002 383.779 1047.372 399.304 1057.603 417.115 C 1067.835 434.927 1083.015 461.363 1091.335 475.862 L 1106.464 502.224 1111.735 491.362 C 1114.634 485.388 1165.347 381.050 1224.430 259.500 L 1331.854 38.500 1269.992 38.242 L 1208.129 37.985 1205.643 40.242 "/></g>
<g fill="#191F3FFF" stroke="#191F3FFF">
<path d="M 1783.814 646.014 C 1736.052 653.560 1696.469 687.046 1680.991 733.000 C 1676.964 744.957 1675.000 758.068 1675.000 773.000 C 1675.000 800.054 1681.509 821.598 1696.431 843.937 C 1715.137 871.940 1746.173 892.065 1780.000 898.126 C 1791.050 900.106 1815.546 899.822 1825.960 897.593 C 1879.997 886.029 1919.280 844.423 1927.545 790.000 C 1933.440 751.184 1920.068 711.981 1891.038 682.969 C 1872.982 664.925 1850.934 652.898 1825.838 647.403 C 1817.273 645.527 1792.148 644.697 1783.814 646.014 M 1817.183 693.451 C 1831.952 696.581 1845.224 704.032 1856.500 715.523 C 1883.413 742.949 1886.342 791.030 1863.013 822.459 C 1830.979 865.615 1766.368 862.259 1736.711 815.898 C 1728.135 802.491 1725.487 792.085 1725.542 772.000 C 1725.589 755.046 1726.727 748.970 1732.058 737.212 C 1741.559 716.259 1763.431 698.246 1785.072 693.553 C 1793.504 691.724 1808.807 691.676 1817.183 693.451 "/></g>
<g fill="#191F3FFF" stroke="#191F3FFF">
<path d="M 21.396 649.902 L 15.291 650.500 64.849 778.750 C 92.106 849.288 114.662 907.000 114.974 907.000 C 115.287 907.000 130.833 874.111 149.521 833.914 C 168.209 793.717 183.725 760.689 184.000 760.517 C 184.275 760.346 197.761 793.227 213.969 833.588 C 230.176 873.948 243.742 906.414 244.114 905.735 C 244.895 904.309 339.000 651.125 339.000 650.449 C 339.000 650.202 327.335 650.000 313.078 650.000 L 287.155 650.000 286.128 653.250 C 285.564 655.038 276.256 685.525 265.445 721.000 C 254.633 756.475 245.467 786.086 245.075 786.803 C 244.659 787.562 233.127 760.256 217.431 721.346 C 202.619 684.628 189.600 653.554 188.500 652.292 C 186.558 650.064 185.831 649.978 163.601 649.336 L 140.701 648.674 141.366 651.322 C 141.732 652.779 145.675 663.090 150.130 674.235 C 155.605 687.936 158.222 695.796 158.208 698.500 C 158.194 701.307 153.099 715.250 141.124 745.254 C 131.739 768.769 123.407 789.244 122.610 790.754 L 121.160 793.500 120.003 790.500 C 119.367 788.850 114.643 775.125 109.504 760.000 C 80.106 673.464 72.770 652.388 71.694 651.369 C 70.326 650.073 31.277 648.934 21.396 649.902 "/></g>
<g fill="#191F3FFF" stroke="#191F3FFF">
<path d="M 1161.000 772.383 L 1161.000 897.000 1185.500 897.000 L 1210.000 897.000 1210.000 857.500 L 1210.000 818.000 1226.000 818.000 C 1240.480 818.000 1242.184 818.184 1243.932 819.932 C 1245.941 821.941 1274.729 865.148 1283.954 880.000 C 1295.049 897.863 1294.078 897.468 1325.997 897.118 C 1340.021 896.965 1351.551 896.763 1351.620 896.669 C 1351.688 896.576 1338.977 876.529 1323.372 852.120 C 1307.768 827.712 1295.003 807.462 1295.007 807.120 C 1295.011 806.779 1296.698 805.378 1298.757 804.007 C 1314.831 793.304 1326.505 774.997 1331.603 752.500 C 1334.209 741.004 1333.944 719.419 1331.064 708.500 C 1324.346 683.028 1307.687 664.580 1282.702 654.945 C 1267.595 649.119 1265.006 648.880 1210.750 648.299 L 1161.000 647.767 1161.000 772.383 M 1259.540 696.544 C 1262.818 697.393 1267.212 699.215 1269.303 700.594 C 1280.771 708.148 1286.805 732.120 1281.046 747.247 C 1276.800 758.402 1265.989 767.191 1253.201 769.884 C 1250.286 770.498 1239.374 771.000 1228.951 771.000 L 1210.000 771.000 1210.000 733.000 L 1210.000 695.000 1231.790 695.000 C 1248.194 695.000 1255.053 695.382 1259.540 696.544 "/></g>
<g fill="#191F3FFF" stroke="#191F3FFF">
<path d="M 1971.000 772.388 L 1971.000 897.000 1995.000 897.000 L 2019.000 897.000 2019.000 857.614 L 2019.000 818.229 2046.250 817.701 C 2066.048 817.317 2075.375 816.737 2080.358 815.579 C 2094.771 812.230 2108.098 804.859 2118.442 794.514 C 2127.893 785.064 2133.307 775.687 2137.614 761.307 C 2139.897 753.686 2140.317 750.144 2140.734 735.000 C 2141.263 715.783 2139.864 706.533 2134.643 694.728 C 2125.086 673.116 2103.288 656.383 2077.000 650.476 C 2070.722 649.066 2061.477 648.708 2020.250 648.283 L 1971.000 647.776 1971.000 772.388 M 2070.240 696.647 C 2081.574 699.828 2089.660 710.095 2092.084 724.387 C 2096.010 747.523 2083.944 765.838 2062.040 769.992 C 2059.118 770.547 2048.463 771.000 2038.364 771.000 L 2020.000 771.000 2020.000 733.000 L 2020.000 695.000 2042.184 695.000 C 2059.744 695.000 2065.593 695.343 2070.240 696.647 "/></g>
<g fill="#191F3FFF" stroke="#191F3FFF">
<path d="M 2180.750 647.900 C 2180.062 648.120 2179.169 648.795 2178.765 649.400 C 2178.361 650.005 2178.024 705.963 2178.015 773.750 L 2178.000 897.000 2265.000 897.000 L 2352.000 897.000 2352.000 873.500 L 2352.000 850.000 2289.500 850.000 L 2227.000 850.000 2227.000 822.500 L 2227.000 795.000 2280.000 795.000 L 2333.000 795.000 2333.000 772.000 L 2333.000 749.000 2280.000 749.000 L 2227.000 749.000 2227.000 721.500 L 2227.000 694.000 2287.500 694.000 L 2348.000 694.000 2348.000 671.559 C 2348.000 656.275 2347.648 648.901 2346.897 648.436 C 2345.746 647.725 2182.939 647.199 2180.750 647.900 "/></g>
<g fill="#191F3FFF" stroke="#191F3FFF">
<path d="M 944.000 772.500 L 944.000 897.000 1030.500 897.000 L 1117.000 897.000 1117.000 873.500 L 1117.000 850.000 1054.484 850.000 L 991.968 850.000 992.234 822.750 L 992.500 795.500 1045.750 795.241 L 1099.000 794.982 1099.000 771.991 L 1099.000 749.000 1045.484 749.000 L 991.968 749.000 992.234 721.750 L 992.500 694.500 1052.250 694.242 L 1112.000 693.984 1112.000 670.992 L 1112.000 648.000 1028.000 648.000 L 944.000 648.000 944.000 772.500 "/></g>
<g fill="#191F3FFF" stroke="#191F3FFF">
<path d="M 369.440 767.223 L 313.404 896.500 336.667 896.768 L 359.930 897.036 361.452 894.713 C 362.290 893.435 366.794 883.189 371.462 871.945 C 376.334 860.210 380.860 850.754 382.086 849.750 C 384.038 848.150 387.548 848.000 423.000 848.000 C 458.472 848.000 461.956 848.149 463.859 849.750 C 465.076 850.773 469.333 860.218 474.112 872.500 C 478.607 884.050 482.965 894.288 483.797 895.250 C 485.169 896.837 487.855 897.000 512.655 897.000 C 527.695 897.000 539.999 896.888 539.998 896.750 C 539.982 894.741 427.759 638.420 426.809 638.223 C 425.913 638.036 407.092 680.358 369.440 767.223 M 435.764 775.250 C 441.889 790.788 447.196 804.288 447.557 805.250 C 448.172 806.887 446.621 807.000 423.500 807.000 C 400.380 807.000 398.828 806.887 399.441 805.250 C 403.459 794.515 423.463 747.000 423.964 747.000 C 424.329 747.000 429.639 759.713 435.764 775.250 "/></g>
<g fill="#191F3FFF" stroke="#191F3FFF">
<path d="M 2458.000 646.959 C 2417.966 652.117 2394.324 672.219 2388.406 706.132 C 2383.791 732.577 2392.465 756.272 2412.262 771.302 C 2420.378 777.462 2425.458 780.145 2448.627 790.506 C 2476.075 802.780 2489.215 811.759 2492.565 820.530 C 2496.331 830.391 2492.540 843.582 2484.299 849.293 C 2476.427 854.748 2469.790 856.352 2455.000 856.374 C 2442.421 856.393 2440.836 856.173 2431.768 853.156 C 2426.416 851.375 2416.022 846.876 2408.671 843.158 L 2395.307 836.399 2385.054 854.644 C 2379.415 864.678 2374.784 873.251 2374.762 873.694 C 2374.687 875.244 2402.388 888.822 2412.897 892.387 C 2427.790 897.439 2436.523 899.094 2451.605 899.725 C 2472.990 900.619 2490.268 897.270 2507.879 888.819 C 2516.437 884.712 2519.511 882.580 2525.395 876.669 C 2538.639 863.364 2544.173 848.677 2544.297 826.500 C 2544.413 805.886 2539.727 792.539 2527.805 779.528 C 2520.039 771.053 2510.621 764.928 2495.331 758.409 C 2480.546 752.104 2455.764 739.364 2448.021 734.086 C 2440.742 729.125 2437.750 723.462 2437.871 714.875 C 2438.101 698.528 2450.343 689.582 2472.500 689.569 C 2482.363 689.563 2482.801 689.666 2504.500 697.154 C 2516.600 701.330 2527.178 705.034 2528.006 705.387 C 2529.164 705.879 2531.560 701.926 2538.343 688.333 L 2547.173 670.639 2544.836 668.816 C 2541.215 665.989 2519.249 655.398 2512.000 652.982 C 2495.467 647.473 2473.246 644.994 2458.000 646.959 "/></g>
<g fill="#ED1E3CFF" stroke="#ED1E3CFF">
<path d="M 69.069 371.088 C 41.881 376.421 22.386 396.157 16.591 424.215 C 9.211 459.941 30.542 495.552 64.053 503.451 C 67.599 504.287 74.325 504.969 79.000 504.968 C 96.146 504.963 108.149 500.469 119.579 489.777 L 126.251 483.536 125.769 496.518 C 125.433 505.573 124.784 510.641 123.621 513.272 C 119.428 522.763 109.999 528.800 95.892 531.027 C 82.087 533.207 69.123 529.450 56.575 519.635 C 53.317 517.086 50.392 515.031 50.075 515.069 C 49.427 515.146 28.660 539.725 28.212 540.945 C 27.693 542.357 42.315 552.786 50.663 556.958 C 66.316 564.780 83.660 567.382 101.741 564.620 C 134.474 559.620 154.867 543.815 162.701 517.376 C 164.266 512.095 164.474 504.637 164.761 443.750 L 165.079 376.000 148.789 376.015 C 131.018 376.031 127.738 376.791 127.165 381.025 C 126.589 385.283 125.288 385.545 120.768 382.312 C 114.188 377.607 104.664 373.133 97.760 371.506 C 90.982 369.908 76.185 369.692 69.069 371.088 M 103.819 403.867 C 112.913 406.697 120.678 412.574 124.092 419.210 C 125.639 422.218 126.000 425.064 126.000 434.250 C 126.000 454.249 121.939 463.475 110.743 468.915 C 96.657 475.759 79.229 474.551 68.203 465.966 C 50.170 451.928 50.532 421.280 68.881 408.579 C 78.341 402.031 92.001 400.188 103.819 403.867 "/></g>
<g fill="#ED1E3CFF" stroke="#ED1E3CFF">
<path d="M 549.075 371.087 C 538.775 373.108 528.038 377.728 518.150 384.393 C 515.207 386.377 512.656 388.000 512.481 388.000 C 512.306 388.000 511.203 385.114 510.029 381.587 C 508.855 378.060 507.207 374.910 506.366 374.587 C 505.525 374.264 498.123 374.000 489.918 374.000 L 475.000 374.000 475.000 468.000 L 475.000 562.000 494.500 562.000 L 514.000 562.000 514.000 526.500 C 514.000 506.975 514.165 491.000 514.368 491.000 C 514.570 491.000 517.735 493.012 521.402 495.470 C 530.445 501.534 538.997 504.118 552.095 504.740 C 573.464 505.756 590.605 499.616 604.103 486.108 C 612.927 477.279 617.777 468.278 620.544 455.597 C 622.609 446.136 622.087 423.937 619.590 415.000 C 613.459 393.058 595.878 375.838 575.115 371.437 C 567.843 369.895 555.963 369.736 549.075 371.087 M 563.295 406.356 C 584.337 416.651 589.144 446.909 572.398 463.655 C 559.288 476.764 537.264 478.297 523.108 467.085 C 516.889 462.160 514.710 456.521 514.209 444.056 C 513.517 426.847 516.675 415.638 523.732 410.255 C 533.738 402.624 551.990 400.825 563.295 406.356 "/></g>
<g fill="#191F3FFF" stroke="#191F3FFF">
<path d="M 736.000 671.500 L 736.000 695.000 765.000 695.000 L 794.000 695.000 794.000 796.000 L 794.000 897.000 818.500 897.000 L 843.000 897.000 843.000 795.500 L 843.000 694.000 873.000 694.000 L 903.000 694.000 903.000 671.000 L 903.000 648.000 819.500 648.000 L 736.000 648.000 736.000 671.500 "/></g>
<g fill="#191F3FFF" stroke="#191F3FFF">
<path d="M 1488.000 772.500 L 1488.000 897.000 1570.500 897.000 L 1653.000 897.000 1653.000 873.500 L 1653.000 850.000 1594.500 850.000 L 1536.000 850.000 1536.000 749.000 L 1536.000 648.000 1512.000 648.000 L 1488.000 648.000 1488.000 772.500 "/></g>
<g fill="#191F3FFF" stroke="#191F3FFF">
<path d="M 570.000 772.500 L 570.000 897.000 652.500 897.000 L 735.000 897.000 735.000 873.500 L 735.000 850.000 676.000 850.000 L 617.000 850.000 617.000 749.000 L 617.000 648.000 593.500 648.000 L 570.000 648.000 570.000 772.500 "/></g>
<g fill="#ED1E3CFF" stroke="#ED1E3CFF">
<path d="M 698.000 370.912 C 671.267 374.732 650.855 390.936 642.255 415.165 C 638.513 425.708 637.880 444.132 640.854 455.895 C 644.114 468.785 648.322 476.402 656.960 485.044 C 665.538 493.627 674.118 498.600 686.545 502.194 C 693.325 504.155 696.789 504.494 710.000 504.491 C 727.659 504.486 733.844 503.256 745.925 497.348 C 755.760 492.539 767.146 481.341 772.207 471.500 C 781.513 453.406 783.088 431.725 776.487 412.619 C 769.908 393.580 752.617 378.402 731.287 372.945 C 722.561 370.712 706.333 369.721 698.000 370.912 M 724.078 405.639 C 733.710 410.881 739.669 420.659 740.695 432.906 C 742.097 449.631 735.473 464.022 723.500 470.261 C 717.737 473.264 704.605 473.883 698.226 471.452 C 691.658 468.950 683.768 460.668 681.063 453.438 C 672.804 431.364 682.675 408.078 702.500 402.868 C 708.283 401.348 718.637 402.678 724.078 405.639 "/></g>
<g fill="#ED1E3CFF" stroke="#ED1E3CFF">
<path d="M 1467.737 389.250 C 1466.139 390.464 1413.000 498.928 1413.000 500.976 C 1413.000 501.664 1433.364 502.000 1474.961 502.000 C 1535.080 502.000 1536.975 501.942 1538.711 500.053 C 1539.695 498.982 1545.434 487.845 1551.465 475.303 C 1557.496 462.761 1569.312 438.354 1577.722 421.064 C 1588.993 397.894 1592.684 389.417 1591.757 388.829 C 1591.066 388.390 1563.249 388.024 1529.941 388.015 C 1483.019 388.003 1469.012 388.281 1467.737 389.250 "/></g>
<g fill="#ED1E3CFF" stroke="#ED1E3CFF">
<path d="M 313.208 428.750 L 313.500 480.500 316.181 486.220 C 324.056 503.022 344.749 511.448 365.897 506.463 C 376.379 503.992 385.177 498.712 393.049 490.168 C 396.861 486.031 400.171 482.839 400.404 483.073 C 400.637 483.308 401.322 487.100 401.927 491.500 C 402.623 496.560 403.603 499.930 404.595 500.670 C 405.661 501.465 411.120 501.783 421.624 501.661 C 434.095 501.517 437.267 501.194 438.031 499.991 C 438.607 499.084 438.885 474.807 438.739 438.000 L 438.500 377.500 419.250 377.228 L 400.000 376.957 400.000 403.906 C 400.000 440.710 398.294 451.179 390.425 462.651 C 380.218 477.535 361.601 478.997 354.155 465.500 C 352.702 462.866 352.463 457.286 352.200 419.750 L 351.901 377.000 332.408 377.000 L 312.916 377.000 313.208 428.750 "/></g>
<g fill="#191F3FFF" stroke="#191F3FFF">
<path d="M 969.247 40.928 C 972.765 49.150 1029.584 165.923 1030.084 165.958 C 1030.653 165.999 1092.000 39.818 1092.000 38.608 C 1092.000 38.274 1064.099 38.000 1029.997 38.000 L 967.994 38.000 969.247 40.928 "/></g>
<g fill="#ED1E3CFF" stroke="#ED1E3CFF">
<path d="M 277.484 372.838 C 265.063 377.741 251.508 388.588 243.798 399.793 C 242.138 402.206 240.439 403.802 240.023 403.340 C 239.607 402.878 238.724 397.550 238.060 391.500 C 237.397 385.450 236.632 379.713 236.360 378.750 C 235.914 377.172 234.204 377.000 218.933 377.000 L 202.000 377.000 202.000 439.500 L 202.000 502.000 218.750 501.986 C 227.963 501.979 236.513 501.701 237.750 501.370 L 240.000 500.767 240.000 474.593 C 240.000 454.360 240.347 447.068 241.530 442.460 C 246.370 423.615 260.067 410.946 277.346 409.332 C 281.003 408.991 284.446 408.167 284.998 407.503 C 285.550 406.838 286.297 398.128 286.658 388.147 C 287.211 372.892 287.091 370.005 285.908 370.034 C 285.134 370.053 281.343 371.315 277.484 372.838 "/></g>
</svg>
