<?xml version="1.0" encoding="UTF-8" standalone="no"?>
<svg
   xmlns:dc="http://purl.org/dc/elements/1.1/"
   xmlns:cc="http://creativecommons.org/ns#"
   xmlns:rdf="http://www.w3.org/1999/02/22-rdf-syntax-ns#"
   xmlns:svg="http://www.w3.org/2000/svg"
   xmlns="http://www.w3.org/2000/svg"
   viewBox="0 0 1440 1119.4694"
   height="1119.4694"
   width="1440"
   xml:space="preserve"
   id="svg2"
   version="1.1"><metadata
     id="metadata8"><rdf:RDF><cc:Work
         rdf:about=""><dc:format>image/svg+xml</dc:format><dc:type
           rdf:resource="http://purl.org/dc/dcmitype/StillImage" /></cc:Work></rdf:RDF></metadata><defs
     id="defs6"><clipPath
       id="clipPath18"
       clipPathUnits="userSpaceOnUse"><path
         id="path16"
         d="M 0,839.602 H 1080 V 0 H 0 Z" /></clipPath></defs><g
     transform="matrix(1.3333333,0,0,-1.3333333,0,1119.4693)"
     id="g10"><g
       id="g12"><g
         clip-path="url(#clipPath18)"
         id="g14"><g
           transform="translate(642.7959,738.6592)"
           id="g20"><path
             id="path22"
             style="fill:#3db83e;fill-opacity:1;fill-rule:nonzero;stroke:none"
             d="m 0,0 c -5.24,-11.73 -10.239,-22.955 -15.266,-34.166 -51.835,-115.605 -103.678,-231.205 -155.511,-346.811 -22.993,-51.28 -45.985,-102.561 -68.901,-153.876 -1.168,-2.617 -2.525,-3.571 -5.51,-3.56 -34.798,0.132 -69.597,0.125 -104.395,0.009 -2.832,-0.01 -4.104,0.872 -5.167,3.424 -58.417,140.113 -116.896,280.201 -175.377,420.288 -15.281,36.603 -30.588,73.196 -45.876,109.796 -0.614,1.468 -1.165,2.962 -1.924,4.897 h 4.3 c 32.553,0 65.106,0.004 97.66,-0.001 19.406,-0.003 32.921,-9.01 40.379,-26.863 46.391,-111.051 92.785,-222.099 139.182,-333.146 0.475,-1.137 1.007,-2.252 1.797,-4.012 3.006,6.654 5.797,12.786 8.553,18.932 47.763,106.541 95.532,213.079 143.271,319.631 7.533,16.812 20.806,25.181 38.843,25.359 C -69.524,0.241 -35.101,0 0,0" /></g><g
           transform="translate(622.1709,301.2871)"
           id="g24"><path
             id="path26"
             style="fill:#49a4e0;fill-opacity:1;fill-rule:nonzero;stroke:none"
             d="m 0,0 h 4.606 c 107.507,0 215.014,-0.14 322.521,0.137 18,0.047 34.735,-10.935 40.56,-29.224 7.286,-22.877 15.276,-45.531 23.07,-68.244 0.974,-2.842 0.77,-3.721 -2.578,-3.719 -187.202,0.074 -374.405,0.075 -561.606,-0.001 -3.587,-0.001 -3.387,0.96 -2.179,3.651 47.102,104.93 94.148,209.886 141.198,314.84 29.074,64.858 58.125,129.726 87.223,194.573 7.574,16.877 20.838,25.281 39.221,25.352 33.05,0.127 66.101,0.037 99.151,0.033 4.371,-0.001 4.421,-0.038 2.65,-3.991 C 171.894,384.449 149.928,335.5 127.979,286.544 98.342,220.438 68.716,154.326 39.08,88.22 26.604,60.391 14.113,32.568 1.632,4.742 0.981,3.293 0.107,1.914 0,0" /></g><g
           transform="translate(590.3955,116.8125)"
           id="g28"><path
             id="path30"
             style="fill:#6f7374;fill-opacity:1;fill-rule:nonzero;stroke:none"
             d="m 0,0 v 14.809 c 0,8.102 -0.001,16.206 0,24.309 0.001,4.197 3.229,6.225 7.137,4.573 1.156,-0.488 0.912,-1.368 0.913,-2.168 0.019,-18.7 0.018,-37.399 0.006,-56.098 -10e-4,-0.944 0.241,-2.343 -1.251,-2.196 -2.33,0.231 -5.057,-1.285 -6.913,1.3 -1.235,1.719 -2.375,3.506 -3.546,5.271 -8.33,12.549 -16.658,25.099 -25.022,37.704 -1.201,-0.757 -0.643,-1.85 -0.646,-2.705 -0.044,-12.716 -0.186,-25.435 0.066,-38.146 0.072,-3.663 -1.654,-3.573 -4.256,-3.561 -2.5,0.011 -4.038,0.015 -4,3.436 0.197,17.826 0.065,35.654 0.15,53.48 0.006,1.236 -1.119,3.53 1.232,3.614 2.29,0.083 5.065,1.358 6.893,-1.258 1.784,-2.551 3.463,-5.176 5.191,-7.766 C -16.303,22.999 -8.559,11.401 -0.815,-0.196 -0.544,-0.131 -0.271,-0.065 0,0" /></g><g
           transform="translate(725.6143,133.6445)"
           id="g32"><path
             id="path34"
             style="fill:#707475;fill-opacity:1;fill-rule:nonzero;stroke:none"
             d="m 0,0 c 2.823,0.262 6.202,-0.468 9.515,0.515 4.544,1.346 6.579,4.11 6.596,9.111 0.019,5.191 -1.826,7.814 -6.339,9.288 -2.933,0.958 -5.926,0.552 -8.894,0.577 -3.34,0.029 -7.754,1.108 -9.741,-0.578 -2.331,-1.976 -0.7,-6.537 -0.746,-9.966 C -9.732,0.001 -9.65,0 0,0 m 25.687,-33.173 c -6.512,-1.909 -10.123,0.186 -12.456,6.105 -2.314,5.872 -5.783,11.281 -8.584,16.972 -0.935,1.9 -1.955,2.962 -4.236,2.722 -3.191,-0.336 -7.334,1.301 -9.375,-0.647 -2.067,-1.972 -0.574,-6.13 -0.656,-9.327 -0.115,-4.483 -0.233,-8.983 0.039,-13.453 0.195,-3.22 -1.666,-3.066 -3.723,-2.863 -1.815,0.18 -4.344,-1.16 -4.319,2.653 0.125,18.442 0.091,36.884 0.012,55.325 -0.01,2.254 0.875,2.677 2.87,2.652 7.354,-0.094 14.713,0.068 22.065,-0.078 8.53,-0.171 14.874,-5.276 16.508,-12.995 1.827,-8.632 -1.626,-16.073 -9.556,-19.767 -2.181,-1.018 -1.949,-1.842 -1.057,-3.518 4.191,-7.879 8.296,-15.803 12.468,-23.781" /></g><g
           transform="translate(924.8604,143.9004)"
           id="g36"><path
             id="path38"
             style="fill:#6f7374;fill-opacity:1;fill-rule:nonzero;stroke:none"
             d="m 0,0 c 0,-3.074 0.056,-5.562 -0.021,-8.045 -0.046,-1.502 0.317,-2.272 2.042,-2.24 4.972,0.092 9.956,-0.137 14.918,0.1 5.524,0.264 8.927,3.968 9.094,9.388 0.173,5.613 -3.137,9.409 -8.885,9.943 -2.466,0.229 -4.97,0.171 -7.454,0.1 C 6.611,9.157 2.6,10.566 0.688,8.719 -1.424,6.678 0.359,2.588 0,0 m -8.005,-13.439 c 0,8.847 0.09,17.697 -0.056,26.543 -0.043,2.632 0.439,3.747 3.427,3.644 6.975,-0.238 13.963,-0.021 20.945,-0.091 8.839,-0.088 15.575,-5.099 17.201,-12.676 1.927,-8.978 -1.564,-16.299 -9.896,-20.276 -1.745,-0.833 -1.725,-1.447 -0.903,-2.971 3.896,-7.226 7.639,-14.537 11.499,-21.784 1.032,-1.936 1.384,-2.757 -1.577,-3.011 -4.603,-0.395 -7.143,1.096 -9.011,5.439 -2.748,6.384 -6.338,12.402 -9.447,18.638 -0.823,1.646 -1.778,2.321 -3.681,2.37 C -0.002,-17.35 0,-17.294 0,-27.893 c 0,-4.237 -0.215,-8.488 0.072,-12.706 0.203,-2.991 -0.953,-3.659 -3.605,-3.374 -2.194,0.236 -4.694,-0.851 -4.563,3.244 0.291,9.088 0.091,18.192 0.091,27.29" /></g><g
           transform="translate(531.9194,130.083)"
           id="g40"><path
             id="path42"
             style="fill:#6f7374;fill-opacity:1;fill-rule:nonzero;stroke:none"
             d="m 0,0 c -0.217,3.726 -0.368,7.58 -0.68,11.422 -0.572,7.056 -5.743,11.96 -12.718,12.18 -6.896,0.217 -12.732,-4.493 -13.391,-11.448 -0.752,-7.938 -0.759,-15.949 -0.009,-23.889 0.656,-6.958 6.427,-11.751 13.256,-11.631 6.944,0.123 12.209,5.012 12.84,12.061 C -0.369,-7.592 -0.233,-3.861 0,0 M 7.414,-0.026 C 7.263,-4.867 7.879,-9.721 6.898,-14.558 4.964,-24.091 -3.683,-30.887 -14.016,-30.774 c -10.309,0.111 -19.076,7.11 -20.421,16.728 -1.279,9.157 -1.306,18.417 -0.09,27.564 1.453,10.926 10.692,18.011 21.956,17.467 C -1.623,30.457 6.66,22.484 7.374,11.56 7.625,7.713 7.414,3.836 7.414,-0.026" /></g><g
           transform="translate(868.7998,130.3594)"
           id="g44"><path
             id="path46"
             style="fill:#6f7274;fill-opacity:1;fill-rule:nonzero;stroke:none"
             d="m 0,0 c 0,-3.612 -0.04,-7.227 0.026,-10.839 0.018,-0.979 0.328,-1.961 0.553,-2.93 1.407,-6.055 6.904,-10.155 13.213,-9.87 6.506,0.295 11.518,4.585 12.356,10.879 1.123,8.43 1.11,16.896 -0.006,25.325 -0.796,6.011 -5.866,10.4 -12.089,10.76 C 7.674,23.694 2.132,19.739 0.603,13.77 -0.562,9.226 0.006,4.595 0,0 m 34.302,-0.018 c -0.038,-5.214 0.666,-10.469 -0.535,-15.643 -2.16,-9.303 -11.434,-15.919 -21.596,-15.382 -10.37,0.548 -18.655,7.873 -19.747,17.542 -0.996,8.816 -0.955,17.646 -0.024,26.464 1.109,10.489 10.129,17.95 21.388,17.746 10.875,-0.197 19.766,-8.08 20.468,-18.397 0.278,-4.092 0.046,-8.219 0.046,-12.33" /></g><g
           transform="translate(988.6348,147.6875)"
           id="g48"><path
             id="path50"
             style="fill:#6f7274;fill-opacity:1;fill-rule:nonzero;stroke:none"
             d="m 0,0 c -3.171,-8.904 -6.028,-16.912 -8.869,-24.925 -0.666,-1.877 0.704,-1.711 1.816,-1.714 4.597,-0.012 9.194,0.035 13.789,-0.025 1.779,-0.023 2.623,0.456 1.937,2.369 C 5.887,-16.522 3.119,-8.743 0,0 m 20.481,-47.723 c -2.812,-0.827 -4.002,0.959 -4.861,3.655 -1.049,3.289 -1.581,7.529 -3.911,9.412 -2.55,2.06 -6.943,0.519 -10.529,0.624 -3.609,0.105 -7.224,-0.059 -10.831,0.056 -1.783,0.057 -2.716,-0.572 -3.262,-2.273 -1.023,-3.191 -2.254,-6.314 -3.338,-9.487 -0.444,-1.3 -1.067,-1.934 -2.615,-2.038 -6.776,-0.458 -6.84,-0.47 -4.487,5.951 6.325,17.254 12.737,34.476 18.964,51.765 0.896,2.487 2.216,2.998 4.639,3.038 2.502,0.042 3.348,-1.001 4.128,-3.155 6.428,-17.75 12.987,-35.453 19.506,-53.172 1.612,-4.382 1.611,-4.382 -3.403,-4.376" /></g><g
           transform="translate(804.4707,138.0635)"
           id="g52"><path
             id="path54"
             style="fill:#6f7374;fill-opacity:1;fill-rule:nonzero;stroke:none"
             d="m 0,0 c 0,-6.228 0.17,-12.461 -0.037,-18.681 -0.378,-11.373 -8.169,-19.22 -19.622,-20.051 -11.492,-0.834 -20.826,6.097 -22.752,17.088 -0.425,2.425 -0.264,4.962 -0.27,7.448 -0.023,11.085 0.163,22.175 -0.106,33.253 -0.092,3.726 1.793,3.391 4.296,3.525 2.869,0.153 3.83,-0.634 3.786,-3.67 -0.177,-12.203 -0.216,-24.413 -0.02,-36.616 0.162,-10.101 8.277,-15.799 17.94,-12.922 5.766,1.717 8.997,6.745 9.029,14.325 0.049,11.708 0.152,23.419 -0.075,35.122 -0.065,3.345 1.156,3.74 4.043,3.8 3.124,0.066 4.019,-0.828 3.893,-3.941 C -0.146,12.462 0.03,6.228 0.03,0 Z" /></g><g
           transform="translate(630.2568,99.334)"
           id="g56"><path
             id="path58"
             style="fill:#6f7374;fill-opacity:1;fill-rule:nonzero;stroke:none"
             d="m 0,0 c -7.498,0.013 -14.219,1.992 -19.666,7.492 -1.419,1.433 -1.693,2.28 -0.117,3.845 3.472,3.445 3.377,3.541 7.337,0.354 5.616,-4.518 11.967,-5.287 18.688,-3.368 4.718,1.347 7.169,5.058 6.938,9.827 -0.224,4.615 -2.401,7.039 -7.652,8.145 -3.889,0.818 -7.867,1.23 -11.74,2.109 -8.751,1.989 -13.605,8.003 -13.44,16.356 0.167,8.487 5.408,14.723 13.966,16.491 8.289,1.711 15.831,0.131 22.378,-5.393 1.03,-0.869 3.042,-1.92 0.855,-3.351 -1.688,-1.103 -2.251,-5.361 -5.679,-2.426 -4.922,4.215 -10.535,5.412 -16.745,3.736 -4.256,-1.148 -6.616,-4.248 -6.834,-8.704 -0.224,-4.6 1.415,-6.998 5.966,-8.747 C -2.221,35.012 1.513,34.728 5.202,34.201 16.961,32.524 23.077,24.169 20.609,13.187 18.941,5.766 11.83,0.655 2.242,0.007 1.498,-0.044 0.748,0 0,0" /></g><g
           transform="translate(443.6113,130.1357)"
           id="g60"><path
             id="path62"
             style="fill:#6e7274;fill-opacity:1;fill-rule:nonzero;stroke:none"
             d="m 0,0 c 0.098,5.216 -0.621,10.476 0.627,15.642 2.328,9.639 11.706,16.044 22.378,15.278 10.12,-0.727 18.415,-8.533 19.336,-18.195 0.056,-0.588 0.35,-1.169 -0.311,-1.667 -1.847,-1.391 -7.325,0.195 -8.056,2.36 C 31.619,20.4 26.585,24.074 20.118,23.53 13.324,22.959 8.904,18.55 8.035,11.096 7.167,3.653 7.189,-3.823 8.061,-11.271 c 0.837,-7.16 5.208,-11.503 11.994,-12.12 6.266,-0.569 11.654,3.184 13.953,9.591 0.482,1.343 0.198,3.147 2.713,3.303 6.049,0.375 6.526,-0.068 4.609,-5.829 C 38.062,-26.148 28.791,-32.036 18.673,-30.717 7.669,-29.281 0.527,-21.729 0.026,-10.839 -0.14,-7.233 0,-3.613 0,0" /></g><g
           transform="translate(681.542,126.623)"
           id="g64"><path
             id="path66"
             style="fill:#717576;fill-opacity:1;fill-rule:nonzero;stroke:none"
             d="m 0,0 c 0,-7.979 -0.147,-15.96 0.064,-23.933 0.1,-3.779 -2.396,-2.599 -4.249,-2.71 -1.96,-0.116 -3.851,-0.518 -3.816,2.798 0.165,15.581 -0.009,31.165 0.144,46.746 0.029,3.001 -0.86,3.885 -3.772,3.691 -3.601,-0.239 -7.233,0.032 -10.847,-0.08 -3.616,-0.114 -2.167,2.55 -2.369,4.206 -0.214,1.744 -0.343,3.332 2.479,3.299 12.345,-0.145 24.695,-0.144 37.041,-0.001 2.82,0.032 2.713,-1.535 2.507,-3.311 -0.195,-1.674 1.211,-4.306 -2.39,-4.194 -3.737,0.116 -7.5,-0.198 -11.219,0.093 C 0.461,26.846 -0.125,25.618 -0.06,22.811 0.116,15.211 0.001,7.604 0,0" /></g><g
           transform="translate(830.0381,126.6514)"
           id="g68"><path
             id="path70"
             style="fill:#707375;fill-opacity:1;fill-rule:nonzero;stroke:none"
             d="m 0,0 c 0,7.592 -0.113,15.187 0.059,22.774 0.063,2.809 -0.553,4.042 -3.648,3.802 -3.589,-0.278 -7.225,0.09 -10.825,-0.109 -3.192,-0.178 -2.57,1.975 -2.502,3.704 0.063,1.6 -1.018,3.835 2.33,3.801 12.451,-0.125 24.904,-0.115 37.356,-0.009 3.321,0.028 2.233,-2.224 2.329,-3.838 0.107,-1.797 0.576,-3.846 -2.56,-3.659 -3.474,0.207 -6.986,-0.159 -10.452,0.106 -3.15,0.242 -4.226,-0.53 -4.175,-3.986 0.223,-15.181 -0.008,-30.367 0.18,-45.549 0.04,-3.229 -0.96,-3.849 -3.96,-3.841 -3.089,0.009 -4.371,0.512 -4.227,4.033 C 0.215,-15.192 0,-7.592 0,0" /></g></g></g></g></svg>