<?xml version="1.0" encoding="UTF-8" standalone="no"?>
<!-- Created with Inkscape (http://www.inkscape.org/) -->

<svg
   version="1.1"
   id="svg1"
   width="793.70135"
   height="261.63333"
   viewBox="0 0 793.70135 261.63333"
   sodipodi:docname="bd0cc224-394d-4b68-9d24-865259bc3500.pdf"
   xmlns:inkscape="http://www.inkscape.org/namespaces/inkscape"
   xmlns:sodipodi="http://sodipodi.sourceforge.net/DTD/sodipodi-0.dtd"
   xmlns="http://www.w3.org/2000/svg"
   xmlns:svg="http://www.w3.org/2000/svg">
  <defs
     id="defs1">
    <clipPath
       clipPathUnits="userSpaceOnUse"
       id="clipPath2">
      <path
         d="M 0,196.225 H 595.276 V 0 H 0 Z"
         transform="translate(-460.69431,-112.7734)"
         id="path2" />
    </clipPath>
    <clipPath
       clipPathUnits="userSpaceOnUse"
       id="clipPath4">
      <path
         d="M 0,196.225 H 595.276 V 0 H 0 Z"
         transform="translate(-348.75591,-121.2119)"
         id="path4" />
    </clipPath>
    <clipPath
       clipPathUnits="userSpaceOnUse"
       id="clipPath6">
      <path
         d="M 0,196.225 H 595.276 V 0 H 0 Z"
         transform="translate(-400.54691,-133.458)"
         id="path6" />
    </clipPath>
    <clipPath
       clipPathUnits="userSpaceOnUse"
       id="clipPath8">
      <path
         d="M 0,196.225 H 595.276 V 0 H 0 Z"
         transform="translate(-208.189,-123.2388)"
         id="path8" />
    </clipPath>
    <clipPath
       clipPathUnits="userSpaceOnUse"
       id="clipPath10">
      <path
         d="M 0,196.225 H 595.276 V 0 H 0 Z"
         transform="translate(-236.02251,-131.5859)"
         id="path10" />
    </clipPath>
    <clipPath
       clipPathUnits="userSpaceOnUse"
       id="clipPath12">
      <path
         d="M 0,196.225 H 595.276 V 0 H 0 Z"
         transform="translate(-147.0166,-133.354)"
         id="path12" />
    </clipPath>
    <clipPath
       clipPathUnits="userSpaceOnUse"
       id="clipPath14">
      <path
         d="M 0,196.225 H 595.276 V 0 H 0 Z"
         transform="translate(-297.78961,-123.5059)"
         id="path14" />
    </clipPath>
    <clipPath
       clipPathUnits="userSpaceOnUse"
       id="clipPath16">
      <path
         d="M 0,196.225 H 595.276 V 0 H 0 Z"
         transform="translate(-297.83941,-117.7871)"
         id="path16" />
    </clipPath>
    <clipPath
       clipPathUnits="userSpaceOnUse"
       id="clipPath18">
      <path
         d="M 0,196.225 H 595.276 V 0 H 0 Z"
         transform="translate(-297.84331,-105.76321)"
         id="path18" />
    </clipPath>
    <clipPath
       clipPathUnits="userSpaceOnUse"
       id="clipPath20">
      <path
         d="M 0,196.225 H 595.276 V 0 H 0 Z"
         transform="translate(-297.92191,-93.886205)"
         id="path20" />
    </clipPath>
    <clipPath
       clipPathUnits="userSpaceOnUse"
       id="clipPath22">
      <path
         d="M 0,196.225 H 595.276 V 0 H 0 Z"
         transform="translate(-419.71871,-70.793502)"
         id="path22" />
    </clipPath>
    <clipPath
       clipPathUnits="userSpaceOnUse"
       id="clipPath24">
      <path
         d="M 0,196.225 H 595.276 V 0 H 0 Z"
         transform="translate(-181.0078,-60.064902)"
         id="path24" />
    </clipPath>
    <clipPath
       clipPathUnits="userSpaceOnUse"
       id="clipPath26">
      <path
         d="M 0,196.225 H 595.276 V 0 H 0 Z"
         transform="translate(-331.51661,-60.064902)"
         id="path26" />
    </clipPath>
    <clipPath
       clipPathUnits="userSpaceOnUse"
       id="clipPath28">
      <path
         d="M 0,196.225 H 595.276 V 0 H 0 Z"
         transform="translate(-153.63231,-67.261204)"
         id="path28" />
    </clipPath>
    <clipPath
       clipPathUnits="userSpaceOnUse"
       id="clipPath30">
      <path
         d="M 0,196.225 H 595.276 V 0 H 0 Z"
         transform="translate(-388.11911,-67.096204)"
         id="path30" />
    </clipPath>
    <clipPath
       clipPathUnits="userSpaceOnUse"
       id="clipPath32">
      <path
         d="M 0,196.225 H 595.276 V 0 H 0 Z"
         transform="translate(-162.3208,-70.687504)"
         id="path32" />
    </clipPath>
    <clipPath
       clipPathUnits="userSpaceOnUse"
       id="clipPath34">
      <path
         d="M 0,196.225 H 595.276 V 0 H 0 Z"
         transform="translate(-313.38091,-70.741699)"
         id="path34" />
    </clipPath>
    <clipPath
       clipPathUnits="userSpaceOnUse"
       id="clipPath36">
      <path
         d="M 0,196.225 H 595.276 V 0 H 0 Z"
         transform="translate(-345.72461,-70.668904)"
         id="path36" />
    </clipPath>
    <clipPath
       clipPathUnits="userSpaceOnUse"
       id="clipPath38">
      <path
         d="M 0,196.225 H 595.276 V 0 H 0 Z"
         transform="translate(-269.146,-73.721704)"
         id="path38" />
    </clipPath>
    <clipPath
       clipPathUnits="userSpaceOnUse"
       id="clipPath40">
      <path
         d="M 0,196.225 H 595.276 V 0 H 0 Z"
         transform="translate(-233.10111,-69.662599)"
         id="path40" />
    </clipPath>
    <clipPath
       clipPathUnits="userSpaceOnUse"
       id="clipPath42">
      <path
         d="M 0,196.225 H 595.276 V 0 H 0 Z"
         transform="translate(-292.67581,-64.763202)"
         id="path42" />
    </clipPath>
    <clipPath
       clipPathUnits="userSpaceOnUse"
       id="clipPath44">
      <path
         d="M 0,196.225 H 595.276 V 0 H 0 Z"
         transform="translate(-131.4502,-71.131302)"
         id="path44" />
    </clipPath>
    <clipPath
       clipPathUnits="userSpaceOnUse"
       id="clipPath46">
      <path
         d="M 0,196.225 H 595.276 V 0 H 0 Z"
         transform="translate(-407.45211,-64.763202)"
         id="path46" />
    </clipPath>
    <clipPath
       clipPathUnits="userSpaceOnUse"
       id="clipPath48">
      <path
         d="M 0,196.225 H 595.276 V 0 H 0 Z"
         transform="translate(-255.25881,-71.148904)"
         id="path48" />
    </clipPath>
    <clipPath
       clipPathUnits="userSpaceOnUse"
       id="clipPath50">
      <path
         d="M 0,196.225 H 595.276 V 0 H 0 Z"
         transform="translate(-452.51271,-71.168502)"
         id="path50" />
    </clipPath>
    <clipPath
       clipPathUnits="userSpaceOnUse"
       id="clipPath52">
      <path
         d="M 0,196.225 H 595.276 V 0 H 0 Z"
         transform="translate(-205.2583,-67.072302)"
         id="path52" />
    </clipPath>
    <clipPath
       clipPathUnits="userSpaceOnUse"
       id="clipPath54">
      <path
         d="M 0,196.225 H 595.276 V 0 H 0 Z"
         transform="translate(-368.29691,-58.074701)"
         id="path54" />
    </clipPath>
    <clipPath
       clipPathUnits="userSpaceOnUse"
       id="clipPath56">
      <path
         d="M 0,196.225 H 595.276 V 0 H 0 Z"
         transform="translate(-466.51561,-57.701704)"
         id="path56" />
    </clipPath>
    <clipPath
       clipPathUnits="userSpaceOnUse"
       id="clipPath58">
      <path
         d="M 0,196.225 H 595.276 V 0 H 0 Z"
         transform="translate(-195.2178,-70.754899)"
         id="path58" />
    </clipPath>
    <clipPath
       clipPathUnits="userSpaceOnUse"
       id="clipPath60">
      <path
         d="M 0,196.225 H 595.276 V 0 H 0 Z"
         transform="translate(-219.08401,-66.924799)"
         id="path60" />
    </clipPath>
    <clipPath
       clipPathUnits="userSpaceOnUse"
       id="clipPath62">
      <path
         d="M 0,196.225 H 595.276 V 0 H 0 Z"
         transform="translate(-439.11911,-65.892604)"
         id="path62" />
    </clipPath>
    <clipPath
       clipPathUnits="userSpaceOnUse"
       id="clipPath64">
      <path
         d="M 0,196.225 H 595.276 V 0 H 0 Z"
         transform="translate(-281.98491,-67.074702)"
         id="path64" />
    </clipPath>
    <clipPath
       clipPathUnits="userSpaceOnUse"
       id="clipPath66">
      <path
         d="M 0,196.225 H 595.276 V 0 H 0 Z"
         transform="translate(-359.23541,-67.039099)"
         id="path66" />
    </clipPath>
    <clipPath
       clipPathUnits="userSpaceOnUse"
       id="clipPath68">
      <path
         d="M 0,196.225 H 595.276 V 0 H 0 Z"
         transform="translate(-253.8442,-77.589799)"
         id="path68" />
    </clipPath>
  </defs>
  <sodipodi:namedview
     id="namedview1"
     pagecolor="#ffffff"
     bordercolor="#000000"
     borderopacity="0.25"
     inkscape:showpageshadow="2"
     inkscape:pageopacity="0.0"
     inkscape:pagecheckerboard="0"
     inkscape:deskcolor="#d1d1d1">
    <inkscape:page
       x="0"
       y="0"
       inkscape:label="1"
       id="page1"
       width="793.70135"
       height="261.63333"
       margin="76.763466 164.10266 48.528"
       bleed="0" />
  </sodipodi:namedview>
  <g
     id="layer-MC0"
     inkscape:groupmode="layer"
     inkscape:label="Camada 1">
    <path
       id="path1"
       d="m 0,0 v 1.198 c 0,10.928 0,21.857 0.001,32.785 0,1.477 0.002,1.478 1.493,1.479 2.361,0 4.724,0.003 7.085,-0.002 1.18,-0.002 1.271,-0.088 1.272,-1.277 0.003,-6.211 0.002,-12.422 0.002,-18.632 10e-4,-11.108 10e-4,-22.216 0,-33.323 -10e-4,-0.358 -0.004,-0.717 -0.025,-1.074 -0.027,-0.495 -0.282,-0.765 -0.799,-0.764 -1.913,0.003 -3.826,0.005 -5.739,0 -0.532,-0.002 -0.779,0.36 -1.037,0.739 -3.169,4.666 -6.344,9.329 -9.516,13.995 -5.033,7.404 -10.065,14.81 -15.099,22.214 -0.064,0.093 -0.146,0.173 -0.392,0.465 v -1.241 -33.681 c 0,-1.417 -0.002,-1.419 -1.451,-1.42 -2.331,-10e-4 -4.663,-0.003 -6.995,0.002 -1.196,0.002 -1.269,0.073 -1.27,1.27 -0.002,10.331 -10e-4,20.663 -10e-4,30.994 0,7.285 -0.001,14.571 10e-4,21.856 0,1.281 0.017,1.295 1.305,1.297 1.524,0.002 3.053,-0.062 4.572,0.023 0.944,0.054 1.483,-0.335 1.972,-1.065 2.361,-3.52 4.753,-7.018 7.134,-10.524 C -13.866,19.98 -10.243,14.646 -6.623,9.312 -4.596,6.324 -2.57,3.333 -0.545,0.344 -0.447,0.2 -0.38,0.022 0,0"
       style="fill:#007336;fill-opacity:1;fill-rule:nonzero;stroke:none"
       transform="matrix(1.3333333,0,0,-1.3333333,614.25907,111.2688)"
       clip-path="url(#clipPath2)" />
    <path
       id="path3"
       d="m 0,0 c 0,-5.524 0.004,-11.049 -0.005,-16.574 -0.001,-0.599 0.045,-1.054 0.84,-1.035 3.117,0.078 6.217,0.272 9.157,1.431 3.339,1.316 5.827,3.558 7.353,6.837 1.153,2.479 1.588,5.093 1.717,7.807 0.182,3.835 -0.112,7.571 -1.771,11.095 -1.42,3.015 -3.679,5.169 -6.76,6.474 C 7.528,17.306 4.384,17.676 1.155,17.667 0.247,17.664 -0.023,17.383 -0.018,16.484 0.018,10.99 0,5.495 0,0 m -10.627,0.097 c 0,8.541 -10e-4,17.082 0.001,25.623 0,1.298 0.005,1.302 1.296,1.302 4.724,0.002 9.448,0.025 14.172,-0.007 7.481,-0.051 13.807,-2.767 18.803,-8.369 2.416,-2.71 4.043,-5.88 5.154,-9.341 1.271,-3.961 1.636,-8.027 1.286,-12.118 -0.418,-4.89 -1.962,-9.442 -4.808,-13.512 -2.855,-4.084 -6.617,-7.023 -11.219,-8.867 -2.675,-1.071 -5.485,-1.724 -8.375,-1.761 -5.052,-0.064 -10.106,-0.024 -15.16,-0.022 -1.098,0 -1.148,0.054 -1.148,1.179 -0.003,8.631 -0.002,17.262 -0.002,25.893"
       style="fill:#007336;fill-opacity:1;fill-rule:nonzero;stroke:none"
       transform="matrix(1.3333333,0,0,-1.3333333,465.00787,100.01747)"
       clip-path="url(#clipPath4)" />
    <path
       id="path5"
       d="m 0,0 c -0.844,-2.494 -1.617,-4.775 -2.388,-7.057 -1.507,-4.464 -3.014,-8.928 -4.516,-13.394 -1.132,-3.365 -2.257,-6.733 -3.381,-10.101 -0.878,-2.632 -1.753,-5.265 -2.619,-7.901 -0.172,-0.523 -0.485,-0.775 -1.051,-0.773 -3.199,0.012 -6.398,0.014 -9.597,0 -0.808,-0.003 -0.799,0.401 -0.579,0.98 1.187,3.123 2.37,6.246 3.55,9.371 1.181,3.126 2.355,6.254 3.531,9.382 1.439,3.826 2.87,7.656 4.314,11.48 0.885,2.345 1.798,4.679 2.68,7.025 1.511,4.021 3.005,8.049 4.513,12.071 0.544,1.453 1.124,2.893 1.654,4.351 0.204,0.561 0.531,0.779 1.133,0.772 2.182,-0.028 4.364,-0.027 6.546,-0.001 0.637,0.007 0.966,-0.227 1.184,-0.831 1.214,-3.367 2.467,-6.721 3.704,-10.08 1.793,-4.871 3.588,-9.741 5.373,-14.615 1.426,-3.894 2.828,-7.796 4.257,-11.689 1.479,-4.032 2.981,-8.055 4.465,-12.085 0.62,-1.679 1.235,-3.36 1.826,-5.048 0.325,-0.929 0.223,-1.072 -0.73,-1.075 -3.109,-0.011 -6.218,0.009 -9.327,-0.014 -0.703,-0.005 -1.084,0.25 -1.314,0.929 -2.194,6.469 -4.404,12.933 -6.626,19.392 C 4.495,-12.79 2.369,-6.677 0.251,-0.561 0.213,-0.45 0.155,-0.346 0,0"
       style="fill:#007336;fill-opacity:1;fill-rule:nonzero;stroke:none"
       transform="matrix(1.3333333,0,0,-1.3333333,534.06253,83.689333)"
       clip-path="url(#clipPath6)" />
    <path
       id="path7"
       d="m 0,0 c 3.502,0 7.004,-0.02 10.506,0.014 0.847,0.008 1.14,-0.26 1.151,-1.129 0.07,-5.521 -0.831,-10.843 -3.162,-15.875 -2.232,-4.817 -5.58,-8.624 -10.373,-11.019 -3.009,-1.505 -6.245,-2.212 -9.601,-2.357 -4.419,-0.19 -8.646,0.602 -12.58,2.665 -5.348,2.805 -9.08,7.122 -11.545,12.588 -1.925,4.271 -2.772,8.774 -2.711,13.434 0.088,6.73 1.895,12.953 5.967,18.374 3.489,4.644 8.059,7.757 13.749,9.181 3.784,0.948 7.602,1.075 11.388,0.312 C -0.083,24.753 5.25,20.777 8.763,14.382 9.082,13.801 9.031,13.513 8.43,13.194 5.762,11.778 3.106,10.338 0.468,8.867 -0.251,8.466 -0.459,8.86 -0.736,9.391 c -1.524,2.922 -3.648,5.273 -6.721,6.586 -4.465,1.908 -8.747,1.443 -12.632,-1.462 -3.731,-2.79 -5.59,-6.754 -6.571,-11.207 -0.57,-2.592 -0.831,-5.201 -0.49,-7.836 0.729,-5.645 2.592,-10.757 7.538,-14.096 5.306,-3.582 12.369,-2.848 16.549,2.516 1.349,1.732 2.269,3.645 2.59,5.833 0.184,1.254 0.055,1.433 -1.185,1.434 -2.874,0.003 -5.748,0 -8.621,0.002 -1.405,0.001 -1.44,0.037 -1.441,1.48 -0.003,1.975 -0.003,3.951 0,5.926 0.002,1.388 0.043,1.432 1.393,1.432 C -6.885,0.001 -3.442,0 0,0"
       style="fill:#007336;fill-opacity:1;fill-rule:nonzero;stroke:none"
       transform="matrix(1.3333333,0,0,-1.3333333,277.58533,97.314933)"
       clip-path="url(#clipPath8)" />
    <path
       id="path9"
       d="M 0,0 C 0,-2.335 0.015,-4.67 -0.009,-7.005 -0.016,-7.689 0.222,-7.958 0.928,-7.97 2.681,-8 4.405,-7.788 6.07,-7.292 c 2.354,0.7 3.905,2.252 4.47,4.689 0.398,1.711 0.421,3.436 0.104,5.165 C 10.147,5.273 8.504,6.854 5.869,7.551 4.25,7.978 2.617,7.965 0.972,8.004 0.225,8.022 -0.022,7.739 -0.012,7.005 0.02,4.67 0,2.335 0,0 m -0.001,-16.049 v -2.596 c 0,-5.807 0.001,-11.614 -0.001,-17.42 -0.001,-1.181 -0.044,-1.226 -1.202,-1.228 -2.724,-0.004 -5.448,-0.004 -8.171,0 -1.195,0.002 -1.27,0.073 -1.27,1.273 -0.003,9.907 -0.002,19.815 -0.002,29.722 0,7.274 -10e-4,14.547 10e-4,21.82 0,1.291 0.025,1.315 1.295,1.315 4.7,0 9.399,0.023 14.098,-0.015 3.549,-0.029 6.957,-0.706 10.051,-2.553 3.944,-2.354 5.907,-5.969 6.531,-10.406 0.465,-3.307 0.318,-6.571 -0.897,-9.719 -1.604,-4.155 -4.269,-7.245 -8.742,-8.423 -0.729,-0.192 -0.786,-0.463 -0.395,-1.048 2.607,-3.905 5.197,-7.821 7.793,-11.734 2.051,-3.089 4.104,-6.178 6.15,-9.271 0.142,-0.215 0.396,-0.439 0.262,-0.722 -0.159,-0.338 -0.521,-0.235 -0.805,-0.235 -3.651,-0.007 -7.303,0.007 -10.954,-0.015 -0.629,-0.004 -0.994,0.265 -1.294,0.77 -2.24,3.782 -4.49,7.558 -6.739,11.335 -1.759,2.956 -3.521,5.909 -5.283,8.863 -0.073,0.123 -0.164,0.234 -0.246,0.351 -0.06,-0.021 -0.12,-0.043 -0.18,-0.064"
       style="fill:#007336;fill-opacity:1;fill-rule:nonzero;stroke:none"
       transform="matrix(1.3333333,0,0,-1.3333333,314.69667,86.185467)"
       clip-path="url(#clipPath10)" />
    <path
       id="path11"
       d="m 0,0 c -0.638,-1.926 -1.279,-3.851 -1.914,-5.778 -1.767,-5.368 -3.536,-10.735 -5.298,-16.104 -1.221,-3.723 -2.43,-7.449 -3.644,-11.174 -0.565,-1.733 -1.134,-3.464 -1.688,-5.201 -0.179,-0.562 -0.516,-0.812 -1.121,-0.809 -3.113,0.016 -6.226,0.014 -9.338,-10e-4 -0.746,-0.003 -0.873,0.299 -0.631,0.947 1.72,4.59 3.436,9.182 5.136,13.78 1.711,4.626 3.392,9.263 5.102,13.89 1.732,4.683 3.49,9.356 5.225,14.037 1.433,3.87 2.857,7.743 4.267,11.62 0.505,1.389 0.517,1.425 1.968,1.426 1.916,0.003 3.832,-0.017 5.747,0.012 0.711,0.011 1.068,-0.274 1.307,-0.944 2.05,-5.741 4.137,-11.47 6.199,-17.207 2.033,-5.654 4.039,-11.317 6.074,-16.97 2.318,-6.441 4.661,-12.873 6.98,-19.314 0.424,-1.181 0.346,-1.263 -0.924,-1.265 -2.933,-0.004 -5.866,0.016 -8.799,-0.015 -0.729,-0.008 -1.137,0.195 -1.383,0.935 -1.494,4.482 -3.032,8.949 -4.559,13.42 -1.42,4.158 -2.849,8.314 -4.267,12.473 C 3.214,-8.648 2,-5.049 0.776,-1.455 0.604,-0.953 0.401,-0.461 0.212,0.035 Z"
       style="fill:#007336;fill-opacity:1;fill-rule:nonzero;stroke:none"
       transform="matrix(1.3333333,0,0,-1.3333333,196.02213,83.828)"
       clip-path="url(#clipPath12)" />
    <path
       id="path13"
       d="m 0,0 c -11.582,0 -23.164,0 -34.745,0 -1.566,0 -1.622,0.147 -1.513,1.711 0.203,2.934 0.636,5.814 1.482,8.638 2.232,7.458 6.427,13.563 12.551,18.354 4.511,3.528 9.577,5.93 15.195,6.941 11.119,2 21.23,-0.39 30.049,-7.562 C 29.25,23.015 33.307,16.521 35.249,8.708 35.857,6.257 36.188,3.779 36.268,1.263 36.306,0.06 36.231,0.001 35.014,0.001 23.343,0 11.671,0 0,0"
       style="fill:#f57000;fill-opacity:1;fill-rule:nonzero;stroke:none"
       transform="matrix(1.3333333,0,0,-1.3333333,397.0528,96.9588)"
       clip-path="url(#clipPath14)" />
    <path
       id="path15"
       d="m 0,0 c 11.435,0 22.87,0 34.304,0 1.443,0 1.548,-0.094 1.215,-1.478 -0.321,-1.335 -0.599,-2.684 -1.072,-3.982 -0.219,-0.602 -0.578,-0.873 -1.205,-0.827 -0.208,0.015 -0.418,0 -0.628,0 -21.733,0 -43.464,0 -65.196,0 -1.731,0 -1.716,0.006 -2.191,1.671 -0.312,1.094 -0.643,2.179 -0.823,3.306 -0.184,1.15 -0.073,1.309 1.112,1.309 C -22.989,0.001 -11.495,0 0,0"
       style="fill:#f57000;fill-opacity:1;fill-rule:nonzero;stroke:none"
       transform="matrix(1.3333333,0,0,-1.3333333,397.1192,104.58387)"
       clip-path="url(#clipPath16)" />
    <path
       id="path17"
       d="m 0,0 h 29.892 c 0.27,0 0.539,-0.003 0.809,-0.006 0.5,-0.008 0.667,-0.232 0.411,-0.682 C 30.06,-2.541 28.8,-4.246 27.394,-5.843 27.031,-6.254 26.513,-6.155 26.042,-6.155 16.317,-6.159 6.592,-6.158 -3.133,-6.158 c -7.66,0 -15.32,0.01 -22.98,-0.014 -0.789,-0.003 -1.334,0.218 -1.834,0.85 -1.152,1.456 -2.234,2.956 -3.221,4.528 C -31.556,-0.177 -31.319,0 -30.7,-0.001 -28.785,-0.003 -26.87,0 -24.955,0 -16.637,0 -8.318,0 0,0"
       style="fill:#f57000;fill-opacity:1;fill-rule:nonzero;stroke:none"
       transform="matrix(1.3333333,0,0,-1.3333333,397.1244,120.61573)"
       clip-path="url(#clipPath18)" />
    <path
       id="path19"
       d="m 0,0 h 18.58 c 0.24,0 0.481,0.011 0.719,-0.005 0.226,-0.016 0.538,0.085 0.634,-0.196 0.099,-0.292 -0.216,-0.397 -0.399,-0.519 -1.671,-1.115 -3.435,-2.065 -5.282,-2.847 -6.169,-2.614 -12.573,-3.457 -19.226,-2.597 -5.191,0.671 -9.971,2.417 -14.388,5.193 -0.296,0.185 -0.892,0.293 -0.73,0.751 0.143,0.406 0.694,0.212 1.063,0.213 C -12.687,0.003 -6.343,0 0,0"
       style="fill:#f57000;fill-opacity:1;fill-rule:nonzero;stroke:none"
       transform="matrix(1.3333333,0,0,-1.3333333,397.2292,136.45173)"
       clip-path="url(#clipPath20)" />
    <path
       id="path21"
       d="m 0,0 c -0.239,-0.325 -0.135,-0.663 -0.135,-0.976 -0.01,-3.533 -0.004,-7.066 -0.008,-10.598 -0.002,-1.091 -0.067,-1.146 -1.189,-1.146 -1.129,0 -1.205,0.06 -1.206,1.136 -0.004,5.509 -0.004,11.018 0.005,16.526 0,0.28 -0.144,0.673 0.196,0.808 0.348,0.138 0.487,-0.256 0.682,-0.463 3.807,-4.058 7.613,-8.117 11.422,-12.173 0.137,-0.147 0.307,-0.264 0.472,-0.403 0.31,0.306 0.187,0.654 0.188,0.961 0.01,3.473 0.003,6.946 0.01,10.419 0.001,1.082 0.118,1.175 1.291,1.171 1.098,-0.005 1.206,-0.093 1.208,-1.158 0.004,-5.479 0.003,-10.958 -0.003,-16.436 -10e-4,-0.31 0.13,-0.746 -0.252,-0.872 -0.31,-0.102 -0.496,0.28 -0.692,0.49 C 8.213,-8.669 4.443,-4.618 0.67,-0.569 0.474,-0.358 0.304,-0.106 0,0"
       style="fill:#007336;fill-opacity:1;fill-rule:nonzero;stroke:none"
       transform="matrix(1.3333333,0,0,-1.3333333,559.62493,167.242)"
       clip-path="url(#clipPath22)" />
    <path
       id="path23"
       d="m 0,0 c 3.449,-0.171 6.778,2.886 6.809,6.961 0.029,3.955 -2.98,7.049 -6.83,7.036 C -3.875,13.983 -6.828,10.893 -6.772,6.898 -6.712,2.59 -3.154,-0.192 0,0 M 0.017,-2.365 C -5.37,-2.478 -9.249,2.222 -9.23,6.944 -9.211,11.938 -5.077,16.36 0.011,16.331 4.964,16.303 9.218,12.383 9.275,7.034 9.331,1.805 5.329,-2.394 0.017,-2.365"
       style="fill:#007336;fill-opacity:1;fill-rule:nonzero;stroke:none"
       transform="matrix(1.3333333,0,0,-1.3333333,241.34373,181.5468)"
       clip-path="url(#clipPath24)" />
    <path
       id="path25"
       d="M 0,0 C 3.254,-0.164 6.737,2.579 6.812,6.952 6.88,10.894 3.854,14.008 0.001,13.997 -3.822,13.985 -6.831,10.859 -6.779,6.902 -6.729,3.05 -3.607,-0.142 0,0 M 9.211,6.891 C 9.427,2.009 5.219,-2.448 -0.03,-2.377 c -5.267,0.071 -9.216,4.091 -9.205,9.374 0.009,5.161 4.068,9.304 9.31,9.335 4.964,0.029 9.393,-4.408 9.136,-9.441"
       style="fill:#007336;fill-opacity:1;fill-rule:nonzero;stroke:none"
       transform="matrix(1.3333333,0,0,-1.3333333,442.02213,181.5468)"
       clip-path="url(#clipPath26)" />
    <path
       id="path27"
       d="m 0,0 c 0.868,0 1.737,-0.022 2.604,0.006 0.704,0.024 0.927,-0.288 0.938,-0.97 0.063,-3.748 -1.859,-6.737 -5.257,-8.103 -3.095,-1.245 -7.075,-0.237 -9.433,2.389 -4.318,4.809 -2.888,12.192 2.909,15.006 3.371,1.637 7.99,0.689 10.458,-2.124 C 2.59,5.781 2.599,5.472 2.208,5.054 1.175,3.95 1.183,3.934 0.068,4.965 -1.917,6.803 -4.222,7.324 -6.744,6.4 -9.299,5.464 -10.656,3.526 -11.099,0.839 c -0.55,-3.346 1.592,-6.733 4.65,-7.84 2.671,-0.967 6.355,0.799 7.12,3.532 0.241,0.861 0.076,1.104 -0.801,1.123 -0.838,0.017 -1.677,0.021 -2.515,0.006 -0.969,-0.019 -0.879,0.65 -0.905,1.295 -0.027,0.686 0.159,1.088 0.946,1.054 C -1.737,-0.029 -0.868,0 0,0"
       style="fill:#007336;fill-opacity:1;fill-rule:nonzero;stroke:none"
       transform="matrix(1.3333333,0,0,-1.3333333,204.84307,171.95173)"
       clip-path="url(#clipPath28)" />
    <path
       id="path29"
       d="m 0,0 c 0,-1.914 -0.001,-3.828 0.002,-5.741 0.001,-0.426 -0.015,-0.892 0.588,-0.919 2.074,-0.09 4.057,0.211 5.8,1.444 1.721,1.218 2.296,3.013 2.339,4.995 C 8.787,2.362 7.86,4.494 5.444,5.687 4.042,6.38 2.499,6.621 0.919,6.621 0.201,6.621 -0.018,6.325 -0.009,5.652 0.016,3.768 0,1.884 0,0 m -2.507,-0.023 c 0,2.544 -0.003,5.088 0.001,7.632 0.002,1.295 0.058,1.351 1.384,1.349 C 1.209,8.953 3.54,9.035 5.777,8.14 8.795,6.932 10.631,4.75 11.055,1.557 c 0.434,-3.279 -0.26,-6.272 -2.972,-8.49 -1.632,-1.334 -3.571,-1.92 -5.636,-2.063 -1.281,-0.088 -2.573,0.008 -3.859,-0.037 -0.822,-0.029 -1.112,0.304 -1.105,1.109 0.028,2.633 0.011,5.267 0.01,7.901"
       style="fill:#007336;fill-opacity:1;fill-rule:nonzero;stroke:none"
       transform="matrix(1.3333333,0,0,-1.3333333,517.49213,172.17173)"
       clip-path="url(#clipPath30)" />
    <path
       id="path31"
       d="m 0,0 h -0.004 c 0,-0.298 0.002,-0.597 -0.001,-0.896 -0.023,-2.694 -0.076,-2.185 2.304,-1.963 1.5,0.139 2.426,1.037 2.548,2.316 C 5.024,1.302 4.462,2.211 2.842,2.776 2.176,3.008 1.496,3.017 0.81,3.041 0.245,3.06 -0.013,2.807 -0.003,2.24 0.01,1.493 0,0.747 0,0 m -2.526,-3.639 c 0,2.633 0.019,5.266 -0.011,7.899 -0.009,0.805 0.276,1.138 1.096,1.117 C -0.007,5.342 1.427,5.381 2.858,5.199 5.017,4.924 6.912,3.158 7.178,1.109 7.529,-1.59 6.298,-3.889 3.999,-4.673 3.257,-4.926 3.384,-5.187 3.735,-5.672 c 1.404,-1.937 2.786,-3.89 4.168,-5.843 0.184,-0.26 0.525,-0.533 0.377,-0.86 -0.18,-0.4 -0.638,-0.18 -0.973,-0.24 -1.195,-0.217 -1.911,0.318 -2.537,1.329 -1.147,1.854 -2.433,3.622 -3.675,5.415 -0.192,0.276 -0.372,0.712 -0.819,0.54 C -0.104,-5.477 0.002,-5.892 0,-6.208 c -0.009,-1.765 0.003,-3.53 -0.009,-5.295 -0.008,-1.039 -0.119,-1.083 -1.345,-1.123 -0.805,-0.026 -1.205,0.174 -1.188,1.089 0.046,2.632 0.016,5.266 0.016,7.898"
       style="fill:#007336;fill-opacity:1;fill-rule:nonzero;stroke:none"
       transform="matrix(1.3333333,0,0,-1.3333333,216.42773,167.38333)"
       clip-path="url(#clipPath32)" />
    <path
       id="path33"
       d="m 0,0 c 0,-0.778 0.002,-1.556 -0.001,-2.334 -0.002,-0.448 0.14,-0.803 0.656,-0.751 0.859,0.087 1.742,0.068 2.557,0.411 0.994,0.418 1.571,1.148 1.642,2.257 C 4.926,0.689 4.766,1.701 3.722,2.319 2.795,2.869 1.767,3.033 0.696,2.984 0.204,2.961 0.001,2.711 0.002,2.245 0.004,1.496 0.002,0.748 0,0 m -2.527,-3.585 c 0,2.604 0.023,5.209 -0.014,7.813 -0.012,0.82 0.274,1.116 1.094,1.099 C -0.012,5.298 1.422,5.303 2.854,5.141 5.88,4.799 7.959,1.516 7.021,-1.381 6.487,-3.031 5.528,-4.223 3.86,-4.777 3.065,-5.041 3.504,-5.459 3.738,-5.793 c 1.102,-1.566 2.229,-3.115 3.346,-4.67 0.35,-0.486 0.701,-0.969 1.047,-1.457 0.316,-0.447 0.245,-0.684 -0.349,-0.75 -1.382,-0.152 -2.412,0.133 -3.181,1.509 -1.003,1.795 -2.281,3.437 -3.461,5.13 -0.206,0.295 -0.386,0.8 -0.862,0.634 -0.415,-0.145 -0.274,-0.618 -0.277,-0.96 -0.013,-1.736 0.003,-3.473 -0.011,-5.209 -0.008,-1.023 -0.133,-1.074 -1.358,-1.115 -0.82,-0.027 -1.192,0.2 -1.176,1.102 0.047,2.664 0.017,5.329 0.017,7.994"
       style="fill:#007336;fill-opacity:1;fill-rule:nonzero;stroke:none"
       transform="matrix(1.3333333,0,0,-1.3333333,417.8412,167.31107)"
       clip-path="url(#clipPath34)" />
    <path
       id="path35"
       d="m 0,0 c 0,-0.778 0.002,-1.555 0,-2.333 -0.002,-0.487 0.239,-0.738 0.722,-0.682 0.77,0.09 1.554,0.145 2.299,0.34 1.207,0.315 1.902,1.292 1.974,2.588 C 5.066,1.187 4.434,2.146 3.254,2.658 2.46,3.002 1.639,3.052 0.797,3.061 0.223,3.068 -0.015,2.801 -0.006,2.243 0.007,1.496 -0.002,0.748 0,0 m -2.501,-3.586 c 0,2.574 -0.008,5.148 0.003,7.722 0.005,1.128 0.128,1.243 1.233,1.249 C 0.051,5.391 1.363,5.38 2.678,5.236 5.086,4.973 6.884,3.314 7.198,0.969 7.544,-1.602 6.331,-3.833 4.047,-4.655 3.341,-4.909 3.408,-5.156 3.762,-5.647 c 1.43,-1.992 2.842,-3.998 4.259,-6 0.15,-0.213 0.43,-0.416 0.304,-0.702 -0.148,-0.339 -0.516,-0.207 -0.801,-0.247 -1.211,-0.171 -2.05,0.194 -2.724,1.334 -1.079,1.824 -2.362,3.527 -3.572,5.272 -0.226,0.325 -0.41,0.866 -0.924,0.677 -0.499,-0.183 -0.297,-0.728 -0.302,-1.119 -0.021,-1.676 -0.001,-3.353 -0.013,-5.029 -0.007,-1.044 -0.116,-1.132 -1.231,-1.134 -1.131,-0.002 -1.251,0.087 -1.255,1.107 -0.012,2.634 -0.004,5.268 -0.004,7.902"
       style="fill:#007336;fill-opacity:1;fill-rule:nonzero;stroke:none"
       transform="matrix(1.3333333,0,0,-1.3333333,460.96613,167.40813)"
       clip-path="url(#clipPath36)" />
    <path
       id="path37"
       d="m 0,0 c -0.421,-0.062 -1.175,0.245 -1.174,-0.75 0,-1.522 0.002,-3.044 10e-4,-4.565 0,-0.515 0.242,-0.806 0.764,-0.754 0.799,0.079 1.621,0.062 2.381,0.353 0.768,0.293 1.423,0.731 1.677,1.599 0.555,1.893 -0.092,3.167 -1.95,3.859 C 1.181,-0.064 0.657,-0.021 0,0 m -3.569,-6.694 c 0,2.634 0.027,5.268 -0.015,7.902 -0.014,0.864 0.291,1.168 1.145,1.139 C -1.065,2.3 0.309,2.337 1.681,2.167 3.994,1.882 5.866,0.071 6.144,-2.212 6.435,-4.609 5.151,-6.881 2.97,-7.68 2.233,-7.95 2.281,-8.233 2.666,-8.765 c 1.404,-1.938 2.786,-3.892 4.174,-5.841 0.17,-0.24 0.441,-0.484 0.305,-0.795 -0.146,-0.334 -0.52,-0.197 -0.803,-0.25 -1.302,-0.245 -2.092,0.347 -2.765,1.436 -1.116,1.804 -2.363,3.528 -3.563,5.28 -0.212,0.309 -0.398,0.763 -0.884,0.589 -0.435,-0.155 -0.301,-0.607 -0.304,-0.946 -0.013,-1.795 -0.039,-3.592 0.006,-5.387 0.022,-0.936 -0.506,-0.983 -1.207,-0.98 -0.692,0.004 -1.223,0.026 -1.208,0.973 0.042,2.664 0.015,5.328 0.014,7.992"
       style="fill:#007336;fill-opacity:1;fill-rule:nonzero;stroke:none"
       transform="matrix(1.3333333,0,0,-1.3333333,358.86133,163.33773)"
       clip-path="url(#clipPath38)" />
    <path
       id="path39"
       d="M 0,0 C 0,1.706 -0.004,3.413 0.001,5.119 0.005,6.304 0.104,6.396 1.283,6.393 2.432,6.389 2.519,6.303 2.521,5.079 2.524,1.936 2.531,-1.208 2.516,-4.351 2.513,-5.106 2.583,-5.855 2.768,-6.575 c 0.467,-1.807 1.488,-3.197 4.2,-3.027 1.819,0.115 3.12,1.326 3.43,3.306 0.167,1.068 0.217,2.14 0.211,3.22 -0.014,2.844 0.013,5.687 -0.01,8.531 -0.008,0.95 0.586,0.943 1.257,0.944 C 12.534,6.4 13.128,6.387 13.106,5.444 13.015,1.526 13.292,-2.397 12.946,-6.311 12.683,-9.29 10.436,-11.57 7.445,-11.93 4.212,-12.318 1.497,-10.671 0.53,-7.749 0.17,-6.66 -0.029,-5.554 -0.007,-4.4 0.021,-2.934 0,-1.467 0,0"
       style="fill:#007336;fill-opacity:1;fill-rule:nonzero;stroke:none"
       transform="matrix(1.3333333,0,0,-1.3333333,310.80147,168.74987)"
       clip-path="url(#clipPath40)" />
    <path
       id="path41"
       d="M 0,0 C 0.717,0 1.433,0.006 2.149,-0.002 2.631,-0.007 2.901,0.067 2.639,0.661 1.894,2.354 1.194,4.066 0.463,5.766 0.376,5.968 0.324,6.281 0.016,6.246 -0.214,6.22 -0.264,5.958 -0.345,5.771 -1.08,4.075 -1.8,2.372 -2.548,0.682 -2.795,0.124 -2.568,-0.01 -2.06,-0.002 -1.373,0.008 -0.687,0 0,0 M 6.905,-6.689 C 6.204,-6.826 5.755,-6.461 5.463,-5.697 5.09,-4.723 4.596,-3.795 4.18,-2.835 3.988,-2.392 3.698,-2.212 3.212,-2.216 1.119,-2.233 -0.976,-2.237 -3.07,-2.214 -3.599,-2.208 -3.91,-2.418 -4.109,-2.881 -4.51,-3.815 -4.932,-4.739 -5.326,-5.675 -5.7,-6.564 -7.125,-7.087 -7.944,-6.612 c -0.428,0.248 -0.188,0.585 -0.068,0.862 0.629,1.454 1.273,2.9 1.923,4.344 1.765,3.924 3.534,7.845 5.308,11.765 0.217,0.479 0.333,1.256 0.831,1.276 0.564,0.022 0.606,-0.792 0.815,-1.25 C 3.29,5.053 5.684,-0.293 8.083,-5.637 8.501,-6.567 8.366,-6.698 6.905,-6.689"
       style="fill:#007336;fill-opacity:1;fill-rule:nonzero;stroke:none"
       transform="matrix(1.3333333,0,0,-1.3333333,390.2344,175.2824)"
       clip-path="url(#clipPath42)" />
    <path
       id="path43"
       d="m 0,0 c -0.089,0.003 -0.177,0.007 -0.266,0.011 -0.857,-1.992 -1.717,-3.983 -2.567,-5.978 -0.116,-0.273 0.058,-0.391 0.311,-0.392 1.554,-0.002 3.107,-0.004 4.661,0.006 0.335,0.002 0.516,0.169 0.365,0.523 C 1.672,-3.886 0.835,-1.943 0,0 m -7.003,-13.058 c -1.551,0 -1.61,0.089 -1.039,1.359 2.399,5.345 4.802,10.69 7.204,16.034 0.012,0.027 0.021,0.057 0.038,0.082 0.216,0.31 0.25,0.869 0.649,0.896 0.464,0.032 0.483,-0.543 0.63,-0.868 2.497,-5.504 4.977,-11.014 7.451,-16.528 0.359,-0.798 0.251,-0.944 -0.598,-0.974 -1.561,-0.056 -1.561,-0.056 -2.196,1.356 -0.356,0.79 -0.718,1.578 -1.065,2.373 -0.228,0.524 -0.582,0.757 -1.183,0.748 -2.035,-0.03 -4.071,-0.022 -6.106,-0.005 -0.509,0.004 -0.848,-0.151 -1.056,-0.639 -0.387,-0.906 -0.853,-1.781 -1.205,-2.701 -0.316,-0.827 -0.721,-1.401 -1.524,-1.133"
       style="fill:#007336;fill-opacity:1;fill-rule:nonzero;stroke:none"
       transform="matrix(1.3333333,0,0,-1.3333333,175.26693,166.7916)"
       clip-path="url(#clipPath44)" />
    <path
       id="path45"
       d="M 0,0 C 0.716,0 1.432,0.014 2.147,-0.004 2.715,-0.018 2.932,0.164 2.679,0.737 1.923,2.455 1.178,4.176 0.434,5.898 0.258,6.304 0.037,6.494 -0.194,5.969 -0.988,4.17 -1.754,2.359 -2.532,0.554 -2.703,0.158 -2.55,0 -2.147,0.001 -1.432,0.005 -0.716,0.002 0,0 m 7.034,-6.69 c -0.82,-0.21 -1.291,0.3 -1.609,1.128 -0.322,0.835 -0.741,1.633 -1.07,2.467 -0.239,0.605 -0.6,0.892 -1.278,0.882 -2.033,-0.029 -4.066,-0.027 -6.099,10e-4 -0.572,0.007 -0.865,-0.224 -1.078,-0.73 -0.439,-1.046 -0.924,-2.074 -1.399,-3.105 -0.268,-0.582 -2.102,-0.939 -2.536,-0.494 -0.273,0.28 -0.069,0.565 0.048,0.827 1.587,3.546 3.178,7.09 4.774,10.632 0.921,2.044 1.847,4.085 2.781,6.123 0.117,0.252 0.128,0.671 0.516,0.64 C 0.409,11.655 0.51,11.288 0.629,11.025 1.741,8.578 2.841,6.125 3.943,3.672 5.229,0.812 6.512,-2.05 7.795,-4.911 7.881,-5.102 7.958,-5.297 8.033,-5.492 8.495,-6.69 8.495,-6.69 7.034,-6.69"
       style="fill:#007336;fill-opacity:1;fill-rule:nonzero;stroke:none"
       transform="matrix(1.3333333,0,0,-1.3333333,543.26947,175.2824)"
       clip-path="url(#clipPath46)" />
    <path
       id="path47"
       d="m 0,0 c -0.082,-0.042 -0.162,-0.056 -0.18,-0.097 -0.831,-1.886 -1.657,-3.774 -2.483,-5.663 -0.222,-0.509 0.031,-0.632 0.491,-0.629 1.406,0.009 2.812,0.015 4.218,-0.002 0.639,-0.007 0.704,0.254 0.472,0.774 C 2.066,-4.608 1.664,-3.578 1.201,-2.575 0.805,-1.717 0.571,-0.779 0,0 m 6.892,-13.074 c -0.774,-0.183 -1.23,0.248 -1.532,1.084 -0.323,0.897 -0.811,1.733 -1.177,2.616 C 3.959,-8.832 3.641,-8.59 3.035,-8.598 1,-8.626 -1.035,-8.625 -3.07,-8.599 c -0.598,0.007 -0.945,-0.228 -1.172,-0.762 -0.419,-0.991 -0.849,-1.978 -1.313,-2.949 -0.325,-0.681 -1.865,-1.085 -2.498,-0.689 -0.373,0.233 -0.163,0.535 -0.052,0.79 0.657,1.508 1.324,3.012 1.998,4.513 1.798,4.012 3.602,8.022 5.404,12.032 0.086,0.191 0.17,0.384 0.273,0.566 0.099,0.176 0.153,0.42 0.41,0.429 C 0.25,5.34 0.296,5.098 0.379,4.913 1.928,1.479 3.478,-1.954 5.023,-5.389 c 0.944,-2.099 1.858,-4.213 2.83,-6.299 0.617,-1.329 0.606,-1.39 -0.961,-1.386"
       style="fill:#007336;fill-opacity:1;fill-rule:nonzero;stroke:none"
       transform="matrix(1.3333333,0,0,-1.3333333,340.34507,166.76813)"
       clip-path="url(#clipPath48)" />
    <path
       id="path49"
       d="m 0,0 c -0.091,-0.102 -0.17,-0.157 -0.202,-0.231 -0.796,-1.836 -1.585,-3.674 -2.382,-5.509 -0.264,-0.608 0.113,-0.662 0.555,-0.663 1.405,-0.004 2.811,0.008 4.217,-0.008 0.508,-0.006 0.64,0.144 0.424,0.631 C 2.117,-4.661 1.683,-3.514 1.168,-2.404 0.799,-1.608 0.63,-0.707 0,0 m 6.923,-13.095 c -0.763,-0.176 -1.223,0.218 -1.514,1.081 -0.314,0.93 -0.829,1.788 -1.208,2.699 -0.219,0.527 -0.563,0.699 -1.108,0.694 -2.035,-0.019 -4.071,-0.025 -6.106,0.003 -0.642,0.01 -0.989,-0.26 -1.217,-0.829 -0.356,-0.887 -0.751,-1.759 -1.133,-2.636 -0.388,-0.891 -1.783,-1.397 -2.633,-0.959 -0.417,0.215 -0.186,0.516 -0.077,0.767 0.664,1.536 1.334,3.07 2.019,4.597 1.458,3.245 2.927,6.486 4.39,9.729 0.418,0.926 0.823,1.858 1.251,2.78 0.095,0.204 0.19,0.479 0.49,0.452 C 0.326,5.26 0.369,5.009 0.453,4.824 2.295,0.736 4.133,-3.354 5.976,-7.442 c 0.638,-1.416 1.263,-2.84 1.935,-4.241 0.608,-1.269 0.538,-1.413 -0.988,-1.412"
       style="fill:#007336;fill-opacity:1;fill-rule:nonzero;stroke:none"
       transform="matrix(1.3333333,0,0,-1.3333333,603.35027,166.742)"
       clip-path="url(#clipPath50)" />
    <path
       id="path51"
       d="m 0,0 c 0,2.544 -0.003,5.089 0,7.633 0.002,1.296 0.056,1.348 1.385,1.349 2.335,0.003 4.67,0.004 7.005,0 C 9.589,8.98 9.698,8.878 9.702,7.831 9.705,6.754 9.593,6.644 8.43,6.64 6.813,6.634 5.196,6.602 3.581,6.652 2.743,6.678 2.459,6.359 2.51,5.551 2.561,4.746 2.574,3.931 2.507,3.128 2.429,2.188 2.834,1.939 3.71,1.972 5.205,2.027 6.703,1.99 8.199,1.985 9.4,1.982 9.505,1.886 9.509,0.833 9.513,-0.247 9.404,-0.355 8.24,-0.359 6.684,-0.364 5.126,-0.389 3.571,-0.349 2.813,-0.33 2.481,-0.56 2.508,-1.367 c 0.048,-1.436 0.041,-2.874 0.003,-4.31 -0.02,-0.747 0.275,-1.004 1.004,-0.99 1.675,0.032 3.352,0.021 5.028,0.003 1.033,-0.01 1.117,-0.17 1.173,-1.233 C 9.763,-8.79 9.379,-9.024 8.55,-9.011 6.066,-8.974 3.581,-8.977 1.097,-9.009 0.28,-9.02 -0.02,-8.712 -0.01,-7.902 0.018,-5.269 0,-2.634 0,0"
       style="fill:#007336;fill-opacity:1;fill-rule:nonzero;stroke:none"
       transform="matrix(1.3333333,0,0,-1.3333333,273.67773,172.2036)"
       clip-path="url(#clipPath52)" />
    <path
       id="path53"
       d="m 0,0 c -1.795,0 -3.591,-0.011 -5.386,0.005 -0.832,0.008 -0.922,0.165 -0.518,0.89 2.036,3.658 4.084,7.31 6.125,10.965 0.553,0.992 1.079,1.999 1.656,2.976 0.349,0.593 0.2,0.804 -0.456,0.8 -1.795,-0.008 -3.591,0.029 -5.386,-0.013 -0.853,-0.019 -1.196,0.307 -1.175,1.152 0.026,1.014 0.169,1.201 1.197,1.203 3.022,0.007 6.044,0.006 9.066,10e-4 1.022,-0.002 1.141,-0.177 0.64,-1.082 C 4.126,13.943 2.463,11.004 0.809,8.06 -0.114,6.418 -1.035,4.776 -1.964,3.139 -2.308,2.534 -2.08,2.337 -1.457,2.339 0.697,2.347 2.852,2.346 5.006,2.338 6.19,2.333 6.703,1.545 6.273,0.439 6.086,-0.046 5.677,0.005 5.297,0.003 3.531,-0.004 1.766,0 0,0"
       style="fill:#007336;fill-opacity:1;fill-rule:nonzero;stroke:none"
       transform="matrix(1.3333333,0,0,-1.3333333,491.06253,184.2004)"
       clip-path="url(#clipPath54)" />
    <path
       id="path55"
       d="m 0,0 c -2.595,-0.002 -4.843,1.823 -5.379,4.306 -0.143,0.662 0.072,0.938 0.686,1.079 1.344,0.309 1.341,0.322 1.854,-0.968 0.617,-1.55 1.988,-2.303 3.668,-2.013 1.239,0.213 2.499,1.791 2.435,3.193 -0.058,1.27 -0.786,2.178 -1.898,2.74 -1.065,0.539 -2.177,0.988 -3.25,1.513 -2.129,1.04 -3.006,2.754 -2.782,4.832 0.317,2.962 3.895,4.503 6.258,3.904 C 2.872,18.261 3.983,17.667 4.73,16.513 5.031,16.05 5.058,15.715 4.51,15.428 3.331,14.809 3.462,14.482 2.354,15.629 1.136,16.893 -1.198,16.466 -2.044,14.922 -2.52,14.054 -2.327,13.144 -1.503,12.44 -0.711,11.765 0.286,11.489 1.219,11.095 1.742,10.874 2.268,10.667 2.764,10.382 5.266,8.943 6.184,6.721 5.425,3.901 4.81,1.613 2.569,0.002 0,0"
       style="fill:#007336;fill-opacity:1;fill-rule:nonzero;stroke:none"
       transform="matrix(1.3333333,0,0,-1.3333333,622.0208,184.69773)"
       clip-path="url(#clipPath56)" />
    <path
       id="path57"
       d="m 0,0 h -0.005 v -0.627 c 0,-2.478 0.563,-2.874 3.003,-2.11 0.028,0.008 0.059,0.013 0.086,0.025 1.023,0.431 1.786,1.077 1.897,2.272 C 5.093,0.743 4.831,1.764 3.726,2.404 2.753,2.969 1.68,3 0.597,2.962 0.126,2.945 -0.001,2.647 0,2.24 0.001,1.493 0,0.747 0,0 m -2.525,-3.697 c 0,2.572 -0.006,5.144 0.003,7.716 0.004,1.162 0.128,1.28 1.295,1.279 C 0.655,5.296 2.532,5.295 4.351,4.662 6.798,3.81 7.436,1.748 7.272,-0.496 7.037,-3.748 4.702,-5.092 1.682,-5.272 c -1.768,-0.106 -1.689,0.154 -1.688,-1.734 0.001,-1.586 -0.031,-3.171 0.01,-4.755 0.023,-0.895 -0.499,-0.947 -1.159,-0.924 -0.65,0.024 -1.378,-0.131 -1.372,0.913 0.016,2.691 0.006,5.383 0.006,8.075 z"
       style="fill:#007336;fill-opacity:1;fill-rule:nonzero;stroke:none"
       transform="matrix(1.3333333,0,0,-1.3333333,260.2904,167.29347)"
       clip-path="url(#clipPath58)" />
    <path
       id="path59"
       d="m 0,0 c -0.194,-3.221 2.459,-6.746 6.334,-6.961 1.509,-0.084 2.89,0.362 4.121,1.256 0.207,0.152 0.42,0.421 0.708,0.277 0.291,-0.145 0.184,-0.476 0.192,-0.732 C 11.419,-8.082 11.314,-8.272 9.481,-8.813 2.894,-10.757 -3.147,-5.625 -2.453,1.075 -1.921,6.211 2.379,9.732 7.559,9.47 8.55,9.42 9.505,9.126 10.414,8.742 11.243,8.393 11.755,6.655 11.304,5.876 11.077,5.486 10.854,5.774 10.644,5.908 9.568,6.588 8.43,7.056 7.134,7.15 3.129,7.44 -0.205,3.955 0,0"
       style="fill:#007336;fill-opacity:1;fill-rule:nonzero;stroke:none"
       transform="matrix(1.3333333,0,0,-1.3333333,292.112,172.40027)"
       clip-path="url(#clipPath60)" />
    <path
       id="path61"
       d="M 0,0 C -0.001,2.273 -0.021,4.546 0.01,6.819 0.02,7.542 -0.21,7.871 -0.966,7.826 -1.682,7.784 -2.403,7.851 -3.118,7.81 c -0.795,-0.046 -1.054,0.306 -1.03,1.066 0.022,0.714 0.017,1.309 1.007,1.295 2.392,-0.032 4.786,-0.008 7.178,-0.008 0.568,0 1.137,-0.011 1.704,-0.004 C 6.56,10.167 6.525,9.592 6.514,9.039 6.501,8.485 6.644,7.825 5.748,7.824 5.03,7.823 4.31,7.779 3.596,7.828 2.772,7.884 2.5,7.558 2.505,6.74 2.534,2.583 2.519,-1.575 2.519,-5.732 2.519,-6.001 2.533,-6.271 2.515,-6.539 2.485,-6.969 2.664,-7.541 2.127,-7.721 1.536,-7.919 0.875,-7.93 0.279,-7.7 -0.087,-7.559 0.005,-7.138 0.004,-6.819 -0.003,-4.546 0,-2.273 0,0"
       style="fill:#007336;fill-opacity:1;fill-rule:nonzero;stroke:none"
       transform="matrix(1.3333333,0,0,-1.3333333,585.49213,173.77653)"
       clip-path="url(#clipPath62)" />
    <path
       id="path63"
       d="m 0,0 c 0,-2.661 -0.03,-5.322 0.017,-7.982 0.016,-0.897 -0.406,-1.047 -1.151,-1.031 -0.709,0.015 -1.281,-0.005 -1.275,1.002 0.033,5.322 0.033,10.644 -0.001,15.966 -0.006,0.977 0.506,1.036 1.247,1.038 C -0.438,8.995 0.029,8.895 0.015,7.983 -0.027,5.322 0,2.661 0,0"
       style="fill:#007336;fill-opacity:1;fill-rule:nonzero;stroke:none"
       transform="matrix(1.3333333,0,0,-1.3333333,375.97987,172.2004)"
       clip-path="url(#clipPath64)" />
    <path
       id="path65"
       d="m 0,0 c 0,-2.629 -0.031,-5.259 0.017,-7.888 0.016,-0.914 -0.379,-1.118 -1.183,-1.089 -1.144,0.041 -1.228,0.07 -1.229,1.119 -0.004,5.229 -0.004,10.457 0.003,15.686 0,0.401 -0.128,0.923 0.387,1.088 0.568,0.183 1.194,0.22 1.751,-0.041 C 0.09,8.713 -0.004,8.298 -0.003,7.978 0.002,5.318 0,2.659 0,0"
       style="fill:#007336;fill-opacity:1;fill-rule:nonzero;stroke:none"
       transform="matrix(1.3333333,0,0,-1.3333333,478.98053,172.24787)"
       clip-path="url(#clipPath66)" />
    <path
       id="path67"
       d="m 0,0 c -0.387,0.049 -0.668,0.225 -0.868,0.493 -0.196,0.262 -0.039,0.523 0.12,0.74 C -0.021,2.221 0.717,3.2 1.447,4.184 1.698,4.521 1.995,4.623 2.381,4.414 2.722,4.229 3.072,4.059 3.415,3.876 3.795,3.672 3.86,3.396 3.536,3.095 2.508,2.138 1.474,1.189 0.433,0.247 0.306,0.131 0.128,0.071 0,0"
       style="fill:#007336;fill-opacity:1;fill-rule:nonzero;stroke:none"
       transform="matrix(1.3333333,0,0,-1.3333333,338.45893,158.18027)"
       clip-path="url(#clipPath68)" />
  </g>
</svg>
