<?xml version="1.0" encoding="UTF-8" standalone="no"?>
<!-- Created with Inkscape (http://www.inkscape.org/) -->

<svg
   version="1.1"
   id="svg1"
   width="748.58667"
   height="760.67999"
   viewBox="0 0 748.58667 760.67999"
   sodipodi:docname="e02e4b6a-1216-4d7f-90fe-1f3cf3c74d67.pdf"
   xmlns:inkscape="http://www.inkscape.org/namespaces/inkscape"
   xmlns:sodipodi="http://sodipodi.sourceforge.net/DTD/sodipodi-0.dtd"
   xmlns="http://www.w3.org/2000/svg"
   xmlns:svg="http://www.w3.org/2000/svg">
  <defs
     id="defs1" />
  <sodipodi:namedview
     id="namedview1"
     pagecolor="#ffffff"
     bordercolor="#000000"
     borderopacity="0.25"
     inkscape:showpageshadow="2"
     inkscape:pageopacity="0.0"
     inkscape:pagecheckerboard="0"
     inkscape:deskcolor="#d1d1d1">
    <inkscape:page
       x="0"
       y="0"
       inkscape:label="1"
       id="page1"
       width="748.58667"
       height="760.67999"
       margin="0"
       bleed="0" />
  </sodipodi:namedview>
  <g
     id="g1"
     inkscape:groupmode="layer"
     inkscape:label="1">
    <path
       id="path1"
       d="M 0,396.938 H 561.441 V 570.512 H 0 Z"
       style="fill:#231f20;fill-opacity:1;fill-rule:evenodd;stroke:none"
       transform="scale(1.3333333)" />
    <path
       id="path2"
       d="m 9.625,534.238 -0.023,-2.73 539.539,-0.637 0.023,2.762 -539.539,0.605"
       style="fill:#ffffff;fill-opacity:1;fill-rule:nonzero;stroke:none"
       transform="scale(1.3333333)" />
    <path
       id="path3"
       d="m 339.109,508.234 h 3.453 v 10.164 c 0,1.622 0.04,2.668 0.118,3.157 0.144,0.75 0.5,1.375 1.054,1.84 0.547,0.468 1.313,0.691 2.274,0.691 0.984,0 1.719,-0.207 2.219,-0.656 0.492,-0.43 0.781,-0.973 0.89,-1.61 0.113,-0.636 0.149,-1.711 0.149,-3.191 v -10.395 h 3.449 v 9.864 c 0,2.261 -0.094,3.851 -0.266,4.773 -0.195,0.934 -0.543,1.723 -1.047,2.363 -0.488,0.637 -1.164,1.153 -2.007,1.536 -0.836,0.378 -1.926,0.57 -3.286,0.57 -1.625,0 -2.867,-0.207 -3.687,-0.621 -0.863,-0.422 -1.516,-0.957 -2.004,-1.61 -0.492,-0.675 -0.816,-1.359 -0.973,-2.093 -0.218,-1.067 -0.336,-2.657 -0.336,-4.758 z m 20.254,18.782 v -18.782 h 3.352 l 6.98,12.536 v -12.536 h 3.223 v 18.782 h -3.473 l -6.883,-12.25 v 12.25 z m 20.055,-18.782 h 3.461 v 18.782 h -3.461 z m 14.07,18.782 -6.101,-18.782 h 3.734 l 4.32,13.907 4.176,-13.907 h 3.649 l -6.11,18.782 z m 14.535,0 v -18.782 h 12.641 v 3.188 h -9.191 v 4.16 h 8.554 v 3.152 h -8.554 v 5.114 h 9.519 v 3.168 z m 18.883,0 v -18.782 h 7.262 c 1.816,0 3.144,0.161 3.965,0.512 0.832,0.332 1.492,0.934 1.988,1.801 0.496,0.855 0.75,1.832 0.75,2.957 0,1.406 -0.387,2.578 -1.129,3.488 -0.75,0.914 -1.875,1.496 -3.375,1.735 0.75,0.488 1.363,1.007 1.856,1.585 0.48,0.575 1.117,1.583 1.953,3.043 l 2.082,3.661 h -4.125 l -2.488,-4.086 c -0.879,-1.473 -1.485,-2.395 -1.809,-2.754 -0.34,-0.387 -0.664,-0.645 -1.039,-0.789 -0.371,-0.153 -0.942,-0.211 -1.742,-0.211 h -0.7 v 7.84 z m 3.449,-10.844 h 2.555 c 1.652,0 2.684,-0.067 3.086,-0.219 0.41,-0.16 0.731,-0.422 0.969,-0.805 0.238,-0.363 0.359,-0.847 0.359,-1.406 0,-0.64 -0.152,-1.144 -0.457,-1.527 -0.316,-0.399 -0.754,-0.633 -1.308,-0.738 -0.274,-0.047 -1.118,-0.055 -2.512,-0.055 h -2.692 z m 15.868,4.734 3.351,-0.371 c 0.203,1.246 0.621,2.16 1.238,2.742 0.602,0.586 1.446,0.875 2.489,0.875 1.105,0 1.953,-0.265 2.5,-0.781 0.582,-0.516 0.851,-1.125 0.851,-1.805 0,-0.453 -0.117,-0.832 -0.351,-1.144 -0.242,-0.313 -0.649,-0.578 -1.242,-0.805 -0.403,-0.168 -1.317,-0.433 -2.758,-0.824 -1.84,-0.508 -3.141,-1.137 -3.887,-1.863 -1.043,-1.035 -1.574,-2.285 -1.574,-3.774 0,-0.965 0.254,-1.855 0.75,-2.679 0.484,-0.84 1.199,-1.465 2.121,-1.915 0.93,-0.433 2.039,-0.644 3.355,-0.644 2.153,0 3.754,0.516 4.84,1.551 1.086,1.027 1.656,2.398 1.707,4.136 l -3.437,0.172 c -0.16,-0.972 -0.461,-1.672 -0.957,-2.089 -0.489,-0.43 -1.215,-0.633 -2.18,-0.633 -0.996,0 -1.793,0.222 -2.359,0.672 -0.368,0.296 -0.547,0.683 -0.547,1.168 0,0.449 0.172,0.832 0.515,1.144 0.438,0.399 1.493,0.82 3.164,1.254 1.684,0.43 2.926,0.895 3.719,1.355 0.809,0.473 1.434,1.098 1.899,1.911 0.449,0.796 0.668,1.8 0.668,2.996 0,1.07 -0.262,2.066 -0.817,3.019 -0.539,0.926 -1.304,1.637 -2.293,2.086 -1,0.465 -2.23,0.68 -3.73,0.68 -2.145,0 -3.805,-0.535 -4.965,-1.621 -1.16,-1.117 -1.844,-2.703 -2.07,-4.813 m 19.648,-12.672 h 3.465 v 18.782 h -3.465 z m 9.707,0 h 6.309 c 1.406,0 2.488,0.118 3.234,0.368 1,0.316 1.863,0.886 2.57,1.726 0.731,0.82 1.258,1.836 1.641,3.031 0.379,1.207 0.566,2.688 0.566,4.45 0,1.543 -0.187,2.871 -0.543,3.996 -0.41,1.371 -1.027,2.465 -1.82,3.312 -0.601,0.645 -1.398,1.145 -2.426,1.516 -0.757,0.25 -1.769,0.383 -3.07,0.383 h -6.461 z m 3.449,3.188 v 12.426 h 2.563 c 0.957,0 1.668,-0.067 2.094,-0.172 0.558,-0.153 1.015,-0.406 1.386,-0.785 0.375,-0.368 0.676,-0.973 0.903,-1.817 0.23,-0.84 0.351,-1.976 0.351,-3.433 0,-1.453 -0.121,-2.563 -0.351,-3.348 -0.227,-0.781 -0.563,-1.383 -0.969,-1.816 -0.43,-0.446 -0.965,-0.719 -1.609,-0.887 -0.485,-0.121 -1.415,-0.168 -2.825,-0.168 z m 32.141,15.594 h -3.758 l -1.465,-4.27 h -6.824 l -1.414,4.27 h -3.648 l 6.644,-18.782 h 3.645 z m -6.34,-7.418 -2.348,-6.985 -2.304,6.985 z m 11.141,-11.364 h 6.316 c 1.414,0 2.488,0.118 3.235,0.368 0.996,0.316 1.863,0.886 2.574,1.726 0.707,0.82 1.258,1.836 1.636,3.031 0.36,1.207 0.559,2.688 0.559,4.45 0,1.543 -0.184,2.871 -0.523,3.996 -0.434,1.371 -1.051,2.465 -1.844,3.312 -0.586,0.645 -1.395,1.145 -2.414,1.516 -0.75,0.25 -1.774,0.383 -3.047,0.383 h -6.492 z m 3.441,3.188 v 12.426 h 2.586 c 0.961,0 1.652,-0.067 2.09,-0.172 0.547,-0.153 1.019,-0.406 1.383,-0.785 0.371,-0.368 0.679,-0.973 0.894,-1.817 0.239,-0.84 0.36,-1.976 0.36,-3.433 0,-1.453 -0.121,-2.563 -0.36,-3.348 -0.215,-0.781 -0.551,-1.383 -0.968,-1.816 -0.422,-0.446 -0.961,-0.719 -1.606,-0.887 -0.477,-0.121 -1.426,-0.168 -2.812,-0.168 z m 16.774,15.594 v -18.782 h 12.664 v 3.188 h -9.215 v 4.16 h 8.566 v 3.152 h -8.566 v 5.114 h 9.531 v 3.168 h -12.98"
       style="fill:#ffffff;fill-opacity:1;fill-rule:nonzero;stroke:none"
       transform="scale(1.3333333)" />
    <path
       id="path4"
       d="m 338.699,539.82 h 6.274 c 1.418,0 2.507,0.118 3.238,0.368 0.996,0.316 1.859,0.886 2.566,1.714 0.715,0.825 1.262,1.848 1.629,3.028 0.383,1.203 0.563,2.683 0.563,4.433 0,1.535 -0.172,2.871 -0.52,3.985 -0.441,1.363 -1.043,2.476 -1.832,3.312 -0.594,0.637 -1.398,1.129 -2.406,1.492 -0.766,0.262 -1.777,0.399 -3.055,0.399 h -6.457 z m 3.43,3.168 v 12.41 h 2.566 c 0.95,0 1.653,-0.062 2.075,-0.187 0.558,-0.152 1.031,-0.406 1.394,-0.777 0.367,-0.36 0.672,-0.961 0.902,-1.801 0.231,-0.84 0.356,-1.988 0.356,-3.445 0,-1.438 -0.125,-2.547 -0.356,-3.325 -0.23,-0.781 -0.57,-1.39 -0.976,-1.808 -0.43,-0.446 -0.953,-0.727 -1.594,-0.887 -0.484,-0.121 -1.422,-0.18 -2.824,-0.18 z m 13.75,15.563 V 539.82 h 12.609 v 3.168 h -9.172 v 4.153 h 8.536 v 3.156 h -8.536 v 5.101 h 9.504 v 3.153 z m 22.469,0 V 539.82 h 5.511 c 2.09,0 3.453,0.102 4.075,0.285 0.972,0.274 1.804,0.883 2.461,1.817 0.664,0.965 0.988,2.172 0.988,3.66 0,1.152 -0.184,2.113 -0.567,2.906 -0.378,0.782 -0.867,1.399 -1.449,1.84 -0.582,0.442 -1.183,0.746 -1.777,0.883 -0.813,0.172 -2.016,0.281 -3.567,0.281 h -2.238 v 7.059 z m 3.437,-15.563 v 5.317 h 1.867 c 1.371,0 2.27,-0.098 2.711,-0.297 0.461,-0.203 0.825,-0.492 1.082,-0.918 0.262,-0.418 0.391,-0.899 0.391,-1.457 0,-0.688 -0.172,-1.242 -0.539,-1.695 -0.359,-0.434 -0.824,-0.704 -1.383,-0.817 -0.41,-0.098 -1.234,-0.133 -2.476,-0.133 z m 12.418,15.563 V 539.82 h 12.613 v 3.168 h -9.179 v 4.153 h 8.543 v 3.156 h -8.543 v 5.101 h 9.511 v 3.153 z m 15.859,0 V 539.82 h 7.235 c 1.84,0 3.148,0.176 3.969,0.504 0.82,0.348 1.496,0.926 1.976,1.793 0.504,0.867 0.75,1.84 0.75,2.949 0,1.407 -0.379,2.567 -1.129,3.489 -0.742,0.914 -1.867,1.492 -3.371,1.718 0.746,0.489 1.36,1.012 1.852,1.582 0.48,0.571 1.133,1.586 1.957,3.036 l 2.07,3.66 h -4.105 l -2.496,-4.078 c -0.883,-1.457 -1.473,-2.375 -1.793,-2.754 -0.332,-0.379 -0.676,-0.629 -1.047,-0.778 -0.352,-0.136 -0.934,-0.218 -1.731,-0.218 h -0.676 v 7.828 z m 3.461,-10.817 h 2.52 c 1.656,0 2.684,-0.066 3.098,-0.218 0.406,-0.161 0.73,-0.426 0.949,-0.789 0.242,-0.375 0.359,-0.848 0.359,-1.415 0,-0.632 -0.164,-1.14 -0.469,-1.527 -0.296,-0.383 -0.73,-0.633 -1.292,-0.738 -0.266,-0.039 -1.11,-0.059 -2.5,-0.059 h -2.665 z m 13.747,10.817 V 539.82 h 3.332 l 6.96,12.508 V 539.82 h 3.208 v 18.731 h -3.458 l -6.855,-12.223 v 12.223 z m 32.48,0 h -3.734 l -1.493,-4.262 h -6.816 l -1.395,4.262 h -3.64 l 6.625,-18.731 h 3.637 z m -6.32,-7.41 -2.356,-6.95 -2.304,6.95 z m 8.097,7.41 V 539.82 h 5.141 l 3.086,12.782 3.051,-12.782 h 5.148 v 18.731 h -3.191 v -14.75 l -3.371,14.75 h -3.313 l -3.367,-14.75 v 14.75 z m 19.856,-18.731 h 6.808 c 1.344,0 2.356,0.063 3.012,0.192 0.664,0.113 1.258,0.367 1.777,0.765 0.52,0.399 0.95,0.922 1.305,1.567 0.348,0.648 0.527,1.379 0.527,2.187 0,0.879 -0.222,1.692 -0.644,2.422 -0.434,0.723 -1.008,1.281 -1.758,1.637 1.035,0.332 1.844,0.902 2.402,1.707 0.551,0.797 0.825,1.738 0.825,2.812 0,0.868 -0.172,1.696 -0.535,2.5 -0.364,0.797 -0.848,1.446 -1.469,1.926 -0.629,0.473 -1.399,0.77 -2.309,0.879 -0.57,0.07 -1.953,0.121 -4.156,0.137 h -5.785 z m 3.441,3.11 v 4.332 h 2.25 c 1.348,0 2.176,-0.012 2.496,-0.067 0.578,-0.07 1.047,-0.281 1.399,-0.656 0.32,-0.387 0.496,-0.863 0.496,-1.473 0,-0.57 -0.141,-1.046 -0.434,-1.406 -0.289,-0.375 -0.734,-0.578 -1.297,-0.66 -0.339,-0.039 -1.312,-0.07 -2.937,-0.07 z m 0,7.465 v 5.003 h 3.18 c 1.246,0 2.016,-0.043 2.363,-0.117 0.504,-0.105 0.91,-0.359 1.235,-0.742 0.332,-0.402 0.492,-0.93 0.492,-1.59 0,-0.562 -0.137,-1.043 -0.371,-1.433 -0.25,-0.391 -0.61,-0.68 -1.078,-0.864 -0.465,-0.187 -1.481,-0.257 -3.04,-0.257 z m 13.703,-10.575 h 3.422 v 10.145 c 0,1.609 0.043,2.644 0.133,3.129 0.156,0.769 0.508,1.379 1.055,1.84 0.558,0.464 1.308,0.707 2.269,0.707 0.973,0 1.715,-0.211 2.203,-0.657 0.5,-0.437 0.793,-0.992 0.899,-1.617 0.097,-0.64 0.14,-1.707 0.14,-3.183 V 539.82 h 3.438 v 9.84 c 0,2.246 -0.082,3.836 -0.274,4.762 -0.199,0.933 -0.523,1.703 -1.023,2.351 -0.508,0.637 -1.172,1.149 -2.008,1.532 -0.832,0.383 -1.922,0.558 -3.281,0.558 -1.621,0 -2.852,-0.199 -3.691,-0.617 -0.84,-0.414 -1.493,-0.949 -1.977,-1.601 -0.5,-0.672 -0.816,-1.356 -0.973,-2.086 -0.222,-1.063 -0.332,-2.653 -0.332,-4.754 z m 28.075,11.84 3.332,1.16 c -0.508,2.051 -1.356,3.571 -2.543,4.571 -1.188,0.976 -2.703,1.472 -4.532,1.472 -2.254,0 -4.113,-0.843 -5.566,-2.551 -1.445,-1.683 -2.176,-4.023 -2.176,-6.957 0,-3.121 0.731,-5.55 2.192,-7.273 1.457,-1.723 3.386,-2.578 5.765,-2.578 2.086,0 3.785,0.684 5.067,2.043 0.773,0.789 1.363,1.933 1.754,3.433 l -3.407,0.899 c -0.195,-0.981 -0.609,-1.746 -1.258,-2.293 -0.64,-0.578 -1.421,-0.852 -2.328,-0.852 -1.254,0 -2.289,0.5 -3.07,1.493 -0.785,1 -1.172,2.601 -1.172,4.839 0,2.372 0.375,4.067 1.156,5.055 0.77,1.012 1.778,1.52 3.024,1.52 0.914,0 1.691,-0.313 2.344,-0.957 0.656,-0.649 1.136,-1.641 1.418,-3.024 m 5.589,-2.367 c 0,-1.906 0.258,-3.504 0.782,-4.797 0.386,-0.957 0.91,-1.805 1.582,-2.574 0.668,-0.746 1.402,-1.317 2.195,-1.672 1.066,-0.504 2.281,-0.746 3.672,-0.746 2.508,0 4.508,0.848 6.012,2.562 1.511,1.719 2.265,4.086 2.265,7.137 0,3.031 -0.754,5.406 -2.25,7.109 -1.492,1.696 -3.484,2.551 -5.984,2.551 -2.524,0 -4.551,-0.843 -6.035,-2.551 -1.496,-1.683 -2.239,-4.039 -2.239,-7.019 m 3.543,-0.117 c 0,2.117 0.434,3.73 1.328,4.816 0.899,1.102 2.02,1.649 3.387,1.649 1.383,0 2.496,-0.547 3.387,-1.633 0.859,-1.086 1.312,-2.715 1.312,-4.875 0,-2.16 -0.429,-3.754 -1.277,-4.821 -0.859,-1.046 -2.004,-1.578 -3.422,-1.578 -1.41,0 -2.558,0.539 -3.418,1.602 -0.871,1.074 -1.297,2.672 -1.297,4.84"
       style="fill:#ffffff;fill-opacity:1;fill-rule:nonzero;stroke:none"
       transform="scale(1.3333333)" />
    <path
       id="path5"
       d="m 479.035,465.809 -0.433,0.839 0.05,32.059 67.184,0.121 v -21.965 l -35.031,-0.062 V 463.23 h 29.418 v -15.214 h -29.418 v -14.422 l 35.031,-0.063 v -22.816 h -62.453 c 7.426,1.887 15.027,10.16 16.312,26.004 0.059,19.301 -9.519,27.047 -15.578,29.09 h -5.082"
       style="fill:#ffffff;fill-opacity:1;fill-rule:evenodd;stroke:none"
       transform="scale(1.3333333)" />
    <path
       id="path6"
       d="m 480.016,497.34 64.457,0.113 v -19.219 l -35.043,-0.058 v -16.321 h 29.429 V 449.398 H 509.43 v -17.171 l 35.043,-0.055 V 412.09 h -54.985 c 5.559,3.914 10.543,11.707 11.594,24.527 0.059,23.695 -13.75,29.555 -16.508,30.481 l -0.222,0.086 h -4.383 z m 67.207,2.875 -69.946,-0.133 -0.05,-33.781 1.011,-1.867 h 5.641 c 2.871,-1.032 14.516,-6.547 14.457,-27.7 -1.281,-15.636 -8.742,-23.019 -15.293,-24.683 L 472.43,409.34 h 74.793 v 25.562 l -35.043,0.067 v 11.683 h 29.422 v 17.946 H 512.18 v 10.84 l 35.043,0.046 v 24.731"
       style="fill:#231f20;fill-opacity:1;fill-rule:nonzero;stroke:none"
       transform="scale(1.3333333)" />
    <path
       id="path7"
       d="M 422.574,410.703 422.52,498.5 455,498.738 v -32.929 h 29.117 c 6.059,-2.039 15.637,-9.786 15.578,-29.086 -1.359,-16.7 -9.73,-25 -17.523,-26.25 z m 32.492,21.055 h 19.192 c 8.051,-1.031 8.242,12.969 0,14.222 h -19.192 v -14.222"
       style="fill:#ffffff;fill-opacity:1;fill-rule:evenodd;stroke:none"
       transform="scale(1.3333333)" />
    <path
       id="path8"
       d="m 456.438,444.602 h 17.707 c 3.472,-0.579 5.066,-4.008 4.82,-7.118 -0.172,-2.293 -1.508,-4.765 -4.527,-4.367 h -18 z m 17.921,2.746 h -20.668 v -16.969 h 20.489 c 0.304,-0.031 0.601,-0.059 0.906,-0.059 3.644,0 6.312,2.797 6.617,6.961 0.32,4.309 -2.105,9.274 -7.238,10.059 z m -50.468,49.793 29.738,0.218 v -32.925 h 30.246 c 2.875,-1.039 14.52,-6.547 14.461,-27.7 -1.352,-16.543 -9.582,-23.75 -16.274,-24.894 l -58.124,0.226 z m 32.492,2.98 -35.231,-0.258 0.047,-90.523 61.09,-0.254 0.106,0.016 c 7.671,1.246 17.179,9.199 18.683,27.515 0.063,23.676 -13.75,29.551 -16.504,30.477 l -0.222,0.09 h -27.969 v 32.937"
       style="fill:#231f20;fill-opacity:1;fill-rule:nonzero;stroke:none"
       transform="scale(1.3333333)" />
    <path
       id="path9"
       d="m 372.324,408.66 32.293,0.086 -30.398,56.492 c -8.09,13.871 7.359,19 13.629,5.367 l 33.109,-61.945 32.441,-0.074 -37.109,72.676 c -26.172,34.98 -85.66,20.461 -75.672,-14.598 l 31.707,-58.004"
       style="fill:#ffffff;fill-opacity:1;fill-rule:evenodd;stroke:none"
       transform="scale(1.3333333)" />
    <path
       id="path10"
       d="m 342.016,467.234 c -3.352,12 1.609,22.286 13.629,28.239 17.23,8.539 44.128,5.25 59.367,-15.008 l 35.933,-70.371 -29.09,0.062 -32.683,61.156 c -2.387,5.2 -6.449,8.512 -10.824,8.778 -2.856,0.172 -5.383,-1.07 -6.77,-3.328 -1.117,-1.813 -2.426,-5.817 1.344,-12.282 l 29.187,-54.242 -28.894,-0.078 z m 33.457,35.621 c -7.641,0 -14.981,-1.632 -21.161,-4.695 -13.292,-6.586 -18.953,-18.512 -15.136,-31.906 l 0.125,-0.309 32.137,-58.789 35.683,0.098 -31.582,58.691 c -2.203,3.782 -2.707,7.133 -1.406,9.246 0.808,1.317 2.293,2.02 4.031,1.903 2.512,-0.153 6.016,-2.102 8.32,-7.117 l 33.571,-62.817 35.797,-0.082 -38.36,75.082 c -10.726,14.332 -26.953,20.695 -42.019,20.695"
       style="fill:#181717;fill-opacity:1;fill-rule:nonzero;stroke:none"
       transform="scale(1.3333333)" />
    <path
       id="path11"
       d="m 26.031,476.387 h 5.051 c -0.465,2.761 -1.676,4.922 -3.633,6.48 -1.957,1.559 -4.429,2.336 -7.418,2.336 -3.215,0 -5.734,-0.957 -7.554,-2.875 -1.821,-1.918 -2.731,-4.578 -2.731,-7.98 0,-4.184 1.172,-7.61 3.52,-10.278 2.347,-2.668 5.379,-4 9.097,-4 2.989,0 5.301,0.75 6.946,2.258 1.64,1.504 2.48,3.641 2.523,6.414 h -4.891 v -0.133 c 0,-1.355 -0.421,-2.425 -1.269,-3.203 -0.848,-0.773 -2.004,-1.164 -3.473,-1.164 -2.129,0 -3.883,0.965 -5.258,2.895 -1.375,1.929 -2.062,4.386 -2.062,7.375 0,2.011 0.492,3.547 1.469,4.613 0.976,1.066 2.386,1.598 4.222,1.598 1.446,0 2.645,-0.379 3.602,-1.133 0.957,-0.754 1.574,-1.824 1.859,-3.203"
       style="fill:#ffffff;fill-opacity:1;fill-rule:nonzero;stroke:none"
       transform="scale(1.3333333)" />
    <path
       id="path12"
       d="m 40.328,475.781 h 6.309 l -1.305,-10.136 z m -9.781,8.856 12.551,-24.016 h 5.804 l 3.797,24.016 h -4.972 l -0.571,-4.68 h -8.898 l -2.383,4.68 h -5.328"
       style="fill:#ffffff;fill-opacity:1;fill-rule:nonzero;stroke:none"
       transform="scale(1.3333333)" />
    <path
       id="path13"
       d="m 54.918,484.637 4.203,-24.016 h 7.336 l 1.809,17.297 7.941,-17.297 h 7.219 l -4.352,24.016 h -4.695 l 3.734,-19.496 -8.754,19.496 h -4.597 l -1.875,-19.09 -3.309,19.09 h -4.66"
       style="fill:#ffffff;fill-opacity:1;fill-rule:nonzero;stroke:none"
       transform="scale(1.3333333)" />
    <path
       id="path14"
       d="m 91.367,472.312 h 3.863 c 1.618,0 2.836,-0.347 3.649,-1.042 0.816,-0.696 1.223,-1.739 1.223,-3.133 0,-1.02 -0.309,-1.801 -0.926,-2.348 -0.621,-0.543 -1.512,-0.812 -2.676,-0.812 h -3.863 z m -7.207,12.325 4.207,-24.016 h 8.231 c 2.683,0 4.754,0.633 6.203,1.895 1.449,1.257 2.176,3.046 2.176,5.363 0,2.738 -0.856,4.84 -2.559,6.309 -1.707,1.464 -4.168,2.199 -7.383,2.199 h -4.437 l -1.496,8.25 H 84.16"
       style="fill:#ffffff;fill-opacity:1;fill-rule:nonzero;stroke:none"
       transform="scale(1.3333333)" />
    <path
       id="path15"
       d="m 110.602,460.621 h 5.101 l -2.707,15.047 c -0.055,0.305 -0.094,0.586 -0.121,0.84 -0.027,0.258 -0.039,0.48 -0.039,0.676 0,1.207 0.348,2.125 1.051,2.75 0.699,0.625 1.73,0.933 3.086,0.933 1.492,0 2.66,-0.426 3.515,-1.285 0.852,-0.859 1.453,-2.199 1.801,-4.027 l 2.723,-14.934 h 5.019 l -2.707,15.293 c -0.551,3.117 -1.726,5.457 -3.519,7.016 -1.793,1.562 -4.207,2.34 -7.239,2.34 -2.66,0 -4.789,-0.708 -6.382,-2.125 -1.59,-1.418 -2.387,-3.313 -2.387,-5.68 0,-0.414 0.027,-0.887 0.082,-1.41 0.055,-0.528 0.137,-1.11 0.242,-1.739 l 2.481,-13.695"
       style="fill:#ffffff;fill-opacity:1;fill-rule:nonzero;stroke:none"
       transform="scale(1.3333333)" />
    <path
       id="path16"
       d="m 130.863,477.023 h 4.875 v 0.227 c 0,1.219 0.371,2.148 1.117,2.789 0.743,0.641 1.817,0.961 3.219,0.961 1.25,0 2.207,-0.273 2.875,-0.816 0.672,-0.543 1.004,-1.321 1.004,-2.329 0,-0.621 -0.223,-1.152 -0.668,-1.589 -0.445,-0.442 -1.473,-1.008 -3.082,-1.704 -3.086,-1.359 -5.07,-2.535 -5.949,-3.523 -0.883,-0.988 -1.32,-2.242 -1.32,-3.766 0,-2.207 0.754,-3.968 2.257,-5.289 1.504,-1.32 3.536,-1.98 6.09,-1.98 2.758,0 4.91,0.637 6.453,1.906 1.543,1.274 2.317,3.039 2.317,5.301 v 0.324 h -4.727 c -0.023,-1.074 -0.383,-1.902 -1.078,-2.484 -0.695,-0.582 -1.684,-0.875 -2.965,-0.875 -1.066,0 -1.894,0.226 -2.488,0.676 -0.59,0.453 -0.887,1.082 -0.887,1.882 0,1.145 1.125,2.188 3.375,3.133 0.391,0.16 0.696,0.293 0.91,0.391 2.536,1.074 4.274,2.152 5.219,3.226 0.945,1.078 1.418,2.422 1.418,4.043 0,2.422 -0.801,4.325 -2.398,5.707 -1.598,1.379 -3.793,2.071 -6.586,2.071 -2.758,0 -4.946,-0.703 -6.559,-2.114 -1.613,-1.406 -2.422,-3.304 -2.422,-5.695 v -0.473"
       style="fill:#ffffff;fill-opacity:1;fill-rule:nonzero;stroke:none"
       transform="scale(1.3333333)" />
    <path
       id="path17"
       d="m 15.516,513.684 h 5.851 c 1.383,0 2.387,-0.25 3.016,-0.75 0.633,-0.5 0.945,-1.289 0.945,-2.364 0,-1.121 -0.308,-1.929 -0.93,-2.422 -0.617,-0.496 -1.64,-0.742 -3.062,-0.742 h -5.82 z m 0,-10.387 h 5.64 c 1.219,0 2.11,-0.207 2.672,-0.625 0.567,-0.418 0.848,-1.078 0.848,-1.981 0,-0.882 -0.274,-1.519 -0.821,-1.918 -0.55,-0.394 -1.46,-0.593 -2.73,-0.593 h -5.609 z m -4.727,14.723 v -24.012 h 11.313 c 2.457,0 4.328,0.519 5.617,1.554 1.285,1.04 1.929,2.547 1.929,4.524 0,1.219 -0.238,2.234 -0.714,3.051 -0.481,0.812 -1.196,1.441 -2.153,1.89 1.239,0.5 2.164,1.219 2.778,2.161 0.613,0.937 0.921,2.109 0.921,3.511 0,2.336 -0.761,4.141 -2.281,5.41 -1.523,1.274 -3.679,1.911 -6.472,1.911 H 10.789"
       style="fill:#ffffff;fill-opacity:1;fill-rule:nonzero;stroke:none"
       transform="scale(1.3333333)" />
    <path
       id="path18"
       d="m 34.293,518.02 v -24.012 h 17.441 v 4.172 H 39.168 v 5.117 H 50.66 v 4.109 H 39.168 v 6.18 h 13.156 v 4.434 H 34.293"
       style="fill:#ffffff;fill-opacity:1;fill-rule:nonzero;stroke:none"
       transform="scale(1.3333333)" />
    <path
       id="path19"
       d="m 56.09,518.02 v -24.012 h 5.168 l 9.746,16.496 v -16.496 h 4.875 v 24.012 h -5.102 l -9.812,-16.5 v 16.5 H 56.09"
       style="fill:#ffffff;fill-opacity:1;fill-rule:nonzero;stroke:none"
       transform="scale(1.3333333)" />
    <path
       id="path20"
       d="m 80.836,518.02 v -24.012 h 16.758 v 4.172 H 85.707 v 5.445 h 10.418 v 4.172 H 85.707 v 10.223 h -4.871"
       style="fill:#ffffff;fill-opacity:1;fill-rule:nonzero;stroke:none"
       transform="scale(1.3333333)" />
    <path
       id="path21"
       d="m 100.969,494.008 h 4.938 v 24.012 h -4.938 z"
       style="fill:#ffffff;fill-opacity:1;fill-rule:nonzero;stroke:none"
       transform="scale(1.3333333)" />
    <path
       id="path22"
       d="m 131.953,509.77 c -0.183,2.726 -1.234,4.894 -3.152,6.503 -1.918,1.61 -4.422,2.415 -7.508,2.415 -3.551,0 -6.316,-1.11 -8.289,-3.329 -1.973,-2.214 -2.957,-5.324 -2.957,-9.324 0,-4.086 1.004,-7.215 3.015,-9.387 2.012,-2.175 4.903,-3.261 8.672,-3.261 3.067,0 5.485,0.746 7.262,2.242 1.777,1.492 2.75,3.605 2.926,6.332 h -4.871 c -0.207,-1.359 -0.762,-2.395 -1.664,-3.106 -0.903,-0.71 -2.121,-1.066 -3.653,-1.066 -2.172,0 -3.824,0.699 -4.957,2.102 -1.129,1.402 -1.695,3.449 -1.695,6.144 0,2.61 0.563,4.625 1.688,6.051 1.125,1.422 2.726,2.133 4.8,2.133 1.5,0 2.731,-0.383 3.684,-1.149 0.957,-0.765 1.578,-1.867 1.859,-3.3 h 4.84"
       style="fill:#ffffff;fill-opacity:1;fill-rule:nonzero;stroke:none"
       transform="scale(1.3333333)" />
    <path
       id="path23"
       d="m 144.832,498.816 -3.324,10.219 h 6.668 z m -2.867,-4.808 h 5.703 l 8.656,24.012 h -5.183 l -1.629,-4.942 h -9.309 l -1.582,4.942 h -5.199 l 8.543,-24.012"
       style="fill:#ffffff;fill-opacity:1;fill-rule:nonzero;stroke:none"
       transform="scale(1.3333333)" />
    <path
       id="path24"
       d="m 166.809,506.902 h 9.16 v 4.465 h -9.16 z"
       style="fill:#ffffff;fill-opacity:1;fill-rule:nonzero;stroke:none"
       transform="scale(1.3333333)" />
    <path
       id="path25"
       d="m 193.898,505.121 h 4.778 c 1.293,0 2.234,-0.273 2.82,-0.82 0.586,-0.547 0.883,-1.434 0.883,-2.649 0,-1.14 -0.289,-2.004 -0.867,-2.593 -0.574,-0.586 -1.434,-0.879 -2.574,-0.879 h -5.04 z m -0.031,4.356 v 8.543 h -4.937 v -24.012 h 10.675 c 2.52,0 4.43,0.652 5.731,1.961 1.297,1.312 1.949,3.23 1.949,5.765 0,2.477 -0.637,4.387 -1.91,5.731 -1.27,1.34 -3.086,2.012 -5.441,2.012 h -6.067"
       style="fill:#ffffff;fill-opacity:1;fill-rule:nonzero;stroke:none"
       transform="scale(1.3333333)" />
    <path
       id="path26"
       d="m 215.191,506.035 c 0,2.641 0.586,4.695 1.758,6.156 1.176,1.461 2.817,2.192 4.922,2.192 2.133,0 3.789,-0.731 4.973,-2.192 1.187,-1.461 1.777,-3.515 1.777,-6.156 0,-2.64 -0.59,-4.691 -1.777,-6.152 -1.184,-1.461 -2.84,-2.192 -4.973,-2.192 -2.105,0 -3.746,0.727 -4.922,2.184 -1.172,1.457 -1.758,3.512 -1.758,6.16 z m -5.039,0 c 0,-3.879 1.059,-6.957 3.172,-9.234 2.114,-2.274 4.961,-3.414 8.547,-3.414 3.59,0 6.445,1.14 8.57,3.422 2.121,2.285 3.184,5.359 3.184,9.226 0,3.871 -1.063,6.945 -3.184,9.227 -2.125,2.285 -4.98,3.426 -8.57,3.426 -3.586,0 -6.433,-1.141 -8.547,-3.426 -2.113,-2.282 -3.172,-5.356 -3.172,-9.227"
       style="fill:#ffffff;fill-opacity:1;fill-rule:nonzero;stroke:none"
       transform="scale(1.3333333)" />
    <path
       id="path27"
       d="m 237.539,518.02 v -24.012 h 4.938 v 19.578 h 11.722 v 4.434 h -16.66"
       style="fill:#ffffff;fill-opacity:1;fill-rule:nonzero;stroke:none"
       transform="scale(1.3333333)" />
    <path
       id="path28"
       d="m 257.066,494.008 h 4.941 v 24.012 h -4.941 z"
       style="fill:#ffffff;fill-opacity:1;fill-rule:nonzero;stroke:none"
       transform="scale(1.3333333)" />
    <path
       id="path29"
       d="m 9.625,327.953 -0.023,-2.73 539.539,-0.637 0.023,2.758 -539.539,0.609"
       style="fill:#231f20;fill-opacity:1;fill-rule:nonzero;stroke:none"
       transform="scale(1.3333333)" />
    <path
       id="path30"
       d="m 339.109,301.949 h 3.453 v 10.164 c 0,1.617 0.04,2.668 0.118,3.153 0.144,0.754 0.5,1.375 1.054,1.839 0.547,0.473 1.313,0.696 2.274,0.696 0.984,0 1.719,-0.207 2.219,-0.656 0.492,-0.434 0.781,-0.973 0.89,-1.614 0.113,-0.636 0.149,-1.707 0.149,-3.191 v -10.391 h 3.449 v 9.86 c 0,2.261 -0.094,3.855 -0.266,4.773 -0.195,0.934 -0.543,1.727 -1.047,2.363 -0.488,0.641 -1.164,1.153 -2.007,1.535 -0.836,0.379 -1.926,0.575 -3.286,0.575 -1.625,0 -2.867,-0.211 -3.687,-0.625 -0.863,-0.418 -1.516,-0.953 -2.004,-1.606 -0.492,-0.676 -0.816,-1.363 -0.973,-2.097 -0.218,-1.063 -0.336,-2.657 -0.336,-4.758 z m 20.254,18.778 v -18.778 h 3.352 l 6.98,12.535 v -12.535 h 3.223 v 18.778 h -3.473 l -6.883,-12.25 v 12.25 z m 20.055,-18.778 h 3.461 v 18.778 h -3.461 z m 14.07,18.778 -6.101,-18.778 h 3.734 l 4.32,13.903 4.176,-13.903 h 3.649 l -6.11,18.778 z m 14.535,0 v -18.778 h 12.641 v 3.188 h -9.191 v 4.156 h 8.554 v 3.152 h -8.554 v 5.117 h 9.519 v 3.165 z m 18.883,0 v -18.778 h 7.262 c 1.816,0 3.144,0.16 3.965,0.508 0.832,0.332 1.492,0.934 1.988,1.805 0.496,0.855 0.75,1.832 0.75,2.953 0,1.406 -0.387,2.578 -1.129,3.492 -0.75,0.91 -1.875,1.496 -3.375,1.731 0.75,0.488 1.363,1.011 1.856,1.589 0.48,0.571 1.117,1.578 1.953,3.043 l 2.082,3.657 h -4.125 l -2.488,-4.086 c -0.879,-1.473 -1.485,-2.391 -1.809,-2.75 -0.34,-0.387 -0.664,-0.649 -1.039,-0.793 -0.371,-0.153 -0.942,-0.211 -1.742,-0.211 h -0.7 v 7.84 z m 3.449,-10.844 h 2.555 c 1.652,0 2.684,-0.067 3.086,-0.219 0.41,-0.16 0.731,-0.418 0.969,-0.805 0.238,-0.359 0.359,-0.843 0.359,-1.406 0,-0.637 -0.152,-1.141 -0.457,-1.527 -0.316,-0.399 -0.754,-0.629 -1.308,-0.738 -0.274,-0.043 -1.118,-0.051 -2.512,-0.051 h -2.692 z m 15.868,4.738 3.351,-0.371 c 0.203,1.246 0.621,2.156 1.238,2.742 0.602,0.586 1.446,0.875 2.489,0.875 1.105,0 1.953,-0.269 2.5,-0.785 0.582,-0.516 0.851,-1.121 0.851,-1.801 0,-0.457 -0.117,-0.836 -0.351,-1.148 -0.242,-0.309 -0.649,-0.578 -1.242,-0.805 -0.403,-0.164 -1.317,-0.433 -2.758,-0.82 -1.84,-0.512 -3.141,-1.141 -3.887,-1.863 -1.043,-1.04 -1.574,-2.29 -1.574,-3.778 0,-0.965 0.254,-1.855 0.75,-2.679 0.484,-0.84 1.199,-1.465 2.121,-1.915 0.93,-0.433 2.039,-0.644 3.355,-0.644 2.153,0 3.754,0.516 4.84,1.551 1.086,1.027 1.656,2.398 1.707,4.136 l -3.437,0.176 c -0.16,-0.972 -0.461,-1.676 -0.957,-2.094 -0.489,-0.429 -1.215,-0.628 -2.18,-0.628 -0.996,0 -1.793,0.222 -2.359,0.668 -0.368,0.296 -0.547,0.683 -0.547,1.171 0,0.45 0.172,0.829 0.515,1.141 0.438,0.402 1.493,0.82 3.164,1.254 1.684,0.43 2.926,0.894 3.719,1.359 0.809,0.469 1.434,1.098 1.899,1.91 0.449,0.797 0.668,1.797 0.668,2.993 0,1.074 -0.262,2.07 -0.817,3.019 -0.539,0.93 -1.304,1.641 -2.293,2.09 -1,0.461 -2.23,0.68 -3.73,0.68 -2.145,0 -3.805,-0.535 -4.965,-1.625 -1.16,-1.114 -1.844,-2.703 -2.07,-4.809 m 19.648,-12.672 h 3.465 v 18.778 h -3.465 z m 9.707,0 h 6.309 c 1.406,0 2.488,0.113 3.234,0.363 1,0.321 1.863,0.891 2.57,1.727 0.731,0.82 1.258,1.84 1.641,3.031 0.379,1.211 0.566,2.688 0.566,4.45 0,1.542 -0.187,2.871 -0.543,4 -0.41,1.367 -1.027,2.46 -1.82,3.312 -0.601,0.645 -1.398,1.141 -2.426,1.512 -0.757,0.254 -1.769,0.383 -3.07,0.383 h -6.461 z m 3.449,3.188 v 12.425 h 2.563 c 0.957,0 1.668,-0.066 2.094,-0.175 0.558,-0.153 1.015,-0.403 1.386,-0.782 0.375,-0.367 0.676,-0.976 0.903,-1.82 0.23,-0.84 0.351,-1.976 0.351,-3.433 0,-1.454 -0.121,-2.563 -0.351,-3.344 -0.227,-0.785 -0.563,-1.387 -0.969,-1.82 -0.43,-0.446 -0.965,-0.719 -1.609,-0.887 -0.485,-0.121 -1.415,-0.164 -2.825,-0.164 z m 32.141,15.59 h -3.758 l -1.465,-4.266 h -6.824 l -1.414,4.266 h -3.648 l 6.644,-18.778 h 3.645 z m -6.34,-7.415 -2.348,-6.988 -2.304,6.988 z m 11.141,-11.363 h 6.316 c 1.414,0 2.488,0.113 3.235,0.363 0.996,0.321 1.863,0.891 2.574,1.727 0.707,0.82 1.258,1.84 1.636,3.031 0.36,1.211 0.559,2.688 0.559,4.45 0,1.542 -0.184,2.871 -0.523,4 -0.434,1.367 -1.051,2.46 -1.844,3.312 -0.586,0.645 -1.395,1.141 -2.414,1.512 -0.75,0.254 -1.774,0.383 -3.047,0.383 h -6.492 z m 3.441,3.188 v 12.425 h 2.586 c 0.961,0 1.652,-0.066 2.09,-0.175 0.547,-0.153 1.019,-0.403 1.383,-0.782 0.371,-0.367 0.679,-0.976 0.894,-1.82 0.239,-0.84 0.36,-1.976 0.36,-3.433 0,-1.454 -0.121,-2.563 -0.36,-3.344 -0.215,-0.785 -0.551,-1.387 -0.968,-1.82 -0.422,-0.446 -0.961,-0.719 -1.606,-0.887 -0.477,-0.121 -1.426,-0.164 -2.812,-0.164 z m 16.774,15.59 v -18.778 h 12.664 v 3.188 h -9.215 v 4.156 h 8.566 v 3.152 h -8.566 v 5.117 h 9.531 v 3.165 h -12.98"
       style="fill:#231f20;fill-opacity:1;fill-rule:nonzero;stroke:none"
       transform="scale(1.3333333)" />
    <path
       id="path31"
       d="m 338.699,333.535 h 6.274 c 1.418,0 2.507,0.113 3.238,0.363 0.996,0.321 1.859,0.891 2.566,1.719 0.715,0.821 1.262,1.848 1.629,3.028 0.383,1.199 0.563,2.679 0.563,4.429 0,1.535 -0.172,2.871 -0.52,3.985 -0.441,1.367 -1.043,2.476 -1.832,3.312 -0.594,0.641 -1.398,1.133 -2.406,1.492 -0.766,0.266 -1.777,0.403 -3.055,0.403 h -6.457 z m 3.43,3.168 v 12.406 h 2.566 c 0.95,0 1.653,-0.062 2.075,-0.187 0.558,-0.152 1.031,-0.406 1.394,-0.777 0.367,-0.36 0.672,-0.957 0.902,-1.801 0.231,-0.84 0.356,-1.985 0.356,-3.442 0,-1.441 -0.125,-2.55 -0.356,-3.324 -0.23,-0.781 -0.57,-1.39 -0.976,-1.812 -0.43,-0.446 -0.953,-0.727 -1.594,-0.883 -0.484,-0.125 -1.422,-0.18 -2.824,-0.18 z m 13.75,15.563 v -18.731 h 12.609 v 3.168 h -9.172 v 4.152 h 8.536 v 3.157 h -8.536 v 5.097 h 9.504 v 3.157 z m 22.469,0 v -18.731 h 5.511 c 2.09,0 3.453,0.102 4.075,0.281 0.972,0.274 1.804,0.883 2.461,1.817 0.664,0.965 0.988,2.176 0.988,3.664 0,1.148 -0.184,2.113 -0.567,2.902 -0.378,0.785 -0.867,1.399 -1.449,1.84 -0.582,0.441 -1.183,0.746 -1.777,0.883 -0.813,0.176 -2.016,0.281 -3.567,0.281 h -2.238 v 7.063 z m 3.437,-15.563 v 5.317 h 1.867 c 1.371,0 2.27,-0.102 2.711,-0.297 0.461,-0.207 0.825,-0.496 1.082,-0.922 0.262,-0.418 0.391,-0.899 0.391,-1.457 0,-0.688 -0.172,-1.239 -0.539,-1.696 -0.359,-0.433 -0.824,-0.703 -1.383,-0.816 -0.41,-0.098 -1.234,-0.129 -2.476,-0.129 z m 12.418,15.563 v -18.731 h 12.613 v 3.168 h -9.179 v 4.152 h 8.543 v 3.157 h -8.543 v 5.097 h 9.511 v 3.157 z m 15.859,0 v -18.731 h 7.235 c 1.84,0 3.148,0.176 3.969,0.5 0.82,0.348 1.496,0.93 1.976,1.797 0.504,0.863 0.75,1.84 0.75,2.949 0,1.407 -0.379,2.563 -1.129,3.485 -0.742,0.914 -1.867,1.492 -3.371,1.722 0.746,0.485 1.36,1.008 1.852,1.578 0.48,0.575 1.133,1.59 1.957,3.036 l 2.07,3.664 h -4.105 l -2.496,-4.082 c -0.883,-1.454 -1.473,-2.375 -1.793,-2.754 -0.332,-0.375 -0.676,-0.629 -1.047,-0.774 -0.352,-0.136 -0.934,-0.218 -1.731,-0.218 h -0.676 v 7.828 z m 3.461,-10.821 h 2.52 c 1.656,0 2.684,-0.066 3.098,-0.218 0.406,-0.157 0.73,-0.426 0.949,-0.789 0.242,-0.376 0.359,-0.844 0.359,-1.415 0,-0.632 -0.164,-1.14 -0.469,-1.527 -0.296,-0.383 -0.73,-0.629 -1.292,-0.738 -0.266,-0.035 -1.11,-0.055 -2.5,-0.055 h -2.665 z m 13.747,10.821 v -18.731 h 3.332 l 6.96,12.504 v -12.504 h 3.208 v 18.731 h -3.458 l -6.855,-12.227 v 12.227 z m 32.48,0 h -3.734 l -1.493,-4.262 h -6.816 l -1.395,4.262 h -3.64 l 6.625,-18.731 h 3.637 z m -6.32,-7.414 -2.356,-6.946 -2.304,6.946 z m 8.097,7.414 v -18.731 h 5.141 l 3.086,12.777 3.051,-12.777 h 5.148 v 18.731 h -3.191 v -14.754 l -3.371,14.754 h -3.313 l -3.367,-14.754 v 14.754 z m 19.856,-18.731 h 6.808 c 1.344,0 2.356,0.059 3.012,0.188 0.664,0.117 1.258,0.367 1.777,0.769 0.52,0.399 0.95,0.918 1.305,1.567 0.348,0.648 0.527,1.375 0.527,2.187 0,0.875 -0.222,1.688 -0.644,2.418 -0.434,0.723 -1.008,1.285 -1.758,1.637 1.035,0.332 1.844,0.902 2.402,1.711 0.551,0.797 0.825,1.738 0.825,2.808 0,0.871 -0.172,1.696 -0.535,2.5 -0.364,0.801 -0.848,1.45 -1.469,1.926 -0.629,0.473 -1.399,0.77 -2.309,0.883 -0.57,0.066 -1.953,0.121 -4.156,0.137 h -5.785 z m 3.441,3.11 v 4.332 h 2.25 c 1.348,0 2.176,-0.016 2.496,-0.067 0.578,-0.07 1.047,-0.281 1.399,-0.656 0.32,-0.387 0.496,-0.867 0.496,-1.473 0,-0.57 -0.141,-1.051 -0.434,-1.406 -0.289,-0.375 -0.734,-0.578 -1.297,-0.66 -0.339,-0.043 -1.312,-0.07 -2.937,-0.07 z m 0,7.46 v 5.004 h 3.18 c 1.246,0 2.016,-0.043 2.363,-0.113 0.504,-0.109 0.91,-0.363 1.235,-0.746 0.332,-0.402 0.492,-0.926 0.492,-1.59 0,-0.562 -0.137,-1.039 -0.371,-1.433 -0.25,-0.391 -0.61,-0.68 -1.078,-0.86 -0.465,-0.191 -1.481,-0.262 -3.04,-0.262 z m 13.703,-10.57 h 3.422 v 10.141 c 0,1.609 0.043,2.644 0.133,3.133 0.156,0.765 0.508,1.375 1.055,1.839 0.558,0.461 1.308,0.704 2.269,0.704 0.973,0 1.715,-0.211 2.203,-0.653 0.5,-0.441 0.793,-0.996 0.899,-1.617 0.097,-0.641 0.14,-1.711 0.14,-3.187 v -10.36 h 3.438 v 9.836 c 0,2.25 -0.082,3.836 -0.274,4.766 -0.199,0.929 -0.523,1.703 -1.023,2.351 -0.508,0.637 -1.172,1.145 -2.008,1.528 -0.832,0.386 -1.922,0.558 -3.281,0.558 -1.621,0 -2.852,-0.195 -3.691,-0.613 -0.84,-0.418 -1.493,-0.949 -1.977,-1.606 -0.5,-0.667 -0.816,-1.351 -0.973,-2.082 -0.222,-1.066 -0.332,-2.652 -0.332,-4.757 z m 28.075,11.836 3.332,1.16 c -0.508,2.055 -1.356,3.574 -2.543,4.571 -1.188,0.98 -2.703,1.472 -4.532,1.472 -2.254,0 -4.113,-0.84 -5.566,-2.551 -1.445,-1.679 -2.176,-4.019 -2.176,-6.957 0,-3.117 0.731,-5.546 2.192,-7.273 1.457,-1.719 3.386,-2.578 5.765,-2.578 2.086,0 3.785,0.683 5.067,2.047 0.773,0.789 1.363,1.929 1.754,3.433 l -3.407,0.899 c -0.195,-0.981 -0.609,-1.75 -1.258,-2.297 -0.64,-0.574 -1.421,-0.852 -2.328,-0.852 -1.254,0 -2.289,0.5 -3.07,1.493 -0.785,1 -1.172,2.605 -1.172,4.839 0,2.371 0.375,4.067 1.156,5.059 0.77,1.008 1.778,1.516 3.024,1.516 0.914,0 1.691,-0.313 2.344,-0.957 0.656,-0.645 1.136,-1.641 1.418,-3.024 m 5.589,-2.367 c 0,-1.906 0.258,-3.5 0.782,-4.793 0.386,-0.957 0.91,-1.809 1.582,-2.578 0.668,-0.742 1.402,-1.317 2.195,-1.672 1.066,-0.5 2.281,-0.746 3.672,-0.746 2.508,0 4.508,0.851 6.012,2.562 1.511,1.719 2.265,4.09 2.265,7.137 0,3.031 -0.754,5.406 -2.25,7.109 -1.492,1.696 -3.484,2.551 -5.984,2.551 -2.524,0 -4.551,-0.84 -6.035,-2.551 -1.496,-1.679 -2.239,-4.035 -2.239,-7.019 m 3.543,-0.117 c 0,2.117 0.434,3.73 1.328,4.816 0.899,1.102 2.02,1.649 3.387,1.649 1.383,0 2.496,-0.547 3.387,-1.633 0.859,-1.086 1.312,-2.715 1.312,-4.875 0,-2.156 -0.429,-3.75 -1.277,-4.817 -0.859,-1.05 -2.004,-1.582 -3.422,-1.582 -1.41,0 -2.558,0.539 -3.418,1.606 -0.871,1.07 -1.297,2.668 -1.297,4.836"
       style="fill:#231f20;fill-opacity:1;fill-rule:nonzero;stroke:none"
       transform="scale(1.3333333)" />
    <path
       id="path32"
       d="m 480.016,291.051 64.457,0.113 v -19.219 l -35.043,-0.058 v -16.321 h 29.429 V 243.109 H 509.43 v -17.171 l 35.043,-0.055 v -20.082 h -54.985 c 5.559,3.918 10.543,11.707 11.594,24.531 0.059,23.691 -13.75,29.551 -16.508,30.48 l -0.222,0.086 h -4.383 z m 67.207,2.875 -69.946,-0.129 -0.05,-33.781 1.011,-1.871 h 5.641 c 2.871,-1.028 14.516,-6.543 14.457,-27.7 -1.281,-15.633 -8.742,-23.015 -15.293,-24.683 l -10.613,-2.711 h 74.793 v 25.562 l -35.043,0.067 v 11.683 h 29.422 v 17.949 H 512.18 v 10.836 l 35.043,0.051 v 24.727"
       style="fill:#231f20;fill-opacity:1;fill-rule:nonzero;stroke:none"
       transform="scale(1.3333333)" />
    <path
       id="path33"
       d="m 455.066,225.473 h 19.192 c 8.051,-1.032 8.242,12.968 0,14.222 h -19.192 v -14.222"
       style="fill:#ffffff;fill-opacity:1;fill-rule:evenodd;stroke:none"
       transform="scale(1.3333333)" />
    <path
       id="path34"
       d="m 456.438,238.312 h 17.707 c 3.472,-0.578 5.066,-4.003 4.82,-7.113 -0.172,-2.297 -1.508,-4.765 -4.527,-4.371 h -18 z m 17.921,2.747 h -20.668 v -16.965 h 20.489 c 0.304,-0.032 0.601,-0.063 0.906,-0.063 3.644,0 6.312,2.797 6.617,6.965 0.32,4.305 -2.105,9.274 -7.238,10.055 z m -50.468,49.796 29.738,0.219 v -32.929 h 30.246 c 2.875,-1.04 14.52,-6.543 14.461,-27.7 -1.352,-16.539 -9.582,-23.746 -16.274,-24.894 l -58.124,0.226 z m 32.492,2.977 -35.231,-0.254 0.047,-90.527 61.09,-0.25 0.106,0.011 c 7.671,1.25 17.179,9.204 18.683,27.52 0.063,23.672 -13.75,29.547 -16.504,30.477 l -0.222,0.089 h -27.969 v 32.934"
       style="fill:#231f20;fill-opacity:1;fill-rule:nonzero;stroke:none"
       transform="scale(1.3333333)" />
    <path
       id="path35"
       d="m 372.324,202.371 32.293,0.086 -30.398,56.492 c -8.09,13.871 7.359,19.004 13.629,5.367 l 33.109,-61.945 32.441,-0.07 -37.109,72.672 c -26.172,34.98 -85.66,20.461 -75.672,-14.594 l 31.707,-58.008"
       style="fill:#231f20;fill-opacity:1;fill-rule:evenodd;stroke:none"
       transform="scale(1.3333333)" />
    <path
       id="path36"
       d="m 26.031,270.098 h 5.051 c -0.465,2.761 -1.676,4.922 -3.633,6.48 -1.957,1.563 -4.429,2.34 -7.418,2.34 -3.215,0 -5.734,-0.957 -7.554,-2.879 -1.821,-1.918 -2.731,-4.574 -2.731,-7.977 0,-4.183 1.172,-7.609 3.52,-10.277 2.347,-2.668 5.379,-4.004 9.097,-4.004 2.989,0 5.301,0.754 6.946,2.258 1.64,1.508 2.48,3.645 2.523,6.414 h -4.891 v -0.129 c 0,-1.359 -0.421,-2.426 -1.269,-3.203 -0.848,-0.777 -2.004,-1.168 -3.473,-1.168 -2.129,0 -3.883,0.965 -5.258,2.895 -1.375,1.929 -2.062,4.386 -2.062,7.379 0,2.007 0.492,3.546 1.469,4.613 0.976,1.062 2.386,1.594 4.222,1.594 1.446,0 2.645,-0.375 3.602,-1.133 0.957,-0.754 1.574,-1.821 1.859,-3.203"
       style="fill:#231f20;fill-opacity:1;fill-rule:nonzero;stroke:none"
       transform="scale(1.3333333)" />
    <path
       id="path37"
       d="m 40.328,269.496 h 6.309 l -1.305,-10.141 z m -9.781,8.852 12.551,-24.012 h 5.804 l 3.797,24.012 h -4.972 l -0.571,-4.68 h -8.898 l -2.383,4.68 h -5.328"
       style="fill:#231f20;fill-opacity:1;fill-rule:nonzero;stroke:none"
       transform="scale(1.3333333)" />
    <path
       id="path38"
       d="m 54.918,278.348 4.203,-24.012 h 7.336 l 1.809,17.297 7.941,-17.297 h 7.219 l -4.352,24.012 h -4.695 l 3.734,-19.496 -8.754,19.496 h -4.597 l -1.875,-19.09 -3.309,19.09 h -4.66"
       style="fill:#231f20;fill-opacity:1;fill-rule:nonzero;stroke:none"
       transform="scale(1.3333333)" />
    <path
       id="path39"
       d="m 91.367,266.023 h 3.863 c 1.618,0 2.836,-0.347 3.649,-1.043 0.816,-0.695 1.223,-1.738 1.223,-3.128 0,-1.024 -0.309,-1.805 -0.926,-2.348 -0.621,-0.543 -1.512,-0.816 -2.676,-0.816 h -3.863 z m -7.207,12.325 4.207,-24.012 h 8.231 c 2.683,0 4.754,0.629 6.203,1.891 1.449,1.261 2.176,3.046 2.176,5.363 0,2.738 -0.856,4.844 -2.559,6.308 -1.707,1.469 -4.168,2.2 -7.383,2.2 h -4.437 l -1.496,8.25 H 84.16"
       style="fill:#231f20;fill-opacity:1;fill-rule:nonzero;stroke:none"
       transform="scale(1.3333333)" />
    <path
       id="path40"
       d="m 110.602,254.336 h 5.101 l -2.707,15.047 c -0.055,0.305 -0.094,0.582 -0.121,0.84 -0.027,0.254 -0.039,0.48 -0.039,0.675 0,1.207 0.348,2.122 1.051,2.747 0.699,0.625 1.73,0.937 3.086,0.937 1.492,0 2.66,-0.43 3.515,-1.289 0.852,-0.855 1.453,-2.199 1.801,-4.023 l 2.723,-14.934 h 5.019 l -2.707,15.289 c -0.551,3.121 -1.726,5.461 -3.519,7.02 -1.793,1.558 -4.207,2.339 -7.239,2.339 -2.66,0 -4.789,-0.711 -6.382,-2.129 -1.59,-1.417 -2.387,-3.312 -2.387,-5.679 0,-0.414 0.027,-0.883 0.082,-1.41 0.055,-0.528 0.137,-1.106 0.242,-1.739 l 2.481,-13.691"
       style="fill:#231f20;fill-opacity:1;fill-rule:nonzero;stroke:none"
       transform="scale(1.3333333)" />
    <path
       id="path41"
       d="m 130.863,270.734 h 4.875 v 0.231 c 0,1.215 0.371,2.144 1.117,2.785 0.743,0.641 1.817,0.961 3.219,0.961 1.25,0 2.207,-0.27 2.875,-0.813 0.672,-0.543 1.004,-1.32 1.004,-2.332 0,-0.621 -0.223,-1.148 -0.668,-1.589 -0.445,-0.442 -1.473,-1.008 -3.082,-1.704 -3.086,-1.359 -5.07,-2.531 -5.949,-3.519 -0.883,-0.988 -1.32,-2.246 -1.32,-3.766 0,-2.207 0.754,-3.968 2.257,-5.293 1.504,-1.316 3.536,-1.98 6.09,-1.98 2.758,0 4.91,0.637 6.453,1.906 1.543,1.274 2.317,3.039 2.317,5.301 v 0.324 h -4.727 c -0.023,-1.074 -0.383,-1.902 -1.078,-2.484 -0.695,-0.582 -1.684,-0.871 -2.965,-0.871 -1.066,0 -1.894,0.222 -2.488,0.675 -0.59,0.45 -0.887,1.079 -0.887,1.883 0,1.141 1.125,2.184 3.375,3.129 0.391,0.164 0.696,0.293 0.91,0.391 2.536,1.078 4.274,2.152 5.219,3.23 0.945,1.074 1.418,2.422 1.418,4.039 0,2.426 -0.801,4.328 -2.398,5.707 -1.598,1.379 -3.793,2.071 -6.586,2.071 -2.758,0 -4.946,-0.704 -6.559,-2.11 -1.613,-1.41 -2.422,-3.308 -2.422,-5.699 v -0.473"
       style="fill:#231f20;fill-opacity:1;fill-rule:nonzero;stroke:none"
       transform="scale(1.3333333)" />
    <path
       id="path42"
       d="m 15.516,307.395 h 5.851 c 1.383,0 2.387,-0.25 3.016,-0.75 0.633,-0.5 0.945,-1.29 0.945,-2.364 0,-1.121 -0.308,-1.926 -0.93,-2.422 -0.617,-0.496 -1.64,-0.742 -3.062,-0.742 h -5.82 z m 0,-10.383 h 5.64 c 1.219,0 2.11,-0.211 2.672,-0.629 0.567,-0.418 0.848,-1.078 0.848,-1.981 0,-0.879 -0.274,-1.519 -0.821,-1.914 -0.55,-0.398 -1.46,-0.597 -2.73,-0.597 h -5.609 z m -4.727,14.718 v -24.011 h 11.313 c 2.457,0 4.328,0.519 5.617,1.554 1.285,1.039 1.929,2.547 1.929,4.528 0,1.215 -0.238,2.23 -0.714,3.047 -0.481,0.812 -1.196,1.445 -2.153,1.89 1.239,0.5 2.164,1.219 2.778,2.16 0.613,0.942 0.921,2.114 0.921,3.512 0,2.336 -0.761,4.141 -2.281,5.414 -1.523,1.27 -3.679,1.906 -6.472,1.906 H 10.789"
       style="fill:#231f20;fill-opacity:1;fill-rule:nonzero;stroke:none"
       transform="scale(1.3333333)" />
    <path
       id="path43"
       d="m 34.293,311.73 v -24.011 h 17.441 v 4.172 H 39.168 v 5.121 H 50.66 v 4.105 H 39.168 v 6.18 h 13.156 v 4.433 H 34.293"
       style="fill:#231f20;fill-opacity:1;fill-rule:nonzero;stroke:none"
       transform="scale(1.3333333)" />
    <path
       id="path44"
       d="m 56.09,311.73 v -24.011 h 5.168 l 9.746,16.496 v -16.496 h 4.875 V 311.73 H 70.777 L 60.965,295.234 V 311.73 H 56.09"
       style="fill:#231f20;fill-opacity:1;fill-rule:nonzero;stroke:none"
       transform="scale(1.3333333)" />
    <path
       id="path45"
       d="m 80.836,311.73 v -24.011 h 16.758 v 4.172 H 85.707 v 5.445 h 10.418 v 4.176 H 85.707 v 10.218 h -4.871"
       style="fill:#231f20;fill-opacity:1;fill-rule:nonzero;stroke:none"
       transform="scale(1.3333333)" />
    <path
       id="path46"
       d="m 100.969,287.719 h 4.938 v 24.012 h -4.938 z"
       style="fill:#231f20;fill-opacity:1;fill-rule:nonzero;stroke:none"
       transform="scale(1.3333333)" />
    <path
       id="path47"
       d="m 131.953,303.48 c -0.183,2.731 -1.234,4.899 -3.152,6.504 -1.918,1.61 -4.422,2.414 -7.508,2.414 -3.551,0 -6.316,-1.109 -8.289,-3.324 -1.973,-2.219 -2.957,-5.328 -2.957,-9.324 0,-4.086 1.004,-7.219 3.015,-9.391 2.012,-2.171 4.903,-3.257 8.672,-3.257 3.067,0 5.485,0.746 7.262,2.238 1.777,1.496 2.75,3.605 2.926,6.336 h -4.871 c -0.207,-1.36 -0.762,-2.395 -1.664,-3.11 -0.903,-0.711 -2.121,-1.066 -3.653,-1.066 -2.172,0 -3.824,0.699 -4.957,2.102 -1.129,1.406 -1.695,3.453 -1.695,6.148 0,2.605 0.563,4.621 1.688,6.047 1.125,1.426 2.726,2.137 4.8,2.137 1.5,0 2.731,-0.383 3.684,-1.153 0.957,-0.765 1.578,-1.863 1.859,-3.301 h 4.84"
       style="fill:#231f20;fill-opacity:1;fill-rule:nonzero;stroke:none"
       transform="scale(1.3333333)" />
    <path
       id="path48"
       d="m 144.832,292.527 -3.324,10.219 h 6.668 z m -2.867,-4.808 h 5.703 l 8.656,24.011 h -5.183 l -1.629,-4.941 h -9.309 l -1.582,4.941 h -5.199 l 8.543,-24.011"
       style="fill:#231f20;fill-opacity:1;fill-rule:nonzero;stroke:none"
       transform="scale(1.3333333)" />
    <path
       id="path49"
       d="m 166.809,300.613 h 9.16 v 4.465 h -9.16 z"
       style="fill:#231f20;fill-opacity:1;fill-rule:nonzero;stroke:none"
       transform="scale(1.3333333)" />
    <path
       id="path50"
       d="m 193.898,298.836 h 4.778 c 1.293,0 2.234,-0.274 2.82,-0.824 0.586,-0.547 0.883,-1.43 0.883,-2.649 0,-1.14 -0.289,-2.004 -0.867,-2.59 -0.574,-0.589 -1.434,-0.882 -2.574,-0.882 h -5.04 z m -0.031,4.352 v 8.542 h -4.937 v -24.011 h 10.675 c 2.52,0 4.43,0.656 5.731,1.965 1.297,1.308 1.949,3.23 1.949,5.761 0,2.481 -0.637,4.387 -1.91,5.731 -1.27,1.344 -3.086,2.012 -5.441,2.012 h -6.067"
       style="fill:#231f20;fill-opacity:1;fill-rule:nonzero;stroke:none"
       transform="scale(1.3333333)" />
    <path
       id="path51"
       d="m 215.191,299.75 c 0,2.641 0.586,4.691 1.758,6.152 1.176,1.461 2.817,2.196 4.922,2.196 2.133,0 3.789,-0.735 4.973,-2.196 1.187,-1.461 1.777,-3.511 1.777,-6.152 0,-2.641 -0.59,-4.691 -1.777,-6.152 -1.184,-1.465 -2.84,-2.196 -4.973,-2.196 -2.105,0 -3.746,0.731 -4.922,2.184 -1.172,1.457 -1.758,3.512 -1.758,6.164 z m -5.039,0 c 0,-3.883 1.059,-6.961 3.172,-9.234 2.114,-2.278 4.961,-3.414 8.547,-3.414 3.59,0 6.445,1.136 8.57,3.421 2.121,2.282 3.184,5.356 3.184,9.227 0,3.867 -1.063,6.941 -3.184,9.227 -2.125,2.281 -4.98,3.421 -8.57,3.421 -3.586,0 -6.433,-1.14 -8.547,-3.421 -2.113,-2.286 -3.172,-5.36 -3.172,-9.227"
       style="fill:#231f20;fill-opacity:1;fill-rule:nonzero;stroke:none"
       transform="scale(1.3333333)" />
    <path
       id="path52"
       d="m 237.539,311.73 v -24.011 h 4.938 v 19.578 h 11.722 v 4.433 h -16.66"
       style="fill:#231f20;fill-opacity:1;fill-rule:nonzero;stroke:none"
       transform="scale(1.3333333)" />
    <path
       id="path53"
       d="m 257.066,287.719 h 4.941 v 24.012 h -4.941 z"
       style="fill:#231f20;fill-opacity:1;fill-rule:nonzero;stroke:none"
       transform="scale(1.3333333)" />
    <path
       id="path54"
       d="m 9.625,125.656 -0.023,-2.73 539.539,-0.637 0.023,2.762 -539.539,0.605"
       style="fill:#ec1e27;fill-opacity:1;fill-rule:nonzero;stroke:none"
       transform="scale(1.3333333)" />
    <path
       id="path55"
       d="m 339.109,99.652 h 3.453 v 10.164 c 0,1.618 0.04,2.668 0.118,3.157 0.144,0.75 0.5,1.375 1.054,1.839 0.547,0.469 1.313,0.692 2.274,0.692 0.984,0 1.719,-0.207 2.219,-0.656 0.492,-0.43 0.781,-0.973 0.89,-1.61 0.113,-0.636 0.149,-1.711 0.149,-3.195 V 99.652 h 3.449 v 9.864 c 0,2.261 -0.094,3.851 -0.266,4.773 -0.195,0.934 -0.543,1.723 -1.047,2.363 -0.488,0.637 -1.164,1.153 -2.007,1.536 -0.836,0.378 -1.926,0.57 -3.286,0.57 -1.625,0 -2.867,-0.207 -3.687,-0.621 -0.863,-0.422 -1.516,-0.957 -2.004,-1.61 -0.492,-0.675 -0.816,-1.359 -0.973,-2.093 -0.218,-1.067 -0.336,-2.657 -0.336,-4.762 z m 20.254,18.778 V 99.652 h 3.352 l 6.98,12.536 V 99.652 h 3.223 v 18.778 h -3.473 l -6.883,-12.246 v 12.246 z m 20.055,-18.778 h 3.461 v 18.778 h -3.461 z m 14.07,18.778 -6.101,-18.778 h 3.734 l 4.32,13.907 4.176,-13.907 h 3.649 l -6.11,18.778 z m 14.535,0 V 99.652 h 12.641 v 3.188 h -9.191 V 107 h 8.554 v 3.152 h -8.554 v 5.114 h 9.519 v 3.164 z m 18.883,0 V 99.652 h 7.262 c 1.816,0 3.144,0.16 3.965,0.508 0.832,0.336 1.492,0.938 1.988,1.805 0.496,0.855 0.75,1.832 0.75,2.957 0,1.406 -0.387,2.578 -1.129,3.488 -0.75,0.914 -1.875,1.496 -3.375,1.735 0.75,0.484 1.363,1.007 1.856,1.585 0.48,0.575 1.117,1.582 1.953,3.043 l 2.082,3.657 h -4.125 l -2.488,-4.082 c -0.879,-1.473 -1.485,-2.395 -1.809,-2.754 -0.34,-0.383 -0.664,-0.645 -1.039,-0.789 -0.371,-0.153 -0.942,-0.211 -1.742,-0.211 h -0.7 v 7.836 z m 3.449,-10.84 h 2.555 c 1.652,0 2.684,-0.067 3.086,-0.219 0.41,-0.16 0.731,-0.422 0.969,-0.805 0.238,-0.363 0.359,-0.847 0.359,-1.406 0,-0.64 -0.152,-1.144 -0.457,-1.527 -0.316,-0.399 -0.754,-0.633 -1.308,-0.738 -0.274,-0.047 -1.118,-0.055 -2.512,-0.055 h -2.692 z m 15.868,4.734 3.351,-0.371 c 0.203,1.246 0.621,2.16 1.238,2.742 0.602,0.586 1.446,0.875 2.489,0.875 1.105,0 1.953,-0.265 2.5,-0.781 0.582,-0.516 0.851,-1.125 0.851,-1.805 0,-0.453 -0.117,-0.832 -0.351,-1.144 -0.242,-0.313 -0.649,-0.578 -1.242,-0.805 -0.403,-0.168 -1.317,-0.433 -2.758,-0.824 -1.84,-0.508 -3.141,-1.141 -3.887,-1.863 -1.043,-1.039 -1.574,-2.289 -1.574,-3.774 0,-0.965 0.254,-1.855 0.75,-2.679 0.484,-0.84 1.199,-1.465 2.121,-1.915 0.93,-0.433 2.039,-0.644 3.355,-0.644 2.153,0 3.754,0.516 4.84,1.551 1.086,1.027 1.656,2.398 1.707,4.136 l -3.437,0.172 c -0.16,-0.972 -0.461,-1.672 -0.957,-2.09 -0.489,-0.429 -1.215,-0.632 -2.18,-0.632 -0.996,0 -1.793,0.222 -2.359,0.672 -0.368,0.296 -0.547,0.683 -0.547,1.167 0,0.45 0.172,0.833 0.515,1.145 0.438,0.398 1.493,0.816 3.164,1.254 1.684,0.43 2.926,0.891 3.719,1.355 0.809,0.473 1.434,1.098 1.899,1.911 0.449,0.796 0.668,1.8 0.668,2.996 0,1.07 -0.262,2.066 -0.817,3.019 -0.539,0.926 -1.304,1.637 -2.293,2.086 -1,0.465 -2.23,0.68 -3.73,0.68 -2.145,0 -3.805,-0.535 -4.965,-1.621 -1.16,-1.117 -1.844,-2.703 -2.07,-4.813 m 19.648,-12.672 h 3.465 v 18.778 h -3.465 z m 9.707,0 h 6.309 c 1.406,0 2.488,0.118 3.234,0.368 1,0.316 1.863,0.886 2.57,1.726 0.731,0.82 1.258,1.836 1.641,3.031 0.379,1.207 0.566,2.688 0.566,4.45 0,1.543 -0.187,2.871 -0.543,3.996 -0.41,1.371 -1.027,2.465 -1.82,3.312 -0.601,0.645 -1.398,1.145 -2.426,1.516 -0.757,0.25 -1.769,0.379 -3.07,0.379 h -6.461 z m 3.449,3.188 v 12.426 h 2.563 c 0.957,0 1.668,-0.067 2.094,-0.172 0.558,-0.153 1.015,-0.406 1.386,-0.785 0.375,-0.368 0.676,-0.973 0.903,-1.817 0.23,-0.844 0.351,-1.976 0.351,-3.433 0,-1.457 -0.121,-2.567 -0.351,-3.348 -0.227,-0.781 -0.563,-1.383 -0.969,-1.816 -0.43,-0.446 -0.965,-0.719 -1.609,-0.887 -0.485,-0.121 -1.415,-0.168 -2.825,-0.168 z m 32.141,15.59 h -3.758 l -1.465,-4.266 h -6.824 l -1.414,4.266 h -3.648 l 6.644,-18.778 h 3.645 z m -6.34,-7.414 -2.348,-6.985 -2.304,6.985 z m 11.141,-11.364 h 6.316 c 1.414,0 2.488,0.118 3.235,0.368 0.996,0.316 1.863,0.886 2.574,1.726 0.707,0.82 1.258,1.836 1.636,3.031 0.36,1.207 0.559,2.688 0.559,4.45 0,1.543 -0.184,2.871 -0.523,3.996 -0.434,1.371 -1.051,2.465 -1.844,3.312 -0.586,0.645 -1.395,1.145 -2.414,1.516 -0.75,0.25 -1.774,0.379 -3.047,0.379 h -6.492 z m 3.441,3.188 v 12.426 h 2.586 c 0.961,0 1.652,-0.067 2.09,-0.172 0.547,-0.153 1.019,-0.406 1.383,-0.785 0.371,-0.368 0.679,-0.973 0.894,-1.817 0.239,-0.844 0.36,-1.976 0.36,-3.433 0,-1.457 -0.121,-2.567 -0.36,-3.348 -0.215,-0.781 -0.551,-1.383 -0.968,-1.816 -0.422,-0.446 -0.961,-0.719 -1.606,-0.887 -0.477,-0.121 -1.426,-0.168 -2.812,-0.168 z m 16.774,15.59 V 99.652 h 12.664 v 3.188 h -9.215 V 107 h 8.566 v 3.152 h -8.566 v 5.114 h 9.531 v 3.164 h -12.98"
       style="fill:#223d72;fill-opacity:1;fill-rule:nonzero;stroke:none"
       transform="scale(1.3333333)" />
    <path
       id="path56"
       d="m 338.699,131.238 h 6.274 c 1.418,0 2.507,0.117 3.238,0.367 0.996,0.317 1.859,0.887 2.566,1.715 0.715,0.825 1.262,1.848 1.629,3.028 0.383,1.203 0.563,2.683 0.563,4.433 0,1.535 -0.172,2.871 -0.52,3.985 -0.441,1.363 -1.043,2.476 -1.832,3.312 -0.594,0.637 -1.398,1.133 -2.406,1.488 -0.766,0.266 -1.777,0.403 -3.055,0.403 h -6.457 z m 3.43,3.168 v 12.41 h 2.566 c 0.95,0 1.653,-0.062 2.075,-0.187 0.558,-0.152 1.031,-0.406 1.394,-0.777 0.367,-0.36 0.672,-0.961 0.902,-1.801 0.231,-0.84 0.356,-1.989 0.356,-3.446 0,-1.437 -0.125,-2.546 -0.356,-3.324 -0.23,-0.781 -0.57,-1.39 -0.976,-1.808 -0.43,-0.446 -0.953,-0.727 -1.594,-0.887 -0.484,-0.121 -1.422,-0.18 -2.824,-0.18 z m 13.75,15.563 v -18.731 h 12.609 v 3.168 h -9.172 v 4.153 h 8.536 v 3.156 h -8.536 v 5.101 h 9.504 v 3.153 z m 22.469,0 v -18.731 h 5.511 c 2.09,0 3.453,0.102 4.075,0.285 0.972,0.274 1.804,0.883 2.461,1.817 0.664,0.965 0.988,2.172 0.988,3.66 0,1.152 -0.184,2.113 -0.567,2.906 -0.378,0.782 -0.867,1.399 -1.449,1.84 -0.582,0.442 -1.183,0.746 -1.777,0.883 -0.813,0.172 -2.016,0.281 -3.567,0.281 h -2.238 v 7.059 z m 3.437,-15.563 v 5.317 h 1.867 c 1.371,0 2.27,-0.102 2.711,-0.297 0.461,-0.203 0.825,-0.492 1.082,-0.918 0.262,-0.418 0.391,-0.899 0.391,-1.457 0,-0.688 -0.172,-1.242 -0.539,-1.696 -0.359,-0.433 -0.824,-0.703 -1.383,-0.816 -0.41,-0.098 -1.234,-0.133 -2.476,-0.133 z m 12.418,15.563 v -18.731 h 12.613 v 3.168 h -9.179 v 4.153 h 8.543 v 3.156 h -8.543 v 5.101 h 9.511 v 3.153 z m 15.859,0 v -18.731 h 7.235 c 1.84,0 3.148,0.176 3.969,0.504 0.82,0.348 1.496,0.926 1.976,1.793 0.504,0.863 0.75,1.84 0.75,2.949 0,1.407 -0.379,2.563 -1.129,3.489 -0.742,0.914 -1.867,1.492 -3.371,1.718 0.746,0.489 1.36,1.012 1.852,1.582 0.48,0.571 1.133,1.586 1.957,3.036 l 2.07,3.66 h -4.105 l -2.496,-4.078 c -0.883,-1.457 -1.473,-2.375 -1.793,-2.754 -0.332,-0.379 -0.676,-0.629 -1.047,-0.778 -0.352,-0.136 -0.934,-0.218 -1.731,-0.218 h -0.676 v 7.828 z m 3.461,-10.817 h 2.52 c 1.656,0 2.684,-0.066 3.098,-0.218 0.406,-0.161 0.73,-0.426 0.949,-0.789 0.242,-0.375 0.359,-0.848 0.359,-1.415 0,-0.632 -0.164,-1.14 -0.469,-1.527 -0.296,-0.383 -0.73,-0.633 -1.292,-0.738 -0.266,-0.039 -1.11,-0.059 -2.5,-0.059 h -2.665 z m 13.747,10.817 v -18.731 h 3.332 l 6.96,12.504 v -12.504 h 3.208 v 18.731 h -3.458 l -6.855,-12.223 v 12.223 z m 32.48,0 h -3.734 l -1.493,-4.262 h -6.816 l -1.395,4.262 h -3.64 l 6.625,-18.731 h 3.637 z m -6.32,-7.41 -2.356,-6.95 -2.304,6.95 z m 8.097,7.41 v -18.731 h 5.141 l 3.086,12.782 3.051,-12.782 h 5.148 v 18.731 h -3.191 v -14.75 l -3.371,14.75 h -3.313 l -3.367,-14.75 v 14.75 z m 19.856,-18.731 h 6.808 c 1.344,0 2.356,0.063 3.012,0.192 0.664,0.113 1.258,0.367 1.777,0.765 0.52,0.399 0.95,0.922 1.305,1.567 0.348,0.648 0.527,1.379 0.527,2.187 0,0.875 -0.222,1.692 -0.644,2.422 -0.434,0.723 -1.008,1.281 -1.758,1.633 1.035,0.336 1.844,0.906 2.402,1.711 0.551,0.797 0.825,1.738 0.825,2.812 0,0.868 -0.172,1.696 -0.535,2.5 -0.364,0.797 -0.848,1.446 -1.469,1.926 -0.629,0.473 -1.399,0.766 -2.309,0.879 -0.57,0.07 -1.953,0.121 -4.156,0.137 h -5.785 z m 3.441,3.11 v 4.332 h 2.25 c 1.348,0 2.176,-0.016 2.496,-0.067 0.578,-0.07 1.047,-0.281 1.399,-0.656 0.32,-0.387 0.496,-0.863 0.496,-1.473 0,-0.57 -0.141,-1.05 -0.434,-1.406 -0.289,-0.375 -0.734,-0.578 -1.297,-0.66 -0.339,-0.039 -1.312,-0.07 -2.937,-0.07 z m 0,7.464 v 5.004 h 3.18 c 1.246,0 2.016,-0.046 2.363,-0.117 0.504,-0.105 0.91,-0.363 1.235,-0.746 0.332,-0.398 0.492,-0.926 0.492,-1.586 0,-0.562 -0.137,-1.043 -0.371,-1.433 -0.25,-0.391 -0.61,-0.68 -1.078,-0.864 -0.465,-0.187 -1.481,-0.258 -3.04,-0.258 z m 13.703,-10.574 h 3.422 v 10.145 c 0,1.609 0.043,2.644 0.133,3.129 0.156,0.769 0.508,1.379 1.055,1.84 0.558,0.464 1.308,0.707 2.269,0.707 0.973,0 1.715,-0.211 2.203,-0.657 0.5,-0.437 0.793,-0.992 0.899,-1.617 0.097,-0.64 0.14,-1.707 0.14,-3.183 v -10.364 h 3.438 v 9.84 c 0,2.246 -0.082,3.836 -0.274,4.762 -0.199,0.93 -0.523,1.703 -1.023,2.351 -0.508,0.637 -1.172,1.149 -2.008,1.528 -0.832,0.386 -1.922,0.562 -3.281,0.562 -1.621,0 -2.852,-0.195 -3.691,-0.617 -0.84,-0.414 -1.493,-0.949 -1.977,-1.602 -0.5,-0.671 -0.816,-1.355 -0.973,-2.085 -0.222,-1.063 -0.332,-2.653 -0.332,-4.754 z m 28.075,11.84 3.332,1.16 c -0.508,2.051 -1.356,3.571 -2.543,4.571 -1.188,0.976 -2.703,1.472 -4.532,1.472 -2.254,0 -4.113,-0.843 -5.566,-2.554 -1.445,-1.68 -2.176,-4.02 -2.176,-6.954 0,-3.121 0.731,-5.55 2.192,-7.273 1.457,-1.723 3.386,-2.578 5.765,-2.578 2.086,0 3.785,0.683 5.067,2.043 0.773,0.789 1.363,1.933 1.754,3.433 l -3.407,0.899 c -0.195,-0.981 -0.609,-1.746 -1.258,-2.297 -0.64,-0.574 -1.421,-0.848 -2.328,-0.848 -1.254,0 -2.289,0.5 -3.07,1.493 -0.785,1 -1.172,2.601 -1.172,4.839 0,2.371 0.375,4.067 1.156,5.055 0.77,1.012 1.778,1.52 3.024,1.52 0.914,0 1.691,-0.313 2.344,-0.957 0.656,-0.649 1.136,-1.641 1.418,-3.024 m 5.589,-2.367 c 0,-1.906 0.258,-3.504 0.782,-4.797 0.386,-0.957 0.91,-1.809 1.582,-2.574 0.668,-0.746 1.402,-1.317 2.195,-1.672 1.066,-0.504 2.281,-0.746 3.672,-0.746 2.508,0 4.508,0.848 6.012,2.562 1.511,1.719 2.265,4.086 2.265,7.137 0,3.031 -0.754,5.406 -2.25,7.106 -1.492,1.699 -3.484,2.554 -5.984,2.554 -2.524,0 -4.551,-0.843 -6.035,-2.554 -1.496,-1.68 -2.239,-4.036 -2.239,-7.016 m 3.543,-0.117 c 0,2.117 0.434,3.73 1.328,4.816 0.899,1.102 2.02,1.649 3.387,1.649 1.383,0 2.496,-0.547 3.387,-1.633 0.859,-1.086 1.312,-2.715 1.312,-4.875 0,-2.16 -0.429,-3.754 -1.277,-4.821 -0.859,-1.046 -2.004,-1.578 -3.422,-1.578 -1.41,0 -2.558,0.539 -3.418,1.602 -0.871,1.07 -1.297,2.672 -1.297,4.84"
       style="fill:#223d72;fill-opacity:1;fill-rule:nonzero;stroke:none"
       transform="scale(1.3333333)" />
    <path
       id="path57"
       d="m 479.035,57.227 -0.433,0.839 0.05,32.059 67.184,0.121 V 68.281 L 510.805,68.219 V 54.648 h 29.418 V 39.43 H 510.805 V 25.012 l 35.031,-0.063 V 2.133 h -62.453 c 7.426,1.887 15.027,10.16 16.312,26.004 0.059,19.301 -9.519,27.047 -15.578,29.09 h -5.082"
       style="fill:#ffffff;fill-opacity:1;fill-rule:evenodd;stroke:none"
       transform="scale(1.3333333)" />
    <path
       id="path58"
       d="m 480.016,88.758 64.457,0.113 V 69.652 L 509.43,69.594 V 53.27 h 29.429 V 40.816 H 509.43 V 23.645 L 544.473,23.59 V 3.508 h -54.985 c 5.559,3.914 10.543,11.707 11.594,24.527 0.059,23.692 -13.75,29.555 -16.508,30.481 l -0.222,0.086 h -4.383 z m 67.207,2.875 -69.946,-0.133 -0.05,-33.781 1.011,-1.871 h 5.641 C 486.75,54.82 498.395,49.305 498.336,28.152 497.055,12.516 489.594,5.133 483.043,3.469 L 472.43,0.758 h 74.793 V 26.32 L 512.18,26.387 V 38.07 h 29.422 V 56.016 H 512.18 v 10.839 l 35.043,0.047 v 24.731"
       style="fill:#223d72;fill-opacity:1;fill-rule:nonzero;stroke:none"
       transform="scale(1.3333333)" />
    <path
       id="path59"
       d="M 422.574,2.121 422.52,89.918 455,90.156 V 57.227 h 29.117 c 6.059,-2.043 15.637,-9.786 15.578,-29.086 -1.359,-16.7 -9.73,-25 -17.523,-26.25 z m 32.492,21.055 h 19.192 c 8.051,-1.031 8.242,12.969 0,14.222 H 455.066 V 23.176"
       style="fill:#ffffff;fill-opacity:1;fill-rule:evenodd;stroke:none"
       transform="scale(1.3333333)" />
    <path
       id="path60"
       d="m 456.438,36.02 h 17.707 c 3.472,-0.579 5.066,-4.008 4.82,-7.118 -0.172,-2.293 -1.508,-4.765 -4.527,-4.367 h -18 z m 17.921,2.746 H 453.691 V 21.797 h 20.489 c 0.304,-0.031 0.601,-0.059 0.906,-0.059 3.644,0 6.312,2.797 6.617,6.961 0.32,4.309 -2.105,9.274 -7.238,10.059 z m -50.468,49.793 29.738,0.218 V 55.848 h 30.246 c 2.875,-1.036 14.52,-6.543 14.461,-27.696 -1.352,-16.543 -9.582,-23.75 -16.274,-24.894 l -58.124,0.226 z m 32.492,2.98 -35.231,-0.258 0.047,-90.523 61.09,-0.254 0.106,0.016 c 7.671,1.246 17.179,9.199 18.683,27.515 0.063,23.676 -13.75,29.551 -16.504,30.477 l -0.222,0.09 h -27.969 v 32.937"
       style="fill:#223d72;fill-opacity:1;fill-rule:nonzero;stroke:none"
       transform="scale(1.3333333)" />
    <path
       id="path61"
       d="m 372.324,0.078 32.293,0.086 -30.398,56.492 c -8.09,13.871 7.359,19 13.629,5.367 L 420.957,0.078 453.398,0.004 416.289,72.68 c -26.172,34.98 -85.66,20.461 -75.672,-14.598 L 372.324,0.078"
       style="fill:#ec1e27;fill-opacity:1;fill-rule:evenodd;stroke:none"
       transform="scale(1.3333333)" />
    <path
       id="path62"
       d="m 26.031,67.805 h 5.051 c -0.465,2.761 -1.676,4.922 -3.633,6.48 -1.957,1.559 -4.429,2.336 -7.418,2.336 -3.215,0 -5.734,-0.957 -7.554,-2.875 -1.821,-1.918 -2.731,-4.578 -2.731,-7.98 0,-4.184 1.172,-7.61 3.52,-10.278 2.347,-2.668 5.379,-4 9.097,-4 2.989,0 5.301,0.75 6.946,2.258 1.64,1.504 2.48,3.641 2.523,6.414 h -4.891 v -0.133 c 0,-1.355 -0.421,-2.425 -1.269,-3.203 -0.848,-0.773 -2.004,-1.164 -3.473,-1.164 -2.129,0 -3.883,0.965 -5.258,2.895 -1.375,1.929 -2.062,4.386 -2.062,7.375 0,2.011 0.492,3.547 1.469,4.613 0.976,1.066 2.386,1.598 4.222,1.598 1.446,0 2.645,-0.379 3.602,-1.133 0.957,-0.754 1.574,-1.824 1.859,-3.203"
       style="fill:#223d72;fill-opacity:1;fill-rule:nonzero;stroke:none"
       transform="scale(1.3333333)" />
    <path
       id="path63"
       d="m 40.328,67.199 h 6.309 L 45.332,57.062 Z m -9.781,8.856 12.551,-24.016 h 5.804 l 3.797,24.016 h -4.972 l -0.571,-4.68 h -8.898 l -2.383,4.68 h -5.328"
       style="fill:#223d72;fill-opacity:1;fill-rule:nonzero;stroke:none"
       transform="scale(1.3333333)" />
    <path
       id="path64"
       d="m 54.918,76.055 4.203,-24.016 h 7.336 l 1.809,17.297 7.941,-17.297 h 7.219 l -4.352,24.016 h -4.695 l 3.734,-19.496 -8.754,19.496 h -4.597 l -1.875,-19.09 -3.309,19.09 h -4.66"
       style="fill:#223d72;fill-opacity:1;fill-rule:nonzero;stroke:none"
       transform="scale(1.3333333)" />
    <path
       id="path65"
       d="m 91.367,63.73 h 3.863 c 1.618,0 2.836,-0.347 3.649,-1.042 0.816,-0.7 1.223,-1.743 1.223,-3.133 0,-1.02 -0.309,-1.801 -0.926,-2.348 C 98.555,56.664 97.664,56.395 96.5,56.395 H 92.637 Z M 84.16,76.055 88.367,52.039 h 8.231 c 2.683,0 4.754,0.633 6.203,1.895 1.449,1.257 2.176,3.046 2.176,5.363 0,2.738 -0.856,4.84 -2.559,6.308 -1.707,1.465 -4.168,2.2 -7.383,2.2 h -4.437 l -1.496,8.25 H 84.16"
       style="fill:#223d72;fill-opacity:1;fill-rule:nonzero;stroke:none"
       transform="scale(1.3333333)" />
    <path
       id="path66"
       d="m 110.602,52.039 h 5.101 l -2.707,15.047 c -0.055,0.305 -0.094,0.586 -0.121,0.84 -0.027,0.258 -0.039,0.48 -0.039,0.676 0,1.207 0.348,2.125 1.051,2.75 0.699,0.625 1.73,0.933 3.086,0.933 1.492,0 2.66,-0.426 3.515,-1.285 0.852,-0.859 1.453,-2.199 1.801,-4.027 l 2.723,-14.934 h 5.019 l -2.707,15.293 c -0.551,3.117 -1.726,5.457 -3.519,7.016 -1.793,1.562 -4.207,2.34 -7.239,2.34 -2.66,0 -4.789,-0.708 -6.382,-2.126 -1.59,-1.417 -2.387,-3.312 -2.387,-5.679 0,-0.414 0.027,-0.887 0.082,-1.414 0.055,-0.524 0.137,-1.106 0.242,-1.735 l 2.481,-13.695"
       style="fill:#223d72;fill-opacity:1;fill-rule:nonzero;stroke:none"
       transform="scale(1.3333333)" />
    <path
       id="path67"
       d="m 130.863,68.441 h 4.875 v 0.227 c 0,1.219 0.371,2.148 1.117,2.789 0.743,0.641 1.817,0.961 3.219,0.961 1.25,0 2.207,-0.273 2.875,-0.816 0.672,-0.543 1.004,-1.321 1.004,-2.329 0,-0.621 -0.223,-1.152 -0.668,-1.589 -0.445,-0.442 -1.473,-1.008 -3.082,-1.704 -3.086,-1.359 -5.07,-2.535 -5.949,-3.523 -0.883,-0.988 -1.32,-2.242 -1.32,-3.766 0,-2.207 0.754,-3.968 2.257,-5.289 1.504,-1.32 3.536,-1.98 6.09,-1.98 2.758,0 4.91,0.637 6.453,1.906 1.543,1.274 2.317,3.039 2.317,5.301 v 0.324 h -4.727 c -0.023,-1.074 -0.383,-1.906 -1.078,-2.484 -0.695,-0.582 -1.684,-0.875 -2.965,-0.875 -1.066,0 -1.894,0.226 -2.488,0.676 -0.59,0.453 -0.887,1.082 -0.887,1.882 0,1.145 1.125,2.188 3.375,3.133 0.391,0.16 0.696,0.293 0.91,0.391 2.536,1.074 4.274,2.152 5.219,3.226 0.945,1.078 1.418,2.422 1.418,4.043 0,2.422 -0.801,4.325 -2.398,5.707 -1.598,1.379 -3.793,2.071 -6.586,2.071 -2.758,0 -4.946,-0.703 -6.559,-2.114 -1.613,-1.406 -2.422,-3.304 -2.422,-5.695 v -0.473"
       style="fill:#223d72;fill-opacity:1;fill-rule:nonzero;stroke:none"
       transform="scale(1.3333333)" />
    <path
       id="path68"
       d="m 15.516,105.102 h 5.851 c 1.383,0 2.387,-0.25 3.016,-0.75 0.633,-0.5 0.945,-1.29 0.945,-2.368 0,-1.117 -0.308,-1.925 -0.93,-2.418 -0.617,-0.496 -1.64,-0.742 -3.062,-0.742 h -5.82 z m 0,-10.387 h 5.64 c 1.219,0 2.11,-0.207 2.672,-0.625 0.567,-0.418 0.848,-1.078 0.848,-1.981 0,-0.882 -0.274,-1.519 -0.821,-1.918 -0.55,-0.394 -1.46,-0.593 -2.73,-0.593 h -5.609 z m -4.727,14.723 V 85.426 h 11.313 c 2.457,0 4.328,0.519 5.617,1.554 1.285,1.04 1.929,2.547 1.929,4.524 0,1.219 -0.238,2.234 -0.714,3.051 -0.481,0.812 -1.196,1.441 -2.153,1.89 1.239,0.5 2.164,1.219 2.778,2.16 0.613,0.938 0.921,2.11 0.921,3.512 0,2.336 -0.761,4.141 -2.281,5.41 -1.523,1.274 -3.679,1.911 -6.472,1.911 H 10.789"
       style="fill:#ec1e27;fill-opacity:1;fill-rule:nonzero;stroke:none"
       transform="scale(1.3333333)" />
    <path
       id="path69"
       d="M 34.293,109.438 V 85.426 h 17.441 v 4.172 H 39.168 v 5.117 H 50.66 v 4.109 H 39.168 v 6.18 h 13.156 v 4.434 H 34.293"
       style="fill:#ec1e27;fill-opacity:1;fill-rule:nonzero;stroke:none"
       transform="scale(1.3333333)" />
    <path
       id="path70"
       d="M 56.09,109.438 V 85.426 h 5.168 l 9.746,16.496 V 85.426 h 4.875 v 24.012 h -5.102 l -9.812,-16.5 v 16.5 H 56.09"
       style="fill:#ec1e27;fill-opacity:1;fill-rule:nonzero;stroke:none"
       transform="scale(1.3333333)" />
    <path
       id="path71"
       d="M 80.836,109.438 V 85.426 h 16.758 v 4.172 H 85.707 v 5.445 h 10.418 v 4.172 H 85.707 v 10.223 h -4.871"
       style="fill:#ec1e27;fill-opacity:1;fill-rule:nonzero;stroke:none"
       transform="scale(1.3333333)" />
    <path
       id="path72"
       d="m 100.969,85.426 h 4.938 v 24.012 h -4.938 z"
       style="fill:#ec1e27;fill-opacity:1;fill-rule:nonzero;stroke:none"
       transform="scale(1.3333333)" />
    <path
       id="path73"
       d="m 131.953,101.188 c -0.183,2.726 -1.234,4.894 -3.152,6.503 -1.918,1.61 -4.422,2.414 -7.508,2.414 -3.551,0 -6.316,-1.109 -8.289,-3.328 -1.973,-2.215 -2.957,-5.324 -2.957,-9.324 0,-4.086 1.004,-7.215 3.015,-9.387 2.012,-2.175 4.903,-3.261 8.672,-3.261 3.067,0 5.485,0.746 7.262,2.242 1.777,1.492 2.75,3.605 2.926,6.332 h -4.871 c -0.207,-1.359 -0.762,-2.395 -1.664,-3.106 -0.903,-0.711 -2.121,-1.066 -3.653,-1.066 -2.172,0 -3.824,0.699 -4.957,2.102 -1.129,1.402 -1.695,3.449 -1.695,6.144 0,2.609 0.563,4.625 1.688,6.051 1.125,1.422 2.726,2.133 4.8,2.133 1.5,0 2.731,-0.383 3.684,-1.149 0.957,-0.765 1.578,-1.867 1.859,-3.3 h 4.84"
       style="fill:#ec1e27;fill-opacity:1;fill-rule:nonzero;stroke:none"
       transform="scale(1.3333333)" />
    <path
       id="path74"
       d="m 144.832,90.234 -3.324,10.219 h 6.668 z m -2.867,-4.808 h 5.703 l 8.656,24.012 h -5.183 l -1.629,-4.942 h -9.309 l -1.582,4.942 h -5.199 l 8.543,-24.012"
       style="fill:#ec1e27;fill-opacity:1;fill-rule:nonzero;stroke:none"
       transform="scale(1.3333333)" />
    <path
       id="path75"
       d="m 166.809,98.32 h 9.16 v 4.465 h -9.16 z"
       style="fill:#ec1e27;fill-opacity:1;fill-rule:nonzero;stroke:none"
       transform="scale(1.3333333)" />
    <path
       id="path76"
       d="m 193.898,96.539 h 4.778 c 1.293,0 2.234,-0.273 2.82,-0.82 0.586,-0.547 0.883,-1.434 0.883,-2.649 0,-1.14 -0.289,-2.004 -0.867,-2.593 -0.574,-0.586 -1.434,-0.879 -2.574,-0.879 h -5.04 z m -0.031,4.356 v 8.543 H 188.93 V 85.426 h 10.675 c 2.52,0 4.43,0.652 5.731,1.961 1.297,1.312 1.949,3.23 1.949,5.765 0,2.477 -0.637,4.387 -1.91,5.731 -1.27,1.34 -3.086,2.012 -5.441,2.012 h -6.067"
       style="fill:#ec1e27;fill-opacity:1;fill-rule:nonzero;stroke:none"
       transform="scale(1.3333333)" />
    <path
       id="path77"
       d="m 215.191,97.453 c 0,2.641 0.586,4.695 1.758,6.156 1.176,1.461 2.817,2.192 4.922,2.192 2.133,0 3.789,-0.731 4.973,-2.192 1.187,-1.461 1.777,-3.515 1.777,-6.156 0,-2.641 -0.59,-4.691 -1.777,-6.152 -1.184,-1.461 -2.84,-2.192 -4.973,-2.192 -2.105,0 -3.746,0.727 -4.922,2.184 -1.172,1.457 -1.758,3.512 -1.758,6.16 z m -5.039,0 c 0,-3.879 1.059,-6.957 3.172,-9.234 2.114,-2.274 4.961,-3.414 8.547,-3.414 3.59,0 6.445,1.14 8.57,3.422 2.121,2.285 3.184,5.359 3.184,9.226 0,3.871 -1.063,6.945 -3.184,9.227 -2.125,2.285 -4.98,3.425 -8.57,3.425 -3.586,0 -6.433,-1.14 -8.547,-3.425 -2.113,-2.282 -3.172,-5.356 -3.172,-9.227"
       style="fill:#ec1e27;fill-opacity:1;fill-rule:nonzero;stroke:none"
       transform="scale(1.3333333)" />
    <path
       id="path78"
       d="M 237.539,109.438 V 85.426 h 4.938 v 19.578 h 11.722 v 4.434 h -16.66"
       style="fill:#ec1e27;fill-opacity:1;fill-rule:nonzero;stroke:none"
       transform="scale(1.3333333)" />
    <path
       id="path79"
       d="m 257.066,85.426 h 4.941 v 24.012 h -4.941 z"
       style="fill:#ec1e27;fill-opacity:1;fill-rule:nonzero;stroke:none"
       transform="scale(1.3333333)" />
  </g>
</svg>
