<?xml version="1.0" encoding="UTF-8" standalone="no"?>
<!-- Created with Inkscape (http://www.inkscape.org/) -->

<svg
   version="1.1"
   id="svg1"
   width="1299.84"
   height="633"
   viewBox="0 0 1299.84 633"
   sodipodi:docname="28a6b947-7661-4e41-9cba-f2e8fba05458.pdf"
   xmlns:inkscape="http://www.inkscape.org/namespaces/inkscape"
   xmlns:sodipodi="http://sodipodi.sourceforge.net/DTD/sodipodi-0.dtd"
   xmlns="http://www.w3.org/2000/svg"
   xmlns:svg="http://www.w3.org/2000/svg">
  <defs
     id="defs1">
    <clipPath
       clipPathUnits="userSpaceOnUse"
       id="clipPath2">
      <path
         d="M 0,0 H 4062.5 V 1978.125 H 0 Z"
         transform="scale(0.31999999)"
         clip-rule="evenodd"
         id="path2" />
    </clipPath>
  </defs>
  <sodipodi:namedview
     id="namedview1"
     pagecolor="#ffffff"
     bordercolor="#000000"
     borderopacity="0.25"
     inkscape:showpageshadow="2"
     inkscape:pageopacity="0.0"
     inkscape:pagecheckerboard="0"
     inkscape:deskcolor="#d1d1d1">
    <inkscape:page
       x="0"
       y="0"
       inkscape:label="1"
       id="page1"
       width="1299.84"
       height="633"
       margin="0"
       bleed="0" />
  </sodipodi:namedview>
  <g
     id="g1"
     inkscape:groupmode="layer"
     inkscape:label="1">
    <path
       id="path1"
       d="M 0,0 H 1300 V 633 H 0 Z"
       style="fill:#ffffff;fill-opacity:1;fill-rule:nonzero;stroke:none"
       clip-path="url(#clipPath2)" />
    <g
       id="g2">
      <path
         id="path3"
         d="M 0,0 H 1300 V 633 H 0 Z"
         style="fill:#ffffff;fill-opacity:1;fill-rule:nonzero;stroke:none" />
    </g>
    <g
       id="g3">
      <path
         id="path4"
         d="M 0,0 H 1800 V 874 H 0 Z"
         style="fill:#fdfdfd;fill-opacity:1;fill-rule:nonzero;stroke:none"
         transform="matrix(0.72221821,0,0,0.72196797,0.00357551,0)" />
      <path
         id="path5"
         d="m 630,289 c 19.64734,-0.0707 39.29468,-0.12231 58.94202,-0.155 9.125,-0.016 18.25,-0.037 27.37597,-0.071 7.96601,-0.0307 15.93232,-0.0493 23.89899,-0.056 4.20599,-0.004 8.41302,-0.013 12.62,-0.035 58.22802,-0.29501 58.22802,-0.29501 82.19,13.36402 4.82397,3.169 8.91998,6.863 12.97302,10.953 l 1.73798,1.60199 C 855.185,320.091 857.78595,327.72699 860,335 c 2.49902,9.98401 1.95203,18.95999 0,29 l -0.52698,2.828 C 856.71997,378.84399 850.26001,390.90399 842,400 l -1.90997,2.18799 c -13.48798,14.52099 -31.49799,21.76999 -49.883,27.96399 -2.91901,0.772 -5.21301,1.03399 -8.20697,0.84799 v 2 l 2.16803,0.26199 c 8.15802,1.15 15.29102,3.45499 22.83203,6.73801 l 3.13703,1.34399 c 8.62298,3.97501 15.66998,9.45801 21.67602,16.844 4.961,7.698 7.50897,16.677 8.125,25.75 0.65302,14.83899 -2.44501,29.92502 -8.81299,43.37503 -0.68866,1.23999 -1.39703,2.46899 -2.125,3.68701 l -1.38299,2.46002 c -4.84198,8.164 -10.97199,14.836 -17.61701,21.53998 l -2.21002,2.25 c -11.75598,11.16998 -26.21997,18.34497 -41.79401,22.30902 -2.28863,0.54999 -4.57897,1.09302 -6.87097,1.62903 l -3.16302,0.75799 c -22.17401,4.90003 -45.01801,4.33503 -67.59302,4.25702 -4.28302,-0.013 -8.565,-0.014 -12.84802,-0.016 -8.07001,-0.006 -16.14099,-0.023 -24.21198,-0.043 -9.20398,-0.022 -18.40997,-0.033 -27.61401,-0.043 C 604.79639,586.07898 585.89801,586.04535 567,586 c 0.52197,-5.20599 1.16302,-10.30499 2.25201,-15.42798 l 0.76502,-3.63 c 0.276,-1.284 0.54999,-2.568 0.83502,-3.89099 l 0.88001,-4.159 c 0.79333,-3.74402 1.59069,-7.48767 2.39202,-11.23102 0.84668,-3.97198 1.69135,-7.9447 2.534,-11.91803 2.10602,-9.91601 4.22302,-19.83002 6.34198,-29.74301 l 0.50299,-2.354 c 3.46332,-16.19999 6.93366,-32.39933 10.41101,-48.598 3.56134,-16.596 7.11096,-33.19534 10.64899,-49.798 l 0.78802,-3.70001 c 3.47382,-16.30286 6.93714,-32.60819 10.39002,-48.91599 l 3.71899,-17.56399 c 5.47303,-25.88401 5.47303,-25.88401 7.88001,-36.84 l 0.47803,-2.20001 c 1.06402,-4.793 1.06402,-4.793 2.182,-7.03 M 930,289 c 22.80133,-0.0467 45.60303,-0.0813 68.40503,-0.104 10.58907,-0.008 21.17747,-0.0237 31.76497,-0.047 9.2354,-0.02 18.4708,-0.0323 27.7061,-0.037 4.884,-0.002 9.7683,-0.01 14.653,-0.023 4.6099,-0.0133 9.2193,-0.0183 13.828,-0.015 1.68,0 3.3599,-0.004 5.04,-0.012 17.45,-0.077 34.679,0.90201 50.478,9.11301 8.678,5.091 13.974,10.905 19.172,19.51599 2.637,4.64899 4.0301,9.35999 4.953,14.60901 l 0.688,3.43799 c 1.6281,18.55899 -1.495,37.08398 -9,54.125 L 1156,393 h -2 l -0.3361,1.76599 C 1152.4659,398.797 1149.6039,401.763 1147,405 l -1.531,1.98001 c -9.105,11.181 -21.303,17.767 -34.469,23.01999 -11.022,4.151 -22.491,6.616 -34,9 l 2.136,0.30399 c 3.248,0.46899 6.494,0.957 9.739,1.44601 l 3.36,0.47699 c 8.891,1.35999 16.736,3.46301 24.14,8.70999 4.97,4.013 8.314,8.37399 10.738,14.28601 5.73,17.948 2.4371,38.37399 1.367,56.87003 l -0.406,7.13 c -0.09,1.5987 -0.1817,3.1977 -0.275,4.797 -0.783,13.802 -0.9671,27.55701 -0.813,41.37903 l 0.02,2.14697 c 0.021,1.90997 0.047,3.82001 0.076,5.72998 L 1127,585 l -1,1 c -2.77,0.095 -5.514,0.12598 -8.283,0.11401 h -2.6309 c -2.8841,0 -5.768,-0.009 -8.652,-0.016 l -5.9821,-0.005 c -5.26,-0.004 -10.5193,-0.012 -15.7779,-0.024 -5.362,-0.009 -10.724,-0.016 -16.0861,-0.02 -10.53,-0.0107 -21.0593,-0.027 -31.588,-0.049 -0.11,-19.43903 -0.11,-19.43903 0.5861,-27.297 l 0.186,-2.29901 c 0.194,-2.38501 0.3979,-4.77002 0.603,-7.15399 l 0.411,-5.03699 c 0.648,-7.89001 1.3521,-15.77301 2.141,-23.651 0.791,-7.98199 1.294,-15.914 1.386,-23.93701 l 0.053,-2.578 c -0.01,-5.676 -0.979,-9.87799 -3.366,-15.047 -3,-3.13599 -5.31,-4.745 -9.375,-6.25 -7.468,-1.54501 -14.898,-2.00201 -22.5,-2.31201 l -3.028,-0.12702 c -6.4674,-0.26037 -12.93737,-0.4057 -19.40997,-0.436 l -2.27801,-0.014 c -3.83197,-0.052 -3.83197,-0.052 -7.409,1.13901 -0.768,2.198 -0.768,2.198 -1.33197,4.90601 l -0.72198,3.151 c -0.25,1.13598 -0.5,2.27301 -0.75898,3.44299 -0.26501,1.17999 -0.53002,2.36099 -0.80499,3.577 -2.13,9.55499 -4.07702,19.14199 -5.96399,28.747 -1.62152,8.20673 -3.27319,16.40735 -4.95501,24.60199 -0.344,1.68464 -0.68665,3.36933 -1.02802,5.05402 -2.82501,13.92603 -5.98798,27.73401 -9.435,41.52002 h -83 c 5.72602,-30.92102 5.72602,-30.92102 8.84003,-44.84802 1.55316,-6.98578 3.09479,-13.97412 4.625,-20.96503 l 0.427,-1.94397 c 3.53998,-16.14099 6.97199,-32.306 10.40003,-48.47299 l 2.09497,-9.88101 3.89001,-18.34 c 4.526,-21.34 9.06,-42.67801 13.60199,-64.01401 l 4.54798,-21.384 2.87298,-13.50601 1.32398,-6.224 c 3.36102,-15.82901 6.84399,-31.63001 10.37597,-47.42099 m 397.88778,-1.58298 c 6.096,-0.733 12.1611,-0.444 18.2801,-0.17499 2.2486,0.034 4.4973,0.0597 6.7459,0.077 5.8901,0.069 11.7741,0.245 17.6611,0.44501 6.019,0.185 12.0389,0.267 18.06,0.35699 11.792,0.193 23.578,0.5 35.365,0.879 1.8051,7.177 3.38,14.37601 4.875,21.625 l 0.8001,3.87701 c 1.597,7.79999 3.1429,15.60502 4.5749,23.435 0.15,0.82001 0.301,1.638 0.457,2.48099 0.8431,4.707 1.5601,9.42001 2.215,14.15601 1.043,7.41699 2.3311,14.776 3.682,22.14199 0.4,2.17701 0.792,4.35599 1.1851,6.534 l 1.4649,8.035 c 0.5201,2.58802 1.08,5.10801 1.735,7.66001 1.053,4.11999 1.865,8.264 2.632,12.44601 l 0.438,2.358 c 0.462,2.5 0.9216,5.00034 1.379,7.50101 l 0.4759,2.58701 c 1.876,10.19699 3.6611,20.388 5.096,30.65799 0.865,6.053 2.118,11.98199 3.442,17.95001 1.46,6.75 2.49,13.535 3.486,20.367 1.18,8.05701 2.5849,15.961 4.5,23.87497 2.318,9.59802 3.93,19.26898 5.437,29.02002 1.3769,8.90399 2.89,17.72699 4.957,26.49902 0.996,4.344 1.412,8.33802 1.168,12.79401 l -1,1 c -2.83,0.095 -5.636,0.12598 -8.4671,0.11401 h -2.6899 c -2.95,0 -5.8979,-0.009 -8.847,-0.016 l -6.116,-0.005 c -5.3773,-0.004 -10.755,-0.012 -16.1331,-0.024 -5.4826,-0.009 -10.9653,-0.016 -16.448,-0.02 -10.7667,-0.0107 -21.5329,-0.027 -32.2989,-0.049 -1.21,-4.04401 -2.26,-7.94702 -2.778,-12.13702 l -0.363,-2.87201 -0.367,-3.034 -0.395,-3.16998 c -0.2733,-2.20001 -0.5437,-4.401 -0.811,-6.60303 -0.412,-3.37134 -0.8287,-6.742 -1.25,-10.112 -0.2653,-2.14264 -0.5299,-4.28497 -0.794,-6.427 l -0.379,-3.05298 -0.344,-2.84302 -0.305,-2.49298 C 1378,531 1378,531 1378,527 h -121 l -2,6 c -0.7452,1.55182 -1.533,3.08185 -2.363,4.59003 l -1.4201,2.59301 -1.53,2.75403 -1.59,2.888 c -3.9814,7.20002 -7.9928,14.38337 -12.034,21.54999 l -1.61,2.85999 -1.543,2.72601 -1.3399,2.36902 L 1230,578 l -0.646,2.06702 c -0.884,2.20001 -0.884,2.20001 -2.209,4.276 C 1225,586 1225,586 1221.381,586.69501 c -4.9351,0.34399 -9.865,0.20398 -14.807,0.086 -1.8307,-0.0147 -3.662,-0.026 -5.494,-0.034 -4.813,-0.03 -9.6231,-0.10999 -14.4351,-0.198 -4.9139,-0.082 -9.827,-0.11798 -14.74,-0.15802 -9.636,-0.086 -19.27,-0.22302 -28.905,-0.39099 1.4759,-3.80298 3.182,-7.146 5.316,-10.62903 l 2.0401,-3.34302 2.207,-3.59002 2.29,-3.75 c 1.5873,-2.59931 3.1763,-5.19763 4.767,-7.79499 3.35,-5.47601 6.677,-10.96502 10.005,-16.453 6.646,-10.96002 13.309,-21.90997 19.9771,-32.858 2.3093,-3.79334 4.6163,-7.58768 6.921,-11.383 5.6543,-9.32397 11.355,-18.61962 17.102,-27.88699 4.1214,-6.63095 8.184,-13.29761 12.188,-20 4.5696,-7.63757 9.1946,-15.24158 13.875,-22.81201 5.6178,-9.10388 11.2012,-18.22888 16.75,-27.375 l 1.063,-1.754 c 1.782,-2.93802 3.5636,-5.87701 5.345,-8.81698 5.7149,-9.431 11.442,-18.85599 17.167,-28.28202 l 3.834,-6.31399 c 7.362,-12.12589 14.7653,-24.22657 22.2099,-36.30201 l 1.861,-3.01998 1.8879,-2.92499 c 1.655,-2.664 2.944,-5.35501 4.184,-8.23499 6.161,-13.31698 6.161,-13.31698 13.8979,-15.05899"
         style="fill:#2f73ae;fill-opacity:1;fill-rule:nonzero;stroke:none"
         transform="matrix(0.72221821,0,0,0.72196797,0.00357551,0)" />
      <path
         id="path6"
         d="m 660,145 h 556 c -0.59,5.30701 -1.1331,10.16499 -2.212,15.31599 l -0.73,3.515 -0.788,3.732 -0.827,3.951 c -0.5793,2.76067 -1.1604,5.52068 -1.743,8.28 -0.7294,3.45534 -1.454,6.91133 -2.174,10.368 -0.5699,2.72667 -1.1423,5.45366 -1.717,8.181 -0.3927,1.86667 -0.7837,3.73433 -1.173,5.60299 -2.6331,12.42101 -5.669,24.69001 -8.636,37.054 H 640 c 0.67603,-6.08 1.47302,-11.85 2.75,-17.79299 l 0.52802,-2.506 c 0.57135,-2.702 1.14532,-5.403 1.72198,-8.103 l 1.20001,-5.66499 c 0.83399,-3.94 1.67066,-7.87933 2.51001,-11.81799 1.07697,-5.05578 2.14997,-10.11245 3.219,-15.17 0.8233,-3.89 1.64868,-7.78 2.47601,-11.67 0.39667,-1.866 0.79199,-3.73166 1.18597,-5.597 0.55066,-2.59734 1.10364,-5.19434 1.659,-7.791 l 0.49402,-2.344 c 1.14203,-5.31399 1.14203,-5.31399 2.25598,-7.543"
         style="fill:#2f73af;fill-opacity:1;fill-rule:nonzero;stroke:none"
         transform="matrix(0.72221821,0,0,0.72196797,0.00357551,0)" />
      <path
         id="path7"
         d="m 557,634 c 2.94299,-0.1 5.86298,-0.13202 8.80603,-0.12299 l 2.84802,-0.004 c 3.19202,-10e-4 6.38336,9.7e-4 9.57398,0.007 l 6.88299,-0.003 c 6.33667,-0.001 12.67365,9.8e-4 19.01099,0.007 6.12201,0.003 12.24402,0.004 18.36603,0.002 12.52862,-6.7e-4 25.05761,0.002 37.58697,0.008 12.41071,0.007 24.82166,0.0103 37.23297,0.011 h 2.336 l 11.74201,9.8e-4 c 27.74603,0.003 55.492,0.009 83.23797,0.019 26.96002,0.009 53.92066,0.016 80.88202,0.02 h 2.51703 l 78.36499,0.013 c 52.204,0.0107 104.408,0.0247 156.612,0.042 -0.58,5.00702 -1.342,9.22101 -3,14 -2.321,9.30402 -3.967,18.79401 -5.75,28.21198 -1.7159,9.03399 -3.456,18.05798 -5.437,27.03802 l -0.469,2.14301 c -0.666,2.96002 -1.417,5.82202 -2.39,8.69702 -1.0081,3.07501 -1.543,6.02398 -2.016,9.22198 -0.283,1.901 -0.588,3.79901 -0.938,5.68799 l -1,1 c -2.876,0.1 -5.728,0.13397 -8.604,0.12598 l -2.782,0.004 c -3.1169,0.004 -6.234,0 -9.35,-0.003 l -6.724,0.005 c -6.19,0.003 -12.38,0.003 -18.5699,-9.8e-4 -5.9813,-10e-4 -11.9624,-3.6e-4 -17.943,0.003 -12.9973,0.005 -25.9946,0.005 -38.992,0.002 -11.38001,-0.003 -22.76001,-0.003 -34.14002,-0.002 h -2.28497 l -9.18,9.8e-4 c -28.73797,0.003 -57.47601,0.001 -86.21398,-0.005 -25.52997,-0.005 -51.06067,-0.005 -76.59198,0 -31.72309,0.003 -63.44971,0.004 -95.18,0.004 h -2.28198 c -11.36603,-10e-4 -22.73199,-6.7e-4 -34.09802,0.002 -12.93201,0.003 -25.86469,0.002 -38.79798,-0.003 -6.60003,-0.003 -13.1997,-0.003 -19.79901,0 -6.04199,0.003 -12.08465,10e-4 -18.12799,-0.004 -2.18463,-6.7e-4 -4.36999,0 -6.55597,0.002 -21.005,0.021 -21.005,0.021 -29.78302,-1.13098 4.35797,-22.39899 9.16602,-44.70001 14,-67 l 0.5,-2.30902 c 0.99335,-4.586 1.99335,-9.17072 3,-13.75403 l 0.73603,-3.38397 0.66998,-3.026 0.573,-2.60101 C 556,635 556,635 557,634"
         style="fill:#2f73ae;fill-opacity:1;fill-rule:nonzero;stroke:none"
         transform="matrix(0.72221821,0,0,0.72196797,0.00357551,0)" />
      <path
         id="path8"
         d="m 690,2 h 555 l 1,4 -1,1 c -0.485,2.4905214 -0.9319,4.987854 -1.3409,7.492001 -1.522,8.924999 -3.319,17.773998 -5.198,26.630001 l -0.989,4.687 c -0.6821,3.233334 -1.366,6.466 -2.0521,9.698002 -0.8785,4.145691 -1.7537,8.291691 -2.6259,12.438003 -0.6761,3.208001 -1.3537,6.415329 -2.033,9.622002 -0.324,1.529999 -0.647,3.060669 -0.969,4.592003 -0.4477,2.122475 -0.8977,4.244469 -1.35,6.365997 l -0.7719,3.653 C 1227,95 1227,95 1226,97 H 670 c 1.125,-11.25 1.125,-11.25 2.01202,-15.309998 l 0.59998,-2.780998 0.646,-2.917 0.67901,-3.128997 c 0.72534,-3.330002 1.45465,-6.659333 2.18799,-9.987999 l 1.5,-6.876999 c 0.992,-4.549336 1.98663,-9.098336 2.98401,-13.647 1.22278,-5.582363 2.43646,-11.166694 3.64099,-16.753 l 1.43298,-6.618999 0.87799,-4.064 c 0.39667,-1.838001 0.79566,-3.675667 1.19703,-5.513 l 0.65997,-3.047 C 689,4 689,4 690,2 M 526,778 h 556 c -0.631,6.31 -1.291,11.99402 -2.75,18.06299 -1.688,7.31 -3.228,14.64001 -4.687,22 l -0.634,3.18298 c -1.081,5.44769 -2.1537,10.89704 -3.2181,16.34802 -4.8149,24.52399 -4.8149,24.52399 -7.711,34.40601 l -1,1 c -2.938,0.1 -5.8521,0.13202 -8.7901,0.12299 l -2.844,0.004 c -3.1847,10e-4 -6.3699,-9.7e-4 -9.556,-0.007 l -6.87,0.003 c -6.3266,0.001 -12.6523,-9.8e-4 -18.977,-0.007 -6.1106,-0.003 -12.2217,-0.004 -18.33298,-0.002 -12.50665,6.7e-4 -25.01336,-0.002 -37.52002,-0.008 -12.388,-0.007 -24.77667,-0.0103 -37.16601,-0.011 h -2.331 l -11.72101,-9.8e-4 c -27.69665,-0.003 -55.393,-0.009 -83.08898,-0.019 -26.91199,-0.009 -53.82398,-0.016 -80.73603,-0.02 h -2.513 l -75.85998,-0.013 h -2.36402 C 611.21991,873.03131 559.10999,873.01733 507,873 l -1,-2 c 0.237,-1.89398 0.237,-1.89398 0.75299,-4.242 l 0.57999,-2.68299 0.66,-2.95001 c 0.22299,-1.03003 0.448,-2.06 0.67899,-3.12 0.72934,-3.33532 1.46365,-6.67034 2.203,-10.005 l 1.37503,-6.27698 1.42999,-6.53497 C 517.84399,816.13806 521.914,797.06708 526,778.00006"
         style="fill:#2f73af;fill-opacity:1;fill-rule:nonzero;stroke:none"
         transform="matrix(0.72221821,0,0,0.72196797,0.00357551,0)" />
      <path
         id="path9"
         d="m 250,293 c 2.508,1.35599 4.883,2.85101 7.25,4.43799 0.85901,0.55301 0.85901,0.55301 1.73401,1.11899 8.77301,5.751 14.62201,12.38299 19.76599,21.56799 4.31299,9.92001 5.43201,18.09201 5.43799,28.93799 l 0.037,3.52899 c 0.012,7.612 -0.46601,14.978 -2.22501,22.40799 l -1,1 c -2.617,0.095 -5.207,0.12601 -7.82401,0.11401 h -2.484 c -2.72101,0 -5.443,-0.009 -8.16501,-0.016 l -5.64499,-0.005 c -4.96334,-0.004 -9.92667,-0.012 -14.89,-0.024 -5.06,-0.009 -10.12033,-0.016 -15.181,-0.02 -9.93733,-0.0106 -19.87435,-0.027 -29.81101,-0.049 l 0.485,-2.25699 c 1.35001,-7.19199 1.42,-15.46301 -0.098,-22.64499 -1.55001,-3.996 -3.689,-6.70801 -6.95,-9.47299 -6.14,-4.04199 -12.41099,-5.492 -19.687,-5.94101 -10.578,-0.397 -19.843,0.867 -29.44099,5.66 -1.51985,0.83631 -3.02119,1.70466 -4.504,2.60502 C 135,345 135,345 132,346 c -0.70056,1.31641 -1.36723,2.64975 -2,4 -1.32829,1.67075 -2.66163,3.3374 -4,5 -3.139,4.34601 -4.399,8.72601 -5,14 -0.062,4.45999 -0.035,8.897 1.965,12.95999 0.952,1.39002 1.987,2.72199 3.035,4.04001 v 2 l 1.688,0.81299 C 130,390 130,390 132.22301,391.43301 c 15.507,8.74601 36.811,11.832 53.94,16.14499 50.536,12.77399 50.536,12.77399 67.942,29.43799 5.78601,6.035 10.32999,13.077 12.48801,21.22299 3.52801,16.03202 2.16,33.13602 -2.59299,48.76102 -6.065,18.82202 -15.612,34.78198 -30.36,48.13702 -11.392,9.47498 -24.218,16.70697 -37.64,22.86298 l -1.84599,0.84802 c -7.414,3.33301 -14.92501,5.80603 -22.77901,7.84003 l -2.17999,0.57599 c -16.78501,4.09302 -33.657,5.22998 -50.878,5.12701 -3.183,-0.016 -6.365,0 -9.547,0.02 -25.615995,0.025 -52.175996,-2.604 -74.992994,-15.18799 -11.18,-7.05499 -19.481001,-15.80597 -26.0230005,-27.17999 -5.086,-10.81 -6.3569999,-21.47601 -6.1290002,-33.29297 l 0.004,-3.89001 C 1.762,498.38 1.762,498.38 4,492 c 2.9429998,-1.47198 5.9139996,-1.13901 9.14,-1.13 l 2.228,-0.005 c 2.436667,-0.003 4.874001,-0.002 7.312,0.002 1.691334,0 3.382668,-0.001 5.074,-0.003 3.549999,-10e-4 7.099333,6.8e-4 10.648,0.006 4.548001,0.004 9.096665,0.003 13.646,-0.004 3.494667,-0.003 6.989666,-0.003 10.485001,0 1.675999,0 3.352665,-6.7e-4 5.030003,-0.002 2.346,-0.002 4.692001,3.4e-4 7.038002,0.007 l 2.099998,-0.007 c 3.247002,0.015 6.193001,0.142 9.298996,1.13599 L 85.823997,495.7 c -0.304,9.10501 -0.288002,17.172 3.585999,25.62799 C 92,525.67999 94.612999,528.45502 99,531 c 10.941,5.45001 22.114,6.48499 34.168,5.89398 11.129,-0.79797 21.729,-2.98797 31.207,-9.08197 5.713,-4.32098 8.964,-9.112 11.875,-15.59698 2.782,-7.32999 3.80701,-14.41001 2.75,-22.215 -2.174,-4.59 -4.98599,-6.996 -9,-10 -9.27,-4.98599 -19.77899,-7.32001 -29.883,-9.991 -2.91999,-0.77301 -5.837,-1.557 -8.753,-2.34399 -3.932,-1.06 -7.86467,-2.11734 -11.79801,-3.172 C 63.958,449.58301 63.958,449.58301 46.5,433 39.144001,425.27499 35.380001,416.30402 32.463001,406.12601 29.889999,394.314 31.68,380.45001 35,369 l 0.808998,-2.957 C 39.970001,352.22299 46.917,340.134 56,329 l 1.397999,-1.82401 C 60.761997,322.87601 64.802002,319.448 69,316 l 2.844002,-2.35199 C 92.544006,296.918 116.41701,288.14001 142.47,283.56601 146.966,282.866 151.466,282.39401 156,282 l 3.086,-0.332 C 188.66901,278.81601 222.636,280.466 250,293 m 1326,-4 c 27.764,-0.0233 55.528,-0.0407 83.292,-0.052 12.8913,-0.005 25.7827,-0.0123 38.6739,-0.023 11.236,-0.01 22.4721,-0.0167 33.7081,-0.02 5.95,0 11.8994,-0.003 17.848,-0.01 5.6007,-0.008 11.2016,-0.0106 16.803,-0.008 2.054,0 4.1083,-0.002 6.1629,-0.006 2.8087,-0.005 5.6173,-0.005 8.426,-10e-4 l 2.4521,-0.01 c 4.962,0.014 9.7199,0.42499 14.634,1.13001 0.625,2.06299 0.625,2.06299 1,5 -0.434,1.634 -0.8781,3.26599 -1.3979,4.875 -0.721,2.54501 -1.1301,5.074 -1.5401,7.68799 -1.094,6.85998 -2.379,13.69501 -4.062,20.43701 l -1,1 c -0.5616,2.84689 -1.0824,5.7012 -1.562,8.56299 -0.485,2.81137 -0.9644,5.62372 -1.438,8.43704 -7.4399,0.99701 -14.731,1.13501 -22.2321,1.11301 h -3.935 c -3.5347,-6.7e-4 -7.069,-0.005 -10.603,-0.013 -3.704,-0.006 -7.407,-0.006 -11.11,-0.008 -7.0021,-0.003 -14.0037,-0.01 -21.005,-0.021 -7.976,-0.0106 -15.9521,-0.018 -23.928,-0.022 -16.396,-0.0106 -32.792,-0.0273 -49.188,-0.05 l -0.9659,3.845 -0.543,2.163 c -0.5319,2.17065 -1.0172,4.35165 -1.4561,6.543 l -0.4799,2.34799 -0.4931,2.41299 c -1.2359,5.97699 -2.5899,11.862 -4.2729,17.73099 -2.283,8.55701 -4.053,17.275 -5.789,25.957 h 133 c 1,3 1,3 0.71,5.232 l -0.59,2.63501 -0.6579,2.99399 -0.735,3.229 -0.7371,3.32101 c -0.781,3.51001 -1.573,7.01902 -2.365,10.526 l -1.578,7.08402 c -3.6899,16.54999 -3.6899,16.54999 -5.047,21.979 h -134 c -2.5019,10.81601 -2.5019,10.81601 -4.5,21.68799 -0.915,5.46301 -2.0899,10.64002 -3.8089,15.914 -1.724,5.982 -2.397,12.24298 -3.2541,18.39801 -0.3485,2.36011 -0.8275,4.69342 -1.437,7 l 2.19,-0.003 c 17.5853,-0.022 35.1704,-0.0383 52.755,-0.049 8.504,-0.005 17.0079,-0.0123 25.5119,-0.023 7.4107,-0.01 14.8217,-0.0167 22.2331,-0.02 3.9253,0 7.8499,-0.003 11.774,-0.01 3.6934,-0.008 7.3871,-0.0107 11.0811,-0.008 2.0027,-10e-4 4.0059,-0.005 6.01,-0.011 l 3.6109,0.004 3.1401,-0.003 c 2.3969,0.10998 4.405,0.43402 6.6939,1.12298 -3.712,19.07001 -7.847,38.01502 -12,57 h -227 c 1.125,-12.37402 1.125,-12.37402 2.2371,-17.48401 l 0.755,-3.52001 0.824,-3.74598 c 0.2914,-1.34533 0.5816,-2.6903 0.8709,-4.03497 0.6235,-2.88666 1.2504,-5.7727 1.881,-8.65802 1.02,-4.66901 2.0301,-9.34003 3.0401,-14.01001 1.062,-4.91998 2.1259,-9.84003 3.192,-14.76001 2.3459,-10.81921 4.673,-21.64255 6.9809,-32.47 l 0.4681,-2.194 c 0.7867,-3.69132 1.5727,-7.383 2.358,-11.07501 1.64,-7.70066 3.2812,-15.40168 4.9239,-23.103 l 0.5191,-2.43301 c 2.9513,-13.836 5.9073,-27.67066 8.868,-41.504 l 4.443,-20.776 c 1.2067,-5.646 2.4147,-11.29132 3.624,-16.93601 1.5805,-7.37893 3.1587,-14.75793 4.735,-22.13699 2.182,-10.20001 4.345,-20.40399 6.416,-30.62701 l 0.497,-2.447 c 0.754,-3.70999 1.4986,-7.42266 2.234,-11.138 l 0.7729,-3.83999 0.656,-3.30802 c 0.6401,-2.548 1.495,-4.48999 2.704,-6.79901 M 358,289 c 2.95901,-0.29401 5.70801,-0.39001 8.668,-0.35999 l 2.75299,-0.009 c 3.06201,-0.004 6.12299,0.012 9.185,0.028 h 6.56201 c 5.95499,-0.002 11.909,0.016 17.86301,0.037 6.21701,0.019 12.43301,0.02 18.64999,0.024 10.44,0.009 20.87967,0.0267 31.319,0.054 10.75333,0.0273 21.50699,0.0477 32.26099,0.061 l 2.00799,0.003 9.97199,0.011 c 27.586,0.031 55.17297,0.084 82.75903,0.151 0.39203,1.65399 0.71997,3.324 1,5 -0.883,2.51599 -0.883,2.51599 -2,5 -0.33612,1.57516 -0.62781,3.15848 -0.875,4.75 -0.83801,4.936 -1.94,9.76501 -3.125,14.625 -1.52576,6.26779 -2.72742,12.59714 -3.60498,18.98801 -0.34003,2.26999 -0.83099,4.41598 -1.39502,6.63699 v 2 c -3.29999,0.98999 -6.28302,1.12299 -9.71997,1.11999 l -3.53497,0.004 -3.86701,-0.01 h -4.08002 c -3.69,-6.7e-4 -7.38,-0.005 -11.07,-0.013 -3.857,-0.006 -7.71399,-0.006 -11.57099,-0.008 -7.30267,-0.003 -14.60531,-0.01 -21.90799,-0.021 -8.31466,-0.0106 -16.62899,-0.018 -24.94299,-0.022 -17.10199,-0.0106 -34.20398,-0.0273 -51.306,-0.05 l -2.39499,8.60501 -0.67999,2.44199 c -3.482,12.48001 -3.482,12.48001 -5.86301,25.203 -0.74899,5.23801 -1.836,10.31201 -3.125,15.43799 l -0.52899,2.108 c -1.26599,4.92099 -1.26599,4.92099 -2.40799,7.20401 h 134.00003 c -1.125,12.36999 -1.125,12.36999 -2.12097,16.535 l -0.64697,2.76401 -0.66999,2.76401 c -0.43731,1.84466 -0.87335,3.68967 -1.30798,5.535 l -0.64801,2.746 c -0.56287,2.48063 -1.08917,4.96894 -1.57898,7.465 -1.26898,6.41199 -2.65698,12.79999 -4.02698,19.19101 l -134,1 c -4.05099,16.20599 -7.901,31.98801 -10.527,48.40601 -0.4061,2.22869 -0.93876,4.42669 -1.598,6.59399 -1.06201,3.12 -1.06201,3.12 -0.875,7 l 2.228,-0.006 c 17.86667,-0.044 35.73431,-0.0767 53.603,-0.098 8.63998,-0.009 17.28067,-0.025 25.92199,-0.047 7.52866,-0.02 15.05768,-0.0324 22.58701,-0.037 3.98868,-0.002 7.97733,-0.01 11.966,-0.023 3.75,-0.0134 7.50064,-0.0184 11.25199,-0.015 1.38,0 2.75964,-0.004 4.13897,-0.012 1.878,-0.008 3.75599,-0.009 5.63398,-0.003 l 3.19,-0.005 L 532,528 l 2,2 c -0.45868,2.40564 -1.04205,4.78064 -1.75,7.125 l -1.10999,3.883 -0.57299,1.99298 c -2.01001,7.086 -3.27198,14.10901 -4.24701,21.40503 -0.74597,5.109 -1.94001,9.96099 -3.38098,14.92199 L 521.841,583.12201 521,586 c -32.68671,0.0305 -65.37271,0.0492 -98.05798,0.056 -10.89798,0.005 -21.79599,0.0117 -32.694,0.021 -11.176,0.009 -22.35169,0.015 -33.52701,0.017 -6.28,0 -12.56,0.004 -18.84,0.012 -5.90533,0.007 -11.81,0.009 -17.71399,0.007 -2.17334,0 -4.34668,0.002 -6.51999,0.006 -2.95468,0.004 -5.90966,0.004 -8.86499,9.8e-4 l -2.63501,0.01 c -5.919,-0.016 -5.919,-0.016 -8.147,-1.13001 4.58499,-23.54303 9.62399,-46.992 14.612,-70.453 0.92667,-4.36002 1.85236,-8.72135 2.77701,-13.08399 4.44,-20.92901 8.89801,-41.85299 13.432,-62.76199 2.71134,-12.51541 5.37732,-25.0404 7.99799,-37.57501 1.92999,-9.21301 3.87399,-18.42301 5.814,-27.634 l 2.37799,-11.301 c 1.98999,-9.45999 3.983,-18.92001 5.987,-28.37601 0.90335,-4.26333 1.80301,-8.527 2.699,-12.79101 0.84467,-4.02466 1.69501,-8.04865 2.551,-12.07199 0.31601,-1.49332 0.63034,-2.98667 0.94299,-4.48001 0.42935,-2.05201 0.86401,-4.10233 1.30399,-6.15101 l 0.738,-3.497 C 356,292 356,292 358,289"
         style="fill:#2f73ae;fill-opacity:1;fill-rule:nonzero;stroke:none"
         transform="matrix(0.72221821,0,0,0.72196797,0.00357551,0)" />
      <path
         id="path10"
         d="m 1002,344 c 1.969,-0.254 1.969,-0.254 4.411,-0.259 l 2.775,-0.019 3.0171,0.012 3.12,-0.005 c 2.1893,-10e-4 4.3783,0.002 6.567,0.01 3.305,0.01 6.61,0 9.915,-0.012 29.7399,-0.02 29.7399,-0.02 41.0229,6.29599 2.563,1.60501 4.627,3.18399 6.353,5.694 2.662,5.116 3.4621,9.29401 3.319,15.03299 l -0.037,2.38 c -0.303,8.97001 -2.9139,16.34702 -7.213,24.18302 -4.142,6.461 -9.307,10.81 -16,14.5 -9.596,4.36999 -20.0699,4.496 -30.453,4.60101 l -3.6479,0.059 c -3.8,0.059 -7.6,0.10599 -11.399,0.15201 l -7.785,0.117 c -6.32136,0.0947 -12.64302,0.18067 -18.96504,0.258 -1,-3 -1,-3 -0.71802,-5.11899 l 0.573,-2.46701 0.63202,-2.789 0.70001,-3 c 1.77399,-7.832 3.43,-15.66299 4.875,-23.56201 1.39875,-7.57544 3.10077,-15.08209 5.10602,-22.51999 0.61481,-2.59299 1.05481,-5.21533 1.32001,-7.86701 0.16998,-1.21301 0.33801,-2.42599 0.512,-3.67599 z M 674,461 c 3.12201,-0.11401 6.21997,-0.164 9.34399,-0.168 l 2.90003,-0.01 c 2.04065,-0.005 4.08197,-0.007 6.12402,-0.007 3.06299,-0.002 6.12702,-0.02 9.19,-0.04 31.89301,-0.093 31.89301,-0.093 41.516,4.97101 4.32501,2.81601 8.33398,5.685 11.09002,10.133 2.258,5.224 2.43402,10.51999 1.836,16.121 -1.52698,8.465 -3.75201,16.647 -8.94098,23.60199 -4.69501,5.53497 -9.297,9.67297 -16.05902,12.39801 -11.07202,3.90503 -22.37701,4.15601 -34.01202,4.09802 l -3.31598,-0.005 c -3.45331,-0.006 -6.90668,-0.0165 -10.35999,-0.03 -2.35797,-0.006 -4.71667,-0.0106 -7.07599,-0.014 -5.74469,-0.0113 -11.48999,-0.0277 -17.23602,-0.049 0.15399,-1.59668 0.30933,-3.19366 0.466,-4.79102 l 0.26203,-2.695 c 1.22497,-11.32898 4.40997,-22.56101 6.99798,-33.63901 1.81354,-7.75748 3.50318,-15.54181 5.06897,-23.353 0.375,-1.84601 0.78601,-3.68499 1.20502,-5.522 z m 682,-113 3,1 c 1.4417,14.7077 2.876,29.41605 4.303,44.125 0.6627,6.82999 1.3283,13.66 1.9969,20.48999 0.6454,6.59399 1.2874,13.18799 1.9261,19.78201 0.244,2.51334 0.4896,5.02668 0.737,7.54001 0.3454,3.52402 0.6876,7.04935 1.027,10.57599 l 0.312,3.133 0.28,2.944 0.246,2.522 c 0.236,3.95599 0.172,7.92499 0.172,11.888 h -80 c 2.082,-6.245 3.589,-10.47 6.813,-15.875 0.7107,-1.20801 1.42,-2.41635 2.128,-3.625 l 1.0561,-1.785 c 1.4649,-2.504 2.863,-5.043 4.253,-7.59 l 1.328,-2.42999 c 1.1281,-2.14527 2.2271,-4.30527 3.297,-6.48001 2.158,-4.33701 4.5,-8.556 6.875,-12.77701 3.2395,-5.77298 6.4062,-11.58566 9.5,-17.43799 2.1811,-4.13501 4.4301,-8.202 6.875,-12.18701 2.6601,-4.35001 4.928,-8.82999 7.1761,-13.40302 5.16,-10.35501 10.5539,-20.60199 16.6989,-30.41 M 699,343 c 7.63135,-0.0754 15.2627,-0.13034 22.89398,-0.16501 2.59271,-0.0147 5.18543,-0.0351 7.77802,-0.061 3.73999,-0.037 7.48102,-0.054 11.22302,-0.067 l 3.47302,-0.047 c 7.23102,-10e-4 13.84497,0.71201 20.63202,3.34 3.565,2.15601 5.97302,4.48599 8.31299,7.93399 2.85303,5.39999 3.28198,10.61499 3.07001,16.66 -0.96003,8.547 -3.586,16.448 -8.69599,23.41001 -5.03399,5.95498 -10.05499,9.58301 -17.39001,12.26999 -13.88001,4.39001 -29.85102,2.85 -44.23499,2.78799 -2.04999,-0.005 -4.10132,-0.01 -6.15399,-0.013 -4.97003,-0.0113 -9.93933,-0.0277 -14.90802,-0.049 0.578,-4.905 1.26801,-9.72299 2.23401,-14.57001 l 0.73401,-3.686 0.78198,-3.86899 0.40003,-1.98999 c 1.776,-8.815 3.61999,-17.61401 5.59997,-26.38501 l 0.59998,-2.672 c 0.19,-0.82 0.37799,-1.64001 0.57202,-2.48401 l 0.487,-2.11999 c 0.73999,-2.78501 1.65899,-5.49701 2.591,-8.224"
         style="fill:#fefefe;fill-opacity:1;fill-rule:nonzero;stroke:none"
         transform="matrix(0.72221821,0,0,0.72196797,0.00357551,0)" />
      <path
         id="path11"
         d="m 690,0 h 556 V 3 L 691,2 Z"
         style="fill:#a4d1f6;fill-opacity:1;fill-rule:nonzero;stroke:none"
         transform="matrix(0.72221821,0,0,0.72196797,0.00357551,0)" />
      <path
         id="path12"
         d="m 358,289 h 222 l 1,5 h -3 v -3 l -2.44501,0.492 c -4.18402,0.598 -8.21997,0.64301 -12.43902,0.628 l -2.67603,0.003 c -2.95196,0 -5.9043,-0.003 -8.85699,-0.01 l -6.35797,10e-4 c -5.75,-6.7e-4 -11.49933,-0.005 -17.24799,-0.013 -6.01001,-0.005 -12.02002,-0.007 -18.03,-0.008 -11.37799,-0.003 -22.75665,-0.0103 -34.13602,-0.021 -12.95535,-0.0107 -25.91067,-0.018 -38.86599,-0.022 -26.64865,-0.0106 -53.297,-0.0273 -79.94501,-0.05 z m 899,235 c 15.7421,-0.0233 31.484,-0.0407 47.226,-0.052 7.3087,-0.005 14.6173,-0.0123 21.926,-0.023 6.3692,-0.01 12.7383,-0.0167 19.107,-0.02 3.3734,0 6.7467,-0.003 10.12,-0.01 3.7627,-0.007 7.5251,-0.01 11.287,-0.009 l 3.406,-0.01 3.094,0.004 2.698,-0.003 C 1378,524 1378,524 1380,525 v 14 h -1 l -1,-12 h -121 z m 376,-116 h 132 c 1,3 1,3 0.71,5.23199 l -0.59,2.63501 -0.658,2.99399 -0.7349,3.22901 -0.7371,3.32101 c -0.781,3.51001 -1.573,7.01901 -2.365,10.526 l -1.578,7.08402 c -3.6899,16.54998 -3.6899,16.54998 -5.047,21.979 h -25 l -1,-2 h 24 l 0.781,-4.922 c 1.234,-7.39599 2.7271,-14.73001 4.25,-22.07 0.47,-2.26801 0.9376,-4.53635 1.403,-6.805 l 0.91,-4.406 0.413,-2.01502 C 1760.7229,418.147 1761.849,413.60202 1763,409 h -130 z m 34,-119 h 123 l -1,3 -121,-1 z m -666,53 c 6.9886,-0.0755 13.9773,-0.13055 20.966,-0.16501 2.3707,-0.0147 4.7416,-0.035 7.113,-0.061 31.953,-0.344 31.953,-0.344 43.921,6.22601 1.7037,1.2869 3.3705,2.62024 5,4 l -1,2 -1.652,-1.242 c -5.36,-3.82999 -9.826,-5.92301 -16.348,-6.758 l -3.951,-0.51199 c -5.4571,-0.60001 -10.8731,-0.63199 -16.3581,-0.62 l -3.175,-0.004 c -2.198,0 -4.3957,0.002 -6.593,0.006 -3.375,0.005 -6.75,0 -10.1241,-0.007 -2.14,0 -4.28,0.001 -6.4199,0.004 l -3.0651,-0.006 -2.8239,0.01 -2.488,0.002 c -2.075,10e-4 -2.075,10e-4 -4.00202,1.12701 z m 210,-183 h 2 c -0.651,6.87801 -1.8199,13.51801 -3.25,20.27299 l -0.661,3.16901 c -0.4594,2.19333 -0.9199,4.38666 -1.382,6.58 -0.7086,3.36333 -1.4129,6.72701 -2.113,10.09101 l -1.344,6.41 c -0.21,1.007 -0.42,2.013 -0.6379,3.05 l -0.596,2.823 -0.5229,2.482 C 1202,216 1202,216 1201,219 h -2 c 1.29,-12.186 2.729,-24.478 6.246,-36.246 1.286,-4.69701 2.1159,-9.49001 3.008,-14.274 0.7,-3.27001 1.6231,-6.333 2.746,-9.48 m 365,130 h 67 l 1,2 -2.53,0.031 c -7.8581,0.098 -15.716,0.20068 -23.574,0.30801 -4.04,0.056 -8.0801,0.10867 -12.12,0.15799 -3.8966,0.048 -7.7933,0.10001 -11.6899,0.15601 -1.4894,0.0207 -2.9781,0.0393 -4.466,0.056 -2.0807,0.0247 -4.1616,0.0533 -6.243,0.086 l -3.593,0.047 c -2.74,-0.029 -2.74,-0.029 -4.7841,1.15799 z m 173,240 h 3 c -3.712,19.06598 -7.796,38.03802 -12,57 l -4,-1 2,-1 c 0.573,-2.22803 0.573,-2.22803 0.906,-4.98798 0.7804,-5.12616 1.697,-10.22778 2.75,-15.30499 l 0.452,-2.19 c 0.3067,-1.48535 0.6147,-2.97003 0.924,-4.45398 0.4693,-2.25665 0.9366,-4.51398 1.402,-6.77197 1.4699,-7.10901 2.962,-14.21003 4.566,-21.29102 M 1242,11 h 2 c -0.724,6.826 -2.063,13.448 -3.504,20.156 l -0.735,3.463999 c -0.7733,3.626667 -1.5477,7.253334 -2.323,10.880001 l -1.577,7.405998 C 1234.5784,58.938 1233.2914,64.96933 1232,71 h -2 c 0.554,-6.834 1.563,-13.435001 2.996,-20.137001 l 0.587,-2.799 c 0.4069,-1.935512 0.8162,-3.870514 1.228,-5.805 0.627,-2.948002 1.245,-5.896999 1.8631,-8.847 0.398,-1.891333 0.797,-3.782667 1.197,-5.674 l 0.556,-2.645 c 1.017,-4.762002 2.174,-9.429 3.573,-14.093001 M 1426,306 h 2 c 1.1466,5.87 2.286,11.74167 3.418,17.61499 0.386,1.996 0.7739,3.992 1.1639,5.98801 0.56,2.87332 1.116,5.74798 1.668,8.62399 l 0.53,2.69 c 0.845,4.42999 1.428,8.54801 1.22,13.08301 h -2 c -2.204,-8.94299 -3.929,-17.914 -5.3631,-27.00601 -0.3306,-2.08667 -0.666,-4.17267 -1.0059,-6.258 C 1426,310.55301 1426,310.55301 1426,306 m 17,91 h 2 c 0.8586,4.62534 1.713,9.25198 2.563,13.88 0.29,1.57334 0.5814,3.14667 0.874,4.72001 0.4201,2.26266 0.8367,4.526 1.25,6.79 l 0.398,2.125 c 0.5909,3.25 0.915,6.16501 0.915,9.48499 h -2 l -5,-25 -0.5699,-2.634 c -0.57,-3.13901 -0.492,-6.18399 -0.4301,-9.366 m -208,167 h 2 c -1.705,4.65601 -3.99,8.91803 -6.375,13.25 l -1.172,2.21899 -1.1639,2.10999 -1.0401,1.91803 L 1226,585 c -2.1429,0.71399 -2.1429,0.71399 -4,1 l -1,-2 h 3 l 0.254,-1.55499 c 1.058,-3.46698 2.87,-6.456 4.684,-9.57001 l 1.0909,-1.91803 c 1.492,-2.58697 2.85,-4.836 4.971,-6.95697 M 1229,72 h 2 c -0.614,8.598999 -2.8101,16.695 -5,25 l -3,-1 z m 566,230 h 2 c -1.36,8.73999 -3.084,17.366 -5,26 l -2,-1 c 0.642,-5.50812 1.4753,-10.98712 2.5,-16.43701 l 0.395,-2.17801 c 0.3427,-1.80026 0.711,-3.59528 1.105,-5.38498 z"
         style="fill:#3a7899;fill-opacity:1;fill-rule:nonzero;stroke:none"
         transform="matrix(0.72221821,0,0,0.72196797,0.00357551,0)" />
      <path
         id="path13"
         d="m 1100,683 h 2 c -0.547,8.17999 -2.171,16.01801 -4,24 l -2,-1 c 0.516,-7.88202 2.092,-15.34497 4,-23"
         style="fill:#397799;fill-opacity:1;fill-rule:nonzero;stroke:none"
         transform="matrix(0.72221821,0,0,0.72196797,0.00357551,0)" />
      <path
         id="path14"
         d="m 1175,145 h 41 v 4 h -2 v -2 l -39,-1 z M 543,420 h 2 c -0.70203,7.15601 -2.30798,14.01901 -4,21 l -2,-1 c 0.57001,-6.957 2.013,-13.314 4,-20 m -390,52 c 9.102,1.298 16.73199,4.30899 24,10 l -1,3 -2.25,-2.18701 C 169.15199,478.94998 163.545,477.12698 158,475 c -1.66759,-0.6644 -3.33424,-1.33105 -5,-2 z m 1460,14 h 2 c -0.4449,5.27301 -1.084,10.01801 -3,15 l -2,-2 c 0.46,-3.04001 0.46,-3.04001 1.375,-6.625 l 0.898,-3.60199 z M 822,450 c 2.75702,1.07999 4.13397,2.14999 6.14001,4.383 l 2.10999,2.742 2.14001,2.758 L 834,462 h -3 c -2.26202,-2.371 -2.26202,-2.371 -4.68701,-5.43701 l -2.45001,-3.06 L 822,451 Z m 966,-118 h 2 c -0.116,1.58405 -0.241,3.16739 -0.375,4.75 l -0.21,2.672 c -0.4139,2.569 -1.1269,4.336 -2.415,6.578 -0.834,-2.586 -1.057,-4.651 -0.621,-7.336 0.5004,-2.23102 1.0408,-4.45236 1.621,-6.664 m -685,337 h 2 c -0.142,1.62531 -0.2877,3.25031 -0.437,4.875 l -0.247,2.742 C 1104,679 1104,679 1103,681 h -2 c 1,-8.57098 1,-8.57098 2,-12 M 525,560 h 2 l -2,12 -2,-1 c 0.14001,-1.64667 0.28601,-3.2923 0.43799,-4.93701 0.08,-0.91699 0.16199,-1.83399 0.24597,-2.77802 L 524,561 Z M 417,384 h 2 l -2,11 h -2 c 0.14133,-1.45865 0.28732,-2.91699 0.43799,-4.375 0.08,-0.81201 0.16199,-1.62399 0.246,-2.45999 C 416,386 416,386 417,384 m 118,72 h 2 l -1,9 -3,-1 z m 712,86 h 2 c -1.6,5.53802 -1.6,5.53802 -3.625,7.875 L 1244,551 c 0,-4 0,-4 1.375,-6.75 z m 7,-13 h 2 c -1.6,5.53802 -1.6,5.53802 -3.625,7.875 L 1251,538 l -1,-2 c 0.777,-1.72699 0.777,-1.72699 1.938,-3.625 z M 85,513 h 2 l 3,10 -3,-1 c -1.705002,-3.32001 -2,-5.185 -2,-9 M 1213,150 h 2 l -1,8 h -2 c -0.041,-2.33333 -0.041,-4.66667 0,-7 z M 744,465 c 5.37097,2.73401 5.37097,2.73401 7,4 0.72302,2.14001 0.72302,2.14001 1,4 -1.33868,-0.95065 -2.672,-1.909 -4,-2.875 L 745.75,468.508 744,467 Z"
         style="fill:#3a7899;fill-opacity:1;fill-rule:nonzero;stroke:none"
         transform="matrix(0.72221821,0,0,0.72196797,0.00357551,0)" />
    </g>
    <g
       id="g14">
      <path
         id="path15"
         d="M 0,8.50333 H 975 V 481.91999 H 0 Z"
         style="fill:#000000;fill-opacity:0;fill-rule:nonzero;stroke:none"
         transform="matrix(1.3333333,0,0,-1.3333333,0,642.55997)" />
    </g>
  </g>
</svg>
