<?xml version="1.0" encoding="UTF-8" standalone="no"?>
<svg
   xmlns:dc="http://purl.org/dc/elements/1.1/"
   xmlns:cc="http://creativecommons.org/ns#"
   xmlns:rdf="http://www.w3.org/1999/02/22-rdf-syntax-ns#"
   xmlns:svg="http://www.w3.org/2000/svg"
   xmlns="http://www.w3.org/2000/svg"
   viewBox="0 0 1569.0533 578.59601"
   height="578.59601"
   width="1569.0533"
   xml:space="preserve"
   id="svg2"
   version="1.1"><metadata
     id="metadata8"><rdf:RDF><cc:Work
         rdf:about=""><dc:format>image/svg+xml</dc:format><dc:type
           rdf:resource="http://purl.org/dc/dcmitype/StillImage" /></cc:Work></rdf:RDF></metadata><defs
     id="defs6"><clipPath
       id="clipPath18"
       clipPathUnits="userSpaceOnUse"><path
         id="path16"
         d="M 0,433.947 H 1176.786 V 0 H 0 Z" /></clipPath></defs><g
     transform="matrix(1.3333333,0,0,-1.3333333,0,578.596)"
     id="g10"><g
       id="g12"><g
         clip-path="url(#clipPath18)"
         id="g14"><g
           transform="translate(903.0792,253.9257)"
           id="g20"><path
             id="path22"
             style="fill:#0067ff;fill-opacity:1;fill-rule:nonzero;stroke:none"
             d="M 0,0 H 188.603 V 9.631 H 0 C -5.08,9.619 -9.707,5.11 -9.723,0.081 V -90.107 L 0,-90.188 v 42.325 h 150.262 v 10.104 H 0 Z" /></g><g
           transform="translate(437.3528,253.9257)"
           id="g24"><path
             id="path26"
             style="fill:#0067ff;fill-opacity:1;fill-rule:nonzero;stroke:none"
             d="M 0,0 H 150.263 V 9.631 H 0 V 52.888 H -9.717 V -37.759 C -9.71,-42.864 -5.074,-47.86 0,-47.863 h 188.602 v 10.104 H 0 Z" /></g><g
           transform="translate(847.6493,263.5569)"
           id="g28"><path
             id="path30"
             style="fill:#0067ff;fill-opacity:1;fill-rule:nonzero;stroke:none"
             d="m 0,0 h -177.728 c -5.072,-0.005 -9.774,-4.532 -9.778,-9.55 v -90.188 l 9.778,-0.081 v 42.325 H 0 c 5.09,0.011 9.626,5.024 9.629,10.104 V -9.631 C 9.619,-4.552 5.085,0 0,0 M -177.728,-9.631 H 0 V -47.39 h -177.728 z" /></g><g
           transform="translate(298.1261,263.311)"
           id="g32"><path
             id="path34"
             style="fill:#76b5e3;fill-opacity:1;fill-rule:nonzero;stroke:none"
             d="M 0,0 -2.298,-0.536 0,-1.66 Z" /></g><g
           transform="translate(147.696,268.1602)"
           id="g36"><path
             id="path38"
             style="fill:#76b5e3;fill-opacity:1;fill-rule:nonzero;stroke:none"
             d="m 0,0 v -1.903 l 2.636,0.614 z" /></g><g
           transform="translate(189.2467,334.0119)"
           id="g40"><path
             id="path42"
             style="fill:#76b5e3;fill-opacity:1;fill-rule:nonzero;stroke:none"
             d="m 0,0 v -10.837 l 14.947,3.5 z" /></g><g
           transform="translate(204.1945,326.6757)"
           id="g44"><path
             id="path46"
             style="fill:#5bbdfe;fill-opacity:1;fill-rule:nonzero;stroke:none"
             d="M 0,0 -14.947,7.337 V -3.501 Z" /></g><g
           transform="translate(218.6976,197.5002)"
           id="g48"><path
             id="path50"
             style="fill:#5bbdfe;fill-opacity:1;fill-rule:nonzero;stroke:none"
             d="M 0,0 37.883,-18.588 V 8.876 Z" /></g><g
           transform="translate(204.1945,326.6757)"
           id="g52"><path
             id="path54"
             style="fill:#5bbdfe;fill-opacity:1;fill-rule:nonzero;stroke:none"
             d="m 0,0 52.386,-25.69 v -19.023 l 39.248,-19.189 2.297,0.537 v 45.312 L 38.541,9.035 Z" /></g><g
           transform="translate(189.2467,275.9901)"
           id="g56"><path
             id="path58"
             style="fill:#5bbdfe;fill-opacity:1;fill-rule:nonzero;stroke:none"
             d="M 0,0 V 47.185 L -41.55,37.447 V -7.83 l 2.636,-1.289 z" /></g><g
           transform="translate(256.581,253.5776)"
           id="g60"><path
             id="path62"
             style="fill:#5bbdfe;fill-opacity:1;fill-rule:nonzero;stroke:none"
             d="m 0,0 v -47.2 l 41.545,9.738 V 8.073 l -2.297,1.124 z" /></g><g
           transform="translate(218.6976,197.5002)"
           id="g64"><path
             id="path66"
             style="fill:#5bbdfe;fill-opacity:1;fill-rule:nonzero;stroke:none"
             d="M 0,0 -29.45,14.449 V 50.347 L -68.365,69.37 -71.002,68.757 V 23.68 l 55.735,-27.262 z" /></g><g
           transform="translate(243.0304,288.5922)"
           id="g68"><path
             id="path70"
             style="fill:#007dc2;fill-opacity:1;fill-rule:nonzero;stroke:none"
             d="m 0,0 -53.784,-12.602 v -28.143 l 13.893,-6.797 53.442,12.528 v 28.386 z" /></g><g
           transform="translate(256.581,253.5776)"
           id="g72"><path
             id="path74"
             style="fill:#0067ff;fill-opacity:1;fill-rule:nonzero;stroke:none"
             d="M 0,0 V 28.386 L -13.551,35.014 -67.335,22.412 V -5.731 l 13.894,-6.796 z" /></g><g
           transform="translate(256.581,281.9637)"
           id="g76"><path
             id="path78"
             style="fill:#0096ff;fill-opacity:1;fill-rule:nonzero;stroke:none"
             d="M 0,0 V 19.022 L -52.386,44.713 -67.335,41.212 V -5.973 l 53.784,12.601 z" /></g><g
           transform="translate(203.1398,241.0504)"
           id="g80"><path
             id="path82"
             style="fill:#0096ff;fill-opacity:1;fill-rule:nonzero;stroke:none"
             d="m 0,0 -13.892,6.797 v -35.899 l 29.45,-14.449 37.883,8.879 v 47.199 z" /></g><g
           transform="translate(295.8279,262.7738)"
           id="g84"><path
             id="path86"
             style="fill:#0096ff;fill-opacity:1;fill-rule:nonzero;stroke:none"
             d="M 0,0 -39.248,19.191 V -9.197 Z" /></g><g
           transform="translate(150.3326,266.8707)"
           id="g88"><path
             id="path90"
             style="fill:#0096ff;fill-opacity:1;fill-rule:nonzero;stroke:none"
             d="M 0,0 38.914,-19.024 V 9.119 Z" /></g><g
           transform="translate(189.2467,373.4251)"
           id="g92"><path
             id="path94"
             style="fill:#bce4fe;fill-opacity:1;fill-rule:nonzero;stroke:none"
             d="m 0,0 v -39.414 l 14.949,-7.335 38.539,9.035 55.39,-27.089 v 11.394 z" /></g><g
           transform="translate(298.1261,216.1152)"
           id="g96"><path
             id="path98"
             style="fill:#bce4fe;fill-opacity:1;fill-rule:nonzero;stroke:none"
             d="M 0,0 -41.545,-9.738 V -37.204 L 0,-57.582 Z" /></g><g
           transform="translate(189.2467,334.0119)"
           id="g100"><path
             id="path102"
             style="fill:#bce4fe;fill-opacity:1;fill-rule:nonzero;stroke:none"
             d="M 0,0 -41.55,20.376 V -20.575 L 0,-10.837 Z" /></g><g
           transform="translate(147.6967,192.9125)"
           id="g104"><path
             id="path106"
             style="fill:#bce4fe;fill-opacity:1;fill-rule:nonzero;stroke:none"
             d="M 0,0 108.885,-53.419 V -14 L 71,4.587 55.735,1.005 0,28.267 Z" /></g><g
           transform="translate(360.7678,277.9875)"
           id="g108"><path
             id="path110"
             style="fill:#bce4fe;fill-opacity:1;fill-rule:nonzero;stroke:none"
             d="m 0,0 -62.642,30.634 v -45.31 z" /></g><g
           transform="translate(85.1035,298.7685)"
           id="g112"><path
             id="path114"
             style="fill:#bce4fe;fill-opacity:1;fill-rule:nonzero;stroke:none"
             d="M 0,0 62.593,-30.607 V 14.67 Z" /></g><g
           transform="translate(361.0712,230.8699)"
           id="g116"><path
             id="path118"
             style="fill:#bce4fe;fill-opacity:1;fill-rule:nonzero;stroke:none"
             d="M 0,0 -62.944,30.781 V -14.754 Z" /></g><g
           transform="translate(85.3991,251.6569)"
           id="g120"><path
             id="path122"
             style="fill:#bce4fe;fill-opacity:1;fill-rule:nonzero;stroke:none"
             d="M 0,0 62.297,-30.477 V 14.599 Z" /></g><g
           transform="translate(580.028,66.764)"
           id="g124"><path
             id="path126"
             style="fill:#0067ff;fill-opacity:1;fill-rule:nonzero;stroke:none"
             d="M 0,0 H 17.659 V -5.835 H -6.547 V 29.688 H 17.304 V 23.851 H 0 V 15.123 H 14.411 V 9.339 L 0,9.339 Z" /></g><g
           transform="translate(632.3994,96.4524)"
           id="g128"><path
             id="path130"
             style="fill:#0067ff;fill-opacity:1;fill-rule:nonzero;stroke:none"
             d="m 0,0 h 6.496 v -35.524 h -6.903 l -16.34,24.815 v -24.815 h -6.495 V 0 h 6.902 L 0,-24.817 Z" /></g><g
           transform="translate(668.2263,80.9232)"
           id="g132"><path
             id="path134"
             style="fill:#0067ff;fill-opacity:1;fill-rule:nonzero;stroke:none"
             d="m 0,0 h 15.936 v -19.994 h -4.973 l -0.508,4.923 c -2.385,-3.452 -6.495,-5.33 -11.52,-5.33 -9.844,0 -17.202,7.309 -17.202,18.016 0,10.859 7.661,18.319 18.065,18.319 8.171,0 14.514,-4.618 15.933,-11.518 H 8.728 C 7.511,8.018 4.11,9.997 -0.151,9.997 c -6.547,0 -11.367,-4.669 -11.367,-12.281 0,-7.56 4.769,-12.23 11.264,-12.23 5.633,0 9.795,3.553 10.251,9.034 H 0 Z" /></g><g
           transform="translate(702.7369,66.764)"
           id="g136"><path
             id="path138"
             style="fill:#0067ff;fill-opacity:1;fill-rule:nonzero;stroke:none"
             d="M 0,0 H 17.661 V -5.835 H -6.547 V 29.688 H 17.306 V 23.851 H 0 V 15.123 H 14.413 V 9.339 L 0,9.339 Z" /></g><g
           transform="translate(755.1083,96.4524)"
           id="g140"><path
             id="path142"
             style="fill:#0067ff;fill-opacity:1;fill-rule:nonzero;stroke:none"
             d="m 0,0 h 6.496 v -35.524 h -6.902 l -16.341,24.815 v -24.815 h -6.495 V 0 h 6.902 L 0,-24.817 Z" /></g><g
           transform="translate(796.8737,96.4524)"
           id="g144"><path
             id="path146"
             style="fill:#0067ff;fill-opacity:1;fill-rule:nonzero;stroke:none"
             d="M 0,0 H 6.547 V -35.524 H 0 v 15.325 H -15.832 V -35.524 H -22.38 V 0 h 6.548 V -14.211 H 0 Z" /></g><g
           transform="translate(824.6349,74.9846)"
           id="g148"><path
             id="path150"
             style="fill:#0067ff;fill-opacity:1;fill-rule:nonzero;stroke:none"
             d="M 0,0 H 11.163 L 5.581,15.428 Z M 16.239,-14.056 13.144,-5.53 H -1.979 l -3.097,-8.526 h -6.646 L 1.523,21.468 h 8.27 l 13.245,-35.524 z" /></g><g
           transform="translate(863.7118,90.6149)"
           id="g152"><path
             id="path154"
             style="fill:#0067ff;fill-opacity:1;fill-rule:nonzero;stroke:none"
             d="m 0,0 v -11.012 h 7.763 c 4.009,0 6.14,2.131 6.14,5.482 0,3.349 -2.131,5.53 -6.14,5.53 z M 13.955,-29.686 5.784,-16.848 H 0 V -29.686 H -6.547 V 5.837 H 8.068 c 7.41,0 12.432,-4.721 12.432,-11.367 0,-5.177 -3.044,-9.033 -7.967,-10.455 l 8.933,-13.701 z" /></g><path
           id="path156"
           style="fill:#0067ff;fill-opacity:1;fill-rule:nonzero;stroke:none"
           d="m 896.037,96.452 h 6.547 V 60.928 h -6.547 z" /><g
           transform="translate(923.7961,74.9846)"
           id="g158"><path
             id="path160"
             style="fill:#0067ff;fill-opacity:1;fill-rule:nonzero;stroke:none"
             d="M 0,0 H 11.163 L 5.582,15.428 Z M 16.239,-14.056 13.144,-5.53 H -1.979 l -3.097,-8.526 h -6.646 L 1.523,21.468 h 8.27 l 13.245,-35.524 z" /></g></g></g></g></svg>